<svg xmlns="http://www.w3.org/2000/svg" xmlns:xlink="http://www.w3.org/1999/xlink" width="768" zoomAndPan="magnify" viewBox="0 0 576 576" height="768" preserveAspectRatio="xMidYMid meet" version="1.0"><defs><clipPath id="48b091b145"><path d="M 78 5.039062 L 518 5.039062 L 518 367 L 78 367 Z M 78 5.039062 " clip-rule="nonzero"/></clipPath><clipPath id="9a28e576cf"><path d="M 263 336 L 576 336 L 576 571.289062 L 263 571.289062 Z M 263 336 " clip-rule="nonzero"/></clipPath></defs><path fill="#ffffff" d="M 322.148438 434.609375 C 319.453125 434.609375 317.269531 436.792969 317.269531 439.492188 C 317.269531 442.1875 319.453125 444.371094 322.148438 444.371094 L 375.8125 444.371094 C 378.511719 444.371094 380.691406 442.1875 380.691406 439.492188 C 380.691406 436.792969 378.511719 434.609375 375.8125 434.609375 L 322.148438 434.609375 " fill-opacity="1" fill-rule="nonzero"/><g clip-path="url(#48b091b145)"><path fill="#ffffff" d="M 409.964844 14.804688 L 409.964844 24.566406 L 419.71875 24.566406 L 419.71875 21.707031 L 500.636719 102.667969 L 419.71875 102.667969 L 419.71875 97.789062 L 409.964844 97.789062 L 409.964844 102.667969 L 182.691406 102.667969 L 94.878906 14.804688 Z M 83.101562 166.128906 C 85.796875 166.128906 87.980469 163.945312 87.980469 161.246094 L 87.980469 21.707031 L 175.792969 109.570312 L 175.792969 157.585938 C 175.792969 160.285156 177.976562 162.46875 180.671875 162.46875 C 183.367188 162.46875 185.550781 160.285156 185.550781 157.585938 L 185.550781 112.433594 L 507.535156 112.433594 L 507.535156 361.386719 C 507.535156 364.085938 509.714844 366.269531 512.414062 366.269531 C 515.109375 366.269531 517.292969 364.085938 517.292969 361.386719 L 517.292969 107.550781 C 517.292969 106.203125 516.742188 104.980469 515.855469 104.097656 L 418.292969 6.46875 C 417.375 5.554688 416.136719 5.039062 414.84375 5.039062 L 83.101562 5.039062 C 81.128906 5.039062 79.347656 6.230469 78.59375 8.054688 C 78.34375 8.660156 78.222656 9.292969 78.222656 9.921875 L 78.222656 161.246094 C 78.222656 163.945312 80.40625 166.128906 83.101562 166.128906 " fill-opacity="1" fill-rule="nonzero"/></g><path fill="#ffffff" d="M 442.441406 376.378906 L 449.339844 369.476562 L 438.992188 359.121094 L 432.09375 366.023438 L 442.441406 376.378906 " fill-opacity="1" fill-rule="nonzero"/><path fill="#ffffff" d="M 463.136719 397.085938 L 470.035156 390.183594 L 459.6875 379.832031 L 452.789062 386.734375 L 463.136719 397.085938 " fill-opacity="1" fill-rule="nonzero"/><path fill="#ffffff" d="M 409.964844 200.296875 L 419.71875 200.296875 L 419.71875 185.652344 L 409.964844 185.652344 L 409.964844 200.296875 " fill-opacity="1" fill-rule="nonzero"/><path fill="#ffffff" d="M 419.71875 127.078125 L 409.964844 127.078125 L 409.964844 141.722656 L 419.71875 141.722656 L 419.71875 127.078125 " fill-opacity="1" fill-rule="nonzero"/><path fill="#ffffff" d="M 409.964844 171.011719 L 419.71875 171.011719 L 419.71875 156.367188 L 409.964844 156.367188 L 409.964844 171.011719 " fill-opacity="1" fill-rule="nonzero"/><path fill="#ffffff" d="M 409.964844 229.585938 L 419.71875 229.585938 L 419.71875 214.941406 L 409.964844 214.941406 L 409.964844 229.585938 " fill-opacity="1" fill-rule="nonzero"/><path fill="#ffffff" d="M 409.964844 317.453125 L 419.71875 317.453125 L 419.71875 302.808594 L 409.964844 302.808594 L 409.964844 317.453125 " fill-opacity="1" fill-rule="nonzero"/><path fill="#ffffff" d="M 409.964844 346.742188 L 412.820312 346.742188 L 421.742188 355.667969 L 428.640625 348.765625 L 419.71875 339.839844 L 419.71875 332.097656 L 409.964844 332.097656 L 409.964844 346.742188 " fill-opacity="1" fill-rule="nonzero"/><path fill="#ffffff" d="M 409.964844 288.164062 L 419.71875 288.164062 L 419.71875 273.519531 L 409.964844 273.519531 L 409.964844 288.164062 " fill-opacity="1" fill-rule="nonzero"/><path fill="#ffffff" d="M 409.964844 258.875 L 419.71875 258.875 L 419.71875 244.230469 L 409.964844 244.230469 L 409.964844 258.875 " fill-opacity="1" fill-rule="nonzero"/><path fill="#ffffff" d="M 419.71875 39.210938 L 409.964844 39.210938 L 409.964844 53.855469 L 419.71875 53.855469 L 419.71875 39.210938 " fill-opacity="1" fill-rule="nonzero"/><path fill="#ffffff" d="M 419.71875 68.5 L 409.964844 68.5 L 409.964844 83.144531 L 419.71875 83.144531 L 419.71875 68.5 " fill-opacity="1" fill-rule="nonzero"/><path fill="#ffffff" d="M 46.695312 194.78125 C 71.980469 185.75 105.703125 180.773438 141.644531 180.773438 C 177.585938 180.773438 211.304688 185.75 236.59375 194.78125 C 259.960938 203.136719 273.363281 214.042969 273.363281 224.707031 C 273.363281 235.371094 259.960938 246.277344 236.59375 254.628906 C 212.453125 263.253906 180.628906 268.167969 146.523438 268.597656 L 146.523438 253.996094 L 136.765625 253.996094 L 136.765625 268.597656 C 102.660156 268.167969 70.832031 263.253906 46.695312 254.628906 C 23.324219 246.277344 9.921875 235.371094 9.921875 224.707031 C 9.921875 214.042969 23.324219 203.136719 46.695312 194.78125 Z M 198.570312 547.269531 C 180.695312 550.253906 161.542969 551.765625 141.644531 551.765625 C 105.699219 551.765625 71.980469 546.789062 46.695312 537.75 C 23.324219 529.398438 9.921875 518.496094 9.921875 507.832031 L 9.921875 244.917969 C 17.242188 252.078125 28.546875 258.503906 43.414062 263.820312 C 69.722656 273.226562 104.613281 278.402344 141.644531 278.402344 C 178.675781 278.402344 213.5625 273.226562 239.871094 263.820312 C 254.742188 258.503906 266.046875 252.078125 273.363281 244.917969 L 273.363281 346.742188 C 273.363281 349.441406 275.546875 351.625 278.242188 351.625 C 280.9375 351.625 283.121094 349.441406 283.121094 346.742188 L 283.121094 224.707031 C 283.121094 209.445312 267.761719 195.554688 239.871094 185.59375 C 213.5625 176.1875 178.675781 171.011719 141.644531 171.011719 C 104.613281 171.011719 69.722656 176.1875 43.414062 185.59375 C 15.527344 195.554688 0.167969 209.445312 0.167969 224.707031 L 0.167969 507.832031 C 0.167969 523.089844 15.527344 536.976562 43.410156 546.945312 C 69.722656 556.351562 104.613281 561.527344 141.644531 561.527344 C 162.082031 561.527344 181.773438 559.972656 200.175781 556.898438 C 202.835938 556.453125 204.632812 553.941406 204.1875 551.28125 C 203.746094 548.621094 201.230469 546.832031 198.570312 547.269531 " fill-opacity="1" fill-rule="nonzero"/><path fill="#ffffff" d="M 228.539062 465.078125 C 222.5625 463.363281 216.144531 461.808594 209.476562 460.46875 L 207.550781 470.042969 C 213.964844 471.328125 220.121094 472.816406 225.839844 474.464844 L 228.539062 465.078125 " fill-opacity="1" fill-rule="nonzero"/><path fill="#ffffff" d="M 190.207031 457.261719 C 183.917969 456.421875 177.394531 455.738281 170.816406 455.234375 L 170.070312 464.96875 C 176.464844 465.460938 182.804688 466.125 188.910156 466.9375 L 190.207031 457.261719 " fill-opacity="1" fill-rule="nonzero"/><path fill="#ffffff" d="M 57.4375 474.464844 C 63.164062 472.820312 69.320312 471.328125 75.726562 470.042969 L 73.804688 460.46875 C 67.136719 461.808594 60.722656 463.363281 54.742188 465.085938 L 57.4375 474.464844 " fill-opacity="1" fill-rule="nonzero"/><path fill="#ffffff" d="M 23.660156 489.011719 C 28.105469 486.023438 33.539062 483.179688 39.808594 480.566406 L 36.058594 471.554688 C 29.199219 474.410156 23.195312 477.558594 18.214844 480.90625 L 23.660156 489.011719 " fill-opacity="1" fill-rule="nonzero"/><path fill="#ffffff" d="M 94.367188 466.945312 C 100.476562 466.125 106.8125 465.460938 113.210938 464.96875 L 112.464844 455.234375 C 105.882812 455.742188 99.363281 456.429688 93.074219 457.265625 L 94.367188 466.945312 " fill-opacity="1" fill-rule="nonzero"/><path fill="#ffffff" d="M 146.523438 224.707031 L 136.765625 224.707031 L 136.765625 239.351562 L 146.523438 239.351562 L 146.523438 224.707031 " fill-opacity="1" fill-rule="nonzero"/><path fill="#ffffff" d="M 166.035156 512.710938 L 166.035156 502.949219 L 151.402344 502.949219 L 151.402344 512.710938 L 166.035156 512.710938 " fill-opacity="1" fill-rule="nonzero"/><path fill="#ffffff" d="M 136.765625 385.792969 L 146.523438 385.792969 L 146.523438 371.148438 L 136.765625 371.148438 L 136.765625 385.792969 " fill-opacity="1" fill-rule="nonzero"/><path fill="#ffffff" d="M 136.765625 415.082031 L 146.523438 415.082031 L 146.523438 400.4375 L 136.765625 400.4375 L 136.765625 415.082031 " fill-opacity="1" fill-rule="nonzero"/><path fill="#ffffff" d="M 136.765625 444.371094 L 146.523438 444.371094 L 146.523438 429.726562 L 136.765625 429.726562 L 136.765625 444.371094 " fill-opacity="1" fill-rule="nonzero"/><path fill="#ffffff" d="M 224.578125 502.949219 L 209.945312 502.949219 L 209.945312 512.710938 L 224.578125 512.710938 L 224.578125 502.949219 " fill-opacity="1" fill-rule="nonzero"/><path fill="#ffffff" d="M 136.765625 356.503906 L 146.523438 356.503906 L 146.523438 341.859375 L 136.765625 341.859375 L 136.765625 356.503906 " fill-opacity="1" fill-rule="nonzero"/><path fill="#ffffff" d="M 146.523438 283.285156 L 136.765625 283.285156 L 136.765625 297.929688 L 146.523438 297.929688 L 146.523438 283.285156 " fill-opacity="1" fill-rule="nonzero"/><path fill="#ffffff" d="M 136.765625 502.949219 L 146.523438 502.949219 L 146.523438 488.304688 L 136.765625 488.304688 L 136.765625 502.949219 " fill-opacity="1" fill-rule="nonzero"/><path fill="#ffffff" d="M 146.523438 463.960938 C 148.054688 463.980469 149.59375 463.980469 151.125 464.015625 L 151.367188 454.253906 C 144.914062 454.097656 138.371094 454.097656 131.910156 454.253906 L 132.148438 464.015625 C 133.683594 463.980469 135.226562 463.980469 136.765625 463.960938 L 136.765625 473.660156 L 146.523438 473.660156 L 146.523438 463.960938 " fill-opacity="1" fill-rule="nonzero"/><path fill="#ffffff" d="M 136.765625 327.214844 L 146.523438 327.214844 L 146.523438 312.574219 L 136.765625 312.574219 L 136.765625 327.214844 " fill-opacity="1" fill-rule="nonzero"/><path fill="#ffffff" d="M 195.308594 502.949219 L 180.671875 502.949219 L 180.671875 512.710938 L 195.308594 512.710938 L 195.308594 502.949219 " fill-opacity="1" fill-rule="nonzero"/><path fill="#ffffff" d="M 349.183594 239.351562 C 351.875 239.351562 354.058594 241.539062 354.058594 244.230469 C 354.058594 246.925781 351.875 249.113281 349.183594 249.113281 C 346.488281 249.113281 344.304688 246.925781 344.304688 244.230469 C 344.304688 241.539062 346.488281 239.351562 349.183594 239.351562 Z M 349.183594 258.875 C 357.253906 258.875 363.816406 252.308594 363.816406 244.230469 C 363.816406 236.15625 357.253906 229.585938 349.183594 229.585938 C 341.109375 229.585938 334.546875 236.15625 334.546875 244.230469 C 334.546875 252.308594 341.109375 258.875 349.183594 258.875 " fill-opacity="1" fill-rule="nonzero"/><path fill="#ffffff" d="M 268.390625 505.773438 C 263.949219 509.28125 258.636719 511.46875 253.03125 512.113281 C 251.738281 512.257812 250.566406 512.90625 249.761719 513.921875 L 230.089844 538.726562 L 327.589844 270.683594 C 328.320312 271.28125 329.078125 271.847656 329.851562 272.382812 L 343.984375 311.234375 L 278.132812 492.289062 C 276.207031 497.589844 272.839844 502.253906 268.390625 505.773438 Z M 349.183594 219.824219 C 362.632812 219.824219 373.574219 230.773438 373.574219 244.230469 C 373.574219 257.6875 362.632812 268.640625 349.183594 268.640625 C 344.960938 268.640625 340.988281 267.558594 337.523438 265.664062 C 336.828125 264.769531 335.867188 264.144531 334.785156 263.890625 C 328.738281 259.449219 324.789062 252.296875 324.789062 244.230469 C 324.789062 230.773438 335.734375 219.824219 349.183594 219.824219 Z M 339.421875 190.535156 C 342.113281 190.535156 344.296875 188.351562 344.296875 185.652344 L 344.296875 166.128906 C 344.296875 163.433594 346.484375 161.246094 349.175781 161.246094 C 350.476562 161.246094 351.707031 161.757812 352.617188 162.65625 C 353.546875 163.597656 354.054688 164.828125 354.054688 166.128906 L 354.054688 185.652344 C 354.054688 188.351562 356.238281 190.535156 358.933594 190.535156 L 358.933594 211.492188 C 355.84375 210.5625 352.570312 210.0625 349.183594 210.0625 C 345.789062 210.0625 342.511719 210.566406 339.421875 211.492188 Z M 287.304688 495.621094 L 349.175781 325.503906 L 393.988281 448.6875 C 394.707031 450.667969 396.582031 451.902344 398.570312 451.902344 C 399.125 451.902344 399.691406 451.808594 400.238281 451.609375 C 402.773438 450.683594 404.078125 447.886719 403.160156 445.347656 L 342.160156 277.671875 C 344.425781 278.148438 346.777344 278.402344 349.183594 278.402344 C 357.363281 278.402344 364.875 275.507812 370.761719 270.6875 L 427.066406 425.457031 C 427.785156 427.433594 429.660156 428.667969 431.648438 428.667969 C 432.203125 428.667969 432.769531 428.574219 433.316406 428.375 C 435.851562 427.449219 437.15625 424.652344 436.234375 422.113281 L 378.113281 262.351562 C 381.417969 257.09375 383.332031 250.886719 383.332031 244.230469 C 383.332031 232.644531 377.535156 222.394531 368.691406 216.210938 L 368.691406 185.652344 C 368.691406 182.957031 366.503906 180.773438 363.8125 180.773438 L 363.8125 166.128906 C 363.8125 162.234375 362.296875 158.558594 359.519531 155.753906 C 356.742188 153 353.070312 151.484375 349.175781 151.484375 C 341.105469 151.484375 334.542969 158.054688 334.542969 166.128906 L 334.542969 180.773438 C 331.84375 180.773438 329.664062 182.957031 329.664062 185.652344 L 329.664062 216.21875 C 320.824219 222.398438 315.03125 232.648438 315.03125 244.230469 C 315.03125 250.882812 316.945312 257.089844 320.242188 262.34375 L 210.640625 563.652344 C 209.820312 565.902344 210.753906 568.414062 212.84375 569.582031 C 213.59375 570.003906 214.414062 570.203125 215.222656 570.203125 C 216.671875 570.203125 218.09375 569.558594 219.046875 568.359375 L 256.195312 521.523438 C 262.84375 520.410156 269.113281 517.636719 274.4375 513.433594 C 280.3125 508.785156 284.761719 502.628906 287.304688 495.621094 " fill-opacity="1" fill-rule="nonzero"/><path fill="#ffffff" d="M 527.046875 429.160156 L 527.046875 522.476562 L 401.355469 522.476562 Z M 381.960938 528.886719 C 382.617188 530.890625 384.484375 532.238281 386.589844 532.238281 L 531.925781 532.238281 C 534.625 532.238281 536.804688 530.054688 536.804688 527.355469 L 536.804688 419.464844 C 536.804688 417.613281 535.765625 415.933594 534.117188 415.101562 C 532.476562 414.273438 530.503906 414.445312 529.019531 415.539062 L 383.683594 523.4375 C 381.992188 524.691406 381.296875 526.890625 381.960938 528.886719 " fill-opacity="1" fill-rule="nonzero"/><g clip-path="url(#9a28e576cf)"><path fill="#ffffff" d="M 566.078125 561.527344 L 283.25 561.527344 L 566.078125 351.5625 Z M 573.148438 337.5 C 571.503906 336.667969 569.53125 336.839844 568.050781 337.941406 L 265.578125 562.488281 C 263.886719 563.742188 263.191406 565.941406 263.855469 567.9375 C 264.511719 569.941406 266.378906 571.289062 268.484375 571.289062 L 570.953125 571.289062 C 573.652344 571.289062 575.832031 569.105469 575.832031 566.410156 L 575.832031 341.859375 C 575.832031 340.015625 574.796875 338.328125 573.148438 337.5 " fill-opacity="1" fill-rule="nonzero"/></g></svg>