<svg xmlns="http://www.w3.org/2000/svg" xmlns:xlink="http://www.w3.org/1999/xlink" width="768" zoomAndPan="magnify" viewBox="0 0 576 576" height="768" preserveAspectRatio="xMidYMid meet" version="1.0"><defs><clipPath id="8f8e8a221f"><path d="M 1.046875 294 L 36 294 L 36 303 L 1.046875 303 Z M 1.046875 294 " clip-rule="nonzero"/></clipPath><clipPath id="349c83cb69"><path d="M 540 291 L 574.796875 291 L 574.796875 307 L 540 307 Z M 540 291 " clip-rule="nonzero"/></clipPath><clipPath id="f78ffd9eb8"><path d="M 568 299 L 574.796875 299 L 574.796875 314 L 568 314 Z M 568 299 " clip-rule="nonzero"/></clipPath></defs><path fill="#010202" d="M 427.808594 250.367188 C 421.109375 246.792969 418.207031 240.539062 413.519531 235.847656 C 411.507812 233.839844 410.167969 230.042969 407.492188 230.9375 C 405.480469 231.605469 404.585938 235.402344 403.917969 238.304688 C 403.472656 240.316406 402.355469 242.101562 401.683594 243.890625 C 400.792969 247.015625 398.335938 246.125 396.101562 246.125 C 393.199219 246.125 392.753906 244.335938 392.53125 242.101562 C 392.082031 236.296875 394.988281 231.382812 396.101562 226.023438 C 397.21875 221.332031 399.003906 216.867188 400.34375 212.398438 C 401.460938 208.378906 403.695312 208.15625 406.375 211.058594 C 409.054688 213.960938 411.507812 216.867188 413.964844 219.769531 C 415.082031 220.886719 415.75 222.894531 417.761719 222.003906 C 419.546875 221.332031 418.878906 219.546875 418.878906 218.207031 C 419.324219 207.484375 419.996094 196.542969 420.441406 185.820312 C 420.441406 184.257812 419.769531 182.246094 422.003906 181.578125 C 423.789062 181.128906 424.238281 182.917969 425.128906 184.035156 C 436.742188 194.976562 447.011719 207.039062 455.496094 220.214844 C 465.992188 236.296875 473.804688 253.492188 473.804688 273.148438 C 473.804688 310 438.972656 333.671875 405.257812 322.730469 C 395.878906 319.601562 388.511719 312.902344 382.484375 305.085938 C 370.871094 290.121094 365.738281 272.925781 364.398438 254.386719 C 364.171875 252.601562 364.171875 250.589844 365.289062 249.027344 C 366.851562 247.238281 367.96875 244.335938 370.871094 245.453125 C 373.328125 246.347656 375.335938 248.132812 375.335938 251.261719 C 375.113281 257.960938 375.785156 264.660156 377.792969 271.136719 C 382.257812 286.546875 389.40625 300.171875 403.023438 309.105469 C 420.664062 320.496094 445 312.679688 455.941406 296.375 C 465.992188 281.636719 464.203125 266.222656 458.621094 250.589844 C 453.261719 236.296875 444.777344 223.789062 435.402344 211.730469 C 434.285156 210.164062 433.167969 207.039062 430.488281 208.15625 C 428.03125 209.046875 429.148438 212.175781 429.148438 214.183594 C 429.371094 226.023438 429.59375 237.636719 427.808594 250.367188 Z M 427.808594 250.367188 " fill-opacity="1" fill-rule="nonzero"/><path fill="#010202" d="M 227.972656 366.503906 C 253.203125 343.054688 277.09375 318.261719 301.429688 293.695312 C 308.574219 287.886719 315.050781 280.964844 323.757812 277.167969 C 331.796875 273.816406 339.613281 275.605469 345.195312 282.082031 C 352.5625 290.792969 355.910156 301.734375 360.15625 312.007812 C 364.84375 322.953125 367.074219 334.789062 372.433594 345.511719 C 374.222656 349.085938 371.765625 351.539062 369.085938 352.882812 C 365.738281 354.667969 363.28125 352.433594 362.164062 349.753906 C 359.261719 342.605469 356.582031 335.011719 354.125 327.644531 C 349.882812 314.914062 345.417969 302.183594 338.273438 290.570312 C 335.371094 286.101562 330.679688 284.984375 325.546875 288.335938 C 313.265625 296.597656 302.546875 306.871094 292.945312 318.039062 C 277.09375 333.671875 261.015625 349.085938 245.386719 364.941406 C 240.25 370.078125 234.445312 374.546875 230.203125 380.574219 C 221.71875 387.722656 213.234375 395.09375 204.75 402.238281 C 190.460938 414.746094 176.167969 427.253906 161.65625 439.539062 C 159.421875 441.324219 156.519531 444.003906 152.949219 441.324219 C 149.375 438.644531 149.820312 435.070312 154.734375 430.828125 C 166.792969 420.554688 178.847656 410.503906 190.90625 400.230469 C 203.410156 389.734375 215.914062 378.34375 227.972656 366.503906 Z M 227.972656 366.503906 " fill-opacity="1" fill-rule="nonzero"/><path fill="#010202" d="M 103.378906 79.0625 C 104.046875 88.21875 106.28125 94.921875 108.515625 101.621094 C 109.40625 104.523438 110.746094 107.425781 108.738281 110.109375 C 106.726562 112.566406 104.046875 111.449219 101.144531 111.222656 C 93.332031 110.332031 86.410156 105.640625 77.476562 106.757812 C 82.167969 111.449219 86.855469 115.914062 91.320312 120.605469 C 92.882812 122.167969 95.789062 123.507812 92.660156 126.410156 C 90.652344 128.199219 89.980469 129.09375 87.527344 126.636719 C 81.945312 120.605469 75.691406 115.019531 69.664062 109.214844 C 67.875 107.425781 65.867188 105.417969 67.429688 102.960938 C 68.992188 100.503906 71.003906 98.71875 74.574219 99.164062 C 81.050781 99.835938 87.078125 102.066406 93.332031 103.632812 C 94.222656 103.855469 95.117188 104.746094 96.234375 104.746094 C 98.464844 104.746094 100.921875 106.980469 102.484375 105.195312 C 104.273438 103.40625 102.039062 101.175781 101.59375 98.941406 C 100.03125 92.015625 98.464844 85.09375 96.011719 78.394531 C 94.449219 74.371094 97.796875 71.917969 100.476562 69.90625 C 103.601562 67.449219 104.71875 71.023438 106.28125 72.363281 C 111.640625 77.277344 116.777344 82.414062 122.132812 87.550781 C 124.144531 89.558594 126.824219 91.792969 124.144531 94.695312 C 121.242188 97.824219 119.230469 94.921875 117.222656 92.6875 C 113.203125 88.445312 108.960938 84.421875 103.378906 79.0625 Z M 103.378906 79.0625 " fill-opacity="1" fill-rule="nonzero"/><path fill="#010202" d="M 41.53125 410.058594 C 46.441406 406.484375 52.246094 405.367188 57.828125 403.355469 C 59.617188 402.6875 61.847656 400.007812 63.410156 403.578125 C 64.75 406.929688 62.519531 408.492188 59.839844 409.609375 C 52.917969 412.289062 45.996094 415.195312 39.074219 417.648438 C 37.0625 418.320312 34.609375 422.339844 32.375 418.320312 C 30.589844 414.96875 28.578125 411.398438 32.375 407.375 C 37.511719 401.792969 41.753906 395.539062 46.21875 389.734375 C 48.898438 386.160156 48.003906 384.820312 43.761719 384.59375 C 36.171875 383.925781 28.355469 382.585938 20.765625 382.140625 C 15.851562 381.914062 15.628906 377.894531 14.511719 374.992188 C 13.171875 371.417969 16.523438 371.195312 18.976562 370.078125 C 26.347656 367.175781 33.492188 364.046875 40.636719 360.921875 C 42.644531 360.027344 44.65625 359.132812 46.21875 362.039062 C 48.003906 365.386719 45.324219 365.835938 43.539062 366.726562 C 38.851562 368.960938 34.382812 370.972656 29.695312 372.980469 C 28.578125 373.652344 26.792969 374.097656 27.238281 375.886719 C 27.6875 377.671875 29.25 377.449219 30.8125 377.671875 C 37.0625 378.34375 43.316406 378.789062 49.566406 379.90625 C 56.488281 381.023438 57.605469 384.59375 53.140625 389.957031 C 48.675781 395.539062 44.207031 400.898438 39.742188 406.484375 C 37.734375 407.375 36.839844 408.941406 38.402344 410.726562 C 39.519531 412.511719 40.859375 411.621094 41.53125 410.058594 Z M 41.53125 410.058594 " fill-opacity="1" fill-rule="nonzero"/><path fill="#010202" d="M 295.625 31.9375 C 295.625 26.132812 295.402344 20.546875 295.179688 14.742188 C 295.179688 13.402344 295.847656 11.613281 293.839844 11.167969 C 292.277344 10.945312 291.605469 12.285156 290.9375 13.625 C 288.035156 19.652344 285.132812 25.683594 281.78125 31.492188 C 278.878906 36.851562 275.082031 37.074219 271.734375 31.9375 C 268.160156 26.578125 264.8125 20.996094 261.464844 15.632812 C 260.792969 14.515625 260.125 12.730469 258.558594 12.953125 C 256.328125 13.402344 256.996094 15.410156 256.996094 16.972656 C 256.996094 22.109375 257.222656 27.246094 257.445312 32.160156 C 257.445312 34.171875 257.445312 35.957031 254.765625 36.179688 C 252.085938 36.40625 251.191406 34.839844 250.96875 32.382812 C 250.523438 24.34375 250.074219 16.082031 249.628906 8.039062 C 249.628906 5.808594 248.066406 2.679688 251.863281 2.234375 C 255.210938 1.785156 258.785156 0.671875 261.015625 4.691406 C 264.8125 11.167969 268.832031 17.421875 272.851562 23.675781 C 275.53125 28.140625 277.09375 27.917969 279.324219 23.449219 C 282.675781 17.199219 286.472656 11.167969 288.925781 4.691406 C 290.9375 -0.671875 294.957031 -0.671875 298.75 0.222656 C 302.769531 1.117188 300.316406 4.914062 300.761719 7.371094 C 300.539062 16.082031 299.867188 24.566406 301.878906 33.054688 C 300.089844 33.5 297.859375 33.054688 295.625 31.9375 Z M 295.625 31.9375 " fill-opacity="1" fill-rule="nonzero"/><path fill="#010202" d="M 491.222656 439.316406 C 492.785156 439.089844 493.675781 440.207031 494.792969 441.101562 C 501.492188 446.683594 507.96875 452.492188 514.667969 458.074219 C 516.007812 459.191406 516.898438 460.753906 516.007812 462.320312 C 514.667969 464.550781 512.878906 466.339844 509.753906 466.339844 C 500.152344 466.785156 490.550781 467.457031 481.171875 468.125 C 479.386719 468.347656 477.15625 467.457031 476.261719 469.6875 C 475.367188 471.921875 477.824219 472.371094 479.164062 473.484375 C 483.183594 476.835938 486.980469 480.410156 490.773438 484.207031 C 492.5625 485.992188 494.125 487.332031 491.445312 490.011719 C 488.765625 492.691406 487.648438 490.683594 486.085938 489.34375 C 480.058594 483.984375 473.582031 478.847656 467.777344 473.261719 C 466.4375 471.921875 462.863281 471.253906 464.425781 468.347656 C 465.765625 466.117188 467.105469 463.433594 470.679688 463.210938 C 478.496094 462.988281 486.085938 462.542969 493.902344 462.09375 C 497.472656 461.871094 502.832031 463.210938 503.949219 460.308594 C 505.066406 457.183594 499.707031 455.394531 497.472656 452.714844 C 494.792969 449.589844 490.773438 448.472656 488.542969 444.898438 C 486.308594 441.769531 487.871094 440.207031 491.222656 439.316406 Z M 491.222656 439.316406 " fill-opacity="1" fill-rule="nonzero"/><path fill="#010202" d="M 543.46875 343.277344 C 542.800781 343.054688 541.90625 343.054688 541.238281 342.832031 C 539.675781 340.597656 535.878906 340.597656 536.324219 336.800781 C 537.21875 334.566406 538.558594 335.011719 540.121094 336.128906 C 540.789062 337.695312 542.128906 337.46875 543.46875 337.246094 C 551.507812 337.246094 558.652344 341.265625 566.246094 343.277344 C 570.265625 344.394531 568.476562 348.191406 566.914062 350.871094 C 565.128906 353.550781 562.003906 354.445312 559.546875 356.007812 C 552.625 359.804688 545.703125 363.378906 538.78125 367.175781 C 537.664062 367.84375 536.324219 368.515625 536.324219 369.632812 C 536.324219 371.195312 538.109375 370.972656 539.226562 371.417969 C 544.585938 372.980469 550.167969 374.546875 555.527344 376.109375 C 558.207031 376.777344 560.214844 378.117188 559.546875 381.023438 C 558.875 384.371094 556.421875 383.03125 554.1875 382.808594 C 545.703125 381.914062 537.886719 377.671875 529.625 376.109375 C 525.605469 375.214844 524.714844 372.757812 526.945312 369.410156 C 528.0625 367.621094 529.179688 366.28125 531.1875 365.164062 C 536.996094 362.261719 542.800781 358.6875 548.605469 355.5625 C 551.953125 355.5625 554.410156 354.222656 556.644531 351.988281 C 557.535156 350.871094 560.214844 351.09375 559.324219 348.636719 C 558.652344 346.851562 556.867188 346.628906 555.304688 346.851562 C 553.070312 346.179688 550.613281 346.628906 548.605469 345.289062 C 547.488281 342.832031 545.480469 342.832031 543.46875 343.277344 Z M 543.46875 343.277344 " fill-opacity="1" fill-rule="nonzero"/><path fill="#010202" d="M 222.835938 534.234375 C 237.125 537.363281 245.609375 547.1875 240.027344 559.917969 C 238.019531 564.386719 234.445312 567.289062 230.203125 568.183594 C 218.371094 570.191406 206.535156 569.523438 197.382812 560.367188 C 193.136719 556.121094 191.800781 550.09375 193.585938 544.507812 C 195.59375 538.703125 199.613281 534.457031 206.3125 533.789062 C 207.652344 534.234375 208.769531 534.011719 209.4375 532.449219 C 212.117188 531.777344 215.019531 531.777344 217.699219 532.226562 C 217.253906 534.457031 215.46875 534.011719 214.128906 534.011719 C 212.117188 534.011719 210.554688 534.234375 210.777344 536.914062 C 200.507812 540.933594 194.476562 551.65625 206.535156 561.035156 C 212.339844 565.726562 223.953125 566.621094 229.308594 562.597656 C 239.582031 555.230469 236.679688 544.0625 223.058594 537.808594 C 222.835938 536.46875 222.835938 535.351562 222.835938 534.234375 Z M 222.835938 534.234375 " fill-opacity="1" fill-rule="nonzero"/><path fill="#010202" d="M 333.359375 569.523438 C 334.699219 561.707031 336.039062 553.890625 337.378906 546.070312 C 337.824219 543.390625 338.273438 540.933594 338.71875 538.253906 C 339.164062 533.789062 344.972656 530.886719 348.320312 533.566406 C 356.804688 540.265625 365.289062 547.414062 373.550781 554.558594 C 374.667969 555.453125 376.453125 556.121094 375.113281 557.6875 C 373.996094 559.027344 372.433594 560.367188 370.425781 559.472656 C 369.753906 559.25 369.085938 558.800781 368.191406 558.355469 C 365.289062 556.570312 363.949219 551.878906 359.929688 553.21875 C 353.902344 555.003906 348.097656 557.238281 342.515625 559.917969 C 340.503906 560.8125 340.28125 563.714844 340.28125 565.949219 C 340.058594 568.183594 340.28125 570.417969 337.824219 571.757812 C 336.710938 572.203125 336.039062 573.320312 334.476562 572.875 C 333.136719 571.980469 333.359375 570.640625 333.359375 569.523438 Z M 345.417969 538.480469 C 344.300781 542.722656 342.738281 546.742188 342.738281 551.210938 C 342.738281 553.21875 343.183594 555.898438 345.417969 554.335938 C 348.320312 552.324219 351.667969 552.550781 354.347656 550.539062 C 356.804688 548.753906 356.804688 547.636719 354.796875 546.070312 C 351.667969 543.617188 348.765625 541.160156 345.417969 538.480469 Z M 345.417969 538.480469 " fill-opacity="1" fill-rule="nonzero"/><path fill="#010202" d="M 276.871094 557.460938 C 277.761719 558.578125 278.433594 559.917969 279.324219 561.035156 C 279.101562 562.375 279.101562 563.492188 280.890625 563.714844 C 281.558594 564.832031 282.230469 565.949219 282.898438 567.289062 C 282.898438 568.183594 283.121094 568.851562 283.792969 569.300781 C 284.683594 569.523438 285.355469 569.078125 285.355469 568.183594 C 289.375 561.035156 293.617188 554.113281 297.410156 546.742188 C 299.644531 542.5 302.546875 541.382812 306.789062 541.828125 C 311.253906 542.273438 310.363281 546.070312 310.808594 548.753906 C 311.925781 555.898438 310.808594 563.492188 312.816406 570.640625 C 313.488281 572.648438 314.15625 575.328125 310.585938 575.554688 C 307.460938 576 305.226562 574.882812 305.226562 571.308594 C 305.226562 565.726562 305.003906 560.367188 303.886719 554.78125 C 303.664062 553.441406 304.109375 551.433594 302.324219 550.984375 C 300.089844 550.539062 299.867188 552.773438 299.199219 554.113281 C 295.847656 559.695312 292.945312 565.726562 289.597656 571.308594 C 286.246094 577.117188 281.78125 576.894531 278.433594 571.085938 C 276.199219 567.066406 273.96875 563.046875 271.734375 559.027344 C 271.734375 558.132812 271.734375 557.238281 271.734375 556.347656 C 272.179688 555.898438 272.628906 555.453125 273.074219 555.230469 C 274.859375 556.121094 275.753906 556.792969 276.871094 557.460938 Z M 276.871094 557.460938 " fill-opacity="1" fill-rule="nonzero"/><path fill="#010202" d="M 60.0625 150.53125 C 63.1875 150.53125 66.089844 150.53125 69.214844 150.53125 C 71.003906 150.53125 73.234375 149.863281 73.457031 152.542969 C 73.683594 154.554688 71.894531 155.667969 70.332031 156.5625 C 69.886719 156.785156 69.214844 156.785156 68.546875 157.007812 C 65.421875 157.679688 61.402344 155.445312 59.390625 158.796875 C 56.042969 164.378906 53.140625 169.964844 50.683594 175.992188 C 49.566406 178.898438 52.917969 181.355469 54.480469 184.035156 C 56.042969 186.9375 56.042969 189.171875 53.585938 190.957031 C 50.015625 193.191406 50.238281 189.394531 49.34375 187.832031 C 43.984375 179.34375 38.625 170.855469 33.492188 162.148438 C 31.257812 158.574219 33.492188 153.882812 37.511719 153.660156 C 44.878906 152.988281 52.246094 149.417969 60.0625 150.53125 Z M 45.996094 157.234375 C 43.761719 157.902344 40.414062 155.667969 38.625 158.574219 C 37.285156 160.582031 39.964844 161.699219 40.859375 163.039062 C 42.867188 165.71875 43.761719 170.855469 47.113281 170.410156 C 50.683594 169.738281 50.90625 164.378906 52.917969 161.253906 C 55.148438 157.679688 53.140625 157.007812 50.015625 157.234375 C 48.898438 157.234375 47.558594 157.234375 45.996094 157.234375 Z M 45.996094 157.234375 " fill-opacity="1" fill-rule="nonzero"/><path fill="#010202" d="M 25.675781 270.914062 C 24.78125 274.265625 26.792969 276.273438 29.472656 277.613281 C 31.480469 278.730469 33.492188 279.625 34.832031 281.636719 C 35.949219 283.421875 36.171875 285.65625 34.609375 287.21875 C 33.042969 288.78125 31.703125 286.996094 30.363281 286.101562 C 22.105469 280.292969 14.066406 274.265625 6.027344 268.234375 C 0.890625 264.214844 1.5625 258.628906 7.367188 255.726562 C 15.851562 251.484375 24.335938 247.464844 33.042969 243.441406 C 34.609375 242.773438 36.839844 241.210938 37.957031 243.667969 C 38.851562 245.675781 39.074219 248.582031 36.171875 249.25 C 26.570312 251.261719 26.792969 258.855469 26.792969 266 C 23.445312 267.117188 23.890625 268.902344 25.675781 270.914062 Z M 22.328125 266 C 23.667969 264.882812 25.898438 264.214844 23.21875 262.203125 C 23.21875 255.726562 22.328125 254.832031 17.191406 257.515625 C 14.289062 258.855469 9.601562 259.300781 9.375 262.425781 C 9.152344 265.777344 14.289062 266.449219 16.746094 268.679688 C 21.210938 272.699219 21.878906 269.796875 22.328125 266 Z M 22.328125 266 " fill-opacity="1" fill-rule="nonzero"/><path fill="#010202" d="M 465.097656 506.988281 C 465.097656 514.582031 459.960938 517.484375 454.601562 515.25 C 445.449219 511.453125 436.292969 507.878906 427.140625 504.308594 C 425.351562 503.636719 423.566406 502.96875 423.789062 500.734375 C 424.011719 498.277344 426.246094 498.277344 428.03125 498.054688 C 429.148438 498.054688 430.710938 497.832031 431.605469 498.5 C 438.527344 504.082031 442.992188 498.5 447.90625 494.925781 C 449.46875 493.808594 450.808594 491.800781 452.59375 490.90625 C 456.613281 488.894531 456.835938 485.769531 455.71875 482.195312 C 455.273438 480.855469 454.828125 479.292969 455.050781 477.953125 C 455.273438 475.71875 456.835938 473.710938 458.621094 473.484375 C 461.078125 473.261719 460.410156 475.941406 460.855469 477.730469 C 463.085938 488.226562 461.75 498.722656 465.097656 506.988281 Z M 456.167969 493.808594 C 452.148438 496.9375 448.796875 499.394531 445.449219 502.074219 C 443.664062 503.636719 444.332031 505.199219 446.117188 505.648438 C 450.359375 506.539062 453.933594 509.667969 458.398438 509.890625 C 459.738281 504.53125 456.390625 500.0625 456.167969 493.808594 Z M 456.167969 493.808594 " fill-opacity="1" fill-rule="nonzero"/><path fill="#010202" d="M 135.085938 85.316406 C 134.636719 87.773438 133.074219 87.773438 131.066406 87.105469 C 130.84375 85.09375 131.960938 82.636719 129.726562 80.851562 C 127.941406 71.023438 128.832031 60.972656 128.832031 51.144531 C 128.832031 47.347656 133.074219 44.667969 136.203125 46.007812 C 147.589844 50.921875 158.53125 56.503906 169.917969 62.089844 C 166.34375 67.226562 163.21875 67.894531 158.976562 64.324219 C 155.402344 61.195312 151.832031 61.867188 148.707031 64.769531 C 145.132812 68.121094 140.890625 69.90625 136.648438 72.363281 C 132.183594 76.160156 135.753906 81.074219 135.085938 85.316406 Z M 136.203125 51.816406 C 133.296875 53.15625 134.636719 55.390625 134.863281 56.953125 C 135.308594 60.300781 133.296875 65.4375 136.203125 66.332031 C 139.996094 67.671875 142.898438 62.757812 146.25 60.75 C 147.140625 60.078125 148.257812 59.410156 147.367188 58.515625 C 144.460938 55.390625 139.996094 54.273438 136.203125 51.816406 Z M 136.203125 51.816406 " fill-opacity="1" fill-rule="nonzero"/><path fill="#010202" d="M 430.710938 80.179688 C 427.140625 78.167969 423.121094 76.828125 421.109375 72.808594 C 421.332031 71.246094 420.886719 70.351562 419.101562 70.128906 C 418.429688 69.011719 417.984375 67.894531 417.316406 66.78125 C 417.539062 65.4375 417.089844 64.324219 415.75 63.875 C 415.082031 61.195312 415.082031 58.292969 415.75 55.613281 C 417.089844 55.164062 417.539062 54.273438 417.316406 52.933594 C 417.316406 52.484375 417.539062 52.261719 417.984375 52.039062 C 420.664062 50.699219 422.671875 48.910156 423.566406 46.230469 C 430.042969 41.542969 436.515625 43.328125 442.769531 46.457031 C 442.992188 47.796875 443.886719 48.6875 445.449219 48.242188 C 451.03125 49.804688 454.15625 54.273438 457.503906 58.292969 C 457.503906 59.632812 457.953125 60.300781 459.292969 60.527344 C 459.515625 62.089844 459.960938 63.652344 460.183594 64.992188 C 460.183594 66.109375 459.960938 67.449219 459.960938 68.566406 C 458.398438 70.128906 457.058594 69.90625 456.167969 67.671875 C 456.390625 66.332031 456.167969 65.214844 454.601562 64.769531 C 454.601562 63.875 454.378906 63.207031 454.378906 62.3125 C 455.050781 59.855469 454.378906 58.292969 451.921875 57.398438 C 450.582031 56.058594 449.246094 54.71875 447.90625 53.601562 C 447.679688 51.816406 446.789062 51.144531 445.226562 51.59375 C 442.546875 52.039062 441.207031 49.359375 438.75 48.910156 C 431.605469 47.796875 426.691406 50.027344 422.671875 57.398438 C 420.886719 57.84375 420.664062 59.1875 421.332031 60.527344 C 421.332031 61.417969 421.332031 62.089844 421.332031 62.984375 C 420.664062 64.546875 420.664062 65.664062 422.449219 66.332031 C 424.683594 72.140625 429.820312 75.265625 434.953125 77.945312 C 438.304688 79.734375 442.546875 79.957031 445.894531 77.5 C 449.246094 75.042969 451.476562 76.605469 452.816406 79.285156 C 454.15625 82.414062 450.585938 83.082031 449.246094 83.53125 C 443.664062 85.761719 438.304688 84.871094 433.390625 81.296875 C 433.390625 80.179688 432.273438 79.734375 430.710938 80.179688 Z M 430.710938 80.179688 " fill-opacity="1" fill-rule="nonzero"/><path fill="#010202" d="M 476.261719 84.871094 C 478.71875 83.753906 481.398438 84.199219 484.078125 83.753906 C 485.863281 83.753906 487.648438 83.753906 489.210938 83.753906 C 489.660156 84.199219 490.105469 84.648438 490.773438 85.09375 C 490.773438 86.433594 491.222656 87.105469 492.5625 87.328125 C 492.339844 96.039062 488.988281 103.855469 486.980469 112.117188 C 486.308594 114.796875 485.417969 117.476562 484.523438 120.160156 C 482.960938 121.050781 482.511719 123.507812 480.503906 123.507812 C 480.28125 123.285156 480.058594 122.839844 479.835938 122.613281 C 479.835938 120.382812 479.609375 118.148438 479.609375 115.914062 C 479.835938 114.796875 480.058594 113.679688 480.28125 112.566406 C 482.066406 110.554688 481.84375 108.769531 479.609375 107.425781 C 479.164062 107.425781 478.941406 106.980469 478.941406 106.757812 C 478.941406 105.640625 478.269531 104.972656 476.929688 104.972656 C 476.484375 104.972656 476.484375 104.746094 476.261719 104.523438 C 476.261719 103.40625 475.589844 102.738281 474.476562 102.738281 C 472.914062 102.289062 472.019531 100.949219 471.347656 99.609375 C 471.347656 98.492188 470.679688 97.824219 469.5625 97.824219 C 469.117188 97.824219 468.894531 97.601562 468.894531 97.152344 C 468.894531 96.039062 468.222656 95.367188 467.105469 95.367188 C 465.097656 94.472656 463.085938 94.921875 461.078125 94.921875 C 458.175781 94.921875 455.273438 95.144531 452.371094 95.144531 C 452.148438 95.144531 451.921875 95.144531 451.699219 94.695312 C 451.253906 90.230469 456.390625 92.464844 457.503906 89.785156 C 458.621094 89.558594 459.738281 89.335938 460.855469 88.890625 C 463.535156 89.558594 465.542969 89.113281 467.332031 86.878906 C 468.445312 86.65625 469.5625 86.433594 470.679688 86.433594 C 473.136719 87.550781 475.144531 86.878906 476.261719 84.871094 Z M 484.078125 88.667969 C 480.726562 91.125 474.921875 89.558594 472.464844 94.472656 C 472.019531 95.589844 480.949219 104.078125 481.621094 103.40625 C 485.417969 100.28125 484.96875 95.144531 486.757812 90.898438 C 487.648438 89.335938 486.085938 88.445312 484.078125 88.667969 Z M 484.078125 88.667969 " fill-opacity="1" fill-rule="nonzero"/><path fill="#010202" d="M 346.757812 39.308594 C 346.757812 38.191406 346.535156 37.074219 346.535156 35.734375 C 346.980469 33.949219 346.980469 32.160156 344.523438 31.714844 C 344.523438 31.714844 344.300781 31.492188 344.300781 31.492188 C 342.738281 27.246094 339.390625 28.140625 336.039062 28.8125 C 333.808594 28.585938 331.574219 28.363281 329.339844 28.140625 C 329.339844 27.023438 329.566406 26.132812 329.566406 25.015625 C 333.808594 24.34375 338.050781 26.355469 341.84375 24.566406 C 341.175781 20.769531 338.71875 18.089844 338.273438 14.292969 C 338.050781 11.167969 335.816406 9.828125 333.582031 13.175781 C 331.574219 16.527344 328 18.984375 326.886719 23.003906 C 326.886719 24.34375 326.660156 25.683594 326.660156 27.246094 C 323.757812 26.578125 321.75 27.695312 319.964844 30.152344 C 318.625 31.9375 317.285156 33.726562 315.496094 35.066406 C 313.710938 36.628906 311.480469 36.628906 309.914062 35.289062 C 308.351562 33.949219 309.914062 32.160156 310.808594 31.042969 C 317.507812 23.003906 324.207031 15.1875 331.128906 7.371094 C 333.359375 4.914062 335.816406 4.46875 338.71875 5.808594 C 338.941406 7.371094 340.058594 7.816406 341.398438 7.59375 C 343.183594 11.167969 344.746094 14.742188 346.535156 18.3125 C 346.757812 18.984375 346.980469 19.429688 346.980469 20.101562 C 346.980469 20.996094 346.980469 21.664062 347.203125 22.558594 C 346.085938 25.015625 347.203125 26.578125 349.4375 27.472656 C 349.660156 28.585938 349.882812 29.703125 350.105469 30.820312 C 349.660156 32.382812 350.328125 33.277344 351.667969 33.726562 C 351.667969 36.628906 355.910156 38.414062 354.347656 41.988281 C 352.339844 42.433594 350.105469 40.425781 348.097656 41.765625 C 347.652344 41.765625 347.425781 41.542969 347.203125 41.320312 C 347.203125 40.648438 346.980469 39.976562 346.757812 39.308594 Z M 346.757812 39.308594 " fill-opacity="1" fill-rule="nonzero"/><path fill="#010202" d="M 539.003906 149.640625 C 533.644531 159.464844 528.285156 169.292969 522.703125 178.898438 C 522.035156 180.015625 521.589844 184.480469 518.238281 181.578125 C 516.230469 179.789062 514.441406 178.003906 516.898438 174.878906 C 520.023438 171.082031 522.703125 167.058594 519.355469 161.921875 C 520.25 161.476562 521.140625 161.03125 522.035156 160.582031 C 524.042969 161.699219 525.605469 161.253906 526.945312 159.019531 C 528.511719 156.339844 530.296875 153.660156 532.082031 150.980469 C 532.976562 150.980469 533.644531 150.53125 533.644531 149.640625 C 533.644531 148.523438 532.753906 148.074219 531.636719 148.300781 C 527.839844 148.300781 524.042969 148.300781 520.25 148.074219 C 517.34375 148.074219 516.675781 149.417969 517.34375 151.871094 C 516.230469 152.320312 515.335938 152.988281 514.21875 153.4375 C 513.773438 152.765625 513.550781 151.871094 513.101562 151.203125 C 513.328125 147.183594 510.199219 147.183594 507.746094 146.960938 C 504.394531 146.960938 501.269531 146.511719 498.144531 145.84375 C 497.695312 144.949219 497.472656 144.054688 498.367188 143.164062 C 504.171875 143.164062 509.976562 144.054688 515.78125 142.492188 C 521.140625 142.492188 526.277344 142.492188 531.636719 142.492188 C 533.867188 142.492188 536.324219 142.046875 536.996094 145.171875 C 536.101562 147.628906 537.21875 148.746094 539.003906 149.640625 Z M 539.003906 149.640625 " fill-opacity="1" fill-rule="nonzero"/><path fill="#010202" d="M 219.261719 28.585938 C 218.144531 28.8125 217.253906 28.8125 216.136719 29.035156 C 214.128906 28.585938 212.117188 27.917969 211.894531 31.042969 C 212.117188 33.277344 212.117188 35.511719 212.339844 37.746094 C 211.894531 39.53125 212.117188 40.648438 214.351562 40.871094 C 216.359375 40.871094 218.59375 40.871094 220.601562 40.871094 C 221.496094 42.210938 224.398438 41.320312 224.175781 44 C 222.613281 44.222656 221.050781 44.222656 219.484375 44.445312 C 216.582031 42.660156 214.574219 43.105469 213.234375 46.230469 C 210.332031 47.796875 208.769531 46.457031 207.652344 43.773438 C 204.527344 35.511719 202.964844 26.800781 200.953125 18.089844 C 200.285156 15.410156 202.070312 13.847656 204.527344 13.175781 C 213.234375 10.496094 222.390625 8.265625 231.320312 5.808594 C 232.660156 5.582031 233.777344 5.136719 234.222656 6.921875 C 234.667969 8.710938 234 10.273438 231.988281 10.496094 C 224.175781 11.167969 216.804688 14.292969 209.214844 16.082031 C 205.640625 17.421875 206.089844 19.207031 208.546875 21.21875 C 209.660156 22.78125 208.769531 25.683594 211.894531 25.90625 C 213.679688 28.585938 215.691406 27.023438 217.699219 26.355469 C 219.933594 25.460938 219.710938 27.023438 219.261719 28.585938 Z M 219.261719 28.585938 " fill-opacity="1" fill-rule="nonzero"/><path fill="#010202" d="M 378.242188 29.703125 C 376.453125 35.734375 374.667969 41.765625 372.882812 47.570312 C 372.210938 49.804688 370.203125 49.359375 368.863281 48.6875 C 366.628906 47.796875 365.738281 46.230469 366.40625 43.773438 C 368.640625 36.628906 370.425781 29.257812 373.328125 22.335938 C 374.667969 19.207031 373.550781 18.984375 371.320312 17.644531 C 368.414062 15.632812 364.621094 16.082031 361.941406 13.625 C 361.046875 12.730469 358.816406 12.953125 359.484375 10.945312 C 360.15625 8.933594 362.386719 9.378906 363.726562 9.828125 C 366.628906 10.71875 369.308594 12.058594 371.988281 13.175781 C 373.105469 15.1875 374.667969 16.082031 377.125 14.964844 C 377.792969 15.1875 378.6875 15.410156 379.355469 15.410156 C 379.804688 16.75 380.695312 17.421875 382.257812 16.972656 C 386.277344 16.527344 389.40625 18.984375 392.976562 20.101562 C 393.199219 21.441406 392.976562 22.78125 391.636719 23.449219 C 390.074219 23.449219 388.511719 23.449219 387.171875 22.335938 C 386.726562 20.769531 385.832031 20.324219 384.269531 20.769531 C 380.25 20.769531 381.144531 24.566406 380.027344 26.578125 C 378.464844 27.472656 378.015625 28.140625 378.242188 29.703125 Z M 378.242188 29.703125 " fill-opacity="1" fill-rule="nonzero"/><path fill="#010202" d="M 543.917969 406.707031 C 544.808594 404.695312 545.703125 402.910156 546.820312 400.898438 C 548.382812 400.675781 548.828125 399.558594 548.605469 398.21875 C 548.605469 397.550781 548.828125 396.65625 548.828125 395.984375 C 550.390625 395.984375 551.953125 396.210938 552.179688 398.441406 C 551.953125 398.890625 551.953125 399.113281 551.730469 399.558594 C 549.273438 399.78125 549.5 401.570312 549.722656 403.355469 C 549.5 404.25 549.5 404.917969 549.273438 405.8125 C 547.488281 405.8125 547.042969 406.929688 547.265625 408.492188 C 547.042969 409.164062 546.597656 410.058594 546.371094 410.726562 C 545.03125 411.171875 544.585938 412.066406 544.808594 413.40625 C 544.585938 414.078125 544.140625 414.96875 543.917969 415.640625 C 542.351562 416.308594 540.566406 416.980469 541.90625 419.4375 C 540.34375 422.789062 538.78125 426.359375 536.769531 429.710938 C 536.324219 430.605469 535.433594 432.613281 533.644531 431.273438 C 532.304688 430.378906 532.304688 428.816406 532.753906 427.476562 C 532.976562 427.03125 533.199219 426.808594 533.421875 426.585938 C 539.449219 415.417969 539.449219 415.417969 527.839844 409.832031 C 524.265625 408.046875 520.472656 406.707031 516.898438 404.472656 C 515.335938 403.355469 511.765625 402.464844 513.996094 399.113281 C 515.78125 396.210938 518.015625 396.210938 520.695312 398.21875 C 521.589844 398.890625 522.929688 399.335938 523.820312 400.007812 C 524.042969 401.121094 524.9375 401.792969 526.054688 401.570312 C 527.394531 402.015625 528.957031 402.238281 529.851562 403.578125 C 531.1875 406.035156 533.867188 405.8125 536.101562 406.484375 C 537.441406 406.929688 538.558594 407.375 539.898438 407.601562 C 540.34375 408.714844 541.015625 409.832031 542.351562 409.832031 C 543.691406 408.941406 543.917969 407.824219 543.917969 406.707031 Z M 543.917969 406.707031 " fill-opacity="1" fill-rule="nonzero"/><path fill="#010202" d="M 47.78125 440.65625 C 45.101562 440.878906 44.878906 438.867188 43.761719 437.75 C 41.976562 435.742188 43.984375 434.402344 44.878906 433.730469 C 52.917969 428.59375 60.953125 423.902344 69.214844 419.214844 C 71.226562 418.097656 73.234375 418.320312 74.128906 421 C 74.574219 422.5625 75.023438 423.902344 73.234375 425.019531 C 65.421875 429.933594 57.605469 434.847656 49.566406 439.984375 C 48.898438 440.207031 48.003906 440.429688 47.78125 440.65625 Z M 47.78125 440.65625 " fill-opacity="1" fill-rule="nonzero"/><path fill="#010202" d="M 528.957031 442.21875 C 527.394531 443.558594 526.5 447.132812 523.152344 445.121094 C 515.335938 440.207031 507.519531 435.070312 499.707031 429.933594 C 497.695312 428.59375 497.027344 426.582031 498.8125 424.796875 C 499.929688 423.679688 500.824219 421.445312 503.726562 423.457031 C 511.316406 429.039062 519.132812 433.953125 526.945312 439.089844 C 527.617188 439.984375 528.957031 440.207031 528.957031 442.21875 Z M 528.957031 442.21875 " fill-opacity="1" fill-rule="nonzero"/><path fill="#010202" d="M 398.78125 60.75 C 396.328125 59.632812 393.648438 58.960938 395.210938 55.164062 C 398.558594 46.902344 403.472656 39.53125 406.597656 31.042969 C 407.042969 29.703125 408.160156 26.578125 411.0625 28.363281 C 413.296875 29.703125 415.082031 31.492188 413.742188 34.394531 C 409.722656 42.433594 405.480469 50.476562 401.460938 58.515625 C 400.792969 59.632812 400.34375 60.972656 398.78125 60.75 Z M 398.78125 60.75 " fill-opacity="1" fill-rule="nonzero"/><path fill="#010202" d="M 537.664062 217.980469 C 541.238281 215.75 543.917969 213.070312 542.128906 208.378906 C 541.683594 207.261719 541.238281 205.25 543.246094 204.804688 C 544.808594 204.582031 545.480469 205.699219 546.148438 207.261719 C 547.933594 211.058594 551.0625 213.738281 555.082031 211.730469 C 559.097656 209.941406 558.429688 206.367188 556.867188 202.792969 C 555.972656 200.785156 555.972656 198.328125 555.75 196.316406 C 556.644531 195.425781 557.535156 194.53125 558.429688 193.636719 C 560.214844 199.222656 562.449219 204.582031 562.226562 210.613281 C 561.777344 218.207031 557.3125 221.332031 550.390625 218.207031 C 548.382812 217.3125 547.265625 216.640625 545.257812 219.320312 C 543.246094 222.226562 539.449219 223.789062 536.324219 226.023438 C 532.753906 225.574219 533.421875 222.671875 532.976562 220.4375 C 532.976562 220.4375 533.199219 220.4375 533.199219 220.4375 C 535.65625 220.886719 536.996094 219.992188 537.664062 217.980469 Z M 537.664062 217.980469 " fill-opacity="1" fill-rule="nonzero"/><g clip-path="url(#8f8e8a221f)"><path fill="#010202" d="M 18.308594 302.628906 C 13.84375 302.628906 9.375 302.628906 4.910156 302.628906 C 2.902344 302.628906 1.339844 302.183594 1.339844 299.503906 C 1.339844 297.046875 2.230469 296.375 4.6875 296.152344 C 13.84375 295.707031 22.996094 295.035156 32.152344 294.367188 C 34.609375 294.140625 35.5 295.257812 35.722656 297.269531 C 35.949219 299.726562 35.949219 301.957031 32.597656 301.957031 C 27.910156 301.957031 23.21875 301.957031 18.53125 301.957031 C 18.308594 302.40625 18.308594 302.40625 18.308594 302.628906 Z M 18.308594 302.628906 " fill-opacity="1" fill-rule="nonzero"/></g><path fill="#010202" d="M 107.84375 509.667969 C 99.136719 506.765625 89.3125 494.035156 90.203125 484.207031 C 90.652344 480.410156 92.660156 478.175781 94.449219 475.273438 C 95.5625 475.050781 95.789062 474.378906 95.789062 473.484375 C 96.457031 473.261719 97.125 473.039062 97.796875 472.816406 C 102.261719 472.816406 106.503906 469.6875 111.195312 472.59375 C 110.300781 475.050781 106.953125 473.261719 106.503906 475.941406 C 94.894531 478.621094 93.777344 491.800781 100.03125 498.277344 C 102.484375 500.734375 105.164062 503.414062 107.84375 505.871094 C 107.84375 507.210938 107.84375 508.328125 107.84375 509.667969 Z M 107.84375 509.667969 " fill-opacity="1" fill-rule="nonzero"/><path fill="#010202" d="M 45.546875 215.078125 C 45.324219 216.640625 45.324219 217.980469 45.101562 219.546875 C 44.207031 219.992188 43.539062 220.4375 42.644531 220.664062 C 42.644531 219.769531 42.644531 218.652344 41.53125 218.207031 C 41.082031 211.503906 44.207031 204.136719 37.734375 198.550781 C 36.394531 195.425781 33.714844 195.203125 30.8125 195.648438 C 29.695312 195.648438 28.578125 195.648438 27.460938 195.648438 C 25.898438 194.976562 24.78125 195.425781 24.113281 197.210938 C 21.878906 198.328125 20.316406 200.113281 19.199219 202.347656 C 17.636719 202.347656 16.523438 201.453125 15.851562 200.339844 C 19.648438 190.0625 32.152344 184.480469 42.421875 194.53125 C 47.113281 200.785156 44.433594 208.15625 45.546875 215.078125 Z M 45.546875 215.078125 " fill-opacity="1" fill-rule="nonzero"/><path fill="#010202" d="M 71.003906 470.582031 C 73.011719 468.125 75.46875 465.890625 78.371094 464.328125 C 79.710938 464.328125 80.605469 463.882812 80.828125 462.542969 C 81.496094 461.871094 82.390625 461.203125 83.058594 460.53125 C 84.621094 460.753906 85.515625 459.863281 85.738281 458.296875 C 87.300781 456.957031 89.089844 455.84375 90.652344 454.5 C 93.554688 453.832031 92.660156 450.703125 94.222656 449.140625 C 95.5625 452.046875 102.261719 453.386719 96.679688 458.074219 C 93.777344 458.074219 92.214844 459.863281 91.542969 462.320312 C 89.3125 464.105469 86.855469 466.117188 84.621094 467.902344 C 82.390625 467.679688 81.050781 468.796875 80.605469 471.027344 C 77.925781 472.816406 76.808594 477.058594 72.121094 475.496094 C 71.671875 474.15625 70.78125 472.59375 71.003906 470.582031 Z M 71.003906 470.582031 " fill-opacity="1" fill-rule="nonzero"/><path fill="#010202" d="M 269.949219 554.78125 C 269.726562 554.113281 269.5 553.441406 269.277344 552.773438 C 269.5 550.539062 268.386719 549.199219 266.375 548.976562 C 264.589844 548.976562 263.917969 550.539062 263.917969 551.878906 C 263.917969 558.132812 260.792969 564.386719 263.25 570.863281 C 263.25 573.097656 264.367188 576 260.125 575.777344 C 256.105469 575.777344 256.996094 572.875 256.996094 570.640625 C 256.996094 567.511719 257.445312 564.164062 257.667969 561.035156 C 259.453125 560.589844 259.453125 559.25 259.453125 557.6875 C 259.898438 552.550781 260.125 547.414062 260.570312 542.273438 C 266.375 540.265625 270.394531 542.050781 271.957031 548.304688 C 272.628906 550.761719 273.074219 552.996094 273.742188 555.453125 C 273.296875 555.898438 272.851562 556.347656 272.402344 556.570312 C 271.511719 556.121094 270.839844 555.453125 269.949219 554.78125 Z M 269.949219 554.78125 " fill-opacity="1" fill-rule="nonzero"/><path fill="#010202" d="M 36.839844 343.054688 C 40.859375 342.605469 44.207031 342.605469 41.976562 348.191406 C 37.957031 347.96875 33.9375 347.742188 30.589844 350.648438 C 29.25 350.871094 27.910156 351.09375 26.347656 351.09375 C 23.21875 349.976562 20.316406 350.425781 18.085938 353.105469 C 8.929688 354.667969 8.929688 354.667969 8.261719 347.96875 C 9.375 347.296875 10.714844 346.628906 11.832031 345.734375 C 12.949219 346.851562 14.511719 346.402344 15.851562 346.628906 C 17.191406 348.191406 18.085938 347.742188 18.53125 345.957031 C 21.433594 345.0625 24.78125 344.617188 23.667969 340.152344 C 24.335938 338.808594 24.558594 336.800781 27.015625 337.023438 C 28.132812 339.035156 27.6875 341.265625 27.910156 343.277344 C 31.257812 347.96875 33.9375 344.394531 36.839844 343.054688 Z M 36.839844 343.054688 " fill-opacity="1" fill-rule="nonzero"/><path fill="#010202" d="M 543.691406 266 C 544.140625 266.671875 544.363281 267.5625 544.808594 268.011719 C 546.597656 270.46875 549.273438 273.371094 551.953125 272.699219 C 555.527344 271.808594 552.847656 267.789062 553.515625 265.332031 C 554.1875 262.425781 551.285156 256.84375 554.855469 256.84375 C 559.324219 256.84375 556.421875 262.425781 557.3125 265.332031 C 557.984375 267.789062 557.761719 270.691406 558.652344 273.148438 C 560.214844 278.285156 558.207031 279.847656 553.515625 279.625 C 551.285156 279.402344 549.050781 279.625 546.820312 280.070312 C 542.578125 280.742188 538.335938 281.632812 543.023438 275.15625 C 544.808594 272.699219 539.898438 271.136719 540.566406 268.234375 C 541.238281 266.671875 542.351562 266 543.691406 266 Z M 543.691406 266 " fill-opacity="1" fill-rule="nonzero"/><path fill="#010202" d="M 15.40625 228.480469 C 14.289062 228.480469 13.394531 228.257812 12.277344 228.257812 C 11.609375 227.363281 10.714844 226.914062 9.601562 227.363281 L 9.824219 227.140625 C 9.824219 227.140625 9.375 227.363281 9.375 227.363281 C 9.601562 225.574219 10.046875 223.789062 8.707031 222.226562 C 8.929688 221.109375 8.929688 219.769531 9.152344 218.652344 C 10.492188 219.097656 11.832031 219.320312 13.171875 219.769531 C 14.734375 222.003906 17.191406 222.449219 19.425781 222.894531 C 19.871094 224.460938 20.988281 224.90625 22.550781 224.460938 C 24.558594 224.90625 26.347656 225.351562 28.355469 225.800781 C 29.027344 229.597656 31.703125 228.257812 33.9375 227.585938 C 38.851562 228.925781 39.519531 225.574219 40.191406 222.226562 C 41.082031 221.777344 41.976562 221.554688 42.867188 221.109375 C 42.867188 222.449219 43.09375 223.789062 43.09375 225.128906 C 42.867188 226.691406 42.644531 228.03125 42.644531 229.597656 C 39.519531 230.710938 40.191406 233.617188 39.296875 236.074219 C 38.851562 236.074219 38.402344 236.074219 37.957031 236.296875 C 37.0625 234.507812 35.949219 233.167969 33.492188 234.0625 C 32.375 233.839844 31.480469 233.839844 30.363281 233.617188 C 26.121094 229.371094 20.765625 229.148438 15.40625 228.480469 Z M 15.40625 228.480469 " fill-opacity="1" fill-rule="nonzero"/><path fill="#010202" d="M 175.5 47.796875 C 174.605469 46.007812 173.714844 44.222656 173.042969 42.660156 C 173.9375 40.203125 173.265625 38.636719 170.585938 38.191406 C 170.363281 37.074219 170.140625 35.957031 169.917969 35.066406 C 170.363281 31.492188 167.683594 31.269531 165.226562 31.042969 C 165.226562 27.695312 169.917969 29.035156 170.140625 26.132812 C 170.808594 25.90625 171.257812 25.683594 171.925781 25.683594 C 176.390625 25.460938 172.597656 30.375 175.5 31.269531 C 176.617188 33.949219 179.296875 36.179688 178.847656 39.53125 C 178.402344 41.09375 179.070312 41.988281 180.632812 42.210938 C 180.859375 43.328125 181.304688 44.222656 181.527344 45.339844 C 181.527344 48.019531 182.421875 50.476562 185.101562 51.816406 C 187.78125 56.730469 185.324219 58.292969 180.859375 58.738281 C 181.527344 56.28125 180.1875 55.164062 178.179688 54.273438 C 177.957031 53.601562 177.957031 52.707031 177.730469 52.039062 C 179.296875 49.136719 177.285156 48.464844 175.5 47.796875 Z M 175.5 47.796875 " fill-opacity="1" fill-rule="nonzero"/><g clip-path="url(#349c83cb69)"><path fill="#010202" d="M 540.789062 293.695312 C 543.023438 289.226562 546.597656 291.910156 549.722656 291.683594 C 555.972656 293.917969 562.226562 294.8125 568.699219 293.695312 C 574.507812 292.578125 574.953125 295.707031 574.058594 300.171875 C 572.050781 300.84375 570.265625 298.386719 568.253906 299.949219 C 567.359375 299.726562 566.691406 299.726562 565.796875 299.503906 C 564.011719 297.269531 562.226562 297.046875 560.4375 299.503906 C 560.4375 299.726562 560.214844 299.949219 559.769531 299.949219 C 556.867188 301.289062 559.324219 304.640625 557.535156 306.425781 C 556.421875 297.046875 551.953125 294.140625 544.585938 298.386719 C 544.585938 298.386719 544.363281 298.832031 544.363281 298.832031 C 539.898438 299.503906 542.128906 295.257812 540.789062 293.695312 Z M 540.789062 293.695312 " fill-opacity="1" fill-rule="nonzero"/></g><path fill="#010202" d="M 129.726562 487.109375 C 130.84375 485.769531 131.734375 486.441406 132.628906 487.554688 C 136.425781 492.691406 136.871094 498.722656 134.414062 503.636719 C 131.960938 508.328125 127.714844 513.242188 120.792969 512.570312 C 117.667969 512.125 114.320312 513.015625 111.195312 511.453125 C 112.308594 509.21875 114.320312 509.445312 116.328125 509.445312 C 119.007812 509.445312 121.464844 509.445312 122.804688 506.539062 C 129.503906 502.742188 129.726562 496.714844 129.054688 490.238281 C 129.054688 489.121094 129.503906 488.003906 129.726562 487.109375 Z M 129.726562 487.109375 " fill-opacity="1" fill-rule="nonzero"/><path fill="#010202" d="M 540.789062 293.695312 C 542.128906 295.480469 539.898438 299.503906 544.363281 298.832031 C 543.691406 307.097656 543.023438 315.359375 542.128906 323.625 C 541.90625 325.1875 542.128906 327.195312 539.898438 327.421875 C 538.109375 327.421875 537.664062 325.632812 537.886719 324.292969 C 538.335938 313.796875 537.664062 303.523438 540.789062 293.695312 Z M 540.789062 293.695312 " fill-opacity="1" fill-rule="nonzero"/><path fill="#010202" d="M 4.242188 328.3125 C 4.242188 327.195312 4.242188 326.078125 4.242188 324.964844 C 6.472656 324.292969 6.25 322.507812 5.804688 320.941406 C 7.144531 315.804688 10.492188 313.574219 15.628906 314.914062 C 15.851562 316.253906 16.746094 316.476562 17.863281 316.476562 C 19.199219 318.261719 20.765625 320.050781 22.105469 322.058594 C 21.65625 323.625 21.878906 324.964844 23.890625 325.1875 C 25.230469 327.195312 25.007812 329.429688 25.007812 331.664062 C 24.113281 333.226562 25.007812 336.128906 21.878906 336.128906 C 21.65625 334.566406 21.878906 332.78125 21.210938 331.441406 C 19.425781 327.867188 19.199219 322.507812 13.394531 322.953125 C 6.921875 323.398438 10.492188 328.761719 9.375 331.886719 C 9.375 332.109375 9.375 332.332031 9.375 332.558594 C 6.921875 332.109375 7.367188 327.644531 4.242188 328.3125 Z M 4.242188 328.3125 " fill-opacity="1" fill-rule="nonzero"/><path fill="#010202" d="M 544.585938 298.386719 C 551.953125 294.140625 556.421875 296.820312 557.535156 306.425781 C 559.324219 304.640625 556.867188 301.289062 559.769531 299.949219 C 559.992188 307.320312 559.097656 314.464844 557.761719 321.835938 C 557.535156 323.398438 557.984375 325.410156 555.527344 325.410156 C 552.625 325.1875 553.292969 322.953125 553.515625 321.167969 C 553.742188 316.253906 553.515625 311.339844 554.632812 306.648438 C 555.972656 300.617188 553.515625 298.832031 548.382812 298.609375 C 547.042969 298.609375 545.925781 298.386719 544.585938 298.386719 Z M 544.585938 298.386719 " fill-opacity="1" fill-rule="nonzero"/><path fill="#010202" d="M 94.449219 449.363281 C 92.882812 450.929688 93.777344 454.054688 90.875 454.726562 C 91.542969 448.695312 85.738281 446.460938 83.285156 442.21875 C 81.71875 439.3125 79.039062 436.859375 77.03125 433.953125 C 76.136719 432.835938 74.351562 431.273438 76.363281 429.933594 C 77.925781 428.816406 79.488281 429.710938 80.605469 431.050781 C 85.515625 437.082031 90.875 442.664062 94.449219 449.363281 Z M 94.449219 449.363281 " fill-opacity="1" fill-rule="nonzero"/><path fill="#010202" d="M 533.644531 191.851562 C 532.976562 192.074219 532.082031 192.074219 531.414062 192.296875 C 528.511719 190.511719 527.394531 192.296875 526.5 194.53125 C 525.832031 194.53125 524.9375 194.53125 524.265625 194.53125 C 523.375 191.628906 524.265625 189.171875 525.605469 186.492188 C 526.722656 186.265625 528.0625 186.265625 529.179688 186.042969 C 531.1875 187.609375 532.753906 186.042969 534.761719 185.820312 C 541.683594 184.480469 547.042969 178.898438 554.632812 180.015625 C 554.855469 181.128906 555.082031 182.472656 555.082031 183.585938 C 553.742188 184.703125 553.742188 186.265625 553.515625 187.832031 C 552.847656 187.382812 551.953125 187.160156 551.285156 186.714844 C 550.167969 184.703125 549.273438 184.925781 548.605469 186.9375 C 547.488281 187.160156 546.148438 187.160156 545.03125 187.382812 C 542.578125 185.820312 541.460938 186.492188 542.128906 189.394531 C 542.128906 191.40625 542.351562 193.636719 542.351562 195.648438 C 539.226562 195.648438 539.675781 192.746094 538.558594 190.957031 C 536.546875 188.5 534.761719 187.609375 533.644531 191.851562 Z M 533.644531 191.851562 " fill-opacity="1" fill-rule="nonzero"/><path fill="#010202" d="M 567.585938 238.753906 C 570.039062 243.441406 573.390625 248.132812 572.71875 253.941406 C 571.378906 257.515625 571.378906 261.3125 572.71875 264.882812 C 573.613281 269.351562 570.488281 272.253906 568.03125 275.382812 C 567.359375 276.496094 566.246094 277.390625 564.90625 276.722656 C 563.566406 276.050781 563.566406 274.710938 563.789062 273.59375 C 564.011719 272.476562 564.234375 271.136719 564.90625 270.246094 C 572.273438 260.640625 569.371094 251.484375 563.789062 242.328125 C 563.789062 241.65625 563.566406 240.761719 563.566406 240.09375 C 564.011719 239.644531 564.457031 239.199219 565.128906 238.753906 C 566.019531 238.53125 566.691406 238.53125 567.585938 238.753906 Z M 567.585938 238.753906 " fill-opacity="1" fill-rule="nonzero"/><path fill="#010202" d="M 543.691406 266 C 542.351562 266 541.238281 266.894531 540.34375 268.011719 C 534.316406 259.078125 536.546875 240.316406 544.585938 235.179688 C 544.808594 236.964844 542.578125 238.304688 543.46875 240.316406 C 543.023438 240.539062 542.351562 240.761719 542.128906 241.210938 C 541.90625 242.101562 542.578125 242.550781 543.46875 242.773438 C 543.691406 242.996094 543.917969 243.21875 544.363281 243.441406 C 540.789062 250.8125 541.683594 258.40625 543.691406 266 Z M 543.691406 266 " fill-opacity="1" fill-rule="nonzero"/><path fill="#010202" d="M 219.261719 28.585938 C 219.933594 27.023438 219.933594 25.683594 217.699219 26.355469 C 215.691406 27.023438 213.679688 28.585938 211.894531 25.90625 C 218.816406 24.121094 225.738281 22.109375 232.660156 20.324219 C 234.222656 19.878906 236.679688 18.984375 237.347656 21.441406 C 238.019531 23.675781 236.007812 25.015625 234.445312 25.460938 C 229.308594 26.578125 224.175781 27.472656 219.261719 28.585938 Z M 219.261719 28.585938 " fill-opacity="1" fill-rule="nonzero"/><path fill="#010202" d="M 106.503906 475.941406 C 106.726562 473.261719 110.300781 474.824219 111.195312 472.59375 C 106.503906 469.6875 102.261719 472.816406 97.796875 472.816406 C 102.933594 468.796875 113.203125 468.796875 119.679688 473.933594 C 123.027344 476.613281 127.941406 478.175781 129.054688 483.3125 C 128.164062 484.207031 127.492188 485.101562 126.601562 485.992188 C 121.019531 480.410156 115.210938 475.050781 106.503906 475.941406 Z M 106.503906 475.941406 " fill-opacity="1" fill-rule="nonzero"/><path fill="#010202" d="M 176.390625 526.863281 C 176.390625 528.875 175.5 530.4375 174.160156 529.769531 C 169.46875 527.089844 163.886719 526.195312 159.871094 522.398438 C 159.421875 521.949219 158.976562 520.835938 159.199219 520.386719 C 159.644531 519.71875 160.984375 518.601562 161.433594 518.824219 C 166.34375 520.835938 171.257812 523.292969 175.945312 525.523438 C 176.167969 525.523438 176.167969 526.417969 176.390625 526.863281 Z M 176.390625 526.863281 " fill-opacity="1" fill-rule="nonzero"/><path fill="#010202" d="M 223.953125 43.773438 C 224.175781 41.09375 221.273438 41.988281 220.378906 40.648438 C 226.183594 37.523438 232.660156 36.851562 238.6875 35.066406 C 240.25 34.617188 242.039062 34.617188 242.484375 36.851562 C 242.929688 38.863281 241.144531 38.863281 239.804688 39.53125 C 234.890625 41.765625 229.308594 42.433594 223.953125 43.773438 Z M 223.953125 43.773438 " fill-opacity="1" fill-rule="nonzero"/><path fill="#010202" d="M 175.5 31.042969 C 172.820312 30.152344 176.390625 25.238281 171.925781 25.460938 C 175.722656 22.335938 180.859375 21.664062 184.652344 18.984375 C 186.441406 17.867188 188.003906 16.75 188.894531 19.207031 C 189.566406 20.996094 188.894531 23.003906 186.886719 23.449219 C 184.207031 23.898438 182.644531 26.355469 179.742188 26.578125 C 177.730469 26.800781 176.167969 28.8125 175.5 31.042969 Z M 175.5 31.042969 " fill-opacity="1" fill-rule="nonzero"/><path fill="#010202" d="M 408.828125 524.40625 C 407.9375 525.523438 407.9375 526.863281 406.597656 527.535156 C 403.023438 529.097656 399.675781 530.886719 396.328125 532.449219 C 394.761719 533.117188 392.753906 533.117188 391.859375 531.554688 C 390.742188 529.320312 393.199219 528.652344 394.316406 528.203125 C 398.113281 526.640625 401.460938 524.183594 405.480469 523.066406 C 407.492188 522.621094 408.160156 523.066406 408.828125 524.40625 Z M 408.828125 524.40625 " fill-opacity="1" fill-rule="nonzero"/><path fill="#010202" d="M 13.171875 219.546875 C 11.832031 219.097656 10.492188 218.875 9.152344 218.429688 C 10.941406 212.175781 11.832031 205.476562 16.074219 200.339844 C 16.96875 201.453125 18.085938 202.347656 19.425781 202.347656 C 17.414062 207.933594 15.183594 213.738281 13.171875 219.546875 Z M 13.171875 219.546875 " fill-opacity="1" fill-rule="nonzero"/><path fill="#010202" d="M 4.242188 328.3125 C 7.367188 327.867188 6.695312 332.109375 9.375 332.109375 C 10.269531 336.800781 10.941406 341.265625 11.832031 345.957031 C 10.714844 346.628906 9.375 347.296875 8.261719 348.191406 C 4.910156 341.9375 6.25 334.789062 4.242188 328.3125 Z M 4.242188 328.3125 " fill-opacity="1" fill-rule="nonzero"/><path fill="#010202" d="M 554.1875 180.460938 C 546.820312 179.34375 541.238281 184.925781 534.316406 186.265625 C 532.304688 186.714844 530.742188 188.054688 528.734375 186.492188 C 535.207031 182.695312 542.578125 181.578125 549.273438 178.675781 C 550.839844 178.226562 553.742188 177.109375 554.1875 180.460938 Z M 554.1875 180.460938 " fill-opacity="1" fill-rule="nonzero"/><path fill="#010202" d="M 543.691406 240.316406 C 542.800781 238.304688 545.03125 236.964844 544.808594 235.179688 C 545.925781 234.0625 546.820312 232.722656 548.605469 232.945312 C 554.1875 234.0625 559.546875 234.957031 565.128906 236.074219 C 565.128906 236.074219 565.574219 236.296875 565.574219 236.296875 C 565.574219 236.964844 565.574219 237.859375 565.574219 238.53125 C 565.128906 238.976562 564.683594 239.421875 564.011719 239.871094 C 562.671875 239.421875 561.554688 237.414062 559.769531 239.199219 C 559.097656 238.976562 558.207031 238.976562 557.535156 238.753906 C 553.515625 236.074219 550.390625 236.519531 547.710938 240.539062 C 547.710938 240.761719 547.488281 240.988281 547.042969 240.988281 C 545.703125 240.761719 544.808594 240.539062 543.691406 240.316406 Z M 543.691406 240.316406 " fill-opacity="1" fill-rule="nonzero"/><g clip-path="url(#f78ffd9eb8)"><path fill="#010202" d="M 568.253906 299.949219 C 570.265625 298.609375 572.050781 301.066406 574.058594 300.171875 C 574.28125 304.640625 574.28125 309.328125 572.71875 313.574219 C 572.273438 311.785156 571.828125 310.222656 571.378906 308.210938 C 570.488281 309.550781 570.039062 310.445312 569.371094 311.339844 C 568.03125 307.542969 570.933594 303.523438 568.253906 299.949219 Z M 568.253906 299.949219 " fill-opacity="1" fill-rule="nonzero"/></g><path fill="#010202" d="M 263.027344 570.863281 C 260.570312 564.386719 263.695312 558.355469 263.695312 551.878906 C 263.695312 550.539062 264.589844 548.976562 266.152344 548.976562 C 268.160156 549.199219 269.277344 550.539062 269.054688 552.773438 C 266.597656 551.433594 265.257812 551.433594 265.257812 555.003906 C 265.257812 560.367188 265.035156 565.726562 263.027344 570.863281 Z M 263.027344 570.863281 " fill-opacity="1" fill-rule="nonzero"/><path fill="#010202" d="M 302.324219 33.277344 C 300.316406 24.792969 300.984375 16.082031 301.207031 7.59375 C 302.769531 16.082031 304.332031 24.566406 302.324219 33.277344 Z M 302.324219 33.277344 " fill-opacity="1" fill-rule="nonzero"/><path fill="#010202" d="M 569.371094 311.339844 C 570.039062 310.445312 570.488281 309.550781 571.378906 308.210938 C 571.828125 310.222656 572.273438 312.007812 572.71875 313.574219 C 572.71875 318.039062 573.390625 322.730469 572.050781 327.195312 C 569.148438 327.195312 569.816406 324.515625 568.925781 322.953125 C 569.148438 319.15625 569.148438 315.136719 569.371094 311.339844 Z M 569.371094 311.339844 " fill-opacity="1" fill-rule="nonzero"/><path fill="#010202" d="M 533.644531 191.851562 C 534.761719 187.609375 536.546875 188.5 538.335938 191.179688 C 539.449219 192.96875 539.003906 195.871094 542.128906 195.871094 C 544.140625 196.765625 544.585938 198.550781 543.917969 200.339844 C 543.691406 201.230469 541.90625 202.125 541.011719 201.902344 C 539.226562 201.679688 539.226562 199.445312 538.558594 198.105469 C 537.664062 195.648438 537.886719 192.074219 533.644531 191.851562 Z M 533.644531 191.851562 " fill-opacity="1" fill-rule="nonzero"/><path fill="#010202" d="M 45.546875 215.078125 C 44.207031 208.15625 46.886719 200.785156 42.644531 194.53125 C 48.675781 200.5625 48.675781 207.484375 45.546875 215.078125 Z M 45.546875 215.078125 " fill-opacity="1" fill-rule="nonzero"/><path fill="#010202" d="M 122.582031 506.539062 C 121.242188 509.445312 118.5625 509.445312 116.105469 509.445312 C 114.097656 509.445312 112.085938 509.21875 110.96875 511.453125 C 109.628906 511.453125 108.738281 510.335938 107.84375 509.667969 C 107.84375 508.328125 107.84375 506.988281 107.84375 505.871094 C 112.757812 506.539062 117.667969 507.878906 122.582031 506.539062 Z M 122.582031 506.539062 " fill-opacity="1" fill-rule="nonzero"/><path fill="#010202" d="M 170.140625 25.90625 C 169.695312 28.8125 165.226562 27.472656 165.226562 30.820312 C 162.546875 30.820312 159.644531 30.375 160.316406 34.617188 C 158.753906 36.851562 158.082031 34.839844 157.414062 33.949219 C 156.519531 32.382812 157.636719 31.269531 159.199219 30.597656 C 162.996094 29.257812 166.121094 26.355469 170.140625 25.90625 Z M 170.140625 25.90625 " fill-opacity="1" fill-rule="nonzero"/><path fill="#010202" d="M 521.8125 160.582031 C 520.917969 161.03125 520.023438 161.476562 519.132812 161.921875 C 516.007812 160.136719 514.667969 157.007812 513.773438 153.660156 C 514.890625 153.214844 515.78125 152.542969 516.898438 152.097656 C 519.578125 154.328125 521.363281 157.007812 521.8125 160.582031 Z M 521.8125 160.582031 " fill-opacity="1" fill-rule="nonzero"/><path fill="#010202" d="M 568.699219 293.695312 C 562.226562 294.8125 555.972656 293.917969 549.722656 291.683594 C 556.195312 291.015625 562.671875 291.460938 568.699219 293.695312 Z M 568.699219 293.695312 " fill-opacity="1" fill-rule="nonzero"/><path fill="#010202" d="M 260.570312 542.5 C 260.125 547.636719 259.898438 552.773438 259.453125 557.910156 C 259.453125 559.25 259.230469 560.8125 257.667969 561.257812 C 257.890625 554.78125 256.550781 548.304688 260.570312 542.5 Z M 260.570312 542.5 " fill-opacity="1" fill-rule="nonzero"/><path fill="#010202" d="M 222.835938 534.234375 C 222.835938 535.351562 222.835938 536.46875 222.835938 537.585938 C 218.816406 537.363281 214.796875 537.136719 210.777344 536.914062 C 210.554688 534.457031 212.339844 534.234375 214.128906 534.011719 C 215.691406 534.011719 217.253906 534.457031 217.699219 532.226562 C 220.15625 531.554688 221.273438 533.117188 222.835938 534.234375 Z M 222.835938 534.234375 " fill-opacity="1" fill-rule="nonzero"/><path fill="#010202" d="M 515.335938 142.714844 C 509.53125 144.277344 503.726562 143.164062 497.921875 143.386719 C 503.726562 140.929688 509.53125 141.824219 515.335938 142.714844 Z M 515.335938 142.714844 " fill-opacity="1" fill-rule="nonzero"/><path fill="#010202" d="M 497.695312 145.84375 C 500.824219 146.511719 503.949219 146.960938 507.296875 146.960938 C 509.753906 146.960938 512.878906 147.183594 512.65625 151.203125 C 510.199219 148.523438 507.074219 148.746094 503.726562 148.746094 C 501.492188 148.746094 498.367188 149.863281 497.695312 145.84375 Z M 497.695312 145.84375 " fill-opacity="1" fill-rule="nonzero"/><path fill="#010202" d="M 391.636719 23.675781 C 392.976562 23.003906 393.199219 21.664062 392.976562 20.324219 C 393.421875 20.324219 393.871094 20.101562 394.09375 20.324219 C 396.328125 20.996094 398.335938 21.886719 398.78125 24.34375 C 399.003906 24.792969 398.113281 25.90625 397.664062 26.132812 C 394.988281 26.800781 392.976562 26.355469 391.636719 23.675781 Z M 391.636719 23.675781 " fill-opacity="1" fill-rule="nonzero"/><path fill="#010202" d="M 564.90625 235.847656 C 559.324219 234.734375 553.964844 233.839844 548.382812 232.722656 C 554.632812 230.710938 560.214844 230.710938 564.90625 235.847656 Z M 564.90625 235.847656 " fill-opacity="1" fill-rule="nonzero"/><path fill="#010202" d="M 15.40625 228.480469 C 20.765625 229.148438 26.121094 229.371094 30.589844 232.945312 C 25.453125 231.828125 19.871094 232.054688 15.40625 228.480469 Z M 15.40625 228.480469 " fill-opacity="1" fill-rule="nonzero"/><path fill="#010202" d="M 553.292969 188.054688 C 553.292969 186.492188 553.515625 184.925781 554.855469 183.8125 C 556.195312 186.9375 557.535156 190.289062 558.652344 193.414062 C 557.761719 194.308594 556.867188 195.203125 555.972656 196.09375 C 553.070312 194.085938 553.292969 190.957031 553.292969 188.054688 Z M 553.292969 188.054688 " fill-opacity="1" fill-rule="nonzero"/><path fill="#010202" d="M 555.082031 346.628906 C 556.867188 346.402344 558.429688 346.851562 559.097656 348.414062 C 559.992188 350.871094 557.3125 350.648438 556.421875 351.765625 C 554.1875 353.996094 551.730469 355.335938 548.382812 355.335938 C 549.945312 354.222656 551.730469 353.328125 553.292969 352.433594 C 555.972656 350.871094 556.644531 349.085938 555.082031 346.628906 Z M 555.082031 346.628906 " fill-opacity="1" fill-rule="nonzero"/><path fill="#010202" d="M 135.085938 85.316406 C 135.976562 81.074219 132.183594 76.160156 137.09375 72.363281 C 135.753906 74.597656 136.203125 77.054688 136.871094 79.285156 C 137.316406 81.742188 137.542969 83.753906 135.085938 85.316406 Z M 135.085938 85.316406 " fill-opacity="1" fill-rule="nonzero"/><path fill="#010202" d="M 457.730469 90.230469 C 456.835938 92.910156 451.476562 90.675781 451.921875 95.144531 C 450.359375 94.695312 448.128906 94.25 450.582031 92.242188 C 452.59375 90.675781 455.050781 88.890625 457.730469 90.230469 Z M 457.730469 90.230469 " fill-opacity="1" fill-rule="nonzero"/><path fill="#010202" d="M 30.589844 350.648438 C 33.9375 347.742188 37.957031 347.96875 41.976562 348.191406 C 38.402344 350.425781 34.609375 351.09375 30.589844 350.648438 Z M 30.589844 350.648438 " fill-opacity="1" fill-rule="nonzero"/><path fill="#010202" d="M 572.71875 264.660156 C 571.378906 261.085938 571.378906 257.289062 572.71875 253.71875 C 574.058594 257.515625 574.058594 261.085938 572.71875 264.660156 Z M 572.71875 264.660156 " fill-opacity="1" fill-rule="nonzero"/><path fill="#010202" d="M 536.101562 336.800781 C 535.65625 340.597656 539.449219 340.597656 541.011719 342.832031 C 537.664062 342.382812 532.976562 342.832031 536.101562 336.800781 Z M 536.101562 336.800781 " fill-opacity="1" fill-rule="nonzero"/><path fill="#010202" d="M 525.382812 186.714844 C 524.042969 189.171875 523.152344 191.851562 524.042969 194.753906 C 519.800781 190.734375 519.800781 189.839844 525.382812 186.714844 Z M 525.382812 186.714844 " fill-opacity="1" fill-rule="nonzero"/><path fill="#010202" d="M 22.105469 335.683594 C 25.230469 335.683594 24.113281 332.78125 25.230469 331.214844 C 26.347656 333.003906 27.460938 334.789062 27.238281 337.023438 C 24.78125 336.578125 24.558594 338.585938 23.890625 340.152344 C 22.105469 339.257812 21.878906 337.695312 22.105469 335.683594 Z M 22.105469 335.683594 " fill-opacity="1" fill-rule="nonzero"/><path fill="#010202" d="M 480.726562 123.730469 C 482.960938 123.507812 483.183594 121.050781 484.746094 120.382812 C 485.640625 122.167969 485.640625 123.953125 483.851562 125.070312 C 482.738281 125.519531 480.949219 125.964844 480.726562 123.730469 Z M 480.726562 123.730469 " fill-opacity="1" fill-rule="nonzero"/><path fill="#010202" d="M 547.488281 240.539062 C 550.167969 236.296875 553.292969 235.847656 557.3125 238.753906 C 553.964844 238.976562 550.390625 238.753906 547.488281 240.539062 Z M 547.488281 240.539062 " fill-opacity="1" fill-rule="nonzero"/><path fill="#010202" d="M 452.59375 95.367188 C 455.496094 95.367188 458.398438 95.144531 461.300781 95.144531 C 458.621094 95.144531 455.71875 100.058594 452.59375 95.367188 Z M 452.59375 95.367188 " fill-opacity="1" fill-rule="nonzero"/><path fill="#010202" d="M 533.199219 220.214844 C 533.867188 222.449219 533.199219 225.351562 536.546875 225.800781 C 535.878906 227.808594 534.09375 228.925781 533.421875 226.46875 C 533.199219 224.683594 527.839844 222.449219 533.199219 220.214844 Z M 533.199219 220.214844 " fill-opacity="1" fill-rule="nonzero"/><path fill="#010202" d="M 273.742188 555.453125 C 273.074219 552.996094 272.628906 550.761719 271.957031 548.304688 C 274.414062 550.761719 275.976562 553.890625 276.644531 557.238281 C 275.753906 556.792969 274.859375 556.121094 273.742188 555.453125 Z M 273.742188 555.453125 " fill-opacity="1" fill-rule="nonzero"/><path fill="#010202" d="M 552.179688 398.21875 C 551.953125 396.210938 550.390625 395.984375 548.828125 395.761719 C 549.050781 392.1875 551.507812 393.082031 553.070312 393.976562 C 555.304688 395.761719 553.742188 397.101562 552.179688 398.21875 Z M 552.179688 398.21875 " fill-opacity="1" fill-rule="nonzero"/><path fill="#010202" d="M 36.839844 343.054688 C 33.9375 344.617188 31.257812 347.96875 28.132812 343.5 C 31.035156 344.617188 33.714844 341.9375 36.839844 343.054688 Z M 36.839844 343.054688 " fill-opacity="1" fill-rule="nonzero"/><path fill="#010202" d="M 568.925781 323.175781 C 569.59375 324.738281 568.925781 327.421875 572.050781 327.421875 C 571.378906 329.875 569.816406 329.429688 568.699219 328.3125 C 566.691406 326.527344 567.585938 324.738281 568.925781 323.175781 Z M 568.925781 323.175781 " fill-opacity="1" fill-rule="nonzero"/><path fill="#010202" d="M 18.308594 353.328125 C 20.539062 350.425781 23.445312 350.199219 26.570312 351.316406 C 23.890625 352.210938 21.210938 353.996094 18.308594 353.328125 Z M 18.308594 353.328125 " fill-opacity="1" fill-rule="nonzero"/><path fill="#010202" d="M 479.835938 116.136719 C 479.835938 118.371094 480.058594 120.605469 480.058594 122.839844 C 476.707031 120.605469 477.378906 118.59375 479.835938 116.136719 Z M 479.835938 116.136719 " fill-opacity="1" fill-rule="nonzero"/><path fill="#010202" d="M 336.039062 28.8125 C 339.390625 28.140625 342.738281 27.246094 344.300781 31.492188 C 341.621094 30.597656 338.941406 29.703125 336.039062 28.8125 Z M 336.039062 28.8125 " fill-opacity="1" fill-rule="nonzero"/><path fill="#010202" d="M 295.625 31.9375 C 297.636719 32.832031 299.867188 33.277344 302.324219 33.054688 C 299.867188 35.066406 297.1875 36.851562 295.625 31.9375 Z M 295.625 31.9375 " fill-opacity="1" fill-rule="nonzero"/><path fill="#010202" d="M 423.789062 46.007812 C 422.671875 48.6875 420.664062 50.699219 418.207031 51.816406 C 418.65625 48.6875 420.886719 46.902344 423.789062 46.007812 Z M 423.789062 46.007812 " fill-opacity="1" fill-rule="nonzero"/><path fill="#010202" d="M 165.226562 30.820312 C 167.683594 31.042969 170.363281 31.269531 169.917969 34.839844 C 168.132812 33.726562 166.121094 33.054688 163.886719 34.171875 C 164.558594 33.054688 164.78125 31.9375 165.226562 30.820312 Z M 165.226562 30.820312 " fill-opacity="1" fill-rule="nonzero"/><path fill="#010202" d="M 212.789062 46.007812 C 214.128906 42.882812 216.136719 42.210938 219.039062 44.222656 C 217.253906 45.339844 215.46875 46.679688 212.789062 46.007812 Z M 212.789062 46.007812 " fill-opacity="1" fill-rule="nonzero"/><path fill="#010202" d="M 467.777344 87.328125 C 465.992188 89.558594 463.980469 90.007812 461.300781 89.335938 C 463.3125 88.445312 465.097656 86.65625 467.777344 87.328125 Z M 467.777344 87.328125 " fill-opacity="1" fill-rule="nonzero"/><path fill="#010202" d="M 165.226562 30.820312 C 164.78125 31.9375 164.335938 33.054688 163.886719 34.171875 C 162.773438 34.394531 161.433594 34.617188 160.316406 34.617188 C 159.871094 30.375 162.546875 30.820312 165.226562 30.820312 Z M 165.226562 30.820312 " fill-opacity="1" fill-rule="nonzero"/><path fill="#010202" d="M 41.53125 410.058594 C 40.859375 411.621094 39.519531 412.511719 38.402344 411.171875 C 36.839844 409.609375 37.734375 407.824219 39.742188 406.929688 C 40.414062 408.046875 40.859375 408.941406 41.53125 410.058594 Z M 41.53125 410.058594 " fill-opacity="1" fill-rule="nonzero"/><path fill="#010202" d="M 91.769531 462.765625 C 92.660156 460.308594 94 458.296875 96.902344 458.523438 C 95.5625 460.308594 94 462.09375 91.769531 462.765625 Z M 91.769531 462.765625 " fill-opacity="1" fill-rule="nonzero"/><path fill="#010202" d="M 348.320312 41.542969 C 350.554688 40.203125 352.5625 42.210938 354.570312 41.765625 C 352.339844 46.679688 350.328125 41.09375 348.320312 41.542969 Z M 348.320312 41.542969 " fill-opacity="1" fill-rule="nonzero"/><path fill="#010202" d="M 526.5 194.753906 C 527.394531 192.296875 528.734375 190.734375 531.414062 192.519531 C 529.847656 193.414062 528.734375 195.425781 526.5 194.753906 Z M 526.5 194.753906 " fill-opacity="1" fill-rule="nonzero"/><path fill="#010202" d="M 489.433594 83.753906 C 487.648438 83.753906 485.863281 83.753906 484.300781 83.753906 C 485.863281 81.296875 487.648438 81.296875 489.433594 83.753906 Z M 489.433594 83.753906 " fill-opacity="1" fill-rule="nonzero"/><path fill="#010202" d="M 129.726562 80.851562 C 131.960938 82.636719 130.621094 84.871094 131.066406 87.105469 C 127.492188 85.761719 129.503906 83.082031 129.726562 80.851562 Z M 129.726562 80.851562 " fill-opacity="1" fill-rule="nonzero"/><path fill="#010202" d="M 543.46875 343.277344 C 545.480469 342.832031 547.488281 342.832031 548.605469 345.0625 C 546.148438 345.957031 545.03125 344.171875 543.46875 343.277344 Z M 543.46875 343.277344 " fill-opacity="1" fill-rule="nonzero"/><path fill="#010202" d="M 349.660156 27.246094 C 347.652344 26.132812 346.3125 24.792969 347.425781 22.335938 C 348.765625 23.898438 350.105469 25.238281 349.660156 27.246094 Z M 349.660156 27.246094 " fill-opacity="1" fill-rule="nonzero"/><path fill="#010202" d="M 43.09375 224.683594 C 43.09375 223.34375 42.867188 222.003906 42.867188 220.664062 C 43.761719 220.214844 44.433594 219.769531 45.324219 219.546875 C 45.996094 221.777344 44.878906 223.34375 43.09375 224.683594 Z M 43.09375 224.683594 " fill-opacity="1" fill-rule="nonzero"/><path fill="#010202" d="M 536.324219 405.589844 C 534.09375 405.144531 531.414062 405.144531 530.074219 402.6875 C 532.304688 403.132812 534.761719 403.355469 536.324219 405.589844 Z M 536.324219 405.589844 " fill-opacity="1" fill-rule="nonzero"/><path fill="#010202" d="M 185.101562 51.59375 C 182.421875 50.253906 181.527344 48.019531 181.527344 45.113281 C 184.207031 46.457031 183.761719 49.359375 185.101562 51.59375 Z M 185.101562 51.59375 " fill-opacity="1" fill-rule="nonzero"/><path fill="#010202" d="M 476.261719 84.871094 C 474.921875 86.878906 473.136719 87.550781 470.902344 86.878906 C 472.6875 85.761719 473.804688 83.976562 476.261719 84.871094 Z M 476.261719 84.871094 " fill-opacity="1" fill-rule="nonzero"/><path fill="#010202" d="M 71.003906 470.582031 C 70.78125 472.59375 71.671875 474.15625 72.34375 475.941406 C 69.441406 474.601562 68.101562 473.039062 71.003906 470.582031 Z M 71.003906 470.582031 " fill-opacity="1" fill-rule="nonzero"/><path fill="#010202" d="M 39.296875 235.625 C 39.964844 233.394531 39.519531 230.265625 42.644531 229.148438 C 41.976562 231.605469 41.53125 234.0625 39.296875 235.625 Z M 39.296875 235.625 " fill-opacity="1" fill-rule="nonzero"/><path fill="#010202" d="M 377.125 15.1875 C 374.890625 16.304688 373.328125 15.410156 371.988281 13.402344 C 373.996094 13.175781 375.5625 14.515625 377.125 15.1875 Z M 377.125 15.1875 " fill-opacity="1" fill-rule="nonzero"/><path fill="#010202" d="M 208.546875 21.21875 C 206.089844 19.207031 205.640625 17.199219 209.214844 16.082031 C 207.875 17.644531 208.992188 19.652344 208.546875 21.21875 Z M 208.546875 21.21875 " fill-opacity="1" fill-rule="nonzero"/><path fill="#010202" d="M 329.566406 25.015625 C 329.566406 26.132812 329.339844 27.023438 329.339844 28.140625 C 328.226562 28.585938 327.332031 28.585938 326.886719 27.246094 C 326.886719 25.90625 327.109375 24.566406 327.109375 23.003906 C 328.449219 23.449219 329.566406 23.675781 329.566406 25.015625 Z M 329.566406 25.015625 " fill-opacity="1" fill-rule="nonzero"/><path fill="#010202" d="M 452.371094 57.621094 C 454.828125 58.515625 455.71875 60.078125 454.828125 62.535156 C 453.933594 60.972656 453.039062 59.410156 452.371094 57.621094 Z M 452.371094 57.621094 " fill-opacity="1" fill-rule="nonzero"/><path fill="#010202" d="M 8.707031 222.003906 C 10.046875 223.566406 9.601562 225.351562 9.375 227.140625 C 7.367188 225.574219 7.589844 223.789062 8.707031 222.003906 Z M 8.707031 222.003906 " fill-opacity="1" fill-rule="nonzero"/><path fill="#010202" d="M 543.917969 406.707031 C 543.917969 407.824219 543.691406 408.941406 542.578125 408.941406 C 541.238281 408.941406 540.566406 408.046875 540.121094 406.707031 C 541.238281 406.707031 542.578125 406.707031 543.917969 406.707031 Z M 543.917969 406.707031 " fill-opacity="1" fill-rule="nonzero"/><path fill="#010202" d="M 479.609375 107.652344 C 482.066406 108.992188 482.066406 110.777344 480.28125 112.789062 C 480.28125 111.222656 479.835938 109.4375 479.609375 107.652344 Z M 479.609375 107.652344 " fill-opacity="1" fill-rule="nonzero"/><path fill="#010202" d="M 559.546875 238.976562 C 561.332031 237.191406 562.449219 239.199219 563.789062 239.644531 C 563.789062 240.539062 564.011719 241.210938 564.011719 242.101562 C 562.449219 241.210938 560.664062 240.761719 559.546875 238.976562 Z M 559.546875 238.976562 " fill-opacity="1" fill-rule="nonzero"/><path fill="#010202" d="M 175.5 47.796875 C 177.285156 48.464844 179.296875 48.910156 177.507812 51.59375 C 176.390625 50.699219 175.050781 49.804688 175.5 47.796875 Z M 175.5 47.796875 " fill-opacity="1" fill-rule="nonzero"/><path fill="#010202" d="M 25.675781 270.914062 C 23.890625 268.902344 23.445312 267.117188 26.570312 266 C 26.570312 267.5625 28.132812 269.574219 25.675781 270.914062 Z M 25.675781 270.914062 " fill-opacity="1" fill-rule="nonzero"/><path fill="#010202" d="M 560.4375 299.503906 C 562.226562 296.820312 564.011719 297.269531 565.796875 299.503906 C 564.011719 300.171875 562.226562 299.949219 560.4375 299.503906 Z M 560.4375 299.503906 " fill-opacity="1" fill-rule="nonzero"/><path fill="#010202" d="M 33.714844 233.394531 C 35.949219 232.5 37.0625 233.839844 38.179688 235.625 C 35.949219 236.296875 34.609375 234.957031 33.714844 233.394531 Z M 33.714844 233.394531 " fill-opacity="1" fill-rule="nonzero"/><path fill="#010202" d="M 80.605469 471.253906 C 81.050781 469.019531 82.390625 467.902344 84.621094 468.125 C 83.953125 469.914062 82.613281 471.027344 80.605469 471.253906 Z M 80.605469 471.253906 " fill-opacity="1" fill-rule="nonzero"/><path fill="#010202" d="M 178.179688 54.050781 C 180.1875 54.71875 181.527344 56.058594 180.859375 58.515625 C 179.519531 57.175781 177.730469 56.28125 178.179688 54.050781 Z M 178.179688 54.050781 " fill-opacity="1" fill-rule="nonzero"/><path fill="#010202" d="M 170.585938 38.191406 C 173.042969 38.863281 173.9375 40.203125 173.042969 42.660156 C 172.148438 41.09375 171.480469 39.53125 170.585938 38.191406 Z M 170.585938 38.191406 " fill-opacity="1" fill-rule="nonzero"/><path fill="#010202" d="M 539.003906 149.640625 C 537.441406 148.746094 536.101562 147.628906 536.769531 145.394531 C 537.886719 146.734375 539.675781 147.40625 539.003906 149.640625 Z M 539.003906 149.640625 " fill-opacity="1" fill-rule="nonzero"/><path fill="#010202" d="M 537.664062 217.980469 C 536.996094 219.992188 535.429688 220.886719 533.421875 220.214844 C 534.539062 218.875 535.65625 217.535156 537.664062 217.980469 Z M 537.664062 217.980469 " fill-opacity="1" fill-rule="nonzero"/><path fill="#010202" d="M 269.949219 554.78125 C 270.839844 555.453125 271.734375 555.898438 272.402344 556.570312 C 272.402344 557.460938 272.402344 558.355469 272.402344 559.25 C 271.0625 558.132812 269.277344 557.238281 269.949219 554.78125 Z M 269.949219 554.78125 " fill-opacity="1" fill-rule="nonzero"/><path fill="#010202" d="M 541.90625 418.992188 C 540.566406 416.535156 542.351562 415.863281 543.917969 415.195312 C 544.363281 416.980469 543.023438 417.875 541.90625 418.992188 Z M 541.90625 418.992188 " fill-opacity="1" fill-rule="nonzero"/><path fill="#010202" d="M 211.894531 31.042969 C 212.117188 27.917969 214.128906 28.363281 216.136719 29.035156 C 214.796875 29.480469 213.234375 30.375 211.894531 31.042969 Z M 211.894531 31.042969 " fill-opacity="1" fill-rule="nonzero"/><path fill="#010202" d="M 549.722656 403.132812 C 549.5 401.347656 549.273438 399.558594 551.730469 399.335938 C 552.179688 401.121094 551.285156 402.464844 549.722656 403.132812 Z M 549.722656 403.132812 " fill-opacity="1" fill-rule="nonzero"/><path fill="#010202" d="M 344.523438 31.9375 C 346.757812 32.382812 346.757812 34.171875 346.535156 35.957031 C 344.972656 34.839844 344.078125 33.726562 344.523438 31.9375 Z M 344.523438 31.9375 " fill-opacity="1" fill-rule="nonzero"/><path fill="#010202" d="M 460.410156 68.566406 C 460.410156 67.449219 460.632812 66.109375 460.632812 64.992188 C 461.972656 66.332031 462.863281 67.671875 460.410156 68.566406 Z M 460.410156 68.566406 " fill-opacity="1" fill-rule="nonzero"/><path fill="#010202" d="M 543.46875 337.246094 C 542.128906 337.46875 540.789062 337.695312 540.121094 336.128906 C 541.683594 334.789062 542.578125 336.128906 543.46875 337.246094 Z M 543.46875 337.246094 " fill-opacity="1" fill-rule="nonzero"/><path fill="#010202" d="M 541.90625 189.617188 C 541.238281 186.714844 542.351562 186.042969 544.808594 187.609375 C 543.917969 188.277344 543.023438 188.949219 541.90625 189.617188 Z M 541.90625 189.617188 " fill-opacity="1" fill-rule="nonzero"/><path fill="#010202" d="M 6.027344 320.941406 C 6.25 322.730469 6.472656 324.292969 4.464844 324.964844 C 3.792969 323.175781 4.019531 321.613281 6.027344 320.941406 Z M 6.027344 320.941406 " fill-opacity="1" fill-rule="nonzero"/><path fill="#010202" d="M 378.242188 29.703125 C 378.015625 28.363281 378.464844 27.472656 379.804688 27.023438 C 380.472656 28.585938 379.132812 29.035156 378.242188 29.703125 Z M 378.242188 29.703125 " fill-opacity="1" fill-rule="nonzero"/><path fill="#010202" d="M 9.375 227.140625 C 10.492188 226.914062 11.386719 227.140625 12.054688 228.03125 C 11.164062 228.480469 10.046875 228.925781 9.375 227.140625 Z M 9.375 227.140625 " fill-opacity="1" fill-rule="nonzero"/><path fill="#010202" d="M 474.699219 102.960938 C 475.816406 102.960938 476.484375 103.632812 476.484375 104.746094 C 475.144531 104.972656 474.921875 104.078125 474.699219 102.960938 Z M 474.699219 102.960938 " fill-opacity="1" fill-rule="nonzero"/><path fill="#010202" d="M 547.265625 408.046875 C 547.042969 406.484375 547.488281 405.367188 549.273438 405.367188 C 549.722656 407.152344 548.828125 407.824219 547.265625 408.046875 Z M 547.265625 408.046875 " fill-opacity="1" fill-rule="nonzero"/><path fill="#010202" d="M 565.128906 238.304688 C 565.128906 237.636719 565.128906 236.742188 565.128906 236.074219 C 566.46875 236.296875 567.359375 237.191406 567.359375 238.753906 C 566.691406 238.53125 566.019531 238.53125 565.128906 238.304688 Z M 565.128906 238.304688 " fill-opacity="1" fill-rule="nonzero"/><path fill="#010202" d="M 544.808594 412.960938 C 544.585938 411.621094 545.257812 410.726562 546.371094 410.28125 C 547.042969 411.84375 546.148438 412.511719 544.808594 412.960938 Z M 544.808594 412.960938 " fill-opacity="1" fill-rule="nonzero"/><path fill="#010202" d="M 543.691406 240.316406 C 544.808594 240.539062 545.703125 240.761719 546.820312 240.988281 C 546.148438 241.878906 545.257812 242.773438 544.585938 243.667969 C 544.363281 243.441406 543.917969 243.21875 543.691406 242.996094 C 543.691406 241.878906 543.691406 241.210938 543.691406 240.316406 Z M 543.691406 240.316406 " fill-opacity="1" fill-rule="nonzero"/><path fill="#010202" d="M 455.050781 64.992188 C 456.613281 65.4375 456.835938 66.554688 456.613281 67.894531 C 455.496094 67.226562 454.15625 66.78125 455.050781 64.992188 Z M 455.050781 64.992188 " fill-opacity="1" fill-rule="nonzero"/><path fill="#010202" d="M 422.898438 66.554688 C 421.109375 66.109375 421.109375 64.769531 421.78125 63.207031 C 422.671875 64.097656 422.898438 65.214844 422.898438 66.554688 Z M 422.898438 66.554688 " fill-opacity="1" fill-rule="nonzero"/><path fill="#010202" d="M 415.75 63.875 C 417.089844 64.324219 417.539062 65.4375 417.316406 66.78125 C 415.75 66.332031 415.304688 65.214844 415.75 63.875 Z M 415.75 63.875 " fill-opacity="1" fill-rule="nonzero"/><path fill="#010202" d="M 459.515625 60.527344 C 458.398438 60.300781 457.730469 59.410156 457.730469 58.292969 C 458.84375 58.515625 459.960938 58.738281 459.515625 60.527344 Z M 459.515625 60.527344 " fill-opacity="1" fill-rule="nonzero"/><path fill="#010202" d="M 548.382812 187.160156 C 549.273438 185.152344 550.167969 184.925781 551.0625 186.9375 C 550.167969 186.9375 549.273438 187.160156 548.382812 187.160156 Z M 548.382812 187.160156 " fill-opacity="1" fill-rule="nonzero"/><path fill="#010202" d="M 85.738281 458.523438 C 85.738281 460.085938 84.847656 460.980469 83.058594 460.753906 C 83.507812 459.414062 84.621094 458.746094 85.738281 458.523438 Z M 85.738281 458.523438 " fill-opacity="1" fill-rule="nonzero"/><path fill="#010202" d="M 81.050781 462.542969 C 80.605469 463.882812 79.933594 464.328125 78.59375 464.328125 C 78.59375 462.765625 79.710938 462.542969 81.050781 462.542969 Z M 81.050781 462.542969 " fill-opacity="1" fill-rule="nonzero"/><path fill="#010202" d="M 477.15625 105.195312 C 478.269531 105.195312 478.941406 105.640625 479.164062 106.980469 C 477.824219 107.203125 477.15625 106.535156 477.15625 105.195312 Z M 477.15625 105.195312 " fill-opacity="1" fill-rule="nonzero"/><path fill="#010202" d="M 421.78125 60.75 C 421.109375 59.1875 421.332031 58.070312 423.121094 57.621094 C 423.34375 58.960938 422.671875 60.078125 421.78125 60.75 Z M 421.78125 60.75 " fill-opacity="1" fill-rule="nonzero"/><path fill="#010202" d="M 469.785156 98.046875 C 470.902344 98.046875 471.574219 98.71875 471.574219 99.835938 C 470.457031 99.835938 469.785156 99.164062 469.785156 98.046875 Z M 469.785156 98.046875 " fill-opacity="1" fill-rule="nonzero"/><path fill="#010202" d="M 351.894531 33.5 C 350.328125 33.054688 349.882812 32.160156 350.328125 30.597656 C 351.445312 31.269531 352.117188 32.160156 351.894531 33.5 Z M 351.894531 33.5 " fill-opacity="1" fill-rule="nonzero"/><path fill="#010202" d="M 95.5625 473.484375 C 95.5625 474.378906 95.339844 475.050781 94.222656 475.273438 C 92.882812 473.484375 94.449219 473.484375 95.5625 473.484375 Z M 95.5625 473.484375 " fill-opacity="1" fill-rule="nonzero"/><path fill="#010202" d="M 18.085938 316.253906 C 16.96875 316.253906 16.074219 316.253906 15.851562 314.691406 C 17.636719 313.796875 17.191406 316.03125 18.085938 316.253906 Z M 18.085938 316.253906 " fill-opacity="1" fill-rule="nonzero"/><path fill="#010202" d="M 417.539062 52.933594 C 417.761719 54.273438 417.089844 55.164062 415.976562 55.613281 C 415.304688 54.050781 415.976562 53.15625 417.539062 52.933594 Z M 417.539062 52.933594 " fill-opacity="1" fill-rule="nonzero"/><path fill="#010202" d="M 129.726562 487.109375 C 129.503906 488.003906 129.054688 489.121094 128.832031 490.011719 C 127.941406 489.34375 127.269531 488.671875 127.492188 487.554688 C 128.164062 487.554688 129.054688 487.332031 129.726562 487.332031 C 129.503906 487.332031 129.726562 487.109375 129.726562 487.109375 Z M 129.726562 487.109375 " fill-opacity="1" fill-rule="nonzero"/><path fill="#010202" d="M 445.449219 51.816406 C 447.011719 51.367188 447.90625 52.261719 448.128906 53.824219 C 446.789062 53.824219 446.117188 52.933594 445.449219 51.816406 Z M 445.449219 51.816406 " fill-opacity="1" fill-rule="nonzero"/><path fill="#010202" d="M 467.332031 95.589844 C 468.445312 95.589844 469.117188 96.261719 469.117188 97.378906 C 468 97.378906 467.332031 96.707031 467.332031 95.589844 Z M 467.332031 95.589844 " fill-opacity="1" fill-rule="nonzero"/><path fill="#010202" d="M 445.671875 48.019531 C 444.109375 48.242188 443.4375 47.570312 442.992188 46.230469 C 444.554688 45.785156 445.226562 46.902344 445.671875 48.019531 Z M 445.671875 48.019531 " fill-opacity="1" fill-rule="nonzero"/><path fill="#010202" d="M 24.113281 324.964844 C 22.105469 324.738281 21.878906 323.398438 22.328125 321.835938 C 23.667969 322.507812 24.335938 323.398438 24.113281 324.964844 Z M 24.113281 324.964844 " fill-opacity="1" fill-rule="nonzero"/><path fill="#010202" d="M 492.785156 87.328125 C 491.445312 87.105469 490.773438 86.433594 491 85.09375 C 492.113281 85.316406 493.007812 85.988281 492.785156 87.328125 Z M 492.785156 87.328125 " fill-opacity="1" fill-rule="nonzero"/><path fill="#010202" d="M 209.4375 532.449219 C 208.769531 534.011719 207.652344 534.234375 206.3125 533.789062 C 206.980469 532 207.875 531.777344 209.4375 532.449219 Z M 209.4375 532.449219 " fill-opacity="1" fill-rule="nonzero"/><path fill="#010202" d="M 180.632812 41.988281 C 179.070312 41.765625 178.625 40.871094 178.847656 39.308594 C 179.964844 39.976562 181.082031 40.425781 180.632812 41.988281 Z M 180.632812 41.988281 " fill-opacity="1" fill-rule="nonzero"/><path fill="#010202" d="M 214.128906 40.648438 C 212.117188 40.425781 211.671875 39.308594 212.117188 37.523438 C 213.902344 37.96875 214.128906 39.308594 214.128906 40.648438 Z M 214.128906 40.648438 " fill-opacity="1" fill-rule="nonzero"/><path fill="#010202" d="M 341.621094 7.59375 C 340.28125 7.59375 339.164062 7.148438 338.941406 5.808594 C 340.503906 5.359375 341.621094 5.808594 341.621094 7.59375 Z M 341.621094 7.59375 " fill-opacity="1" fill-rule="nonzero"/><path fill="#010202" d="M 430.710938 80.179688 C 432.273438 79.734375 433.390625 80.402344 433.613281 81.964844 C 432.050781 82.191406 431.382812 81.296875 430.710938 80.179688 Z M 430.710938 80.179688 " fill-opacity="1" fill-rule="nonzero"/><path fill="#010202" d="M 382.257812 17.199219 C 380.917969 17.644531 379.804688 17.199219 379.355469 15.632812 C 380.917969 15.1875 381.8125 15.855469 382.257812 17.199219 Z M 382.257812 17.199219 " fill-opacity="1" fill-rule="nonzero"/><path fill="#010202" d="M 384.269531 21.21875 C 385.609375 20.769531 386.726562 20.996094 387.171875 22.78125 C 385.832031 23.003906 384.9375 22.335938 384.269531 21.21875 Z M 384.269531 21.21875 " fill-opacity="1" fill-rule="nonzero"/><path fill="#010202" d="M 419.101562 69.90625 C 420.886719 70.128906 421.332031 71.023438 421.109375 72.585938 C 419.996094 72.140625 419.324219 71.246094 419.101562 69.90625 Z M 419.101562 69.90625 " fill-opacity="1" fill-rule="nonzero"/><path fill="#010202" d="M 526.054688 400.898438 C 524.714844 401.121094 524.042969 400.453125 523.820312 399.335938 C 525.382812 398.667969 525.832031 399.558594 526.054688 400.898438 Z M 526.054688 400.898438 " fill-opacity="1" fill-rule="nonzero"/><path fill="#010202" d="M 548.382812 397.996094 C 548.828125 399.558594 548.382812 400.453125 546.597656 400.675781 C 546.371094 399.335938 547.265625 398.667969 548.382812 397.996094 Z M 548.382812 397.996094 " fill-opacity="1" fill-rule="nonzero"/><path fill="#010202" d="M 280.890625 563.714844 C 279.101562 563.492188 279.101562 562.375 279.324219 561.035156 C 280.664062 561.484375 281.558594 562.152344 280.890625 563.714844 Z M 280.890625 563.714844 " fill-opacity="1" fill-rule="nonzero"/><path fill="#010202" d="M 285.578125 567.960938 C 285.355469 568.851562 284.90625 569.523438 284.015625 569.078125 C 283.121094 568.851562 282.898438 567.960938 283.121094 567.066406 C 283.792969 567.511719 284.683594 567.738281 285.578125 567.960938 Z M 285.578125 567.960938 " fill-opacity="1" fill-rule="nonzero"/><path fill="#010202" d="M 129.503906 487.332031 C 128.832031 487.332031 127.941406 487.554688 127.269531 487.554688 C 127.046875 487.109375 126.824219 486.441406 126.375 485.992188 C 127.269531 485.101562 127.941406 484.207031 128.832031 483.3125 C 130.621094 484.429688 130.621094 485.769531 129.503906 487.332031 Z M 129.503906 487.332031 " fill-opacity="1" fill-rule="nonzero"/><path fill="#010202" d="M 346.757812 39.308594 C 346.980469 39.976562 347.203125 40.425781 347.425781 41.09375 C 346.535156 40.871094 346.3125 40.203125 346.757812 39.308594 Z M 346.757812 39.308594 " fill-opacity="1" fill-rule="nonzero"/><path fill="#010202" d="M 347.425781 19.878906 C 347.203125 19.207031 346.980469 18.761719 346.980469 18.089844 C 347.425781 18.539062 347.652344 19.207031 347.425781 19.878906 Z M 347.425781 19.878906 " fill-opacity="1" fill-rule="nonzero"/><path fill="#010202" d="M 22.328125 266 C 21.878906 264.660156 21.433594 263.097656 23.21875 262.203125 C 25.898438 264.214844 23.667969 265.105469 22.328125 266 Z M 22.328125 266 " fill-opacity="1" fill-rule="nonzero"/><path fill="#010202" d="M 531.859375 150.980469 C 531.636719 150.085938 531.636719 149.191406 531.414062 148.523438 C 532.527344 148.300781 533.421875 148.523438 533.421875 149.863281 C 533.199219 150.53125 532.527344 150.980469 531.859375 150.980469 Z M 531.859375 150.980469 " fill-opacity="1" fill-rule="nonzero"/><path fill="#010202" d="M 37.957031 198.550781 C 35.5 197.65625 32.820312 197.882812 31.035156 195.648438 C 33.9375 195.203125 36.617188 195.425781 37.957031 198.550781 Z M 37.957031 198.550781 " fill-opacity="1" fill-rule="nonzero"/><path fill="#010202" d="M 40.191406 221.777344 C 39.964844 220.214844 40.636719 219.097656 41.976562 218.207031 C 43.09375 218.652344 42.867188 219.769531 43.09375 220.664062 C 41.976562 221.109375 41.082031 221.332031 40.191406 221.777344 Z M 40.191406 221.777344 " fill-opacity="1" fill-rule="nonzero"/><path fill="#010202" d="M 27.6875 195.648438 C 27.015625 196.988281 25.898438 197.433594 24.335938 197.210938 C 24.78125 195.203125 26.121094 194.976562 27.6875 195.648438 Z M 27.6875 195.648438 " fill-opacity="1" fill-rule="nonzero"/><path fill="#010202" d="M 15.851562 346.628906 C 16.523438 345.511719 17.414062 345.289062 18.53125 345.957031 C 18.085938 347.742188 17.191406 348.414062 15.851562 346.628906 Z M 15.851562 346.628906 " fill-opacity="1" fill-rule="nonzero"/><path fill="#010202" d="M 28.355469 225.351562 C 30.589844 225.128906 32.375 226.023438 33.9375 227.140625 C 31.703125 227.808594 29.027344 229.371094 28.355469 225.351562 Z M 28.355469 225.351562 " fill-opacity="1" fill-rule="nonzero"/><path fill="#010202" d="M 19.425781 222.449219 C 20.988281 222.003906 22.105469 222.449219 22.550781 224.011719 C 20.988281 224.460938 20.09375 224.011719 19.425781 222.449219 Z M 19.425781 222.449219 " fill-opacity="1" fill-rule="nonzero"/><path fill="#010202" d="M 543.691406 240.316406 C 543.691406 241.210938 543.691406 241.878906 543.691406 242.773438 C 542.800781 242.550781 542.128906 242.101562 542.351562 241.210938 C 542.578125 240.761719 543.246094 240.539062 543.691406 240.316406 Z M 543.691406 240.316406 " fill-opacity="1" fill-rule="nonzero"/><path fill="#0096da" d="M 227.972656 366.503906 C 222.390625 345.0625 217.699219 323.625 212.789062 301.957031 C 208.992188 284.984375 204.527344 268.011719 201.398438 251.035156 C 198.496094 235.402344 194.253906 219.769531 190.683594 204.359375 C 188.449219 194.753906 185.769531 184.925781 183.984375 175.324219 C 182.199219 166.167969 179.070312 157.457031 177.730469 148.074219 C 177.285156 144.503906 178.179688 143.164062 181.082031 142.492188 C 199.167969 137.355469 217.03125 131.773438 235.339844 126.859375 C 260.570312 120.160156 285.578125 112.117188 310.808594 105.640625 C 325.769531 101.621094 340.503906 97.152344 355.464844 92.6875 C 356.136719 92.464844 357.027344 92.464844 358.589844 92.242188 C 355.910156 101.398438 353.457031 109.882812 351 118.371094 C 346.757812 132.890625 342.960938 147.628906 338.71875 162.148438 C 335.816406 171.75 332.914062 181.128906 330.234375 190.734375 C 324.875 210.386719 319.070312 230.042969 313.265625 249.695312 C 309.46875 262.203125 305.671875 274.933594 301.878906 287.441406 C 301.207031 289.675781 300.761719 291.683594 301.429688 293.917969 C 276.871094 318.261719 253.203125 343.054688 227.972656 366.503906 Z M 227.972656 366.503906 " fill-opacity="1" fill-rule="nonzero"/><path fill="#0096da" d="M 230.203125 381.023438 C 234.445312 374.992188 240.25 370.523438 245.386719 365.386719 C 261.238281 349.753906 277.09375 334.121094 292.945312 318.484375 C 287.8125 336.128906 282.675781 353.773438 277.539062 371.195312 C 272.628906 387.5 267.714844 403.804688 262.804688 420.105469 C 258.558594 434.402344 254.765625 448.917969 250.746094 463.660156 C 246.949219 458.296875 246.949219 451.597656 245.386719 445.566406 C 240.476562 425.242188 236.457031 404.917969 231.988281 384.59375 C 231.765625 383.253906 230.875 382.140625 230.203125 381.023438 Z M 230.203125 381.023438 " fill-opacity="1" fill-rule="nonzero"/><path fill="#0096da" d="M 252.976562 469.464844 C 255.210938 479.515625 257.667969 489.566406 259.898438 499.394531 C 267.046875 498.054688 274.191406 496.9375 281.335938 495.597656 C 271.734375 487.109375 262.355469 478.398438 252.976562 469.464844 Z M 252.976562 469.464844 " fill-opacity="1" fill-rule="nonzero"/><path fill="#0096da" d="M 334.699219 434.402344 C 340.058594 434.402344 345.640625 434.402344 351 434.175781 C 349.660156 441.546875 348.097656 448.917969 346.757812 456.289062 C 342.738281 449.140625 338.71875 441.769531 334.699219 434.402344 Z M 334.699219 434.402344 " fill-opacity="1" fill-rule="nonzero"/><path fill="#0096da" d="M 356.804688 434.847656 C 361.941406 434.847656 367.300781 434.847656 372.433594 434.847656 C 366.628906 441.769531 360.601562 448.695312 354.796875 455.617188 C 355.464844 448.695312 356.136719 441.769531 356.804688 434.847656 Z M 356.804688 434.847656 " fill-opacity="1" fill-rule="nonzero"/></svg>