<svg xmlns="http://www.w3.org/2000/svg" xmlns:xlink="http://www.w3.org/1999/xlink" width="768" zoomAndPan="magnify" viewBox="0 0 576 576" height="768" preserveAspectRatio="xMidYMid meet" version="1.0"><path fill="#d43377" d="M 86.398438 0 L 489.601562 0 C 491.015625 0 492.425781 0.0351562 493.839844 0.105469 C 495.25 0.171875 496.660156 0.277344 498.070312 0.417969 C 499.476562 0.554688 500.878906 0.726562 502.277344 0.933594 C 503.675781 1.144531 505.070312 1.382812 506.457031 1.660156 C 507.84375 1.9375 509.222656 2.246094 510.59375 2.589844 C 511.964844 2.933594 513.328125 3.308594 514.679688 3.71875 C 516.035156 4.128906 517.375 4.574219 518.707031 5.050781 C 520.039062 5.527344 521.355469 6.035156 522.664062 6.578125 C 523.96875 7.117188 525.261719 7.691406 526.539062 8.296875 C 527.820312 8.898438 529.082031 9.535156 530.328125 10.203125 C 531.574219 10.867188 532.804688 11.566406 534.019531 12.292969 C 535.230469 13.019531 536.425781 13.777344 537.601562 14.5625 C 538.777344 15.347656 539.933594 16.160156 541.066406 17.003906 C 542.203125 17.84375 543.320312 18.714844 544.410156 19.613281 C 545.503906 20.507812 546.574219 21.433594 547.621094 22.382812 C 548.671875 23.332031 549.695312 24.304688 550.695312 25.304688 C 551.695312 26.304688 552.667969 27.328125 553.617188 28.378906 C 554.566406 29.425781 555.492188 30.496094 556.386719 31.589844 C 557.285156 32.679688 558.15625 33.796875 558.996094 34.929688 C 559.839844 36.066406 560.652344 37.222656 561.4375 38.398438 C 562.222656 39.574219 562.980469 40.769531 563.707031 41.980469 C 564.433594 43.195312 565.132812 44.425781 565.796875 45.671875 C 566.464844 46.917969 567.101562 48.179688 567.703125 49.460938 C 568.308594 50.738281 568.882812 52.03125 569.421875 53.335938 C 569.964844 54.640625 570.472656 55.960938 570.949219 57.292969 C 571.425781 58.625 571.867188 59.964844 572.28125 61.320312 C 572.691406 62.671875 573.066406 64.035156 573.410156 65.40625 C 573.753906 66.777344 574.0625 68.15625 574.339844 69.542969 C 574.617188 70.929688 574.855469 72.324219 575.066406 73.722656 C 575.273438 75.121094 575.445312 76.523438 575.582031 77.929688 C 575.722656 79.339844 575.828125 80.75 575.894531 82.160156 C 575.964844 83.574219 576 84.984375 576 86.398438 L 576 489.601562 C 576 491.015625 575.964844 492.425781 575.894531 493.839844 C 575.828125 495.25 575.722656 496.660156 575.582031 498.070312 C 575.445312 499.476562 575.273438 500.878906 575.066406 502.277344 C 574.855469 503.675781 574.617188 505.070312 574.339844 506.457031 C 574.0625 507.84375 573.753906 509.222656 573.410156 510.59375 C 573.066406 511.964844 572.691406 513.328125 572.28125 514.679688 C 571.867188 516.035156 571.425781 517.375 570.949219 518.707031 C 570.472656 520.039062 569.964844 521.355469 569.421875 522.664062 C 568.882812 523.96875 568.308594 525.261719 567.703125 526.539062 C 567.101562 527.820312 566.464844 529.082031 565.796875 530.328125 C 565.132812 531.574219 564.433594 532.804688 563.707031 534.019531 C 562.980469 535.230469 562.222656 536.425781 561.4375 537.601562 C 560.652344 538.777344 559.839844 539.933594 558.996094 541.066406 C 558.15625 542.203125 557.285156 543.320312 556.386719 544.410156 C 555.492188 545.503906 554.566406 546.574219 553.617188 547.621094 C 552.667969 548.671875 551.695312 549.695312 550.695312 550.695312 C 549.695312 551.695312 548.671875 552.667969 547.621094 553.617188 C 546.574219 554.566406 545.503906 555.492188 544.410156 556.386719 C 543.320312 557.285156 542.203125 558.15625 541.066406 558.996094 C 539.933594 559.839844 538.777344 560.652344 537.601562 561.4375 C 536.425781 562.222656 535.230469 562.980469 534.019531 563.707031 C 532.804688 564.433594 531.574219 565.132812 530.328125 565.796875 C 529.082031 566.464844 527.820312 567.101562 526.539062 567.703125 C 525.261719 568.308594 523.96875 568.882812 522.664062 569.421875 C 521.355469 569.964844 520.039062 570.472656 518.707031 570.949219 C 517.375 571.425781 516.035156 571.871094 514.679688 572.28125 C 513.328125 572.691406 511.964844 573.066406 510.59375 573.410156 C 509.222656 573.753906 507.84375 574.0625 506.457031 574.339844 C 505.070312 574.617188 503.675781 574.855469 502.277344 575.066406 C 500.878906 575.273438 499.476562 575.445312 498.070312 575.582031 C 496.660156 575.722656 495.25 575.828125 493.839844 575.894531 C 492.425781 575.964844 491.015625 576 489.601562 576 L 86.398438 576 C 84.984375 576 83.574219 575.964844 82.160156 575.894531 C 80.75 575.828125 79.339844 575.722656 77.929688 575.582031 C 76.523438 575.445312 75.121094 575.273438 73.722656 575.066406 C 72.324219 574.855469 70.929688 574.617188 69.542969 574.339844 C 68.15625 574.0625 66.777344 573.753906 65.40625 573.410156 C 64.035156 573.066406 62.671875 572.691406 61.320312 572.28125 C 59.964844 571.871094 58.625 571.425781 57.292969 570.949219 C 55.960938 570.472656 54.640625 569.964844 53.335938 569.421875 C 52.03125 568.882812 50.738281 568.308594 49.460938 567.703125 C 48.179688 567.101562 46.917969 566.464844 45.671875 565.796875 C 44.425781 565.132812 43.195312 564.433594 41.980469 563.707031 C 40.769531 562.980469 39.574219 562.222656 38.398438 561.4375 C 37.222656 560.652344 36.066406 559.839844 34.929688 558.996094 C 33.796875 558.15625 32.679688 557.285156 31.589844 556.386719 C 30.496094 555.492188 29.425781 554.566406 28.378906 553.617188 C 27.328125 552.667969 26.304688 551.695312 25.304688 550.695312 C 24.304688 549.695312 23.332031 548.671875 22.382812 547.621094 C 21.433594 546.574219 20.507812 545.503906 19.613281 544.410156 C 18.714844 543.320312 17.84375 542.203125 17.003906 541.066406 C 16.160156 539.933594 15.347656 538.777344 14.5625 537.601562 C 13.777344 536.425781 13.019531 535.230469 12.292969 534.019531 C 11.566406 532.804688 10.867188 531.574219 10.203125 530.328125 C 9.535156 529.082031 8.898438 527.820312 8.296875 526.539062 C 7.691406 525.261719 7.117188 523.96875 6.578125 522.664062 C 6.035156 521.355469 5.527344 520.039062 5.050781 518.707031 C 4.574219 517.375 4.128906 516.035156 3.71875 514.679688 C 3.308594 513.328125 2.933594 511.964844 2.589844 510.59375 C 2.246094 509.222656 1.9375 507.84375 1.660156 506.457031 C 1.382812 505.070312 1.144531 503.675781 0.933594 502.277344 C 0.726562 500.878906 0.554688 499.476562 0.417969 498.070312 C 0.277344 496.660156 0.171875 495.25 0.105469 493.839844 C 0.0351562 492.425781 0 491.015625 0 489.601562 L 0 86.398438 C 0 84.984375 0.0351562 83.574219 0.105469 82.160156 C 0.171875 80.75 0.277344 79.339844 0.417969 77.929688 C 0.554688 76.523438 0.726562 75.121094 0.933594 73.722656 C 1.144531 72.324219 1.382812 70.929688 1.660156 69.542969 C 1.9375 68.15625 2.246094 66.777344 2.589844 65.40625 C 2.933594 64.035156 3.308594 62.671875 3.71875 61.320312 C 4.128906 59.964844 4.574219 58.625 5.050781 57.292969 C 5.527344 55.960938 6.035156 54.640625 6.578125 53.335938 C 7.117188 52.03125 7.691406 50.738281 8.296875 49.460938 C 8.898438 48.179688 9.535156 46.917969 10.203125 45.671875 C 10.867188 44.425781 11.566406 43.195312 12.292969 41.980469 C 13.019531 40.769531 13.777344 39.574219 14.5625 38.398438 C 15.347656 37.222656 16.160156 36.066406 17.003906 34.929688 C 17.84375 33.796875 18.714844 32.679688 19.613281 31.589844 C 20.507812 30.496094 21.433594 29.425781 22.382812 28.378906 C 23.332031 27.328125 24.304688 26.304688 25.304688 25.304688 C 26.304688 24.304688 27.328125 23.332031 28.378906 22.382812 C 29.425781 21.433594 30.496094 20.507812 31.589844 19.613281 C 32.679688 18.714844 33.796875 17.84375 34.929688 17.003906 C 36.066406 16.160156 37.222656 15.347656 38.398438 14.5625 C 39.574219 13.777344 40.769531 13.019531 41.980469 12.292969 C 43.195312 11.566406 44.425781 10.867188 45.671875 10.203125 C 46.917969 9.535156 48.179688 8.898438 49.460938 8.296875 C 50.738281 7.691406 52.03125 7.117188 53.335938 6.578125 C 54.640625 6.035156 55.960938 5.527344 57.292969 5.050781 C 58.625 4.574219 59.964844 4.128906 61.320312 3.71875 C 62.671875 3.308594 64.035156 2.933594 65.40625 2.589844 C 66.777344 2.246094 68.15625 1.9375 69.542969 1.660156 C 70.929688 1.382812 72.324219 1.144531 73.722656 0.933594 C 75.121094 0.726562 76.523438 0.554688 77.929688 0.417969 C 79.339844 0.277344 80.75 0.171875 82.160156 0.105469 C 83.574219 0.0351562 84.984375 0 86.398438 0 Z M 86.398438 0 " fill-opacity="1" fill-rule="nonzero"/><path stroke-linecap="butt" transform="matrix(1.125, 0, 0, 1.125, 0, 0.00002)" fill="none" stroke-linejoin="miter" d="M 186.000008 107.999987 L 326.000014 107.999987 C 327.277791 107.999987 328.552097 108.031237 329.826403 108.093737 C 331.100708 108.156237 332.375014 108.249987 333.645847 108.374987 C 334.916681 108.499987 336.18057 108.656237 337.444459 108.843737 C 338.708347 109.031237 339.965292 109.249987 341.218764 109.499987 C 342.468764 109.746515 343.715292 110.027765 344.951403 110.336792 C 346.190987 110.649292 347.420153 110.98957 348.642376 111.357626 C 349.864598 111.729154 351.076404 112.128459 352.277792 112.559015 C 353.479181 112.98957 354.670154 113.447904 355.850709 113.937487 C 357.027793 114.42707 358.194459 114.944431 359.350709 115.48957 C 360.503487 116.034709 361.642376 116.607626 362.767376 117.211793 C 363.895848 117.812487 365.003487 118.440959 366.10071 119.097209 C 367.19446 119.753459 368.274321 120.437487 369.333349 121.145821 C 370.395849 121.854154 371.437515 122.590265 372.465293 123.350682 C 373.489599 124.111099 374.496543 124.895821 375.482655 125.704849 C 376.468766 126.513876 377.434044 127.34721 378.38196 128.204849 C 379.326405 129.062488 380.250016 129.944432 381.152794 130.84721 C 382.055571 131.749988 382.937516 132.673599 383.795155 133.618043 C 384.652794 134.56596 385.486127 135.531238 386.295155 136.517349 C 387.104183 137.50346 387.888905 138.510405 388.649322 139.53471 C 389.409738 140.562488 390.14585 141.604155 390.854183 142.666655 C 391.562516 143.725683 392.246544 144.805544 392.902794 145.899294 C 393.559044 146.996516 394.187516 148.104155 394.788211 149.232627 C 395.392378 150.357627 395.965294 151.496516 396.510433 152.649294 C 397.055572 153.805544 397.572933 154.972211 398.062517 156.149294 C 398.5521 157.32985 399.010433 158.520822 399.440989 159.722211 C 399.871544 160.9236 400.27085 162.135406 400.642378 163.357628 C 401.010433 164.57985 401.350711 165.809017 401.663211 167.0486 C 401.972239 168.284711 402.253489 169.531239 402.500017 170.781239 C 402.750017 172.034712 402.968767 173.291656 403.156267 174.555545 C 403.343767 175.819434 403.500017 177.083323 403.625017 178.354156 C 403.750017 179.62499 403.843767 180.899295 403.906267 182.173601 C 403.968767 183.447907 404.000017 184.722212 404.000017 185.99999 L 404.000017 325.999996 C 404.000017 327.277774 403.968767 328.552079 403.906267 329.826385 C 403.843767 331.10069 403.750017 332.374996 403.625017 333.645829 C 403.500017 334.916663 403.343767 336.180552 403.156267 337.444441 C 402.968767 338.70833 402.750017 339.965274 402.500017 341.218746 C 402.253489 342.468746 401.972239 343.715274 401.663211 344.951385 C 401.350711 346.190969 401.010433 347.420136 400.642378 348.642358 C 400.27085 349.86458 399.871544 351.076386 399.440989 352.277775 C 399.010433 353.479164 398.5521 354.670136 398.062517 355.850691 C 397.572933 357.027775 397.055572 358.194442 396.510433 359.350692 C 395.965294 360.503469 395.392378 361.642358 394.788211 362.767358 C 394.187516 363.895831 393.559044 365.00347 392.902794 366.100692 C 392.246544 367.194442 391.562516 368.274303 390.854183 369.333331 C 390.14585 370.395831 389.409738 371.437498 388.649322 372.465276 C 387.888905 373.489581 387.104183 374.496526 386.295155 375.482637 C 385.486127 376.468748 384.652794 377.434026 383.795155 378.381942 C 382.937516 379.326387 382.055571 380.249998 381.152794 381.152776 C 380.250016 382.055554 379.326405 382.937498 378.38196 383.795137 C 377.434044 384.652776 376.468766 385.486109 375.482655 386.295137 C 374.496543 387.104165 373.489599 387.888887 372.465293 388.649304 C 371.437515 389.409721 370.395849 390.145832 369.333349 390.854165 C 368.274321 391.562499 367.19446 392.246526 366.10071 392.902776 C 365.003487 393.559026 363.895848 394.187499 362.767376 394.788193 C 361.642376 395.39236 360.503487 395.965276 359.350709 396.510415 C 358.194459 397.055554 357.027793 397.572915 355.850709 398.062499 C 354.670154 398.552082 353.479181 399.010416 352.277792 399.440971 C 351.076404 399.871527 349.864598 400.270832 348.642376 400.64236 C 347.420153 401.010416 346.190987 401.350693 344.951403 401.663193 C 343.715292 401.972221 342.468764 402.253471 341.218764 402.499999 C 339.965292 402.749999 338.708347 402.968749 337.444459 403.156249 C 336.18057 403.343749 334.916681 403.499999 333.645847 403.624999 C 332.375014 403.749999 331.100708 403.843749 329.826403 403.906249 C 328.552097 403.968749 327.277791 403.999999 326.000014 403.999999 L 186.000008 403.999999 C 184.72223 403.999999 183.447924 403.968749 182.173619 403.906249 C 180.899313 403.843749 179.625007 403.749999 178.354174 403.624999 C 177.083341 403.499999 175.81598 403.343749 174.555563 403.156249 C 173.291674 402.968749 172.034729 402.749999 170.781257 402.499999 C 169.531257 402.253471 168.284729 401.972221 167.048618 401.663193 C 165.809035 401.350693 164.579868 401.010416 163.357646 400.64236 C 162.135423 400.270832 160.923618 399.871527 159.722229 399.440971 C 158.52084 399.010416 157.329868 398.552082 156.149312 398.062499 C 154.972229 397.572915 153.805562 397.055554 152.649312 396.510415 C 151.496534 395.965276 150.357645 395.39236 149.232645 394.788193 C 148.104173 394.187499 146.996534 393.559026 145.899312 392.902776 C 144.805562 392.246526 143.7257 391.562499 142.666673 390.854165 C 141.604173 390.145832 140.559034 389.409721 139.534728 388.649304 C 138.510422 387.888887 137.503478 387.104165 136.517367 386.295137 C 135.531256 385.486109 134.562506 384.652776 133.618061 383.795137 C 132.673617 382.937498 131.750005 382.055554 130.847228 381.152776 C 129.94445 380.249998 129.062505 379.326387 128.204866 378.381942 C 127.347228 377.434026 126.513894 376.468748 125.704866 375.482637 C 124.895839 374.496526 124.111116 373.489581 123.3507 372.465276 C 122.590283 371.437498 121.854172 370.395831 121.145838 369.333331 C 120.437505 368.274303 119.753477 367.194442 119.097227 366.100692 C 118.440977 365.00347 117.812505 363.895831 117.21181 362.767358 C 116.607644 361.642358 116.034727 360.503469 115.489588 359.350692 C 114.944449 358.194442 114.427088 357.027775 113.937505 355.850691 C 113.447921 354.670136 112.989588 353.479164 112.559032 352.277775 C 112.128477 351.076386 111.729171 349.86458 111.357644 348.642358 C 110.989588 347.420136 110.64931 346.190969 110.33681 344.951385 C 110.027782 343.715274 109.746532 342.468746 109.500005 341.218746 C 109.250005 339.965274 109.031255 338.70833 108.843755 337.444441 C 108.656255 336.180552 108.500005 334.916663 108.375005 333.645829 C 108.250005 332.374996 108.156255 331.10069 108.093755 329.826385 C 108.031255 328.552079 108.000005 327.277774 108.000005 325.999996 L 108.000005 185.99999 C 108.000005 184.722212 108.031255 183.447907 108.093755 182.173601 C 108.156255 180.899295 108.250005 179.62499 108.375005 178.354156 C 108.500005 177.083323 108.656255 175.819434 108.843755 174.555545 C 109.031255 173.291656 109.250005 172.034712 109.500005 170.781239 C 109.746532 169.531239 110.027782 168.284711 110.33681 167.0486 C 110.64931 165.809017 110.989588 164.57985 111.357644 163.357628 C 111.729171 162.135406 112.128477 160.9236 112.559032 159.722211 C 112.989588 158.520822 113.447921 157.32985 113.937505 156.149294 C 114.427088 154.972211 114.944449 153.805544 115.489588 152.649294 C 116.034727 151.496516 116.607644 150.357627 117.21181 149.232627 C 117.812505 148.104155 118.440977 146.996516 119.097227 145.899294 C 119.753477 144.805544 120.437505 143.725683 121.145838 142.666655 C 121.854172 141.604155 122.590283 140.559016 123.3507 139.53471 C 124.111116 138.510405 124.895839 137.50346 125.704866 136.517349 C 126.513894 135.531238 127.347228 134.56596 128.204866 133.618043 C 129.062505 132.673599 129.94445 131.749988 130.847228 130.84721 C 131.750005 129.944432 132.673617 129.062488 133.618061 128.204849 C 134.562506 127.34721 135.531256 126.513876 136.517367 125.704849 C 137.503478 124.895821 138.510422 124.111099 139.534728 123.350682 C 140.559034 122.590265 141.604173 121.854154 142.666673 121.145821 C 143.7257 120.437487 144.805562 119.753459 145.899312 119.097209 C 146.996534 118.440959 148.104173 117.812487 149.232645 117.211793 C 150.357645 116.607626 151.496534 116.034709 152.649312 115.48957 C 153.805562 114.944431 154.972229 114.42707 156.149312 113.937487 C 157.329868 113.447904 158.52084 112.98957 159.722229 112.559015 C 160.923618 112.128459 162.135423 111.729154 163.357646 111.357626 C 164.579868 110.98957 165.809035 110.649292 167.048618 110.336792 C 168.284729 110.027765 169.531257 109.746515 170.781257 109.499987 C 172.034729 109.249987 173.291674 109.031237 174.555563 108.843737 C 175.81598 108.656237 177.083341 108.499987 178.354174 108.374987 C 179.625007 108.249987 180.899313 108.156237 182.173619 108.093737 C 183.447924 108.031237 184.72223 107.999987 186.000008 107.999987 Z M 186.000008 107.999987 " stroke="#ffffff" stroke-width="29" stroke-opacity="1" stroke-miterlimit="4"/><path stroke-linecap="butt" transform="matrix(1.125, 0, 0, 1.125, 0, 0.00002)" fill="none" stroke-linejoin="miter" d="M 325.000014 255.999993 C 325.000014 257.128465 324.972236 258.256937 324.91668 259.38541 C 324.861125 260.513882 324.777791 261.638882 324.66668 262.763882 C 324.555569 263.88541 324.420152 265.006938 324.253486 266.124993 C 324.086819 267.243049 323.895847 268.35416 323.673625 269.461799 C 323.454875 270.569438 323.204875 271.670132 322.930569 272.767355 C 322.656263 273.861105 322.357652 274.94791 322.027791 276.031244 C 321.701402 277.111105 321.347236 278.180549 320.965291 279.246522 C 320.586819 280.309022 320.180569 281.361105 319.746541 282.406244 C 319.315986 283.447911 318.857652 284.479161 318.375013 285.499994 C 317.892374 286.520827 317.38543 287.531244 316.85418 288.527772 C 316.319458 289.520828 315.763902 290.503467 315.184041 291.472217 C 314.60418 292.440967 314.000013 293.395828 313.371541 294.333328 C 312.743069 295.2743 312.093763 296.194439 311.420152 297.104161 C 310.750013 298.010411 310.055568 298.8993 309.336818 299.7743 C 308.621541 300.645828 307.885429 301.499995 307.125013 302.3368 C 306.368068 303.173606 305.590291 303.99305 304.791679 304.791662 C 303.993068 305.590273 303.173624 306.368051 302.336818 307.124995 C 301.500013 307.885412 300.645846 308.621523 299.774318 309.336801 C 298.899318 310.055551 298.010429 310.749995 297.104179 311.420134 C 296.194457 312.093745 295.274318 312.743051 294.333346 313.371523 C 293.395846 313.999995 292.440984 314.604162 291.472234 315.184023 C 290.503484 315.763884 289.520845 316.31944 288.52779 316.854162 C 287.531262 317.385412 286.520845 317.892357 285.500012 318.374995 C 284.479179 318.857634 283.447928 319.315968 282.406262 319.746523 C 281.361123 320.180551 280.309039 320.586801 279.246539 320.965273 C 278.180567 321.347218 277.111123 321.701385 276.031262 322.027773 C 274.947928 322.357635 273.861123 322.656246 272.7639 322.930551 C 271.67015 323.204857 270.569456 323.454857 269.461817 323.673607 C 268.354178 323.895829 267.243067 324.086801 266.125011 324.253468 C 265.006955 324.420135 263.885428 324.555551 262.7639 324.666662 C 261.6389 324.777774 260.5139 324.861107 259.385427 324.916662 C 258.256955 324.972218 257.128483 324.999996 256.000011 324.999996 C 254.871538 324.999996 253.743066 324.972218 252.614594 324.916662 C 251.486122 324.861107 250.361122 324.777774 249.236121 324.666662 C 248.114594 324.555551 246.993066 324.420135 245.87501 324.253468 C 244.756955 324.086801 243.645843 323.895829 242.538205 323.673607 C 241.430566 323.454857 240.329871 323.204857 239.232649 322.930551 C 238.138899 322.656246 237.052093 322.357635 235.96876 322.027773 C 234.888899 321.701385 233.819454 321.347218 232.753482 320.965273 C 231.690982 320.586801 230.638898 320.180551 229.59376 319.746523 C 228.552093 319.315968 227.520843 318.857634 226.500009 318.374995 C 225.479176 317.892357 224.468759 317.385412 223.472232 316.854162 C 222.479176 316.31944 221.496537 315.763884 220.527787 315.184023 C 219.559037 314.604162 218.604176 313.999995 217.666676 313.371523 C 216.725703 312.743051 215.802092 312.093745 214.895842 311.420134 C 213.989592 310.749995 213.100703 310.055551 212.225703 309.336801 C 211.354175 308.621523 210.500009 307.885412 209.663203 307.124995 C 208.826398 306.368051 208.006953 305.590273 207.208342 304.791662 C 206.409731 303.99305 205.631953 303.173606 204.875009 302.3368 C 204.114592 301.499995 203.378481 300.645828 202.663203 299.7743 C 201.944453 298.8993 201.250008 298.010411 200.579869 297.104161 C 199.906258 296.194439 199.256953 295.2743 198.62848 294.333328 C 198.000008 293.395828 197.395842 292.440967 196.81598 291.472217 C 196.236119 290.503467 195.680564 289.520828 195.145841 288.527772 C 194.614591 287.531244 194.107647 286.520827 193.625008 285.499994 C 193.142369 284.479161 192.684036 283.447911 192.25348 282.406244 C 191.819452 281.361105 191.413202 280.309022 191.03473 279.246522 C 190.652786 278.180549 190.298619 277.111105 189.97223 276.031244 C 189.642369 274.94791 189.343758 273.861105 189.069452 272.767355 C 188.795147 271.670132 188.545147 270.569438 188.326397 269.461799 C 188.104175 268.35416 187.913202 267.243049 187.746536 266.124993 C 187.579869 265.006938 187.444452 263.88541 187.333341 262.763882 C 187.22223 261.638882 187.138897 260.513882 187.083341 259.38541 C 187.027786 258.256937 187.000008 257.128465 187.000008 255.999993 C 187.000008 254.871521 187.027786 253.743048 187.083341 252.614576 C 187.138897 251.486104 187.22223 250.361104 187.333341 249.236104 C 187.444452 248.114576 187.579869 246.993048 187.746536 245.874992 C 187.913202 244.756937 188.104175 243.645826 188.326397 242.538187 C 188.545147 241.430548 188.795147 240.329853 189.069452 239.232631 C 189.343758 238.138881 189.642369 237.052075 189.97223 235.968742 C 190.298619 234.888881 190.652786 233.819436 191.03473 232.753464 C 191.413202 231.690964 191.819452 230.638881 192.25348 229.593742 C 192.684036 228.552075 193.142369 227.520825 193.625008 226.499992 C 194.107647 225.479158 194.614591 224.468742 195.145841 223.472214 C 195.680564 222.479158 196.236119 221.496519 196.81598 220.527769 C 197.395842 219.559019 198.000008 218.604158 198.62848 217.666658 C 199.256953 216.725686 199.906258 215.802075 200.579869 214.895825 C 201.250008 213.989574 201.944453 213.100686 202.663203 212.225686 C 203.378481 211.354158 204.114592 210.499991 204.875009 209.663185 C 205.631953 208.82638 206.409731 208.006935 207.208342 207.208324 C 208.006953 206.409713 208.826398 205.631935 209.663203 204.874991 C 210.500009 204.114574 211.354175 203.378463 212.225703 202.663185 C 213.100703 201.944435 213.989592 201.249991 214.895842 200.579852 C 215.802092 199.906241 216.725703 199.256935 217.666676 198.628463 C 218.604176 197.99999 219.559037 197.395824 220.527787 196.815963 C 221.496537 196.236102 222.479176 195.680546 223.472232 195.145824 C 224.468759 194.614574 225.479176 194.107629 226.500009 193.62499 C 227.520843 193.142351 228.552093 192.684018 229.59376 192.253462 C 230.638898 191.819435 231.690982 191.413185 232.753482 191.034712 C 233.819454 190.652768 234.888899 190.298601 235.96876 189.972212 C 237.052093 189.642351 238.138899 189.34374 239.232649 189.069435 C 240.329871 188.795129 241.430566 188.545129 242.538205 188.326379 C 243.645843 188.104157 244.756955 187.913184 245.87501 187.746518 C 246.993066 187.579851 248.114594 187.444434 249.236121 187.333323 C 250.361122 187.222212 251.486122 187.138879 252.614594 187.083323 C 253.743066 187.027768 254.871538 186.99999 256.000011 186.99999 C 257.128483 186.99999 258.256955 187.027768 259.385427 187.083323 C 260.5139 187.138879 261.6389 187.222212 262.7639 187.333323 C 263.885428 187.444434 265.006955 187.579851 266.125011 187.746518 C 267.243067 187.913184 268.354178 188.104157 269.461817 188.326379 C 270.569456 188.545129 271.67015 188.795129 272.7639 189.069435 C 273.861123 189.34374 274.947928 189.642351 276.031262 189.972212 C 277.111123 190.298601 278.180567 190.652768 279.246539 191.034712 C 280.309039 191.413185 281.361123 191.819435 282.406262 192.253462 C 283.447928 192.684018 284.479179 193.142351 285.500012 193.62499 C 286.520845 194.107629 287.531262 194.614574 288.52779 195.145824 C 289.520845 195.680546 290.503484 196.236102 291.472234 196.815963 C 292.440984 197.395824 293.395846 197.99999 294.333346 198.628463 C 295.274318 199.256935 296.194457 199.906241 297.104179 200.579852 C 298.010429 201.249991 298.899318 201.944435 299.774318 202.663185 C 300.645846 203.378463 301.500013 204.114574 302.336818 204.874991 C 303.173624 205.631935 303.993068 206.409713 304.791679 207.208324 C 305.590291 208.006935 306.368068 208.82638 307.125013 209.663185 C 307.885429 210.499991 308.621541 211.354158 309.336818 212.225686 C 310.055568 213.100686 310.750013 213.989574 311.420152 214.895825 C 312.093763 215.802075 312.743069 216.725686 313.371541 217.666658 C 314.000013 218.604158 314.60418 219.559019 315.184041 220.527769 C 315.763902 221.496519 316.319458 222.479158 316.85418 223.472214 C 317.38543 224.468742 317.892374 225.479158 318.375013 226.499992 C 318.857652 227.520825 319.315986 228.552075 319.746541 229.593742 C 320.180569 230.638881 320.586819 231.690964 320.965291 232.753464 C 321.347236 233.819436 321.701402 234.888881 322.027791 235.968742 C 322.357652 237.052075 322.656263 238.138881 322.930569 239.232631 C 323.204875 240.329853 323.454875 241.430548 323.673625 242.538187 C 323.895847 243.645826 324.086819 244.756937 324.253486 245.874992 C 324.420152 246.993048 324.555569 248.114576 324.66668 249.236104 C 324.777791 250.361104 324.861125 251.486104 324.91668 252.614576 C 324.972236 253.743048 325.000014 254.871521 325.000014 255.999993 Z M 325.000014 255.999993 " stroke="#ffffff" stroke-width="29" stroke-opacity="1" stroke-miterlimit="4"/><path fill="#ffffff" d="M 407.25 190.125 C 407.25 190.824219 407.214844 191.523438 407.148438 192.21875 C 407.078125 192.917969 406.976562 193.609375 406.839844 194.296875 C 406.703125 194.980469 406.53125 195.660156 406.328125 196.328125 C 406.125 197 405.890625 197.65625 405.621094 198.304688 C 405.355469 198.953125 405.054688 199.582031 404.726562 200.199219 C 404.394531 200.820312 404.035156 201.417969 403.648438 202 C 403.257812 202.582031 402.84375 203.144531 402.398438 203.683594 C 401.953125 204.226562 401.484375 204.746094 400.988281 205.238281 C 400.496094 205.734375 399.976562 206.203125 399.433594 206.648438 C 398.894531 207.09375 398.332031 207.507812 397.75 207.898438 C 397.167969 208.285156 396.570312 208.644531 395.949219 208.976562 C 395.332031 209.304688 394.703125 209.605469 394.054688 209.871094 C 393.40625 210.140625 392.75 210.375 392.078125 210.578125 C 391.410156 210.78125 390.730469 210.953125 390.046875 211.089844 C 389.359375 211.226562 388.667969 211.328125 387.96875 211.398438 C 387.273438 211.464844 386.574219 211.5 385.875 211.5 C 385.175781 211.5 384.476562 211.464844 383.78125 211.398438 C 383.082031 211.328125 382.390625 211.226562 381.703125 211.089844 C 381.019531 210.953125 380.339844 210.78125 379.671875 210.578125 C 379 210.375 378.34375 210.140625 377.695312 209.871094 C 377.046875 209.605469 376.417969 209.304688 375.800781 208.976562 C 375.179688 208.644531 374.582031 208.285156 374 207.898438 C 373.417969 207.507812 372.855469 207.09375 372.316406 206.648438 C 371.773438 206.203125 371.253906 205.734375 370.761719 205.238281 C 370.265625 204.746094 369.796875 204.226562 369.351562 203.683594 C 368.90625 203.144531 368.492188 202.582031 368.101562 202 C 367.714844 201.417969 367.355469 200.820312 367.023438 200.199219 C 366.695312 199.582031 366.394531 198.953125 366.128906 198.304688 C 365.859375 197.65625 365.625 197 365.421875 196.328125 C 365.21875 195.660156 365.046875 194.980469 364.910156 194.296875 C 364.773438 193.609375 364.671875 192.917969 364.601562 192.21875 C 364.535156 191.523438 364.5 190.824219 364.5 190.125 C 364.5 189.425781 364.535156 188.726562 364.601562 188.03125 C 364.671875 187.332031 364.773438 186.640625 364.910156 185.953125 C 365.046875 185.269531 365.21875 184.589844 365.421875 183.921875 C 365.625 183.25 365.859375 182.59375 366.128906 181.945312 C 366.394531 181.296875 366.695312 180.667969 367.023438 180.050781 C 367.355469 179.429688 367.714844 178.832031 368.101562 178.25 C 368.492188 177.667969 368.90625 177.105469 369.351562 176.566406 C 369.796875 176.023438 370.265625 175.503906 370.761719 175.011719 C 371.253906 174.515625 371.773438 174.046875 372.316406 173.601562 C 372.855469 173.15625 373.417969 172.742188 374 172.351562 C 374.582031 171.964844 375.179688 171.605469 375.800781 171.273438 C 376.417969 170.945312 377.046875 170.644531 377.695312 170.378906 C 378.34375 170.109375 379 169.875 379.671875 169.671875 C 380.339844 169.46875 381.019531 169.296875 381.703125 169.160156 C 382.390625 169.023438 383.082031 168.921875 383.78125 168.851562 C 384.476562 168.785156 385.175781 168.75 385.875 168.75 C 386.574219 168.75 387.273438 168.785156 387.96875 168.851562 C 388.667969 168.921875 389.359375 169.023438 390.046875 169.160156 C 390.730469 169.296875 391.410156 169.46875 392.078125 169.671875 C 392.75 169.875 393.40625 170.109375 394.054688 170.378906 C 394.703125 170.644531 395.332031 170.945312 395.949219 171.273438 C 396.570312 171.605469 397.167969 171.964844 397.75 172.351562 C 398.332031 172.742188 398.894531 173.15625 399.433594 173.601562 C 399.976562 174.046875 400.496094 174.515625 400.988281 175.011719 C 401.484375 175.503906 401.953125 176.023438 402.398438 176.566406 C 402.84375 177.105469 403.257812 177.667969 403.648438 178.25 C 404.035156 178.832031 404.394531 179.429688 404.726562 180.050781 C 405.054688 180.667969 405.355469 181.296875 405.621094 181.945312 C 405.890625 182.59375 406.125 183.25 406.328125 183.921875 C 406.53125 184.589844 406.703125 185.269531 406.839844 185.953125 C 406.976562 186.640625 407.078125 187.332031 407.148438 188.03125 C 407.214844 188.726562 407.25 189.425781 407.25 190.125 Z M 407.25 190.125 " fill-opacity="1" fill-rule="nonzero"/></svg>