<svg xmlns="http://www.w3.org/2000/svg" xmlns:xlink="http://www.w3.org/1999/xlink" width="768" zoomAndPan="magnify" viewBox="0 0 576 576" height="768" preserveAspectRatio="xMidYMid meet" version="1.0"><defs><clipPath id="f434ac4da3"><path d="M 2.09375 294 L 37 294 L 37 303 L 2.09375 303 Z M 2.09375 294 " clip-rule="nonzero"/></clipPath><clipPath id="1b33f4cdd1"><path d="M 541 291 L 575.84375 291 L 575.84375 307 L 541 307 Z M 541 291 " clip-rule="nonzero"/></clipPath><clipPath id="9bed4fb897"><path d="M 569 299 L 575.84375 299 L 575.84375 314 L 569 314 Z M 569 299 " clip-rule="nonzero"/></clipPath></defs><path fill="#ffffff" d="M 428.855469 250.367188 C 422.15625 246.792969 419.253906 240.539062 414.566406 235.847656 C 412.558594 233.839844 411.21875 230.042969 408.539062 230.9375 C 406.527344 231.605469 405.636719 235.402344 404.964844 238.304688 C 404.519531 240.316406 403.402344 242.101562 402.730469 243.890625 C 401.839844 247.015625 399.382812 246.125 397.148438 246.125 C 394.246094 246.125 393.800781 244.335938 393.578125 242.101562 C 393.132812 236.296875 396.035156 231.382812 397.148438 226.023438 C 398.265625 221.332031 400.054688 216.867188 401.394531 212.398438 C 402.507812 208.378906 404.742188 208.15625 407.421875 211.058594 C 410.101562 213.960938 412.558594 216.867188 415.011719 219.769531 C 416.128906 220.886719 416.800781 222.894531 418.808594 222.003906 C 420.59375 221.332031 419.925781 219.546875 419.925781 218.207031 C 420.371094 207.484375 421.042969 196.542969 421.488281 185.820312 C 421.488281 184.257812 420.816406 182.246094 423.050781 181.578125 C 424.835938 181.128906 425.285156 182.917969 426.175781 184.035156 C 437.789062 194.976562 448.058594 207.039062 456.542969 220.214844 C 467.039062 236.296875 474.851562 253.492188 474.851562 273.148438 C 474.851562 310 440.019531 333.671875 406.304688 322.730469 C 396.925781 319.601562 389.558594 312.902344 383.53125 305.085938 C 371.917969 290.121094 366.785156 272.925781 365.445312 254.386719 C 365.21875 252.601562 365.21875 250.589844 366.335938 249.027344 C 367.898438 247.238281 369.015625 244.335938 371.917969 245.453125 C 374.375 246.347656 376.386719 248.132812 376.386719 251.261719 C 376.160156 257.960938 376.832031 264.660156 378.839844 271.136719 C 383.304688 286.546875 390.453125 300.171875 404.070312 309.105469 C 421.710938 320.496094 446.050781 312.679688 456.988281 296.375 C 467.039062 281.636719 465.25 266.222656 459.667969 250.589844 C 454.3125 236.296875 445.824219 223.789062 436.449219 211.730469 C 435.332031 210.164062 434.214844 207.039062 431.535156 208.15625 C 429.078125 209.046875 430.195312 212.175781 430.195312 214.183594 C 430.417969 226.023438 430.644531 237.636719 428.855469 250.367188 Z M 428.855469 250.367188 " fill-opacity="1" fill-rule="nonzero"/><path fill="#ffffff" d="M 229.019531 366.503906 C 254.25 343.054688 278.140625 318.261719 302.476562 293.695312 C 309.625 287.886719 316.097656 280.964844 324.804688 277.167969 C 332.84375 273.816406 340.660156 275.605469 346.242188 282.082031 C 353.609375 290.792969 356.960938 301.734375 361.203125 312.007812 C 365.890625 322.953125 368.125 334.789062 373.480469 345.511719 C 375.269531 349.085938 372.8125 351.539062 370.132812 352.882812 C 366.785156 354.667969 364.328125 352.433594 363.210938 349.753906 C 360.308594 342.605469 357.628906 335.011719 355.171875 327.644531 C 350.929688 314.914062 346.464844 302.183594 339.320312 290.570312 C 336.417969 286.101562 331.726562 284.984375 326.59375 288.335938 C 314.3125 296.597656 303.59375 306.871094 293.992188 318.039062 C 278.140625 333.671875 262.0625 349.085938 246.433594 364.941406 C 241.296875 370.078125 235.492188 374.546875 231.25 380.574219 C 222.765625 387.722656 214.28125 395.09375 205.796875 402.238281 C 191.507812 414.746094 177.214844 427.253906 162.703125 439.539062 C 160.46875 441.324219 157.566406 444.003906 153.996094 441.324219 C 150.421875 438.644531 150.867188 435.070312 155.78125 430.828125 C 167.839844 420.554688 179.894531 410.503906 191.953125 400.230469 C 204.457031 389.734375 216.960938 378.34375 229.019531 366.503906 Z M 229.019531 366.503906 " fill-opacity="1" fill-rule="nonzero"/><path fill="#ffffff" d="M 104.425781 79.0625 C 105.097656 88.21875 107.328125 94.921875 109.5625 101.621094 C 110.453125 104.523438 111.792969 107.425781 109.785156 110.109375 C 107.773438 112.566406 105.097656 111.449219 102.191406 111.222656 C 94.378906 110.332031 87.457031 105.640625 78.523438 106.757812 C 83.214844 111.449219 87.902344 115.914062 92.367188 120.605469 C 93.933594 122.167969 96.835938 123.507812 93.707031 126.410156 C 91.699219 128.199219 91.027344 129.09375 88.574219 126.636719 C 82.992188 120.605469 76.738281 115.019531 70.710938 109.214844 C 68.925781 107.425781 66.914062 105.417969 68.476562 102.960938 C 70.039062 100.503906 72.050781 98.71875 75.621094 99.164062 C 82.097656 99.835938 88.125 102.066406 94.378906 103.632812 C 95.269531 103.855469 96.164062 104.746094 97.28125 104.746094 C 99.515625 104.746094 101.96875 106.980469 103.53125 105.195312 C 105.320312 103.40625 103.085938 101.175781 102.640625 98.941406 C 101.078125 92.015625 99.515625 85.09375 97.058594 78.394531 C 95.496094 74.371094 98.84375 71.917969 101.523438 69.90625 C 104.648438 67.449219 105.765625 71.023438 107.328125 72.363281 C 112.6875 77.277344 117.824219 82.414062 123.183594 87.550781 C 125.191406 89.558594 127.871094 91.792969 125.191406 94.695312 C 122.289062 97.824219 120.277344 94.921875 118.269531 92.6875 C 114.25 88.445312 110.007812 84.421875 104.425781 79.0625 Z M 104.425781 79.0625 " fill-opacity="1" fill-rule="nonzero"/><path fill="#ffffff" d="M 42.578125 410.058594 C 47.488281 406.484375 53.292969 405.367188 58.875 403.355469 C 60.664062 402.6875 62.894531 400.007812 64.457031 403.578125 C 65.796875 406.929688 63.566406 408.492188 60.886719 409.609375 C 53.964844 412.289062 47.042969 415.195312 40.121094 417.648438 C 38.109375 418.320312 35.65625 422.339844 33.421875 418.320312 C 31.636719 414.96875 29.625 411.398438 33.421875 407.375 C 38.558594 401.792969 42.800781 395.539062 47.265625 389.734375 C 49.945312 386.160156 49.050781 384.820312 44.808594 384.59375 C 37.21875 383.925781 29.402344 382.585938 21.8125 382.140625 C 16.898438 381.914062 16.675781 377.894531 15.558594 374.992188 C 14.21875 371.417969 17.570312 371.195312 20.023438 370.078125 C 27.394531 367.175781 34.539062 364.046875 41.683594 360.921875 C 43.691406 360.027344 45.703125 359.132812 47.265625 362.039062 C 49.050781 365.386719 46.371094 365.835938 44.585938 366.726562 C 39.898438 368.960938 35.429688 370.972656 30.742188 372.980469 C 29.625 373.652344 27.839844 374.097656 28.285156 375.886719 C 28.734375 377.671875 30.296875 377.449219 31.859375 377.671875 C 38.109375 378.34375 44.363281 378.789062 50.613281 379.90625 C 57.535156 381.023438 58.652344 384.59375 54.1875 389.957031 C 49.722656 395.539062 45.257812 400.898438 40.789062 406.484375 C 38.78125 407.375 37.886719 408.941406 39.449219 410.726562 C 40.566406 412.511719 41.90625 411.621094 42.578125 410.058594 Z M 42.578125 410.058594 " fill-opacity="1" fill-rule="nonzero"/><path fill="#ffffff" d="M 296.671875 31.9375 C 296.671875 26.132812 296.449219 20.546875 296.226562 14.742188 C 296.226562 13.402344 296.894531 11.613281 294.886719 11.167969 C 293.324219 10.945312 292.652344 12.285156 291.984375 13.625 C 289.082031 19.652344 286.179688 25.683594 282.828125 31.492188 C 279.925781 36.851562 276.128906 37.074219 272.78125 31.9375 C 269.207031 26.578125 265.859375 20.996094 262.511719 15.632812 C 261.839844 14.515625 261.171875 12.730469 259.609375 12.953125 C 257.375 13.402344 258.042969 15.410156 258.042969 16.972656 C 258.042969 22.109375 258.269531 27.246094 258.492188 32.160156 C 258.492188 34.171875 258.492188 35.957031 255.8125 36.179688 C 253.132812 36.40625 252.238281 34.839844 252.015625 32.382812 C 251.570312 24.34375 251.125 16.082031 250.675781 8.039062 C 250.675781 5.808594 249.113281 2.679688 252.910156 2.234375 C 256.257812 1.785156 259.832031 0.671875 262.0625 4.691406 C 265.859375 11.167969 269.878906 17.421875 273.898438 23.675781 C 276.578125 28.140625 278.140625 27.917969 280.375 23.449219 C 283.722656 17.199219 287.519531 11.167969 289.972656 4.691406 C 291.984375 -0.671875 296.003906 -0.671875 299.796875 0.222656 C 303.816406 1.117188 301.363281 4.914062 301.808594 7.371094 C 301.585938 16.082031 300.914062 24.566406 302.925781 33.054688 C 301.136719 33.5 298.90625 33.054688 296.671875 31.9375 Z M 296.671875 31.9375 " fill-opacity="1" fill-rule="nonzero"/><path fill="#ffffff" d="M 492.269531 439.316406 C 493.832031 439.089844 494.726562 440.207031 495.839844 441.101562 C 502.539062 446.683594 509.015625 452.492188 515.714844 458.074219 C 517.054688 459.191406 517.945312 460.753906 517.054688 462.320312 C 515.714844 464.550781 513.925781 466.339844 510.800781 466.339844 C 501.199219 466.785156 491.597656 467.457031 482.222656 468.125 C 480.433594 468.347656 478.203125 467.457031 477.308594 469.6875 C 476.414062 471.921875 478.871094 472.371094 480.210938 473.484375 C 484.230469 476.835938 488.027344 480.410156 491.820312 484.207031 C 493.609375 485.992188 495.171875 487.332031 492.492188 490.011719 C 489.8125 492.691406 488.695312 490.683594 487.132812 489.34375 C 481.105469 483.984375 474.628906 478.847656 468.824219 473.261719 C 467.484375 471.921875 463.910156 471.253906 465.476562 468.347656 C 466.816406 466.117188 468.152344 463.433594 471.726562 463.210938 C 479.542969 462.988281 487.132812 462.542969 494.949219 462.09375 C 498.519531 461.871094 503.878906 463.210938 504.996094 460.308594 C 506.113281 457.183594 500.753906 455.394531 498.519531 452.714844 C 495.839844 449.589844 491.820312 448.472656 489.589844 444.898438 C 487.355469 441.769531 488.917969 440.207031 492.269531 439.316406 Z M 492.269531 439.316406 " fill-opacity="1" fill-rule="nonzero"/><path fill="#ffffff" d="M 544.515625 343.277344 C 543.847656 343.054688 542.953125 343.054688 542.285156 342.832031 C 540.722656 340.597656 536.925781 340.597656 537.371094 336.800781 C 538.265625 334.566406 539.605469 335.011719 541.167969 336.128906 C 541.835938 337.695312 543.175781 337.46875 544.515625 337.246094 C 552.554688 337.246094 559.699219 341.265625 567.292969 343.277344 C 571.3125 344.394531 569.523438 348.191406 567.960938 350.871094 C 566.175781 353.550781 563.050781 354.445312 560.59375 356.007812 C 553.671875 359.804688 546.75 363.378906 539.828125 367.175781 C 538.710938 367.84375 537.371094 368.515625 537.371094 369.632812 C 537.371094 371.195312 539.160156 370.972656 540.273438 371.417969 C 545.632812 372.980469 551.214844 374.546875 556.574219 376.109375 C 559.253906 376.777344 561.261719 378.117188 560.59375 381.023438 C 559.921875 384.371094 557.46875 383.03125 555.234375 382.808594 C 546.75 381.914062 538.933594 377.671875 530.671875 376.109375 C 526.65625 375.214844 525.761719 372.757812 527.992188 369.410156 C 529.109375 367.621094 530.226562 366.28125 532.238281 365.164062 C 538.042969 362.261719 543.847656 358.6875 549.652344 355.5625 C 553 355.5625 555.457031 354.222656 557.691406 351.988281 C 558.582031 350.871094 561.261719 351.09375 560.371094 348.636719 C 559.699219 346.851562 557.914062 346.628906 556.351562 346.851562 C 554.117188 346.179688 551.660156 346.628906 549.652344 345.289062 C 548.535156 342.832031 546.527344 342.832031 544.515625 343.277344 Z M 544.515625 343.277344 " fill-opacity="1" fill-rule="nonzero"/><path fill="#ffffff" d="M 223.882812 534.234375 C 238.171875 537.363281 246.65625 547.1875 241.074219 559.917969 C 239.066406 564.386719 235.492188 567.289062 231.25 568.183594 C 219.417969 570.191406 207.582031 569.523438 198.429688 560.367188 C 194.1875 556.121094 192.847656 550.09375 194.632812 544.507812 C 196.640625 538.703125 200.660156 534.457031 207.359375 533.789062 C 208.699219 534.234375 209.816406 534.011719 210.484375 532.449219 C 213.164062 531.777344 216.066406 531.777344 218.746094 532.226562 C 218.300781 534.457031 216.515625 534.011719 215.175781 534.011719 C 213.164062 534.011719 211.601562 534.234375 211.824219 536.914062 C 201.554688 540.933594 195.527344 551.65625 207.582031 561.035156 C 213.386719 565.726562 225 566.621094 230.359375 562.597656 C 240.628906 555.230469 237.726562 544.0625 224.105469 537.808594 C 223.882812 536.46875 223.882812 535.351562 223.882812 534.234375 Z M 223.882812 534.234375 " fill-opacity="1" fill-rule="nonzero"/><path fill="#ffffff" d="M 334.40625 569.523438 C 335.746094 561.707031 337.085938 553.890625 338.425781 546.070312 C 338.875 543.390625 339.320312 540.933594 339.765625 538.253906 C 340.214844 533.789062 346.019531 530.886719 349.367188 533.566406 C 357.851562 540.265625 366.335938 547.414062 374.597656 554.558594 C 375.714844 555.453125 377.5 556.121094 376.160156 557.6875 C 375.046875 559.027344 373.480469 560.367188 371.472656 559.472656 C 370.804688 559.25 370.132812 558.800781 369.238281 558.355469 C 366.335938 556.570312 364.996094 551.878906 360.976562 553.21875 C 354.949219 555.003906 349.144531 557.238281 343.5625 559.917969 C 341.550781 560.8125 341.328125 563.714844 341.328125 565.949219 C 341.105469 568.183594 341.328125 570.417969 338.875 571.757812 C 337.757812 572.203125 337.085938 573.320312 335.523438 572.875 C 334.183594 571.980469 334.40625 570.640625 334.40625 569.523438 Z M 346.464844 538.480469 C 345.347656 542.722656 343.785156 546.742188 343.785156 551.210938 C 343.785156 553.21875 344.230469 555.898438 346.464844 554.335938 C 349.367188 552.324219 352.71875 552.550781 355.394531 550.539062 C 357.851562 548.753906 357.851562 547.636719 355.84375 546.070312 C 352.71875 543.617188 349.8125 541.160156 346.464844 538.480469 Z M 346.464844 538.480469 " fill-opacity="1" fill-rule="nonzero"/><path fill="#ffffff" d="M 277.917969 557.460938 C 278.808594 558.578125 279.480469 559.917969 280.375 561.035156 C 280.148438 562.375 280.148438 563.492188 281.9375 563.714844 C 282.605469 564.832031 283.277344 565.949219 283.945312 567.289062 C 283.945312 568.183594 284.167969 568.851562 284.839844 569.300781 C 285.730469 569.523438 286.402344 569.078125 286.402344 568.183594 C 290.421875 561.035156 294.664062 554.113281 298.460938 546.742188 C 300.691406 542.5 303.59375 541.382812 307.835938 541.828125 C 312.300781 542.273438 311.410156 546.070312 311.855469 548.753906 C 312.972656 555.898438 311.855469 563.492188 313.867188 570.640625 C 314.535156 572.648438 315.207031 575.328125 311.632812 575.554688 C 308.507812 576 306.273438 574.882812 306.273438 571.308594 C 306.273438 565.726562 306.050781 560.367188 304.933594 554.78125 C 304.710938 553.441406 305.15625 551.433594 303.371094 550.984375 C 301.136719 550.539062 300.914062 552.773438 300.246094 554.113281 C 296.894531 559.695312 293.992188 565.726562 290.644531 571.308594 C 287.292969 577.117188 282.828125 576.894531 279.480469 571.085938 C 277.246094 567.066406 275.015625 563.046875 272.78125 559.027344 C 272.78125 558.132812 272.78125 557.238281 272.78125 556.347656 C 273.226562 555.898438 273.675781 555.453125 274.121094 555.230469 C 275.90625 556.121094 276.800781 556.792969 277.917969 557.460938 Z M 277.917969 557.460938 " fill-opacity="1" fill-rule="nonzero"/><path fill="#ffffff" d="M 61.109375 150.53125 C 64.234375 150.53125 67.136719 150.53125 70.265625 150.53125 C 72.050781 150.53125 74.28125 149.863281 74.507812 152.542969 C 74.730469 154.554688 72.941406 155.667969 71.378906 156.5625 C 70.933594 156.785156 70.265625 156.785156 69.59375 157.007812 C 66.46875 157.679688 62.449219 155.445312 60.4375 158.796875 C 57.089844 164.378906 54.1875 169.964844 51.730469 175.992188 C 50.613281 178.898438 53.964844 181.355469 55.527344 184.035156 C 57.089844 186.9375 57.089844 189.171875 54.632812 190.957031 C 51.0625 193.191406 51.285156 189.394531 50.390625 187.832031 C 45.03125 179.34375 39.675781 170.855469 34.539062 162.148438 C 32.304688 158.574219 34.539062 153.882812 38.558594 153.660156 C 45.925781 152.988281 53.292969 149.417969 61.109375 150.53125 Z M 47.042969 157.234375 C 44.808594 157.902344 41.460938 155.667969 39.675781 158.574219 C 38.335938 160.582031 41.011719 161.699219 41.90625 163.039062 C 43.917969 165.71875 44.808594 170.855469 48.160156 170.410156 C 51.730469 169.738281 51.953125 164.378906 53.964844 161.253906 C 56.195312 157.679688 54.1875 157.007812 51.0625 157.234375 C 49.945312 157.234375 48.605469 157.234375 47.042969 157.234375 Z M 47.042969 157.234375 " fill-opacity="1" fill-rule="nonzero"/><path fill="#ffffff" d="M 26.722656 270.914062 C 25.832031 274.265625 27.839844 276.273438 30.519531 277.613281 C 32.527344 278.730469 34.539062 279.625 35.878906 281.636719 C 36.996094 283.421875 37.21875 285.65625 35.65625 287.21875 C 34.09375 288.78125 32.753906 286.996094 31.414062 286.101562 C 23.152344 280.292969 15.113281 274.265625 7.074219 268.234375 C 1.9375 264.214844 2.609375 258.628906 8.414062 255.726562 C 16.898438 251.484375 25.382812 247.464844 34.09375 243.441406 C 35.65625 242.773438 37.886719 241.210938 39.003906 243.667969 C 39.898438 245.675781 40.121094 248.582031 37.21875 249.25 C 27.617188 251.261719 27.839844 258.855469 27.839844 266 C 24.492188 267.117188 24.9375 268.902344 26.722656 270.914062 Z M 23.375 266 C 24.714844 264.882812 26.945312 264.214844 24.265625 262.203125 C 24.265625 255.726562 23.375 254.832031 18.238281 257.515625 C 15.335938 258.855469 10.648438 259.300781 10.425781 262.425781 C 10.199219 265.777344 15.335938 266.449219 17.792969 268.679688 C 22.257812 272.699219 22.925781 269.796875 23.375 266 Z M 23.375 266 " fill-opacity="1" fill-rule="nonzero"/><path fill="#ffffff" d="M 466.144531 506.988281 C 466.144531 514.582031 461.007812 517.484375 455.648438 515.25 C 446.496094 511.453125 437.339844 507.878906 428.1875 504.308594 C 426.398438 503.636719 424.613281 502.96875 424.835938 500.734375 C 425.0625 498.277344 427.292969 498.277344 429.078125 498.054688 C 430.195312 498.054688 431.757812 497.832031 432.652344 498.5 C 439.574219 504.082031 444.039062 498.5 448.953125 494.925781 C 450.515625 493.808594 451.855469 491.800781 453.640625 490.90625 C 457.660156 488.894531 457.882812 485.769531 456.765625 482.195312 C 456.320312 480.855469 455.875 479.292969 456.097656 477.953125 C 456.320312 475.71875 457.882812 473.710938 459.667969 473.484375 C 462.125 473.261719 461.457031 475.941406 461.902344 477.730469 C 464.136719 488.226562 462.796875 498.722656 466.144531 506.988281 Z M 457.214844 493.808594 C 453.195312 496.9375 449.84375 499.394531 446.496094 502.074219 C 444.710938 503.636719 445.378906 505.199219 447.164062 505.648438 C 451.40625 506.539062 454.980469 509.667969 459.445312 509.890625 C 460.785156 504.53125 457.4375 500.0625 457.214844 493.808594 Z M 457.214844 493.808594 " fill-opacity="1" fill-rule="nonzero"/><path fill="#ffffff" d="M 136.132812 85.316406 C 135.6875 87.773438 134.121094 87.773438 132.113281 87.105469 C 131.890625 85.09375 133.007812 82.636719 130.773438 80.851562 C 128.988281 71.023438 129.878906 60.972656 129.878906 51.144531 C 129.878906 47.347656 134.121094 44.667969 137.25 46.007812 C 148.636719 50.921875 159.578125 56.503906 170.964844 62.089844 C 167.390625 67.226562 164.265625 67.894531 160.023438 64.324219 C 156.449219 61.195312 152.878906 61.867188 149.753906 64.769531 C 146.179688 68.121094 141.9375 69.90625 137.695312 72.363281 C 133.230469 76.160156 136.800781 81.074219 136.132812 85.316406 Z M 137.25 51.816406 C 134.347656 53.15625 135.6875 55.390625 135.910156 56.953125 C 136.355469 60.300781 134.347656 65.4375 137.25 66.332031 C 141.042969 67.671875 143.945312 62.757812 147.296875 60.75 C 148.191406 60.078125 149.304688 59.410156 148.414062 58.515625 C 145.511719 55.390625 141.042969 54.273438 137.25 51.816406 Z M 137.25 51.816406 " fill-opacity="1" fill-rule="nonzero"/><path fill="#ffffff" d="M 431.757812 80.179688 C 428.1875 78.167969 424.167969 76.828125 422.15625 72.808594 C 422.382812 71.246094 421.933594 70.351562 420.148438 70.128906 C 419.476562 69.011719 419.03125 67.894531 418.363281 66.78125 C 418.585938 65.4375 418.140625 64.324219 416.800781 63.875 C 416.128906 61.195312 416.128906 58.292969 416.800781 55.613281 C 418.140625 55.164062 418.585938 54.273438 418.363281 52.933594 C 418.363281 52.484375 418.585938 52.261719 419.03125 52.039062 C 421.710938 50.699219 423.722656 48.910156 424.613281 46.230469 C 431.089844 41.542969 437.566406 43.328125 443.816406 46.457031 C 444.039062 47.796875 444.933594 48.6875 446.496094 48.242188 C 452.078125 49.804688 455.203125 54.273438 458.554688 58.292969 C 458.554688 59.632812 459 60.300781 460.339844 60.527344 C 460.5625 62.089844 461.007812 63.652344 461.234375 64.992188 C 461.234375 66.109375 461.007812 67.449219 461.007812 68.566406 C 459.445312 70.128906 458.105469 69.90625 457.214844 67.671875 C 457.4375 66.332031 457.214844 65.214844 455.648438 64.769531 C 455.648438 63.875 455.425781 63.207031 455.425781 62.3125 C 456.097656 59.855469 455.425781 58.292969 452.972656 57.398438 C 451.632812 56.058594 450.292969 54.71875 448.953125 53.601562 C 448.730469 51.816406 447.835938 51.144531 446.273438 51.59375 C 443.59375 52.039062 442.253906 49.359375 439.796875 48.910156 C 432.652344 47.796875 427.738281 50.027344 423.722656 57.398438 C 421.933594 57.84375 421.710938 59.1875 422.382812 60.527344 C 422.382812 61.417969 422.382812 62.089844 422.382812 62.984375 C 421.710938 64.546875 421.710938 65.664062 423.496094 66.332031 C 425.730469 72.140625 430.867188 75.265625 436 77.945312 C 439.351562 79.734375 443.59375 79.957031 446.941406 77.5 C 450.292969 75.042969 452.523438 76.605469 453.863281 79.285156 C 455.203125 82.414062 451.632812 83.082031 450.292969 83.53125 C 444.710938 85.761719 439.351562 84.871094 434.4375 81.296875 C 434.4375 80.179688 433.320312 79.734375 431.757812 80.179688 Z M 431.757812 80.179688 " fill-opacity="1" fill-rule="nonzero"/><path fill="#ffffff" d="M 477.308594 84.871094 C 479.765625 83.753906 482.445312 84.199219 485.125 83.753906 C 486.910156 83.753906 488.695312 83.753906 490.257812 83.753906 C 490.707031 84.199219 491.152344 84.648438 491.820312 85.09375 C 491.820312 86.433594 492.269531 87.105469 493.609375 87.328125 C 493.386719 96.039062 490.035156 103.855469 488.027344 112.117188 C 487.355469 114.796875 486.464844 117.476562 485.570312 120.160156 C 484.007812 121.050781 483.5625 123.507812 481.550781 123.507812 C 481.328125 123.285156 481.105469 122.839844 480.882812 122.613281 C 480.882812 120.382812 480.65625 118.148438 480.65625 115.914062 C 480.882812 114.796875 481.105469 113.679688 481.328125 112.566406 C 483.113281 110.554688 482.890625 108.769531 480.65625 107.425781 C 480.210938 107.425781 479.988281 106.980469 479.988281 106.757812 C 479.988281 105.640625 479.316406 104.972656 477.980469 104.972656 C 477.53125 104.972656 477.53125 104.746094 477.308594 104.523438 C 477.308594 103.40625 476.640625 102.738281 475.523438 102.738281 C 473.960938 102.289062 473.066406 100.949219 472.398438 99.609375 C 472.398438 98.492188 471.726562 97.824219 470.609375 97.824219 C 470.164062 97.824219 469.941406 97.601562 469.941406 97.152344 C 469.941406 96.039062 469.269531 95.367188 468.152344 95.367188 C 466.144531 94.472656 464.136719 94.921875 462.125 94.921875 C 459.222656 94.921875 456.320312 95.144531 453.417969 95.144531 C 453.195312 95.144531 452.972656 95.144531 452.746094 94.695312 C 452.300781 90.230469 457.4375 92.464844 458.554688 89.785156 C 459.667969 89.558594 460.785156 89.335938 461.902344 88.890625 C 464.582031 89.558594 466.589844 89.113281 468.378906 86.878906 C 469.492188 86.65625 470.609375 86.433594 471.726562 86.433594 C 474.183594 87.550781 476.191406 86.878906 477.308594 84.871094 Z M 485.125 88.667969 C 481.773438 91.125 475.96875 89.558594 473.511719 94.472656 C 473.066406 95.589844 481.996094 104.078125 482.667969 103.40625 C 486.464844 100.28125 486.015625 95.144531 487.804688 90.898438 C 488.695312 89.335938 487.132812 88.445312 485.125 88.667969 Z M 485.125 88.667969 " fill-opacity="1" fill-rule="nonzero"/><path fill="#ffffff" d="M 347.804688 39.308594 C 347.804688 38.191406 347.582031 37.074219 347.582031 35.734375 C 348.027344 33.949219 348.027344 32.160156 345.570312 31.714844 C 345.570312 31.714844 345.347656 31.492188 345.347656 31.492188 C 343.785156 27.246094 340.4375 28.140625 337.085938 28.8125 C 334.855469 28.585938 332.621094 28.363281 330.386719 28.140625 C 330.386719 27.023438 330.613281 26.132812 330.613281 25.015625 C 334.855469 24.34375 339.097656 26.355469 342.890625 24.566406 C 342.222656 20.769531 339.765625 18.089844 339.320312 14.292969 C 339.097656 11.167969 336.863281 9.828125 334.632812 13.175781 C 332.621094 16.527344 329.046875 18.984375 327.933594 23.003906 C 327.933594 24.34375 327.710938 25.683594 327.710938 27.246094 C 324.804688 26.578125 322.796875 27.695312 321.011719 30.152344 C 319.671875 31.9375 318.332031 33.726562 316.546875 35.066406 C 314.757812 36.628906 312.527344 36.628906 310.960938 35.289062 C 309.398438 33.949219 310.960938 32.160156 311.855469 31.042969 C 318.554688 23.003906 325.253906 15.1875 332.175781 7.371094 C 334.40625 4.914062 336.863281 4.46875 339.765625 5.808594 C 339.988281 7.371094 341.105469 7.816406 342.445312 7.59375 C 344.230469 11.167969 345.796875 14.742188 347.582031 18.3125 C 347.804688 18.984375 348.027344 19.429688 348.027344 20.101562 C 348.027344 20.996094 348.027344 21.664062 348.25 22.558594 C 347.132812 25.015625 348.25 26.578125 350.484375 27.472656 C 350.707031 28.585938 350.929688 29.703125 351.152344 30.820312 C 350.707031 32.382812 351.378906 33.277344 352.71875 33.726562 C 352.71875 36.628906 356.960938 38.414062 355.394531 41.988281 C 353.386719 42.433594 351.152344 40.425781 349.144531 41.765625 C 348.699219 41.765625 348.472656 41.542969 348.25 41.320312 C 348.25 40.648438 348.027344 39.976562 347.804688 39.308594 Z M 347.804688 39.308594 " fill-opacity="1" fill-rule="nonzero"/><path fill="#ffffff" d="M 540.050781 149.640625 C 534.691406 159.464844 529.332031 169.292969 523.75 178.898438 C 523.082031 180.015625 522.636719 184.480469 519.285156 181.578125 C 517.277344 179.789062 515.492188 178.003906 517.945312 174.878906 C 521.074219 171.082031 523.75 167.058594 520.402344 161.921875 C 521.296875 161.476562 522.1875 161.03125 523.082031 160.582031 C 525.089844 161.699219 526.65625 161.253906 527.992188 159.019531 C 529.558594 156.339844 531.34375 153.660156 533.128906 150.980469 C 534.023438 150.980469 534.691406 150.53125 534.691406 149.640625 C 534.691406 148.523438 533.800781 148.074219 532.683594 148.300781 C 528.886719 148.300781 525.089844 148.300781 521.296875 148.074219 C 518.394531 148.074219 517.722656 149.417969 518.394531 151.871094 C 517.277344 152.320312 516.382812 152.988281 515.265625 153.4375 C 514.820312 152.765625 514.597656 151.871094 514.152344 151.203125 C 514.375 147.183594 511.246094 147.183594 508.792969 146.960938 C 505.441406 146.960938 502.316406 146.511719 499.191406 145.84375 C 498.742188 144.949219 498.519531 144.054688 499.414062 143.164062 C 505.21875 143.164062 511.023438 144.054688 516.828125 142.492188 C 522.1875 142.492188 527.324219 142.492188 532.683594 142.492188 C 534.914062 142.492188 537.371094 142.046875 538.042969 145.171875 C 537.148438 147.628906 538.265625 148.746094 540.050781 149.640625 Z M 540.050781 149.640625 " fill-opacity="1" fill-rule="nonzero"/><path fill="#ffffff" d="M 220.308594 28.585938 C 219.195312 28.8125 218.300781 28.8125 217.183594 29.035156 C 215.175781 28.585938 213.164062 27.917969 212.941406 31.042969 C 213.164062 33.277344 213.164062 35.511719 213.386719 37.746094 C 212.941406 39.53125 213.164062 40.648438 215.398438 40.871094 C 217.40625 40.871094 219.640625 40.871094 221.648438 40.871094 C 222.542969 42.210938 225.445312 41.320312 225.222656 44 C 223.660156 44.222656 222.097656 44.222656 220.535156 44.445312 C 217.628906 42.660156 215.621094 43.105469 214.28125 46.230469 C 211.378906 47.796875 209.816406 46.457031 208.699219 43.773438 C 205.574219 35.511719 204.011719 26.800781 202 18.089844 C 201.332031 15.410156 203.117188 13.847656 205.574219 13.175781 C 214.28125 10.496094 223.4375 8.265625 232.367188 5.808594 C 233.707031 5.582031 234.824219 5.136719 235.269531 6.921875 C 235.714844 8.710938 235.046875 10.273438 233.039062 10.496094 C 225.222656 11.167969 217.855469 14.292969 210.261719 16.082031 C 206.691406 17.421875 207.136719 19.207031 209.59375 21.21875 C 210.707031 22.78125 209.816406 25.683594 212.941406 25.90625 C 214.726562 28.585938 216.738281 27.023438 218.746094 26.355469 C 220.980469 25.460938 220.757812 27.023438 220.308594 28.585938 Z M 220.308594 28.585938 " fill-opacity="1" fill-rule="nonzero"/><path fill="#ffffff" d="M 379.289062 29.703125 C 377.5 35.734375 375.714844 41.765625 373.929688 47.570312 C 373.257812 49.804688 371.25 49.359375 369.910156 48.6875 C 367.675781 47.796875 366.785156 46.230469 367.453125 43.773438 C 369.6875 36.628906 371.472656 29.257812 374.375 22.335938 C 375.714844 19.207031 374.597656 18.984375 372.367188 17.644531 C 369.464844 15.632812 365.667969 16.082031 362.988281 13.625 C 362.09375 12.730469 359.863281 12.953125 360.53125 10.945312 C 361.203125 8.933594 363.433594 9.378906 364.773438 9.828125 C 367.675781 10.71875 370.355469 12.058594 373.035156 13.175781 C 374.152344 15.1875 375.714844 16.082031 378.171875 14.964844 C 378.839844 15.1875 379.734375 15.410156 380.402344 15.410156 C 380.851562 16.75 381.742188 17.421875 383.308594 16.972656 C 387.324219 16.527344 390.453125 18.984375 394.023438 20.101562 C 394.246094 21.441406 394.023438 22.78125 392.683594 23.449219 C 391.121094 23.449219 389.558594 23.449219 388.21875 22.335938 C 387.773438 20.769531 386.878906 20.324219 385.316406 20.769531 C 381.296875 20.769531 382.191406 24.566406 381.074219 26.578125 C 379.511719 27.472656 379.0625 28.140625 379.289062 29.703125 Z M 379.289062 29.703125 " fill-opacity="1" fill-rule="nonzero"/><path fill="#ffffff" d="M 544.964844 406.707031 C 545.855469 404.695312 546.75 402.910156 547.867188 400.898438 C 549.429688 400.675781 549.875 399.558594 549.652344 398.21875 C 549.652344 397.550781 549.875 396.65625 549.875 395.984375 C 551.4375 395.984375 553 396.210938 553.226562 398.441406 C 553 398.890625 553 399.113281 552.777344 399.558594 C 550.324219 399.78125 550.546875 401.570312 550.769531 403.355469 C 550.546875 404.25 550.546875 404.917969 550.324219 405.8125 C 548.535156 405.8125 548.089844 406.929688 548.3125 408.492188 C 548.089844 409.164062 547.644531 410.058594 547.417969 410.726562 C 546.082031 411.171875 545.632812 412.066406 545.855469 413.40625 C 545.632812 414.078125 545.1875 414.96875 544.964844 415.640625 C 543.402344 416.308594 541.613281 416.980469 542.953125 419.4375 C 541.390625 422.789062 539.828125 426.359375 537.820312 429.710938 C 537.371094 430.605469 536.480469 432.613281 534.691406 431.273438 C 533.351562 430.378906 533.351562 428.816406 533.800781 427.476562 C 534.023438 427.03125 534.246094 426.808594 534.46875 426.585938 C 540.5 415.417969 540.5 415.417969 528.886719 409.832031 C 525.316406 408.046875 521.519531 406.707031 517.945312 404.472656 C 516.382812 403.355469 512.8125 402.464844 515.042969 399.113281 C 516.832031 396.210938 519.0625 396.210938 521.742188 398.21875 C 522.636719 398.890625 523.976562 399.335938 524.867188 400.007812 C 525.089844 401.121094 525.984375 401.792969 527.101562 401.570312 C 528.441406 402.015625 530.003906 402.238281 530.898438 403.578125 C 532.238281 406.035156 534.914062 405.8125 537.148438 406.484375 C 538.488281 406.929688 539.605469 407.375 540.945312 407.601562 C 541.390625 408.714844 542.0625 409.832031 543.402344 409.832031 C 544.742188 408.941406 544.964844 407.824219 544.964844 406.707031 Z M 544.964844 406.707031 " fill-opacity="1" fill-rule="nonzero"/><path fill="#ffffff" d="M 48.828125 440.65625 C 46.148438 440.878906 45.925781 438.867188 44.808594 437.75 C 43.023438 435.742188 45.03125 434.402344 45.925781 433.730469 C 53.964844 428.59375 62.003906 423.902344 70.265625 419.214844 C 72.273438 418.097656 74.28125 418.320312 75.175781 421 C 75.621094 422.5625 76.070312 423.902344 74.28125 425.019531 C 66.46875 429.933594 58.652344 434.847656 50.613281 439.984375 C 49.945312 440.207031 49.050781 440.429688 48.828125 440.65625 Z M 48.828125 440.65625 " fill-opacity="1" fill-rule="nonzero"/><path fill="#ffffff" d="M 530.003906 442.21875 C 528.441406 443.558594 527.546875 447.132812 524.199219 445.121094 C 516.382812 440.207031 508.570312 435.070312 500.753906 429.933594 C 498.742188 428.59375 498.074219 426.582031 499.859375 424.796875 C 500.976562 423.679688 501.871094 421.445312 504.773438 423.457031 C 512.363281 429.039062 520.179688 433.953125 527.992188 439.089844 C 528.664062 439.984375 530.003906 440.207031 530.003906 442.21875 Z M 530.003906 442.21875 " fill-opacity="1" fill-rule="nonzero"/><path fill="#ffffff" d="M 399.828125 60.75 C 397.375 59.632812 394.695312 58.960938 396.257812 55.164062 C 399.605469 46.902344 404.519531 39.53125 407.644531 31.042969 C 408.089844 29.703125 409.207031 26.578125 412.109375 28.363281 C 414.34375 29.703125 416.128906 31.492188 414.789062 34.394531 C 410.769531 42.433594 406.527344 50.476562 402.507812 58.515625 C 401.839844 59.632812 401.394531 60.972656 399.828125 60.75 Z M 399.828125 60.75 " fill-opacity="1" fill-rule="nonzero"/><path fill="#ffffff" d="M 538.710938 217.980469 C 542.285156 215.75 544.964844 213.070312 543.175781 208.378906 C 542.730469 207.261719 542.285156 205.25 544.292969 204.804688 C 545.855469 204.582031 546.527344 205.699219 547.195312 207.261719 C 548.984375 211.058594 552.109375 213.738281 556.128906 211.730469 C 560.148438 209.941406 559.476562 206.367188 557.914062 202.792969 C 557.019531 200.785156 557.019531 198.328125 556.796875 196.316406 C 557.691406 195.425781 558.582031 194.53125 559.476562 193.636719 C 561.261719 199.222656 563.496094 204.582031 563.273438 210.613281 C 562.828125 218.207031 558.359375 221.332031 551.4375 218.207031 C 549.429688 217.3125 548.3125 216.640625 546.304688 219.320312 C 544.292969 222.226562 540.496094 223.789062 537.371094 226.023438 C 533.800781 225.574219 534.46875 222.671875 534.023438 220.4375 C 534.023438 220.4375 534.246094 220.4375 534.246094 220.4375 C 536.703125 220.886719 538.042969 219.992188 538.710938 217.980469 Z M 538.710938 217.980469 " fill-opacity="1" fill-rule="nonzero"/><g clip-path="url(#f434ac4da3)"><path fill="#ffffff" d="M 19.355469 302.628906 C 14.890625 302.628906 10.425781 302.628906 5.957031 302.628906 C 3.949219 302.628906 2.386719 302.183594 2.386719 299.503906 C 2.386719 297.046875 3.277344 296.375 5.734375 296.152344 C 14.890625 295.707031 24.042969 295.035156 33.199219 294.367188 C 35.65625 294.140625 36.546875 295.257812 36.769531 297.269531 C 36.996094 299.726562 36.996094 301.957031 33.644531 301.957031 C 28.957031 301.957031 24.265625 301.957031 19.578125 301.957031 C 19.355469 302.40625 19.355469 302.40625 19.355469 302.628906 Z M 19.355469 302.628906 " fill-opacity="1" fill-rule="nonzero"/></g><path fill="#ffffff" d="M 108.890625 509.667969 C 100.183594 506.765625 90.359375 494.035156 91.253906 484.207031 C 91.699219 480.410156 93.707031 478.175781 95.496094 475.273438 C 96.609375 475.050781 96.835938 474.378906 96.835938 473.484375 C 97.503906 473.261719 98.175781 473.039062 98.84375 472.816406 C 103.308594 472.816406 107.550781 469.6875 112.242188 472.59375 C 111.347656 475.050781 108 473.261719 107.550781 475.941406 C 95.941406 478.621094 94.824219 491.800781 101.078125 498.277344 C 103.53125 500.734375 106.210938 503.414062 108.890625 505.871094 C 108.890625 507.210938 108.890625 508.328125 108.890625 509.667969 Z M 108.890625 509.667969 " fill-opacity="1" fill-rule="nonzero"/><path fill="#ffffff" d="M 46.597656 215.078125 C 46.371094 216.640625 46.371094 217.980469 46.148438 219.546875 C 45.257812 219.992188 44.585938 220.4375 43.691406 220.664062 C 43.691406 219.769531 43.691406 218.652344 42.578125 218.207031 C 42.128906 211.503906 45.257812 204.136719 38.78125 198.550781 C 37.441406 195.425781 34.761719 195.203125 31.859375 195.648438 C 30.742188 195.648438 29.625 195.648438 28.511719 195.648438 C 26.945312 194.976562 25.832031 195.425781 25.160156 197.210938 C 22.925781 198.328125 21.363281 200.113281 20.25 202.347656 C 18.683594 202.347656 17.570312 201.453125 16.898438 200.339844 C 20.695312 190.0625 33.199219 184.480469 43.46875 194.53125 C 48.160156 200.785156 45.480469 208.15625 46.597656 215.078125 Z M 46.597656 215.078125 " fill-opacity="1" fill-rule="nonzero"/><path fill="#ffffff" d="M 72.050781 470.582031 C 74.058594 468.125 76.515625 465.890625 79.417969 464.328125 C 80.757812 464.328125 81.652344 463.882812 81.875 462.542969 C 82.542969 461.871094 83.4375 461.203125 84.105469 460.53125 C 85.671875 460.753906 86.5625 459.863281 86.785156 458.296875 C 88.351562 456.957031 90.136719 455.84375 91.699219 454.5 C 94.601562 453.832031 93.707031 450.703125 95.269531 449.140625 C 96.609375 452.046875 103.308594 453.386719 97.726562 458.074219 C 94.824219 458.074219 93.261719 459.863281 92.59375 462.320312 C 90.359375 464.105469 87.902344 466.117188 85.671875 467.902344 C 83.4375 467.679688 82.097656 468.796875 81.652344 471.027344 C 78.972656 472.816406 77.855469 477.058594 73.167969 475.496094 C 72.71875 474.15625 71.828125 472.59375 72.050781 470.582031 Z M 72.050781 470.582031 " fill-opacity="1" fill-rule="nonzero"/><path fill="#ffffff" d="M 270.996094 554.78125 C 270.773438 554.113281 270.546875 553.441406 270.324219 552.773438 C 270.546875 550.539062 269.433594 549.199219 267.421875 548.976562 C 265.636719 548.976562 264.964844 550.539062 264.964844 551.878906 C 264.964844 558.132812 261.839844 564.386719 264.296875 570.863281 C 264.296875 573.097656 265.414062 576 261.171875 575.777344 C 257.152344 575.777344 258.042969 572.875 258.042969 570.640625 C 258.042969 567.511719 258.492188 564.164062 258.714844 561.035156 C 260.5 560.589844 260.5 559.25 260.5 557.6875 C 260.949219 552.550781 261.171875 547.414062 261.617188 542.273438 C 267.421875 540.265625 271.441406 542.050781 273.003906 548.304688 C 273.675781 550.761719 274.121094 552.996094 274.792969 555.453125 C 274.34375 555.898438 273.898438 556.347656 273.453125 556.570312 C 272.558594 556.121094 271.886719 555.453125 270.996094 554.78125 Z M 270.996094 554.78125 " fill-opacity="1" fill-rule="nonzero"/><path fill="#ffffff" d="M 37.886719 343.054688 C 41.90625 342.605469 45.257812 342.605469 43.023438 348.191406 C 39.003906 347.96875 34.984375 347.742188 31.636719 350.648438 C 30.296875 350.871094 28.957031 351.09375 27.394531 351.09375 C 24.265625 349.976562 21.363281 350.425781 19.132812 353.105469 C 9.976562 354.667969 9.976562 354.667969 9.308594 347.96875 C 10.425781 347.296875 11.761719 346.628906 12.878906 345.734375 C 13.996094 346.851562 15.558594 346.402344 16.898438 346.628906 C 18.238281 348.191406 19.132812 347.742188 19.578125 345.957031 C 22.480469 345.0625 25.832031 344.617188 24.714844 340.152344 C 25.382812 338.808594 25.605469 336.800781 28.0625 337.023438 C 29.179688 339.035156 28.734375 341.265625 28.957031 343.277344 C 32.304688 347.96875 34.984375 344.394531 37.886719 343.054688 Z M 37.886719 343.054688 " fill-opacity="1" fill-rule="nonzero"/><path fill="#ffffff" d="M 544.742188 266 C 545.1875 266.671875 545.410156 267.5625 545.855469 268.011719 C 547.644531 270.46875 550.324219 273.371094 553 272.699219 C 556.574219 271.808594 553.894531 267.789062 554.566406 265.332031 C 555.234375 262.425781 552.332031 256.84375 555.90625 256.84375 C 560.371094 256.84375 557.46875 262.425781 558.359375 265.332031 C 559.03125 267.789062 558.808594 270.691406 559.699219 273.148438 C 561.261719 278.285156 559.253906 279.847656 554.566406 279.625 C 552.332031 279.402344 550.097656 279.625 547.867188 280.070312 C 543.625 280.742188 539.382812 281.632812 544.070312 275.15625 C 545.855469 272.699219 540.945312 271.136719 541.613281 268.234375 C 542.285156 266.671875 543.402344 266 544.742188 266 Z M 544.742188 266 " fill-opacity="1" fill-rule="nonzero"/><path fill="#ffffff" d="M 16.453125 228.480469 C 15.335938 228.480469 14.441406 228.257812 13.328125 228.257812 C 12.65625 227.363281 11.761719 226.914062 10.648438 227.363281 L 10.871094 227.140625 C 10.871094 227.140625 10.425781 227.363281 10.425781 227.363281 C 10.648438 225.574219 11.09375 223.789062 9.753906 222.226562 C 9.976562 221.109375 9.976562 219.769531 10.199219 218.652344 C 11.539062 219.097656 12.878906 219.320312 14.21875 219.769531 C 15.78125 222.003906 18.238281 222.449219 20.472656 222.894531 C 20.917969 224.460938 22.035156 224.90625 23.597656 224.460938 C 25.605469 224.90625 27.394531 225.351562 29.402344 225.800781 C 30.074219 229.597656 32.753906 228.257812 34.984375 227.585938 C 39.898438 228.925781 40.566406 225.574219 41.238281 222.226562 C 42.128906 221.777344 43.023438 221.554688 43.917969 221.109375 C 43.917969 222.449219 44.140625 223.789062 44.140625 225.128906 C 43.917969 226.691406 43.691406 228.03125 43.691406 229.597656 C 40.566406 230.710938 41.238281 233.617188 40.34375 236.074219 C 39.898438 236.074219 39.449219 236.074219 39.003906 236.296875 C 38.109375 234.507812 36.996094 233.167969 34.539062 234.0625 C 33.421875 233.839844 32.527344 233.839844 31.414062 233.617188 C 27.171875 229.371094 21.8125 229.148438 16.453125 228.480469 Z M 16.453125 228.480469 " fill-opacity="1" fill-rule="nonzero"/><path fill="#ffffff" d="M 176.546875 47.796875 C 175.652344 46.007812 174.761719 44.222656 174.089844 42.660156 C 174.984375 40.203125 174.3125 38.636719 171.632812 38.191406 C 171.410156 37.074219 171.1875 35.957031 170.964844 35.066406 C 171.410156 31.492188 168.730469 31.269531 166.277344 31.042969 C 166.277344 27.695312 170.964844 29.035156 171.1875 26.132812 C 171.859375 25.90625 172.304688 25.683594 172.972656 25.683594 C 177.441406 25.460938 173.644531 30.375 176.546875 31.269531 C 177.664062 33.949219 180.34375 36.179688 179.894531 39.53125 C 179.449219 41.09375 180.117188 41.988281 181.683594 42.210938 C 181.90625 43.328125 182.351562 44.222656 182.574219 45.339844 C 182.574219 48.019531 183.46875 50.476562 186.148438 51.816406 C 188.828125 56.730469 186.371094 58.292969 181.90625 58.738281 C 182.574219 56.28125 181.234375 55.164062 179.226562 54.273438 C 179.003906 53.601562 179.003906 52.707031 178.78125 52.039062 C 180.34375 49.136719 178.332031 48.464844 176.546875 47.796875 Z M 176.546875 47.796875 " fill-opacity="1" fill-rule="nonzero"/><g clip-path="url(#1b33f4cdd1)"><path fill="#ffffff" d="M 541.835938 293.695312 C 544.070312 289.226562 547.644531 291.910156 550.769531 291.683594 C 557.019531 293.917969 563.273438 294.8125 569.75 293.695312 C 575.554688 292.578125 576 295.707031 575.105469 300.171875 C 573.097656 300.84375 571.3125 298.386719 569.300781 299.949219 C 568.410156 299.726562 567.738281 299.726562 566.84375 299.503906 C 565.058594 297.269531 563.273438 297.046875 561.488281 299.503906 C 561.488281 299.726562 561.261719 299.949219 560.816406 299.949219 C 557.914062 301.289062 560.371094 304.640625 558.582031 306.425781 C 557.46875 297.046875 553 294.140625 545.632812 298.386719 C 545.632812 298.386719 545.410156 298.832031 545.410156 298.832031 C 540.945312 299.503906 543.175781 295.257812 541.835938 293.695312 Z M 541.835938 293.695312 " fill-opacity="1" fill-rule="nonzero"/></g><path fill="#ffffff" d="M 130.773438 487.109375 C 131.890625 485.769531 132.78125 486.441406 133.675781 487.554688 C 137.472656 492.691406 137.917969 498.722656 135.460938 503.636719 C 133.007812 508.328125 128.765625 513.242188 121.84375 512.570312 C 118.714844 512.125 115.367188 513.015625 112.242188 511.453125 C 113.355469 509.21875 115.367188 509.445312 117.375 509.445312 C 120.054688 509.445312 122.511719 509.445312 123.851562 506.539062 C 130.550781 502.742188 130.773438 496.714844 130.105469 490.238281 C 130.105469 489.121094 130.550781 488.003906 130.773438 487.109375 Z M 130.773438 487.109375 " fill-opacity="1" fill-rule="nonzero"/><path fill="#ffffff" d="M 541.835938 293.695312 C 543.175781 295.480469 540.945312 299.503906 545.410156 298.832031 C 544.742188 307.097656 544.070312 315.359375 543.175781 323.625 C 542.953125 325.1875 543.175781 327.195312 540.945312 327.421875 C 539.160156 327.421875 538.710938 325.632812 538.933594 324.292969 C 539.382812 313.796875 538.710938 303.523438 541.835938 293.695312 Z M 541.835938 293.695312 " fill-opacity="1" fill-rule="nonzero"/><path fill="#ffffff" d="M 5.289062 328.3125 C 5.289062 327.195312 5.289062 326.078125 5.289062 324.964844 C 7.519531 324.292969 7.296875 322.507812 6.851562 320.941406 C 8.191406 315.804688 11.539062 313.574219 16.675781 314.914062 C 16.898438 316.253906 17.792969 316.476562 18.910156 316.476562 C 20.25 318.261719 21.8125 320.050781 23.152344 322.058594 C 22.703125 323.625 22.925781 324.964844 24.9375 325.1875 C 26.277344 327.195312 26.054688 329.429688 26.054688 331.664062 C 25.160156 333.226562 26.054688 336.128906 22.925781 336.128906 C 22.703125 334.566406 22.925781 332.78125 22.257812 331.441406 C 20.472656 327.867188 20.25 322.507812 14.441406 322.953125 C 7.96875 323.398438 11.539062 328.761719 10.425781 331.886719 C 10.425781 332.109375 10.425781 332.332031 10.425781 332.558594 C 7.96875 332.109375 8.414062 327.644531 5.289062 328.3125 Z M 5.289062 328.3125 " fill-opacity="1" fill-rule="nonzero"/><path fill="#ffffff" d="M 545.632812 298.386719 C 553 294.140625 557.46875 296.820312 558.582031 306.425781 C 560.371094 304.640625 557.914062 301.289062 560.816406 299.949219 C 561.039062 307.320312 560.148438 314.464844 558.808594 321.835938 C 558.582031 323.398438 559.03125 325.410156 556.574219 325.410156 C 553.671875 325.1875 554.339844 322.953125 554.566406 321.167969 C 554.789062 316.253906 554.566406 311.339844 555.679688 306.648438 C 557.019531 300.617188 554.566406 298.832031 549.429688 298.609375 C 548.089844 298.609375 546.972656 298.386719 545.632812 298.386719 Z M 545.632812 298.386719 " fill-opacity="1" fill-rule="nonzero"/><path fill="#ffffff" d="M 95.496094 449.363281 C 93.933594 450.929688 94.824219 454.054688 91.921875 454.726562 C 92.59375 448.695312 86.785156 446.460938 84.332031 442.21875 C 82.769531 439.3125 80.089844 436.859375 78.078125 433.953125 C 77.183594 432.835938 75.398438 431.273438 77.410156 429.933594 C 78.972656 428.816406 80.535156 429.710938 81.652344 431.050781 C 86.5625 437.082031 91.921875 442.664062 95.496094 449.363281 Z M 95.496094 449.363281 " fill-opacity="1" fill-rule="nonzero"/><path fill="#ffffff" d="M 534.691406 191.851562 C 534.023438 192.074219 533.128906 192.074219 532.460938 192.296875 C 529.558594 190.511719 528.441406 192.296875 527.546875 194.53125 C 526.878906 194.53125 525.984375 194.53125 525.316406 194.53125 C 524.421875 191.628906 525.316406 189.171875 526.65625 186.492188 C 527.769531 186.265625 529.109375 186.265625 530.226562 186.042969 C 532.238281 187.609375 533.800781 186.042969 535.808594 185.820312 C 542.730469 184.480469 548.089844 178.898438 555.679688 180.015625 C 555.90625 181.128906 556.128906 182.472656 556.128906 183.585938 C 554.789062 184.703125 554.789062 186.265625 554.566406 187.832031 C 553.894531 187.382812 553 187.160156 552.332031 186.714844 C 551.214844 184.703125 550.324219 184.925781 549.652344 186.9375 C 548.535156 187.160156 547.195312 187.160156 546.078125 187.382812 C 543.625 185.820312 542.507812 186.492188 543.175781 189.394531 C 543.175781 191.40625 543.402344 193.636719 543.402344 195.648438 C 540.273438 195.648438 540.722656 192.746094 539.605469 190.957031 C 537.59375 188.5 535.808594 187.609375 534.691406 191.851562 Z M 534.691406 191.851562 " fill-opacity="1" fill-rule="nonzero"/><path fill="#ffffff" d="M 568.632812 238.753906 C 571.085938 243.441406 574.4375 248.132812 573.765625 253.941406 C 572.425781 257.515625 572.425781 261.3125 573.765625 264.882812 C 574.660156 269.351562 571.535156 272.253906 569.078125 275.382812 C 568.410156 276.496094 567.292969 277.390625 565.953125 276.722656 C 564.613281 276.050781 564.613281 274.710938 564.835938 273.59375 C 565.058594 272.476562 565.28125 271.136719 565.953125 270.246094 C 573.320312 260.640625 570.417969 251.484375 564.835938 242.328125 C 564.835938 241.65625 564.613281 240.761719 564.613281 240.09375 C 565.058594 239.644531 565.503906 239.199219 566.175781 238.753906 C 567.070312 238.53125 567.738281 238.53125 568.632812 238.753906 Z M 568.632812 238.753906 " fill-opacity="1" fill-rule="nonzero"/><path fill="#ffffff" d="M 544.742188 266 C 543.402344 266 542.285156 266.894531 541.390625 268.011719 C 535.363281 259.078125 537.59375 240.316406 545.632812 235.179688 C 545.855469 236.964844 543.625 238.304688 544.515625 240.316406 C 544.070312 240.539062 543.402344 240.761719 543.175781 241.210938 C 542.953125 242.101562 543.625 242.550781 544.515625 242.773438 C 544.742188 242.996094 544.964844 243.21875 545.410156 243.441406 C 541.835938 250.8125 542.730469 258.40625 544.742188 266 Z M 544.742188 266 " fill-opacity="1" fill-rule="nonzero"/><path fill="#ffffff" d="M 220.308594 28.585938 C 220.980469 27.023438 220.980469 25.683594 218.746094 26.355469 C 216.738281 27.023438 214.726562 28.585938 212.941406 25.90625 C 219.863281 24.121094 226.785156 22.109375 233.707031 20.324219 C 235.269531 19.878906 237.726562 18.984375 238.394531 21.441406 C 239.066406 23.675781 237.054688 25.015625 235.492188 25.460938 C 230.359375 26.578125 225.222656 27.472656 220.308594 28.585938 Z M 220.308594 28.585938 " fill-opacity="1" fill-rule="nonzero"/><path fill="#ffffff" d="M 107.550781 475.941406 C 107.773438 473.261719 111.347656 474.824219 112.242188 472.59375 C 107.550781 469.6875 103.308594 472.816406 98.84375 472.816406 C 103.980469 468.796875 114.25 468.796875 120.726562 473.933594 C 124.074219 476.613281 128.988281 478.175781 130.105469 483.3125 C 129.210938 484.207031 128.539062 485.101562 127.648438 485.992188 C 122.066406 480.410156 116.261719 475.050781 107.550781 475.941406 Z M 107.550781 475.941406 " fill-opacity="1" fill-rule="nonzero"/><path fill="#ffffff" d="M 177.441406 526.863281 C 177.441406 528.875 176.546875 530.4375 175.207031 529.769531 C 170.519531 527.089844 164.9375 526.195312 160.917969 522.398438 C 160.46875 521.949219 160.023438 520.835938 160.246094 520.386719 C 160.695312 519.71875 162.03125 518.601562 162.480469 518.824219 C 167.390625 520.835938 172.304688 523.292969 176.992188 525.523438 C 177.214844 525.523438 177.214844 526.417969 177.441406 526.863281 Z M 177.441406 526.863281 " fill-opacity="1" fill-rule="nonzero"/><path fill="#ffffff" d="M 225 43.773438 C 225.222656 41.09375 222.320312 41.988281 221.425781 40.648438 C 227.230469 37.523438 233.707031 36.851562 239.734375 35.066406 C 241.296875 34.617188 243.085938 34.617188 243.53125 36.851562 C 243.976562 38.863281 242.191406 38.863281 240.851562 39.53125 C 235.941406 41.765625 230.359375 42.433594 225 43.773438 Z M 225 43.773438 " fill-opacity="1" fill-rule="nonzero"/><path fill="#ffffff" d="M 176.546875 31.042969 C 173.867188 30.152344 177.441406 25.238281 172.972656 25.460938 C 176.769531 22.335938 181.90625 21.664062 185.699219 18.984375 C 187.488281 17.867188 189.050781 16.75 189.945312 19.207031 C 190.613281 20.996094 189.945312 23.003906 187.933594 23.449219 C 185.253906 23.898438 183.691406 26.355469 180.789062 26.578125 C 178.78125 26.800781 177.214844 28.8125 176.546875 31.042969 Z M 176.546875 31.042969 " fill-opacity="1" fill-rule="nonzero"/><path fill="#ffffff" d="M 409.878906 524.40625 C 408.984375 525.523438 408.984375 526.863281 407.644531 527.535156 C 404.070312 529.097656 400.722656 530.886719 397.375 532.449219 C 395.808594 533.117188 393.800781 533.117188 392.90625 531.554688 C 391.792969 529.320312 394.246094 528.652344 395.363281 528.203125 C 399.160156 526.640625 402.507812 524.183594 406.527344 523.066406 C 408.539062 522.621094 409.207031 523.066406 409.878906 524.40625 Z M 409.878906 524.40625 " fill-opacity="1" fill-rule="nonzero"/><path fill="#ffffff" d="M 14.21875 219.546875 C 12.878906 219.097656 11.539062 218.875 10.199219 218.429688 C 11.988281 212.175781 12.878906 205.476562 17.121094 200.339844 C 18.015625 201.453125 19.132812 202.347656 20.472656 202.347656 C 18.460938 207.933594 16.230469 213.738281 14.21875 219.546875 Z M 14.21875 219.546875 " fill-opacity="1" fill-rule="nonzero"/><path fill="#ffffff" d="M 5.289062 328.3125 C 8.414062 327.867188 7.746094 332.109375 10.425781 332.109375 C 11.316406 336.800781 11.988281 341.265625 12.878906 345.957031 C 11.761719 346.628906 10.425781 347.296875 9.308594 348.191406 C 5.957031 341.9375 7.296875 334.789062 5.289062 328.3125 Z M 5.289062 328.3125 " fill-opacity="1" fill-rule="nonzero"/><path fill="#ffffff" d="M 555.234375 180.460938 C 547.867188 179.34375 542.285156 184.925781 535.363281 186.265625 C 533.351562 186.714844 531.789062 188.054688 529.78125 186.492188 C 536.253906 182.695312 543.625 181.578125 550.324219 178.675781 C 551.886719 178.226562 554.789062 177.109375 555.234375 180.460938 Z M 555.234375 180.460938 " fill-opacity="1" fill-rule="nonzero"/><path fill="#ffffff" d="M 544.742188 240.316406 C 543.847656 238.304688 546.078125 236.964844 545.855469 235.179688 C 546.972656 234.0625 547.867188 232.722656 549.652344 232.945312 C 555.234375 234.0625 560.59375 234.957031 566.175781 236.074219 C 566.175781 236.074219 566.621094 236.296875 566.621094 236.296875 C 566.621094 236.964844 566.621094 237.859375 566.621094 238.53125 C 566.175781 238.976562 565.730469 239.421875 565.058594 239.871094 C 563.71875 239.421875 562.601562 237.414062 560.816406 239.199219 C 560.148438 238.976562 559.253906 238.976562 558.582031 238.753906 C 554.566406 236.074219 551.4375 236.519531 548.757812 240.539062 C 548.757812 240.761719 548.535156 240.988281 548.089844 240.988281 C 546.75 240.761719 545.855469 240.539062 544.742188 240.316406 Z M 544.742188 240.316406 " fill-opacity="1" fill-rule="nonzero"/><g clip-path="url(#9bed4fb897)"><path fill="#ffffff" d="M 569.300781 299.949219 C 571.3125 298.609375 573.097656 301.066406 575.105469 300.171875 C 575.332031 304.640625 575.332031 309.328125 573.765625 313.574219 C 573.320312 311.785156 572.875 310.222656 572.425781 308.210938 C 571.535156 309.550781 571.085938 310.445312 570.417969 311.339844 C 569.078125 307.542969 571.980469 303.523438 569.300781 299.949219 Z M 569.300781 299.949219 " fill-opacity="1" fill-rule="nonzero"/></g><path fill="#ffffff" d="M 264.074219 570.863281 C 261.617188 564.386719 264.742188 558.355469 264.742188 551.878906 C 264.742188 550.539062 265.636719 548.976562 267.199219 548.976562 C 269.207031 549.199219 270.324219 550.539062 270.101562 552.773438 C 267.644531 551.433594 266.304688 551.433594 266.304688 555.003906 C 266.304688 560.367188 266.082031 565.726562 264.074219 570.863281 Z M 264.074219 570.863281 " fill-opacity="1" fill-rule="nonzero"/><path fill="#ffffff" d="M 303.371094 33.277344 C 301.363281 24.792969 302.03125 16.082031 302.253906 7.59375 C 303.816406 16.082031 305.378906 24.566406 303.371094 33.277344 Z M 303.371094 33.277344 " fill-opacity="1" fill-rule="nonzero"/><path fill="#ffffff" d="M 570.417969 311.339844 C 571.085938 310.445312 571.535156 309.550781 572.425781 308.210938 C 572.875 310.222656 573.320312 312.007812 573.765625 313.574219 C 573.765625 318.039062 574.4375 322.730469 573.097656 327.195312 C 570.195312 327.195312 570.863281 324.515625 569.972656 322.953125 C 570.195312 319.15625 570.195312 315.136719 570.417969 311.339844 Z M 570.417969 311.339844 " fill-opacity="1" fill-rule="nonzero"/><path fill="#ffffff" d="M 534.691406 191.851562 C 535.808594 187.609375 537.59375 188.5 539.382812 191.179688 C 540.496094 192.96875 540.050781 195.871094 543.175781 195.871094 C 545.1875 196.765625 545.632812 198.550781 544.964844 200.339844 C 544.742188 201.230469 542.953125 202.125 542.0625 201.902344 C 540.273438 201.679688 540.273438 199.445312 539.605469 198.105469 C 538.710938 195.648438 538.933594 192.074219 534.691406 191.851562 Z M 534.691406 191.851562 " fill-opacity="1" fill-rule="nonzero"/><path fill="#ffffff" d="M 46.597656 215.078125 C 45.257812 208.15625 47.933594 200.785156 43.691406 194.53125 C 49.722656 200.5625 49.722656 207.484375 46.597656 215.078125 Z M 46.597656 215.078125 " fill-opacity="1" fill-rule="nonzero"/><path fill="#ffffff" d="M 123.628906 506.539062 C 122.289062 509.445312 119.609375 509.445312 117.152344 509.445312 C 115.144531 509.445312 113.132812 509.21875 112.019531 511.453125 C 110.679688 511.453125 109.785156 510.335938 108.890625 509.667969 C 108.890625 508.328125 108.890625 506.988281 108.890625 505.871094 C 113.804688 506.539062 118.714844 507.878906 123.628906 506.539062 Z M 123.628906 506.539062 " fill-opacity="1" fill-rule="nonzero"/><path fill="#ffffff" d="M 171.1875 25.90625 C 170.742188 28.8125 166.277344 27.472656 166.277344 30.820312 C 163.597656 30.820312 160.695312 30.375 161.363281 34.617188 C 159.800781 36.851562 159.128906 34.839844 158.460938 33.949219 C 157.566406 32.382812 158.683594 31.269531 160.246094 30.597656 C 164.042969 29.257812 167.167969 26.355469 171.1875 25.90625 Z M 171.1875 25.90625 " fill-opacity="1" fill-rule="nonzero"/><path fill="#ffffff" d="M 522.859375 160.582031 C 521.964844 161.03125 521.074219 161.476562 520.179688 161.921875 C 517.054688 160.136719 515.714844 157.007812 514.820312 153.660156 C 515.9375 153.214844 516.828125 152.542969 517.945312 152.097656 C 520.625 154.328125 522.410156 157.007812 522.859375 160.582031 Z M 522.859375 160.582031 " fill-opacity="1" fill-rule="nonzero"/><path fill="#ffffff" d="M 569.75 293.695312 C 563.273438 294.8125 557.019531 293.917969 550.769531 291.683594 C 557.246094 291.015625 563.71875 291.460938 569.75 293.695312 Z M 569.75 293.695312 " fill-opacity="1" fill-rule="nonzero"/><path fill="#ffffff" d="M 261.617188 542.5 C 261.171875 547.636719 260.949219 552.773438 260.5 557.910156 C 260.5 559.25 260.277344 560.8125 258.714844 561.257812 C 258.9375 554.78125 257.597656 548.304688 261.617188 542.5 Z M 261.617188 542.5 " fill-opacity="1" fill-rule="nonzero"/><path fill="#ffffff" d="M 223.882812 534.234375 C 223.882812 535.351562 223.882812 536.46875 223.882812 537.585938 C 219.863281 537.363281 215.84375 537.136719 211.824219 536.914062 C 211.601562 534.457031 213.386719 534.234375 215.175781 534.011719 C 216.738281 534.011719 218.300781 534.457031 218.746094 532.226562 C 221.203125 531.554688 222.320312 533.117188 223.882812 534.234375 Z M 223.882812 534.234375 " fill-opacity="1" fill-rule="nonzero"/><path fill="#ffffff" d="M 516.382812 142.714844 C 510.578125 144.277344 504.773438 143.164062 498.96875 143.386719 C 504.773438 140.929688 510.578125 141.824219 516.382812 142.714844 Z M 516.382812 142.714844 " fill-opacity="1" fill-rule="nonzero"/><path fill="#ffffff" d="M 498.742188 145.84375 C 501.871094 146.511719 504.996094 146.960938 508.34375 146.960938 C 510.800781 146.960938 513.925781 147.183594 513.703125 151.203125 C 511.246094 148.523438 508.121094 148.746094 504.773438 148.746094 C 502.539062 148.746094 499.414062 149.863281 498.742188 145.84375 Z M 498.742188 145.84375 " fill-opacity="1" fill-rule="nonzero"/><path fill="#ffffff" d="M 392.683594 23.675781 C 394.023438 23.003906 394.246094 21.664062 394.023438 20.324219 C 394.472656 20.324219 394.917969 20.101562 395.140625 20.324219 C 397.375 20.996094 399.382812 21.886719 399.828125 24.34375 C 400.054688 24.792969 399.160156 25.90625 398.714844 26.132812 C 396.035156 26.800781 394.023438 26.355469 392.683594 23.675781 Z M 392.683594 23.675781 " fill-opacity="1" fill-rule="nonzero"/><path fill="#ffffff" d="M 565.953125 235.847656 C 560.371094 234.734375 555.011719 233.839844 549.429688 232.722656 C 555.679688 230.710938 561.261719 230.710938 565.953125 235.847656 Z M 565.953125 235.847656 " fill-opacity="1" fill-rule="nonzero"/><path fill="#ffffff" d="M 16.453125 228.480469 C 21.8125 229.148438 27.171875 229.371094 31.636719 232.945312 C 26.5 231.828125 20.917969 232.054688 16.453125 228.480469 Z M 16.453125 228.480469 " fill-opacity="1" fill-rule="nonzero"/><path fill="#ffffff" d="M 554.339844 188.054688 C 554.339844 186.492188 554.566406 184.925781 555.90625 183.8125 C 557.246094 186.9375 558.582031 190.289062 559.699219 193.414062 C 558.808594 194.308594 557.914062 195.203125 557.019531 196.09375 C 554.117188 194.085938 554.339844 190.957031 554.339844 188.054688 Z M 554.339844 188.054688 " fill-opacity="1" fill-rule="nonzero"/><path fill="#ffffff" d="M 556.128906 346.628906 C 557.914062 346.402344 559.476562 346.851562 560.148438 348.414062 C 561.039062 350.871094 558.359375 350.648438 557.46875 351.765625 C 555.234375 353.996094 552.777344 355.335938 549.429688 355.335938 C 550.992188 354.222656 552.777344 353.328125 554.339844 352.433594 C 557.019531 350.871094 557.691406 349.085938 556.128906 346.628906 Z M 556.128906 346.628906 " fill-opacity="1" fill-rule="nonzero"/><path fill="#ffffff" d="M 136.132812 85.316406 C 137.027344 81.074219 133.230469 76.160156 138.140625 72.363281 C 136.800781 74.597656 137.25 77.054688 137.917969 79.285156 C 138.363281 81.742188 138.589844 83.753906 136.132812 85.316406 Z M 136.132812 85.316406 " fill-opacity="1" fill-rule="nonzero"/><path fill="#ffffff" d="M 458.777344 90.230469 C 457.882812 92.910156 452.523438 90.675781 452.972656 95.144531 C 451.40625 94.695312 449.175781 94.25 451.632812 92.242188 C 453.640625 90.675781 456.097656 88.890625 458.777344 90.230469 Z M 458.777344 90.230469 " fill-opacity="1" fill-rule="nonzero"/><path fill="#ffffff" d="M 31.636719 350.648438 C 34.984375 347.742188 39.003906 347.96875 43.023438 348.191406 C 39.449219 350.425781 35.65625 351.09375 31.636719 350.648438 Z M 31.636719 350.648438 " fill-opacity="1" fill-rule="nonzero"/><path fill="#ffffff" d="M 573.765625 264.660156 C 572.425781 261.085938 572.425781 257.289062 573.765625 253.71875 C 575.105469 257.515625 575.105469 261.085938 573.765625 264.660156 Z M 573.765625 264.660156 " fill-opacity="1" fill-rule="nonzero"/><path fill="#ffffff" d="M 537.148438 336.800781 C 536.703125 340.597656 540.496094 340.597656 542.0625 342.832031 C 538.710938 342.382812 534.023438 342.832031 537.148438 336.800781 Z M 537.148438 336.800781 " fill-opacity="1" fill-rule="nonzero"/><path fill="#ffffff" d="M 526.429688 186.714844 C 525.089844 189.171875 524.199219 191.851562 525.089844 194.753906 C 520.847656 190.734375 520.847656 189.839844 526.429688 186.714844 Z M 526.429688 186.714844 " fill-opacity="1" fill-rule="nonzero"/><path fill="#ffffff" d="M 23.152344 335.683594 C 26.277344 335.683594 25.160156 332.78125 26.277344 331.214844 C 27.394531 333.003906 28.511719 334.789062 28.285156 337.023438 C 25.832031 336.578125 25.605469 338.585938 24.9375 340.152344 C 23.152344 339.257812 22.925781 337.695312 23.152344 335.683594 Z M 23.152344 335.683594 " fill-opacity="1" fill-rule="nonzero"/><path fill="#ffffff" d="M 481.773438 123.730469 C 484.007812 123.507812 484.230469 121.050781 485.792969 120.382812 C 486.6875 122.167969 486.6875 123.953125 484.902344 125.070312 C 483.785156 125.519531 481.996094 125.964844 481.773438 123.730469 Z M 481.773438 123.730469 " fill-opacity="1" fill-rule="nonzero"/><path fill="#ffffff" d="M 548.535156 240.539062 C 551.214844 236.296875 554.339844 235.847656 558.359375 238.753906 C 555.011719 238.976562 551.4375 238.753906 548.535156 240.539062 Z M 548.535156 240.539062 " fill-opacity="1" fill-rule="nonzero"/><path fill="#ffffff" d="M 453.640625 95.367188 C 456.542969 95.367188 459.445312 95.144531 462.347656 95.144531 C 459.667969 95.144531 456.765625 100.058594 453.640625 95.367188 Z M 453.640625 95.367188 " fill-opacity="1" fill-rule="nonzero"/><path fill="#ffffff" d="M 534.246094 220.214844 C 534.914062 222.449219 534.246094 225.351562 537.59375 225.800781 C 536.925781 227.808594 535.140625 228.925781 534.46875 226.46875 C 534.246094 224.683594 528.886719 222.449219 534.246094 220.214844 Z M 534.246094 220.214844 " fill-opacity="1" fill-rule="nonzero"/><path fill="#ffffff" d="M 274.792969 555.453125 C 274.121094 552.996094 273.675781 550.761719 273.003906 548.304688 C 275.460938 550.761719 277.023438 553.890625 277.695312 557.238281 C 276.800781 556.792969 275.90625 556.121094 274.792969 555.453125 Z M 274.792969 555.453125 " fill-opacity="1" fill-rule="nonzero"/><path fill="#ffffff" d="M 553.226562 398.21875 C 553 396.210938 551.4375 395.984375 549.875 395.761719 C 550.097656 392.1875 552.554688 393.082031 554.117188 393.976562 C 556.351562 395.761719 554.789062 397.101562 553.226562 398.21875 Z M 553.226562 398.21875 " fill-opacity="1" fill-rule="nonzero"/><path fill="#ffffff" d="M 37.886719 343.054688 C 34.984375 344.617188 32.304688 347.96875 29.179688 343.5 C 32.082031 344.617188 34.761719 341.9375 37.886719 343.054688 Z M 37.886719 343.054688 " fill-opacity="1" fill-rule="nonzero"/><path fill="#ffffff" d="M 569.972656 323.175781 C 570.640625 324.738281 569.972656 327.421875 573.097656 327.421875 C 572.425781 329.875 570.863281 329.429688 569.746094 328.3125 C 567.738281 326.527344 568.632812 324.738281 569.972656 323.175781 Z M 569.972656 323.175781 " fill-opacity="1" fill-rule="nonzero"/><path fill="#ffffff" d="M 19.355469 353.328125 C 21.589844 350.425781 24.492188 350.199219 27.617188 351.316406 C 24.9375 352.210938 22.257812 353.996094 19.355469 353.328125 Z M 19.355469 353.328125 " fill-opacity="1" fill-rule="nonzero"/><path fill="#ffffff" d="M 480.882812 116.136719 C 480.882812 118.371094 481.105469 120.605469 481.105469 122.839844 C 477.753906 120.605469 478.425781 118.59375 480.882812 116.136719 Z M 480.882812 116.136719 " fill-opacity="1" fill-rule="nonzero"/><path fill="#ffffff" d="M 337.085938 28.8125 C 340.4375 28.140625 343.785156 27.246094 345.347656 31.492188 C 342.667969 30.597656 339.988281 29.703125 337.085938 28.8125 Z M 337.085938 28.8125 " fill-opacity="1" fill-rule="nonzero"/><path fill="#ffffff" d="M 296.671875 31.9375 C 298.683594 32.832031 300.914062 33.277344 303.371094 33.054688 C 300.914062 35.066406 298.234375 36.851562 296.671875 31.9375 Z M 296.671875 31.9375 " fill-opacity="1" fill-rule="nonzero"/><path fill="#ffffff" d="M 424.835938 46.007812 C 423.722656 48.6875 421.710938 50.699219 419.253906 51.816406 C 419.703125 48.6875 421.933594 46.902344 424.835938 46.007812 Z M 424.835938 46.007812 " fill-opacity="1" fill-rule="nonzero"/><path fill="#ffffff" d="M 166.277344 30.820312 C 168.730469 31.042969 171.410156 31.269531 170.964844 34.839844 C 169.179688 33.726562 167.167969 33.054688 164.9375 34.171875 C 165.605469 33.054688 165.828125 31.9375 166.277344 30.820312 Z M 166.277344 30.820312 " fill-opacity="1" fill-rule="nonzero"/><path fill="#ffffff" d="M 213.835938 46.007812 C 215.175781 42.882812 217.183594 42.210938 220.085938 44.222656 C 218.300781 45.339844 216.515625 46.679688 213.835938 46.007812 Z M 213.835938 46.007812 " fill-opacity="1" fill-rule="nonzero"/><path fill="#ffffff" d="M 468.824219 87.328125 C 467.039062 89.558594 465.027344 90.007812 462.347656 89.335938 C 464.359375 88.445312 466.144531 86.65625 468.824219 87.328125 Z M 468.824219 87.328125 " fill-opacity="1" fill-rule="nonzero"/><path fill="#ffffff" d="M 166.277344 30.820312 C 165.828125 31.9375 165.382812 33.054688 164.9375 34.171875 C 163.820312 34.394531 162.480469 34.617188 161.363281 34.617188 C 160.917969 30.375 163.597656 30.820312 166.277344 30.820312 Z M 166.277344 30.820312 " fill-opacity="1" fill-rule="nonzero"/><path fill="#ffffff" d="M 42.578125 410.058594 C 41.90625 411.621094 40.566406 412.511719 39.449219 411.171875 C 37.886719 409.609375 38.78125 407.824219 40.789062 406.929688 C 41.460938 408.046875 41.90625 408.941406 42.578125 410.058594 Z M 42.578125 410.058594 " fill-opacity="1" fill-rule="nonzero"/><path fill="#ffffff" d="M 92.816406 462.765625 C 93.707031 460.308594 95.046875 458.296875 97.949219 458.523438 C 96.609375 460.308594 95.046875 462.09375 92.816406 462.765625 Z M 92.816406 462.765625 " fill-opacity="1" fill-rule="nonzero"/><path fill="#ffffff" d="M 349.367188 41.542969 C 351.601562 40.203125 353.609375 42.210938 355.621094 41.765625 C 353.386719 46.679688 351.378906 41.09375 349.367188 41.542969 Z M 349.367188 41.542969 " fill-opacity="1" fill-rule="nonzero"/><path fill="#ffffff" d="M 527.546875 194.753906 C 528.441406 192.296875 529.78125 190.734375 532.460938 192.519531 C 530.898438 193.414062 529.78125 195.425781 527.546875 194.753906 Z M 527.546875 194.753906 " fill-opacity="1" fill-rule="nonzero"/><path fill="#ffffff" d="M 490.484375 83.753906 C 488.695312 83.753906 486.910156 83.753906 485.347656 83.753906 C 486.910156 81.296875 488.695312 81.296875 490.484375 83.753906 Z M 490.484375 83.753906 " fill-opacity="1" fill-rule="nonzero"/><path fill="#ffffff" d="M 130.773438 80.851562 C 133.007812 82.636719 131.667969 84.871094 132.113281 87.105469 C 128.539062 85.761719 130.550781 83.082031 130.773438 80.851562 Z M 130.773438 80.851562 " fill-opacity="1" fill-rule="nonzero"/><path fill="#ffffff" d="M 544.515625 343.277344 C 546.527344 342.832031 548.535156 342.832031 549.652344 345.0625 C 547.195312 345.957031 546.078125 344.171875 544.515625 343.277344 Z M 544.515625 343.277344 " fill-opacity="1" fill-rule="nonzero"/><path fill="#ffffff" d="M 350.707031 27.246094 C 348.699219 26.132812 347.359375 24.792969 348.472656 22.335938 C 349.8125 23.898438 351.152344 25.238281 350.707031 27.246094 Z M 350.707031 27.246094 " fill-opacity="1" fill-rule="nonzero"/><path fill="#ffffff" d="M 44.140625 224.683594 C 44.140625 223.34375 43.917969 222.003906 43.917969 220.664062 C 44.808594 220.214844 45.480469 219.769531 46.371094 219.546875 C 47.042969 221.777344 45.925781 223.34375 44.140625 224.683594 Z M 44.140625 224.683594 " fill-opacity="1" fill-rule="nonzero"/><path fill="#ffffff" d="M 537.371094 405.589844 C 535.140625 405.144531 532.460938 405.144531 531.121094 402.6875 C 533.351562 403.132812 535.808594 403.355469 537.371094 405.589844 Z M 537.371094 405.589844 " fill-opacity="1" fill-rule="nonzero"/><path fill="#ffffff" d="M 186.148438 51.59375 C 183.46875 50.253906 182.574219 48.019531 182.574219 45.113281 C 185.253906 46.457031 184.808594 49.359375 186.148438 51.59375 Z M 186.148438 51.59375 " fill-opacity="1" fill-rule="nonzero"/><path fill="#ffffff" d="M 477.308594 84.871094 C 475.96875 86.878906 474.183594 87.550781 471.949219 86.878906 C 473.734375 85.761719 474.851562 83.976562 477.308594 84.871094 Z M 477.308594 84.871094 " fill-opacity="1" fill-rule="nonzero"/><path fill="#ffffff" d="M 72.050781 470.582031 C 71.828125 472.59375 72.71875 474.15625 73.390625 475.941406 C 70.488281 474.601562 69.148438 473.039062 72.050781 470.582031 Z M 72.050781 470.582031 " fill-opacity="1" fill-rule="nonzero"/><path fill="#ffffff" d="M 40.34375 235.625 C 41.011719 233.394531 40.566406 230.265625 43.691406 229.148438 C 43.023438 231.605469 42.578125 234.0625 40.34375 235.625 Z M 40.34375 235.625 " fill-opacity="1" fill-rule="nonzero"/><path fill="#ffffff" d="M 378.171875 15.1875 C 375.9375 16.304688 374.375 15.410156 373.035156 13.402344 C 375.046875 13.175781 376.609375 14.515625 378.171875 15.1875 Z M 378.171875 15.1875 " fill-opacity="1" fill-rule="nonzero"/><path fill="#ffffff" d="M 209.59375 21.21875 C 207.136719 19.207031 206.691406 17.199219 210.261719 16.082031 C 208.921875 17.644531 210.039062 19.652344 209.59375 21.21875 Z M 209.59375 21.21875 " fill-opacity="1" fill-rule="nonzero"/><path fill="#ffffff" d="M 330.613281 25.015625 C 330.613281 26.132812 330.386719 27.023438 330.386719 28.140625 C 329.273438 28.585938 328.378906 28.585938 327.933594 27.246094 C 327.933594 25.90625 328.15625 24.566406 328.15625 23.003906 C 329.496094 23.449219 330.613281 23.675781 330.613281 25.015625 Z M 330.613281 25.015625 " fill-opacity="1" fill-rule="nonzero"/><path fill="#ffffff" d="M 453.417969 57.621094 C 455.875 58.515625 456.765625 60.078125 455.875 62.535156 C 454.980469 60.972656 454.085938 59.410156 453.417969 57.621094 Z M 453.417969 57.621094 " fill-opacity="1" fill-rule="nonzero"/><path fill="#ffffff" d="M 9.753906 222.003906 C 11.09375 223.566406 10.648438 225.351562 10.425781 227.140625 C 8.414062 225.574219 8.636719 223.789062 9.753906 222.003906 Z M 9.753906 222.003906 " fill-opacity="1" fill-rule="nonzero"/><path fill="#ffffff" d="M 544.964844 406.707031 C 544.964844 407.824219 544.742188 408.941406 543.625 408.941406 C 542.285156 408.941406 541.613281 408.046875 541.167969 406.707031 C 542.285156 406.707031 543.625 406.707031 544.964844 406.707031 Z M 544.964844 406.707031 " fill-opacity="1" fill-rule="nonzero"/><path fill="#ffffff" d="M 480.65625 107.652344 C 483.113281 108.992188 483.113281 110.777344 481.328125 112.789062 C 481.328125 111.222656 480.882812 109.4375 480.65625 107.652344 Z M 480.65625 107.652344 " fill-opacity="1" fill-rule="nonzero"/><path fill="#ffffff" d="M 560.59375 238.976562 C 562.378906 237.191406 563.496094 239.199219 564.835938 239.644531 C 564.835938 240.539062 565.058594 241.210938 565.058594 242.101562 C 563.496094 241.210938 561.710938 240.761719 560.59375 238.976562 Z M 560.59375 238.976562 " fill-opacity="1" fill-rule="nonzero"/><path fill="#ffffff" d="M 176.546875 47.796875 C 178.332031 48.464844 180.34375 48.910156 178.554688 51.59375 C 177.441406 50.699219 176.101562 49.804688 176.546875 47.796875 Z M 176.546875 47.796875 " fill-opacity="1" fill-rule="nonzero"/><path fill="#ffffff" d="M 26.722656 270.914062 C 24.9375 268.902344 24.492188 267.117188 27.617188 266 C 27.617188 267.5625 29.179688 269.574219 26.722656 270.914062 Z M 26.722656 270.914062 " fill-opacity="1" fill-rule="nonzero"/><path fill="#ffffff" d="M 561.488281 299.503906 C 563.273438 296.820312 565.058594 297.269531 566.84375 299.503906 C 565.058594 300.171875 563.273438 299.949219 561.488281 299.503906 Z M 561.488281 299.503906 " fill-opacity="1" fill-rule="nonzero"/><path fill="#ffffff" d="M 34.761719 233.394531 C 36.996094 232.5 38.109375 233.839844 39.226562 235.625 C 36.996094 236.296875 35.65625 234.957031 34.761719 233.394531 Z M 34.761719 233.394531 " fill-opacity="1" fill-rule="nonzero"/><path fill="#ffffff" d="M 81.652344 471.253906 C 82.097656 469.019531 83.4375 467.902344 85.671875 468.125 C 85 469.914062 83.660156 471.027344 81.652344 471.253906 Z M 81.652344 471.253906 " fill-opacity="1" fill-rule="nonzero"/><path fill="#ffffff" d="M 179.226562 54.050781 C 181.234375 54.71875 182.574219 56.058594 181.90625 58.515625 C 180.566406 57.175781 178.78125 56.28125 179.226562 54.050781 Z M 179.226562 54.050781 " fill-opacity="1" fill-rule="nonzero"/><path fill="#ffffff" d="M 171.632812 38.191406 C 174.089844 38.863281 174.984375 40.203125 174.089844 42.660156 C 173.195312 41.09375 172.527344 39.53125 171.632812 38.191406 Z M 171.632812 38.191406 " fill-opacity="1" fill-rule="nonzero"/><path fill="#ffffff" d="M 540.050781 149.640625 C 538.488281 148.746094 537.148438 147.628906 537.820312 145.394531 C 538.933594 146.734375 540.722656 147.40625 540.050781 149.640625 Z M 540.050781 149.640625 " fill-opacity="1" fill-rule="nonzero"/><path fill="#ffffff" d="M 538.710938 217.980469 C 538.042969 219.992188 536.480469 220.886719 534.46875 220.214844 C 535.585938 218.875 536.703125 217.535156 538.710938 217.980469 Z M 538.710938 217.980469 " fill-opacity="1" fill-rule="nonzero"/><path fill="#ffffff" d="M 270.996094 554.78125 C 271.886719 555.453125 272.78125 555.898438 273.453125 556.570312 C 273.453125 557.460938 273.453125 558.355469 273.453125 559.25 C 272.113281 558.132812 270.324219 557.238281 270.996094 554.78125 Z M 270.996094 554.78125 " fill-opacity="1" fill-rule="nonzero"/><path fill="#ffffff" d="M 542.953125 418.992188 C 541.613281 416.535156 543.402344 415.863281 544.964844 415.195312 C 545.410156 416.980469 544.070312 417.875 542.953125 418.992188 Z M 542.953125 418.992188 " fill-opacity="1" fill-rule="nonzero"/><path fill="#ffffff" d="M 212.941406 31.042969 C 213.164062 27.917969 215.175781 28.363281 217.183594 29.035156 C 215.84375 29.480469 214.28125 30.375 212.941406 31.042969 Z M 212.941406 31.042969 " fill-opacity="1" fill-rule="nonzero"/><path fill="#ffffff" d="M 550.769531 403.132812 C 550.546875 401.347656 550.324219 399.558594 552.777344 399.335938 C 553.226562 401.121094 552.332031 402.464844 550.769531 403.132812 Z M 550.769531 403.132812 " fill-opacity="1" fill-rule="nonzero"/><path fill="#ffffff" d="M 345.570312 31.9375 C 347.804688 32.382812 347.804688 34.171875 347.582031 35.957031 C 346.019531 34.839844 345.125 33.726562 345.570312 31.9375 Z M 345.570312 31.9375 " fill-opacity="1" fill-rule="nonzero"/><path fill="#ffffff" d="M 461.457031 68.566406 C 461.457031 67.449219 461.679688 66.109375 461.679688 64.992188 C 463.019531 66.332031 463.910156 67.671875 461.457031 68.566406 Z M 461.457031 68.566406 " fill-opacity="1" fill-rule="nonzero"/><path fill="#ffffff" d="M 544.515625 337.246094 C 543.175781 337.46875 541.835938 337.695312 541.167969 336.128906 C 542.730469 334.789062 543.625 336.128906 544.515625 337.246094 Z M 544.515625 337.246094 " fill-opacity="1" fill-rule="nonzero"/><path fill="#ffffff" d="M 542.953125 189.617188 C 542.285156 186.714844 543.402344 186.042969 545.855469 187.609375 C 544.964844 188.277344 544.070312 188.949219 542.953125 189.617188 Z M 542.953125 189.617188 " fill-opacity="1" fill-rule="nonzero"/><path fill="#ffffff" d="M 7.074219 320.941406 C 7.296875 322.730469 7.519531 324.292969 5.511719 324.964844 C 4.839844 323.175781 5.066406 321.613281 7.074219 320.941406 Z M 7.074219 320.941406 " fill-opacity="1" fill-rule="nonzero"/><path fill="#ffffff" d="M 379.289062 29.703125 C 379.0625 28.363281 379.511719 27.472656 380.851562 27.023438 C 381.519531 28.585938 380.179688 29.035156 379.289062 29.703125 Z M 379.289062 29.703125 " fill-opacity="1" fill-rule="nonzero"/><path fill="#ffffff" d="M 10.425781 227.140625 C 11.539062 226.914062 12.433594 227.140625 13.101562 228.03125 C 12.210938 228.480469 11.09375 228.925781 10.425781 227.140625 Z M 10.425781 227.140625 " fill-opacity="1" fill-rule="nonzero"/><path fill="#ffffff" d="M 475.746094 102.960938 C 476.863281 102.960938 477.53125 103.632812 477.53125 104.746094 C 476.191406 104.972656 475.96875 104.078125 475.746094 102.960938 Z M 475.746094 102.960938 " fill-opacity="1" fill-rule="nonzero"/><path fill="#ffffff" d="M 548.3125 408.046875 C 548.089844 406.484375 548.535156 405.367188 550.324219 405.367188 C 550.769531 407.152344 549.875 407.824219 548.3125 408.046875 Z M 548.3125 408.046875 " fill-opacity="1" fill-rule="nonzero"/><path fill="#ffffff" d="M 566.175781 238.304688 C 566.175781 237.636719 566.175781 236.742188 566.175781 236.074219 C 567.515625 236.296875 568.410156 237.191406 568.410156 238.753906 C 567.738281 238.53125 567.070312 238.53125 566.175781 238.304688 Z M 566.175781 238.304688 " fill-opacity="1" fill-rule="nonzero"/><path fill="#ffffff" d="M 545.855469 412.960938 C 545.632812 411.621094 546.304688 410.726562 547.417969 410.28125 C 548.089844 411.84375 547.195312 412.511719 545.855469 412.960938 Z M 545.855469 412.960938 " fill-opacity="1" fill-rule="nonzero"/><path fill="#ffffff" d="M 544.742188 240.316406 C 545.855469 240.539062 546.75 240.761719 547.867188 240.988281 C 547.195312 241.878906 546.304688 242.773438 545.632812 243.667969 C 545.410156 243.441406 544.964844 243.21875 544.742188 242.996094 C 544.742188 241.878906 544.742188 241.210938 544.742188 240.316406 Z M 544.742188 240.316406 " fill-opacity="1" fill-rule="nonzero"/><path fill="#ffffff" d="M 456.097656 64.992188 C 457.660156 65.4375 457.882812 66.554688 457.660156 67.894531 C 456.542969 67.226562 455.203125 66.78125 456.097656 64.992188 Z M 456.097656 64.992188 " fill-opacity="1" fill-rule="nonzero"/><path fill="#ffffff" d="M 423.945312 66.554688 C 422.15625 66.109375 422.15625 64.769531 422.828125 63.207031 C 423.722656 64.097656 423.945312 65.214844 423.945312 66.554688 Z M 423.945312 66.554688 " fill-opacity="1" fill-rule="nonzero"/><path fill="#ffffff" d="M 416.800781 63.875 C 418.140625 64.324219 418.585938 65.4375 418.363281 66.78125 C 416.800781 66.332031 416.351562 65.214844 416.800781 63.875 Z M 416.800781 63.875 " fill-opacity="1" fill-rule="nonzero"/><path fill="#ffffff" d="M 460.5625 60.527344 C 459.445312 60.300781 458.777344 59.410156 458.777344 58.292969 C 459.894531 58.515625 461.007812 58.738281 460.5625 60.527344 Z M 460.5625 60.527344 " fill-opacity="1" fill-rule="nonzero"/><path fill="#ffffff" d="M 549.429688 187.160156 C 550.324219 185.152344 551.214844 184.925781 552.109375 186.9375 C 551.214844 186.9375 550.324219 187.160156 549.429688 187.160156 Z M 549.429688 187.160156 " fill-opacity="1" fill-rule="nonzero"/><path fill="#ffffff" d="M 86.785156 458.523438 C 86.785156 460.085938 85.894531 460.980469 84.105469 460.753906 C 84.554688 459.414062 85.671875 458.746094 86.785156 458.523438 Z M 86.785156 458.523438 " fill-opacity="1" fill-rule="nonzero"/><path fill="#ffffff" d="M 82.097656 462.542969 C 81.652344 463.882812 80.980469 464.328125 79.640625 464.328125 C 79.640625 462.765625 80.757812 462.542969 82.097656 462.542969 Z M 82.097656 462.542969 " fill-opacity="1" fill-rule="nonzero"/><path fill="#ffffff" d="M 478.203125 105.195312 C 479.320312 105.195312 479.988281 105.640625 480.210938 106.980469 C 478.871094 107.203125 478.203125 106.535156 478.203125 105.195312 Z M 478.203125 105.195312 " fill-opacity="1" fill-rule="nonzero"/><path fill="#ffffff" d="M 422.828125 60.75 C 422.15625 59.1875 422.382812 58.070312 424.167969 57.621094 C 424.390625 58.960938 423.722656 60.078125 422.828125 60.75 Z M 422.828125 60.75 " fill-opacity="1" fill-rule="nonzero"/><path fill="#ffffff" d="M 470.832031 98.046875 C 471.949219 98.046875 472.621094 98.71875 472.621094 99.835938 C 471.503906 99.835938 470.832031 99.164062 470.832031 98.046875 Z M 470.832031 98.046875 " fill-opacity="1" fill-rule="nonzero"/><path fill="#ffffff" d="M 352.941406 33.5 C 351.378906 33.054688 350.929688 32.160156 351.378906 30.597656 C 352.492188 31.269531 353.164062 32.160156 352.941406 33.5 Z M 352.941406 33.5 " fill-opacity="1" fill-rule="nonzero"/><path fill="#ffffff" d="M 96.609375 473.484375 C 96.609375 474.378906 96.386719 475.050781 95.269531 475.273438 C 93.933594 473.484375 95.496094 473.484375 96.609375 473.484375 Z M 96.609375 473.484375 " fill-opacity="1" fill-rule="nonzero"/><path fill="#ffffff" d="M 19.132812 316.253906 C 18.015625 316.253906 17.121094 316.253906 16.898438 314.691406 C 18.683594 313.796875 18.238281 316.03125 19.132812 316.253906 Z M 19.132812 316.253906 " fill-opacity="1" fill-rule="nonzero"/><path fill="#ffffff" d="M 418.585938 52.933594 C 418.808594 54.273438 418.140625 55.164062 417.023438 55.613281 C 416.351562 54.050781 417.023438 53.15625 418.585938 52.933594 Z M 418.585938 52.933594 " fill-opacity="1" fill-rule="nonzero"/><path fill="#ffffff" d="M 130.773438 487.109375 C 130.550781 488.003906 130.105469 489.121094 129.878906 490.011719 C 128.988281 489.34375 128.316406 488.671875 128.539062 487.554688 C 129.210938 487.554688 130.105469 487.332031 130.773438 487.332031 C 130.550781 487.332031 130.773438 487.109375 130.773438 487.109375 Z M 130.773438 487.109375 " fill-opacity="1" fill-rule="nonzero"/><path fill="#ffffff" d="M 446.496094 51.816406 C 448.058594 51.367188 448.953125 52.261719 449.175781 53.824219 C 447.835938 53.824219 447.164062 52.933594 446.496094 51.816406 Z M 446.496094 51.816406 " fill-opacity="1" fill-rule="nonzero"/><path fill="#ffffff" d="M 468.378906 95.589844 C 469.492188 95.589844 470.164062 96.261719 470.164062 97.378906 C 469.046875 97.378906 468.378906 96.707031 468.378906 95.589844 Z M 468.378906 95.589844 " fill-opacity="1" fill-rule="nonzero"/><path fill="#ffffff" d="M 446.71875 48.019531 C 445.15625 48.242188 444.484375 47.570312 444.039062 46.230469 C 445.601562 45.785156 446.273438 46.902344 446.71875 48.019531 Z M 446.71875 48.019531 " fill-opacity="1" fill-rule="nonzero"/><path fill="#ffffff" d="M 25.160156 324.964844 C 23.152344 324.738281 22.925781 323.398438 23.375 321.835938 C 24.714844 322.507812 25.382812 323.398438 25.160156 324.964844 Z M 25.160156 324.964844 " fill-opacity="1" fill-rule="nonzero"/><path fill="#ffffff" d="M 493.832031 87.328125 C 492.492188 87.105469 491.820312 86.433594 492.046875 85.09375 C 493.160156 85.316406 494.054688 85.988281 493.832031 87.328125 Z M 493.832031 87.328125 " fill-opacity="1" fill-rule="nonzero"/><path fill="#ffffff" d="M 210.484375 532.449219 C 209.816406 534.011719 208.699219 534.234375 207.359375 533.789062 C 208.03125 532 208.921875 531.777344 210.484375 532.449219 Z M 210.484375 532.449219 " fill-opacity="1" fill-rule="nonzero"/><path fill="#ffffff" d="M 181.683594 41.988281 C 180.117188 41.765625 179.671875 40.871094 179.894531 39.308594 C 181.011719 39.976562 182.128906 40.425781 181.683594 41.988281 Z M 181.683594 41.988281 " fill-opacity="1" fill-rule="nonzero"/><path fill="#ffffff" d="M 215.175781 40.648438 C 213.164062 40.425781 212.71875 39.308594 213.164062 37.523438 C 214.953125 37.96875 215.175781 39.308594 215.175781 40.648438 Z M 215.175781 40.648438 " fill-opacity="1" fill-rule="nonzero"/><path fill="#ffffff" d="M 342.667969 7.59375 C 341.328125 7.59375 340.214844 7.148438 339.988281 5.808594 C 341.550781 5.359375 342.667969 5.808594 342.667969 7.59375 Z M 342.667969 7.59375 " fill-opacity="1" fill-rule="nonzero"/><path fill="#ffffff" d="M 431.757812 80.179688 C 433.320312 79.734375 434.4375 80.402344 434.660156 81.964844 C 433.097656 82.191406 432.429688 81.296875 431.757812 80.179688 Z M 431.757812 80.179688 " fill-opacity="1" fill-rule="nonzero"/><path fill="#ffffff" d="M 383.308594 17.199219 C 381.96875 17.644531 380.851562 17.199219 380.402344 15.632812 C 381.96875 15.1875 382.859375 15.855469 383.308594 17.199219 Z M 383.308594 17.199219 " fill-opacity="1" fill-rule="nonzero"/><path fill="#ffffff" d="M 385.316406 21.21875 C 386.65625 20.769531 387.773438 20.996094 388.21875 22.78125 C 386.878906 23.003906 385.984375 22.335938 385.316406 21.21875 Z M 385.316406 21.21875 " fill-opacity="1" fill-rule="nonzero"/><path fill="#ffffff" d="M 420.148438 69.90625 C 421.933594 70.128906 422.382812 71.023438 422.15625 72.585938 C 421.042969 72.140625 420.371094 71.246094 420.148438 69.90625 Z M 420.148438 69.90625 " fill-opacity="1" fill-rule="nonzero"/><path fill="#ffffff" d="M 527.101562 400.898438 C 525.761719 401.121094 525.089844 400.453125 524.867188 399.335938 C 526.429688 398.667969 526.878906 399.558594 527.101562 400.898438 Z M 527.101562 400.898438 " fill-opacity="1" fill-rule="nonzero"/><path fill="#ffffff" d="M 549.429688 397.996094 C 549.875 399.558594 549.429688 400.453125 547.644531 400.675781 C 547.417969 399.335938 548.3125 398.667969 549.429688 397.996094 Z M 549.429688 397.996094 " fill-opacity="1" fill-rule="nonzero"/><path fill="#ffffff" d="M 281.9375 563.714844 C 280.148438 563.492188 280.148438 562.375 280.375 561.035156 C 281.710938 561.484375 282.605469 562.152344 281.9375 563.714844 Z M 281.9375 563.714844 " fill-opacity="1" fill-rule="nonzero"/><path fill="#ffffff" d="M 286.625 567.960938 C 286.402344 568.851562 285.957031 569.523438 285.0625 569.078125 C 284.167969 568.851562 283.945312 567.960938 284.167969 567.066406 C 284.839844 567.511719 285.730469 567.738281 286.625 567.960938 Z M 286.625 567.960938 " fill-opacity="1" fill-rule="nonzero"/><path fill="#ffffff" d="M 130.550781 487.332031 C 129.878906 487.332031 128.988281 487.554688 128.316406 487.554688 C 128.09375 487.109375 127.871094 486.441406 127.425781 485.992188 C 128.316406 485.101562 128.988281 484.207031 129.878906 483.3125 C 131.667969 484.429688 131.667969 485.769531 130.550781 487.332031 Z M 130.550781 487.332031 " fill-opacity="1" fill-rule="nonzero"/><path fill="#ffffff" d="M 347.804688 39.308594 C 348.027344 39.976562 348.25 40.425781 348.472656 41.09375 C 347.582031 40.871094 347.359375 40.203125 347.804688 39.308594 Z M 347.804688 39.308594 " fill-opacity="1" fill-rule="nonzero"/><path fill="#ffffff" d="M 348.472656 19.878906 C 348.25 19.207031 348.027344 18.761719 348.027344 18.089844 C 348.472656 18.539062 348.699219 19.207031 348.472656 19.878906 Z M 348.472656 19.878906 " fill-opacity="1" fill-rule="nonzero"/><path fill="#ffffff" d="M 23.375 266 C 22.925781 264.660156 22.480469 263.097656 24.265625 262.203125 C 26.945312 264.214844 24.714844 265.105469 23.375 266 Z M 23.375 266 " fill-opacity="1" fill-rule="nonzero"/><path fill="#ffffff" d="M 532.90625 150.980469 C 532.683594 150.085938 532.683594 149.191406 532.460938 148.523438 C 533.578125 148.300781 534.46875 148.523438 534.46875 149.863281 C 534.246094 150.53125 533.574219 150.980469 532.90625 150.980469 Z M 532.90625 150.980469 " fill-opacity="1" fill-rule="nonzero"/><path fill="#ffffff" d="M 39.003906 198.550781 C 36.546875 197.65625 33.867188 197.882812 32.082031 195.648438 C 34.984375 195.203125 37.664062 195.425781 39.003906 198.550781 Z M 39.003906 198.550781 " fill-opacity="1" fill-rule="nonzero"/><path fill="#ffffff" d="M 41.238281 221.777344 C 41.011719 220.214844 41.683594 219.097656 43.023438 218.207031 C 44.140625 218.652344 43.917969 219.769531 44.140625 220.664062 C 43.023438 221.109375 42.128906 221.332031 41.238281 221.777344 Z M 41.238281 221.777344 " fill-opacity="1" fill-rule="nonzero"/><path fill="#ffffff" d="M 28.734375 195.648438 C 28.0625 196.988281 26.945312 197.433594 25.382812 197.210938 C 25.832031 195.203125 27.171875 194.976562 28.734375 195.648438 Z M 28.734375 195.648438 " fill-opacity="1" fill-rule="nonzero"/><path fill="#ffffff" d="M 16.898438 346.628906 C 17.570312 345.511719 18.460938 345.289062 19.578125 345.957031 C 19.132812 347.742188 18.238281 348.414062 16.898438 346.628906 Z M 16.898438 346.628906 " fill-opacity="1" fill-rule="nonzero"/><path fill="#ffffff" d="M 29.402344 225.351562 C 31.636719 225.128906 33.421875 226.023438 34.984375 227.140625 C 32.753906 227.808594 30.074219 229.371094 29.402344 225.351562 Z M 29.402344 225.351562 " fill-opacity="1" fill-rule="nonzero"/><path fill="#ffffff" d="M 20.472656 222.449219 C 22.035156 222.003906 23.152344 222.449219 23.597656 224.011719 C 22.035156 224.460938 21.140625 224.011719 20.472656 222.449219 Z M 20.472656 222.449219 " fill-opacity="1" fill-rule="nonzero"/><path fill="#ffffff" d="M 544.742188 240.316406 C 544.742188 241.210938 544.742188 241.878906 544.742188 242.773438 C 543.847656 242.550781 543.175781 242.101562 543.402344 241.210938 C 543.625 240.761719 544.292969 240.539062 544.742188 240.316406 Z M 544.742188 240.316406 " fill-opacity="1" fill-rule="nonzero"/><path fill="#ffffff" d="M 229.019531 366.503906 C 223.4375 345.0625 218.746094 323.625 213.835938 301.957031 C 210.039062 284.984375 205.574219 268.011719 202.449219 251.035156 C 199.542969 235.402344 195.300781 219.769531 191.730469 204.359375 C 189.496094 194.753906 186.816406 184.925781 185.03125 175.324219 C 183.246094 166.167969 180.117188 157.457031 178.78125 148.074219 C 178.332031 144.503906 179.226562 143.164062 182.128906 142.492188 C 200.214844 137.355469 218.078125 131.773438 236.386719 126.859375 C 261.617188 120.160156 286.625 112.117188 311.855469 105.640625 C 326.816406 101.621094 341.550781 97.152344 356.511719 92.6875 C 357.183594 92.464844 358.074219 92.464844 359.636719 92.242188 C 356.960938 101.398438 354.503906 109.882812 352.046875 118.371094 C 347.804688 132.890625 344.007812 147.628906 339.765625 162.148438 C 336.863281 171.75 333.960938 181.128906 331.28125 190.734375 C 325.921875 210.386719 320.117188 230.042969 314.3125 249.695312 C 310.515625 262.203125 306.71875 274.933594 302.925781 287.441406 C 302.253906 289.675781 301.808594 291.683594 302.476562 293.917969 C 277.917969 318.261719 254.25 343.054688 229.019531 366.503906 Z M 229.019531 366.503906 " fill-opacity="1" fill-rule="nonzero"/><path fill="#ffffff" d="M 231.25 381.023438 C 235.492188 374.992188 241.296875 370.523438 246.433594 365.386719 C 262.289062 349.753906 278.140625 334.121094 293.992188 318.484375 C 288.859375 336.128906 283.722656 353.773438 278.585938 371.195312 C 273.675781 387.5 268.761719 403.804688 263.851562 420.105469 C 259.609375 434.402344 255.8125 448.917969 251.792969 463.660156 C 247.996094 458.296875 247.996094 451.597656 246.433594 445.566406 C 241.523438 425.242188 237.503906 404.917969 233.039062 384.59375 C 232.8125 383.253906 231.921875 382.140625 231.25 381.023438 Z M 231.25 381.023438 " fill-opacity="1" fill-rule="nonzero"/><path fill="#ffffff" d="M 254.027344 469.464844 C 256.257812 479.515625 258.714844 489.566406 260.949219 499.394531 C 268.09375 498.054688 275.238281 496.9375 282.382812 495.597656 C 272.78125 487.109375 263.402344 478.398438 254.027344 469.464844 Z M 254.027344 469.464844 " fill-opacity="1" fill-rule="nonzero"/><path fill="#ffffff" d="M 335.746094 434.402344 C 341.105469 434.402344 346.6875 434.402344 352.046875 434.175781 C 350.707031 441.546875 349.144531 448.917969 347.804688 456.289062 C 343.785156 449.140625 339.765625 441.769531 335.746094 434.402344 Z M 335.746094 434.402344 " fill-opacity="1" fill-rule="nonzero"/><path fill="#ffffff" d="M 357.851562 434.847656 C 362.988281 434.847656 368.347656 434.847656 373.480469 434.847656 C 367.675781 441.769531 361.648438 448.695312 355.84375 455.617188 C 356.511719 448.695312 357.183594 441.769531 357.851562 434.847656 Z M 357.851562 434.847656 " fill-opacity="1" fill-rule="nonzero"/></svg>