<svg xmlns="http://www.w3.org/2000/svg" xmlns:xlink="http://www.w3.org/1999/xlink" width="1366" zoomAndPan="magnify" viewBox="0 0 1024.5 576" height="768" preserveAspectRatio="xMidYMid meet" version="1.0"><defs><g/><clipPath id="cc064f9e69"><path d="M 3 101.375 L 904 101.375 L 904 104 L 3 104 Z M 3 101.375 " clip-rule="nonzero"/></clipPath><clipPath id="a42e79dfc6"><path d="M 3 431 L 904 431 L 904 432.875 L 3 432.875 Z M 3 431 " clip-rule="nonzero"/></clipPath><clipPath id="c255e33081"><path d="M 0 101.375 L 28 101.375 L 28 432.875 L 0 432.875 Z M 0 101.375 " clip-rule="nonzero"/></clipPath></defs><path fill="#ffffff" d="M 364.15625 208.988281 C 376.539062 239.710938 388.925781 270.601562 401.476562 301.324219 C 401.984375 301.324219 402.664062 301.324219 403.171875 301.324219 C 415.726562 270.261719 428.28125 239.199219 440.832031 208.140625 C 441.339844 208.140625 442.019531 208.308594 442.527344 208.308594 C 449.992188 247.347656 457.457031 286.21875 464.921875 325.089844 C 456.269531 328.144531 455.929688 327.972656 454.574219 320.167969 C 449.992188 295.722656 445.582031 271.28125 441.003906 246.839844 C 440.492188 244.292969 439.644531 241.578125 437.441406 238.691406 C 426.074219 267.886719 414.539062 297.082031 402.496094 328.144531 C 389.941406 297.25 377.898438 268.058594 366.023438 238.691406 C 365.515625 238.691406 364.835938 238.691406 364.328125 238.691406 C 363.140625 244.972656 361.953125 251.421875 360.933594 257.703125 C 357.203125 278.582031 353.300781 299.457031 349.90625 320.335938 C 348.890625 326.445312 346.515625 328.3125 339.558594 325.257812 C 347.023438 286.726562 354.488281 247.6875 361.953125 208.648438 C 362.800781 208.988281 363.476562 208.988281 364.15625 208.988281 Z M 364.15625 208.988281 " fill-opacity="1" fill-rule="nonzero"/><path fill="#ffffff" d="M 269.5 221.546875 C 268.992188 228.507812 268.480469 235.296875 267.972656 242.085938 C 268.480469 235.976562 268.992188 229.867188 269.667969 223.753906 C 269.667969 222.90625 269.667969 222.226562 269.5 221.546875 Z M 269.5 221.546875 C 268.992188 228.507812 268.480469 235.296875 267.972656 242.085938 C 268.480469 235.976562 268.992188 229.867188 269.667969 223.753906 C 269.667969 222.90625 269.667969 222.226562 269.5 221.546875 Z M 244.054688 204.746094 L 244.222656 204.746094 C 244.394531 202.199219 244.5625 199.820312 244.734375 197.277344 C 244.5625 199.820312 244.394531 202.367188 244.054688 204.746094 Z M 244.054688 204.746094 " fill-opacity="1" fill-rule="nonzero"/><path fill="#ffffff" d="M 335.148438 111.558594 C 322.765625 99.167969 284.089844 96.789062 269.160156 119.703125 C 256.945312 138.207031 250.667969 158.746094 247.109375 180.132812 C 246.089844 185.734375 245.582031 191.503906 244.902344 197.445312 C 244.734375 199.992188 244.5625 202.367188 244.394531 204.914062 C 244.394531 205.421875 244.394531 205.933594 244.222656 206.273438 C 223.527344 210.34375 207.242188 221.546875 197.914062 241.917969 C 183.664062 273.148438 198.589844 312.359375 229.804688 324.242188 C 231.332031 324.75 232.859375 325.597656 234.382812 326.277344 C 234.046875 329.839844 233.875 333.40625 233.535156 337.140625 C 232.011719 352.925781 231.160156 368.710938 229.125 384.496094 C 228.277344 391.796875 226.242188 399.265625 223.019531 405.882812 C 219.457031 413.015625 213.351562 412.84375 207.921875 406.902344 C 204.1875 402.660156 200.628906 398.078125 196.214844 394.511719 C 191.296875 390.609375 185.53125 389.589844 179.761719 393.324219 C 173.992188 397.058594 173.824219 402.488281 175.691406 408.429688 C 178.234375 416.917969 184.34375 421.5 192.316406 424.046875 C 210.296875 429.816406 234.214844 420.820312 242.527344 404.015625 C 249.820312 389.082031 255.082031 376.859375 258.132812 354.964844 C 258.304688 353.433594 258.472656 351.90625 258.644531 350.550781 C 259.660156 341.722656 259.832031 334.253906 259.832031 328.992188 L 259.660156 328.992188 C 260 328.992188 260.167969 328.992188 260.339844 328.992188 C 267.125 328.3125 274.589844 326.445312 281.714844 322.710938 C 291.382812 317.621094 299.523438 309.304688 306.3125 297.25 C 317.847656 276.542969 317.335938 255.835938 305.292969 235.636719 C 297.148438 222.058594 285.277344 213.0625 270.515625 208.140625 C 270.515625 208.140625 270.347656 208.140625 270.347656 208.140625 C 270.6875 204.746094 271.027344 201.519531 271.195312 198.292969 C 271.195312 198.125 271.195312 197.953125 271.195312 197.953125 C 272.214844 186.074219 273.402344 174.53125 274.589844 162.820312 C 276.117188 148.390625 277.132812 133.625 284.425781 120.554688 C 288.160156 113.933594 291.042969 113.253906 296.640625 118.175781 C 301.390625 122.421875 305.460938 127.683594 310.722656 131.078125 C 316.148438 134.472656 322.425781 137.359375 328.703125 138.035156 C 334.300781 138.546875 339.558594 134.300781 341.257812 128.191406 C 343.292969 121.234375 339.558594 115.972656 335.148438 111.558594 Z M 241.679688 239.539062 C 239.984375 261.4375 237.945312 283.332031 236.082031 305.230469 C 235.910156 306.585938 235.910156 307.945312 235.742188 309.304688 C 235.742188 310.320312 235.570312 311.171875 235.234375 312.359375 C 235.0625 313.546875 234.722656 315.074219 234.382812 316.941406 C 229.464844 313.714844 224.546875 311.511719 221.152344 308.113281 C 191.804688 279.429688 199.777344 236.65625 231.839844 219.851562 C 235.570312 217.8125 239.472656 216.796875 243.375 216.117188 C 242.867188 223.925781 242.359375 231.734375 241.679688 239.539062 Z M 302.578125 256.515625 C 304.105469 264.660156 303.9375 273.996094 301.5625 281.976562 C 296.132812 301.15625 283.917969 314.394531 263.730469 319.316406 C 262.882812 319.488281 262.035156 319.488281 261.019531 319.65625 C 260.679688 319.65625 260.167969 319.65625 259.832031 319.65625 C 260.339844 318.128906 261.019531 316.601562 261.355469 315.242188 C 261.527344 314.566406 261.695312 313.714844 261.867188 313.039062 C 263.902344 289.613281 265.597656 266.019531 267.632812 242.597656 C 267.632812 242.425781 267.632812 242.257812 267.632812 242.085938 C 268.140625 235.296875 268.652344 228.335938 269.160156 221.546875 C 269.160156 220.359375 269.328125 219.171875 269.5 217.8125 C 287.480469 224.433594 298.847656 237.164062 302.578125 256.515625 Z M 302.578125 256.515625 " fill-opacity="1" fill-rule="nonzero"/><path fill="#ffffff" d="M 600.96875 325.429688 C 595.03125 329.671875 592.148438 327.972656 589.605469 322.710938 C 583.667969 309.644531 577.222656 296.914062 571.113281 283.84375 C 569.417969 280.109375 567.042969 278.582031 562.800781 278.582031 C 549.738281 278.921875 536.847656 278.921875 523.785156 278.582031 C 519.203125 278.410156 516.828125 280.109375 514.964844 284.183594 C 509.367188 296.914062 502.917969 309.304688 497.492188 322.035156 C 494.609375 328.652344 491.046875 329.164062 484.261719 325.429688 C 503.429688 285.878906 522.429688 246.332031 541.597656 206.78125 C 542.277344 206.78125 542.953125 206.78125 543.632812 206.78125 C 562.800781 246.160156 581.800781 285.710938 600.96875 325.429688 Z M 544.140625 228.167969 C 543.464844 228.167969 542.785156 228.167969 542.105469 228.167969 C 535.488281 241.746094 529.042969 255.328125 522.089844 269.585938 C 536.167969 269.585938 549.230469 269.585938 563.3125 269.585938 C 556.523438 255.328125 550.417969 241.746094 544.140625 228.167969 Z M 544.140625 228.167969 " fill-opacity="1" fill-rule="nonzero"/><path fill="#ffffff" d="M 271.195312 198.125 C 271.027344 201.519531 270.6875 204.746094 270.515625 207.96875 C 270.515625 207.96875 270.347656 207.96875 270.347656 207.96875 C 270.515625 204.746094 270.855469 201.347656 271.195312 198.125 Z M 271.195312 198.125 " fill-opacity="1" fill-rule="nonzero"/><path fill="#ffffff" d="M 236.25 305.230469 C 236.082031 306.585938 236.082031 307.945312 235.910156 309.304688 C 235.910156 310.320312 235.742188 311.171875 235.402344 312.359375 C 235.570312 309.980469 235.742188 307.605469 235.910156 305.398438 L 236.25 305.398438 Z M 236.25 305.230469 " fill-opacity="1" fill-rule="nonzero"/><path fill="#ffffff" d="M 260.507812 328.824219 C 260 335.953125 259.492188 343.25 258.8125 350.378906 L 258.644531 350.378906 C 259.660156 341.554688 259.832031 334.085938 259.832031 328.824219 L 259.660156 328.824219 C 260 328.824219 260.167969 328.824219 260.507812 328.824219 Z M 260.507812 328.824219 " fill-opacity="1" fill-rule="nonzero"/><path fill="#ffffff" d="M 261.527344 315.246094 C 261.355469 316.773438 261.355469 318.128906 261.1875 319.65625 C 260.847656 319.65625 260.339844 319.65625 260 319.65625 C 260.507812 318.128906 261.019531 316.601562 261.527344 315.246094 Z M 261.527344 315.246094 " fill-opacity="1" fill-rule="nonzero"/><g fill="#ffffff" fill-opacity="1"><g transform="translate(3.844934, 379.534433)"><g><path d="M 7.375 -10.46875 L 7.375 -1.390625 L 11.25 -0.921875 L 11.25 0 L 1.25 0 L 1.25 -0.921875 L 4.015625 -1.390625 L 4.015625 -21.96875 L 1.03125 -22.421875 L 1.03125 -23.34375 L 18.53125 -23.34375 L 18.53125 -17.75 L 17.375 -17.75 L 16.828125 -21.53125 C 15.523438 -21.6875 13.644531 -21.765625 11.1875 -21.765625 L 7.375 -21.765625 L 7.375 -12.046875 L 14.25 -12.046875 L 14.78125 -14.828125 L 15.84375 -14.828125 L 15.84375 -7.65625 L 14.78125 -7.65625 L 14.25 -10.46875 Z M 7.375 -10.46875 "/></g></g></g><g fill="#ffffff" fill-opacity="1"><g transform="translate(25.347717, 379.534433)"><g><path d="M 20.15625 -21.96875 L 17.03125 -22.421875 L 17.03125 -23.34375 L 24.984375 -23.34375 L 24.984375 -22.421875 L 21.984375 -21.96875 L 21.984375 -8.015625 C 21.984375 -5.222656 21.210938 -3.128906 19.671875 -1.734375 C 18.140625 -0.347656 15.914062 0.34375 13 0.34375 C 9.894531 0.34375 7.570312 -0.351562 6.03125 -1.75 C 4.5 -3.144531 3.734375 -5.125 3.734375 -7.6875 L 3.734375 -21.96875 L 0.75 -22.421875 L 0.75 -23.34375 L 10.078125 -23.34375 L 10.078125 -22.421875 L 7.078125 -21.96875 L 7.078125 -7.953125 C 7.078125 -3.710938 9.132812 -1.59375 13.25 -1.59375 C 15.476562 -1.59375 17.1875 -2.117188 18.375 -3.171875 C 19.5625 -4.234375 20.15625 -5.804688 20.15625 -7.890625 Z M 20.15625 -21.96875 "/></g></g></g><g fill="#ffffff" fill-opacity="1"><g transform="translate(52.762859, 379.534433)"><g><path d="M 20.09375 -21.96875 L 16.953125 -22.421875 L 16.953125 -23.34375 L 24.90625 -23.34375 L 24.90625 -22.421875 L 21.921875 -21.96875 L 21.921875 0 L 20.234375 0 L 5.84375 -20.984375 L 5.84375 -1.390625 L 8.96875 -0.921875 L 8.96875 0 L 1.03125 0 L 1.03125 -0.921875 L 4.015625 -1.390625 L 4.015625 -21.96875 L 1.03125 -22.421875 L 1.03125 -23.34375 L 8.09375 -23.34375 L 20.09375 -6.0625 Z M 20.09375 -21.96875 "/></g></g></g><g fill="#ffffff" fill-opacity="1"><g transform="translate(80.177997, 379.534433)"><g><path d="M 20.671875 -11.828125 C 20.671875 -15.085938 19.789062 -17.554688 18.03125 -19.234375 C 16.269531 -20.921875 13.757812 -21.765625 10.5 -21.765625 L 7.375 -21.765625 L 7.375 -1.640625 C 8.769531 -1.546875 10.421875 -1.5 12.328125 -1.5 C 15.179688 -1.5 17.285156 -2.335938 18.640625 -4.015625 C 19.992188 -5.703125 20.671875 -8.304688 20.671875 -11.828125 Z M 11.625 -23.34375 C 15.925781 -23.34375 19.113281 -22.378906 21.1875 -20.453125 C 23.257812 -18.535156 24.296875 -15.648438 24.296875 -11.796875 C 24.296875 -7.898438 23.296875 -4.945312 21.296875 -2.9375 C 19.296875 -0.9375 16.304688 0.0625 12.328125 0.0625 L 4.015625 0 L 1.03125 0 L 1.03125 -0.921875 L 4.015625 -1.390625 L 4.015625 -21.96875 L 1.03125 -22.421875 L 1.03125 -23.34375 Z M 11.625 -23.34375 "/></g></g></g><g fill="#ffffff" fill-opacity="1"><g transform="translate(107.593145, 379.534433)"><g><path d="M 8.015625 -0.921875 L 8.015625 0 L 0.34375 0 L 0.34375 -0.921875 L 2.984375 -1.390625 L 10.9375 -23.53125 L 14.25 -23.53125 L 22.515625 -1.390625 L 25.46875 -0.921875 L 25.46875 0 L 15.609375 0 L 15.609375 -0.921875 L 18.734375 -1.390625 L 16.421875 -8.125 L 7.234375 -8.125 L 4.890625 -1.390625 Z M 11.765625 -21.015625 L 7.765625 -9.6875 L 15.875 -9.6875 Z M 11.765625 -21.015625 "/></g></g></g><g fill="#ffffff" fill-opacity="1"><g transform="translate(135.008287, 379.534433)"><g><path d="M 13.46875 0.34375 C 9.6875 0.34375 6.738281 -0.679688 4.625 -2.734375 C 2.519531 -4.796875 1.46875 -7.6875 1.46875 -11.40625 C 1.46875 -15.414062 2.476562 -18.445312 4.5 -20.5 C 6.53125 -22.5625 9.539062 -23.59375 13.53125 -23.59375 C 15.957031 -23.59375 18.5625 -23.296875 21.34375 -22.703125 L 21.453125 -17.609375 L 20.296875 -17.609375 L 19.78125 -20.640625 C 18.96875 -21.140625 18.023438 -21.523438 16.953125 -21.796875 C 15.878906 -22.066406 14.785156 -22.203125 13.671875 -22.203125 C 10.691406 -22.203125 8.515625 -21.328125 7.140625 -19.578125 C 5.773438 -17.828125 5.09375 -15.113281 5.09375 -11.4375 C 5.09375 -8.050781 5.804688 -5.460938 7.234375 -3.671875 C 8.671875 -1.878906 10.757812 -0.984375 13.5 -0.984375 C 14.820312 -0.984375 16.066406 -1.144531 17.234375 -1.46875 C 18.410156 -1.789062 19.335938 -2.21875 20.015625 -2.75 L 20.671875 -6.234375 L 21.796875 -6.234375 L 21.6875 -0.75 C 19.132812 -0.0195312 16.394531 0.34375 13.46875 0.34375 Z M 13.46875 0.34375 "/></g></g></g><g fill="#ffffff" fill-opacity="1"><g transform="translate(160.458424, 379.534433)"><g><path d="M 7.625 -1.390625 L 10.609375 -0.921875 L 10.609375 0 L 1.28125 0 L 1.28125 -0.921875 L 4.28125 -1.390625 L 4.28125 -21.96875 L 1.28125 -22.421875 L 1.28125 -23.34375 L 10.609375 -23.34375 L 10.609375 -22.421875 L 7.625 -21.96875 Z M 7.625 -1.390625 "/></g></g></g><g fill="#ffffff" fill-opacity="1"><g transform="translate(174.01429, 379.534433)"><g><path d="M 5.09375 -11.6875 C 5.09375 -7.945312 5.71875 -5.234375 6.96875 -3.546875 C 8.226562 -1.867188 10.191406 -1.03125 12.859375 -1.03125 C 15.515625 -1.03125 17.472656 -1.867188 18.734375 -3.546875 C 19.992188 -5.234375 20.625 -7.945312 20.625 -11.6875 C 20.625 -15.414062 19.992188 -18.097656 18.734375 -19.734375 C 17.484375 -21.378906 15.523438 -22.203125 12.859375 -22.203125 C 10.179688 -22.203125 8.21875 -21.378906 6.96875 -19.734375 C 5.71875 -18.097656 5.09375 -15.414062 5.09375 -11.6875 Z M 1.46875 -11.6875 C 1.46875 -19.625 5.265625 -23.59375 12.859375 -23.59375 C 16.609375 -23.59375 19.445312 -22.585938 21.375 -20.578125 C 23.300781 -18.566406 24.265625 -15.601562 24.265625 -11.6875 C 24.265625 -7.726562 23.289062 -4.734375 21.34375 -2.703125 C 19.394531 -0.671875 16.566406 0.34375 12.859375 0.34375 C 9.160156 0.34375 6.335938 -0.664062 4.390625 -2.6875 C 2.441406 -4.707031 1.46875 -7.707031 1.46875 -11.6875 Z M 1.46875 -11.6875 "/></g></g></g><g fill="#ffffff" fill-opacity="1"><g transform="translate(201.429441, 379.534433)"><g><path d="M 20.09375 -21.96875 L 16.953125 -22.421875 L 16.953125 -23.34375 L 24.90625 -23.34375 L 24.90625 -22.421875 L 21.921875 -21.96875 L 21.921875 0 L 20.234375 0 L 5.84375 -20.984375 L 5.84375 -1.390625 L 8.96875 -0.921875 L 8.96875 0 L 1.03125 0 L 1.03125 -0.921875 L 4.015625 -1.390625 L 4.015625 -21.96875 L 1.03125 -22.421875 L 1.03125 -23.34375 L 8.09375 -23.34375 L 20.09375 -6.0625 Z M 20.09375 -21.96875 "/></g></g></g><g fill="#ffffff" fill-opacity="1"><g transform="translate(228.844563, 379.534433)"><g/></g></g><g fill="#ffffff" fill-opacity="1"><g transform="translate(239.444267, 379.534433)"><g><path d="M 5.09375 -11.6875 C 5.09375 -7.945312 5.71875 -5.234375 6.96875 -3.546875 C 8.226562 -1.867188 10.191406 -1.03125 12.859375 -1.03125 C 15.515625 -1.03125 17.472656 -1.867188 18.734375 -3.546875 C 19.992188 -5.234375 20.625 -7.945312 20.625 -11.6875 C 20.625 -15.414062 19.992188 -18.097656 18.734375 -19.734375 C 17.484375 -21.378906 15.523438 -22.203125 12.859375 -22.203125 C 10.179688 -22.203125 8.21875 -21.378906 6.96875 -19.734375 C 5.71875 -18.097656 5.09375 -15.414062 5.09375 -11.6875 Z M 1.46875 -11.6875 C 1.46875 -19.625 5.265625 -23.59375 12.859375 -23.59375 C 16.609375 -23.59375 19.445312 -22.585938 21.375 -20.578125 C 23.300781 -18.566406 24.265625 -15.601562 24.265625 -11.6875 C 24.265625 -7.726562 23.289062 -4.734375 21.34375 -2.703125 C 19.394531 -0.671875 16.566406 0.34375 12.859375 0.34375 C 9.160156 0.34375 6.335938 -0.664062 4.390625 -2.6875 C 2.441406 -4.707031 1.46875 -7.707031 1.46875 -11.6875 Z M 1.46875 -11.6875 "/></g></g></g><g fill="#ffffff" fill-opacity="1"><g transform="translate(266.859381, 379.534433)"><g><path d="M 10.96875 -22.421875 L 7.375 -21.96875 L 7.375 -1.5 L 11.96875 -1.5 C 14.4375 -1.5 16.25 -1.613281 17.40625 -1.84375 L 18.484375 -6.703125 L 19.625 -6.703125 L 19.3125 0 L 1.03125 0 L 1.03125 -0.921875 L 4.015625 -1.390625 L 4.015625 -21.96875 L 1.03125 -22.421875 L 1.03125 -23.34375 L 10.96875 -23.34375 Z M 10.96875 -22.421875 "/></g></g></g><g fill="#ffffff" fill-opacity="1"><g transform="translate(290.309794, 379.534433)"><g><path d="M 7.625 -1.390625 L 10.609375 -0.921875 L 10.609375 0 L 1.28125 0 L 1.28125 -0.921875 L 4.28125 -1.390625 L 4.28125 -21.96875 L 1.28125 -22.421875 L 1.28125 -23.34375 L 10.609375 -23.34375 L 10.609375 -22.421875 L 7.625 -21.96875 Z M 7.625 -1.390625 "/></g></g></g><g fill="#ffffff" fill-opacity="1"><g transform="translate(303.865659, 379.534433)"><g><path d="M 15 0 L 14.390625 0 L 5.84375 -20.0625 L 5.84375 -1.390625 L 8.96875 -0.921875 L 8.96875 0 L 1.03125 0 L 1.03125 -0.921875 L 4.015625 -1.390625 L 4.015625 -21.96875 L 1.03125 -22.421875 L 1.03125 -23.34375 L 8.09375 -23.34375 L 15.671875 -5.59375 L 23.953125 -23.34375 L 30.625 -23.34375 L 30.625 -22.421875 L 27.640625 -21.96875 L 27.640625 -1.390625 L 30.625 -0.921875 L 30.625 0 L 21.171875 0 L 21.171875 -0.921875 L 24.296875 -1.390625 L 24.296875 -20.0625 Z M 15 0 "/></g></g></g><g fill="#ffffff" fill-opacity="1"><g transform="translate(337.227951, 379.534433)"><g><path d="M 14.921875 -16.421875 C 14.921875 -18.335938 14.472656 -19.707031 13.578125 -20.53125 C 12.691406 -21.351562 11.191406 -21.765625 9.078125 -21.765625 L 7.375 -21.765625 L 7.375 -10.71875 L 9.1875 -10.71875 C 11.144531 -10.71875 12.585938 -11.164062 13.515625 -12.0625 C 14.453125 -12.957031 14.921875 -14.410156 14.921875 -16.421875 Z M 7.375 -9.15625 L 7.375 -1.390625 L 11.078125 -0.921875 L 11.078125 0 L 1.25 0 L 1.25 -0.921875 L 4.015625 -1.390625 L 4.015625 -21.96875 L 1.03125 -22.421875 L 1.03125 -23.34375 L 9.828125 -23.34375 C 15.535156 -23.34375 18.390625 -21.050781 18.390625 -16.46875 C 18.390625 -14.070312 17.664062 -12.253906 16.21875 -11.015625 C 14.78125 -9.773438 12.707031 -9.15625 10 -9.15625 Z M 7.375 -9.15625 "/></g></g></g><g fill="#ffffff" fill-opacity="1"><g transform="translate(358.730711, 379.534433)"><g><path d="M 7.625 -1.390625 L 10.609375 -0.921875 L 10.609375 0 L 1.28125 0 L 1.28125 -0.921875 L 4.28125 -1.390625 L 4.28125 -21.96875 L 1.28125 -22.421875 L 1.28125 -23.34375 L 10.609375 -23.34375 L 10.609375 -22.421875 L 7.625 -21.96875 Z M 7.625 -1.390625 "/></g></g></g><g fill="#ffffff" fill-opacity="1"><g transform="translate(372.286576, 379.534433)"><g><path d="M 8.015625 -0.921875 L 8.015625 0 L 0.34375 0 L 0.34375 -0.921875 L 2.984375 -1.390625 L 10.9375 -23.53125 L 14.25 -23.53125 L 22.515625 -1.390625 L 25.46875 -0.921875 L 25.46875 0 L 15.609375 0 L 15.609375 -0.921875 L 18.734375 -1.390625 L 16.421875 -8.125 L 7.234375 -8.125 L 4.890625 -1.390625 Z M 11.765625 -21.015625 L 7.765625 -9.6875 L 15.875 -9.6875 Z M 11.765625 -21.015625 "/></g></g></g><g fill="#ffffff" fill-opacity="1"><g transform="translate(399.701698, 379.534433)"><g><path d="M 20.671875 -11.828125 C 20.671875 -15.085938 19.789062 -17.554688 18.03125 -19.234375 C 16.269531 -20.921875 13.757812 -21.765625 10.5 -21.765625 L 7.375 -21.765625 L 7.375 -1.640625 C 8.769531 -1.546875 10.421875 -1.5 12.328125 -1.5 C 15.179688 -1.5 17.285156 -2.335938 18.640625 -4.015625 C 19.992188 -5.703125 20.671875 -8.304688 20.671875 -11.828125 Z M 11.625 -23.34375 C 15.925781 -23.34375 19.113281 -22.378906 21.1875 -20.453125 C 23.257812 -18.535156 24.296875 -15.648438 24.296875 -11.796875 C 24.296875 -7.898438 23.296875 -4.945312 21.296875 -2.9375 C 19.296875 -0.9375 16.304688 0.0625 12.328125 0.0625 L 4.015625 0 L 1.03125 0 L 1.03125 -0.921875 L 4.015625 -1.390625 L 4.015625 -21.96875 L 1.03125 -22.421875 L 1.03125 -23.34375 Z M 11.625 -23.34375 "/></g></g></g><g fill="#ffffff" fill-opacity="1"><g transform="translate(427.116843, 379.534433)"><g><path d="M 8.015625 -0.921875 L 8.015625 0 L 0.34375 0 L 0.34375 -0.921875 L 2.984375 -1.390625 L 10.9375 -23.53125 L 14.25 -23.53125 L 22.515625 -1.390625 L 25.46875 -0.921875 L 25.46875 0 L 15.609375 0 L 15.609375 -0.921875 L 18.734375 -1.390625 L 16.421875 -8.125 L 7.234375 -8.125 L 4.890625 -1.390625 Z M 11.765625 -21.015625 L 7.765625 -9.6875 L 15.875 -9.6875 Z M 11.765625 -21.015625 "/></g></g></g><g fill="#ffffff" fill-opacity="1"><g transform="translate(454.531987, 379.534433)"><g/></g></g><g fill="#ffffff" fill-opacity="1"><g transform="translate(465.131728, 379.534433)"><g><path d="M 15 0 L 14.390625 0 L 5.84375 -20.0625 L 5.84375 -1.390625 L 8.96875 -0.921875 L 8.96875 0 L 1.03125 0 L 1.03125 -0.921875 L 4.015625 -1.390625 L 4.015625 -21.96875 L 1.03125 -22.421875 L 1.03125 -23.34375 L 8.09375 -23.34375 L 15.671875 -5.59375 L 23.953125 -23.34375 L 30.625 -23.34375 L 30.625 -22.421875 L 27.640625 -21.96875 L 27.640625 -1.390625 L 30.625 -0.921875 L 30.625 0 L 21.171875 0 L 21.171875 -0.921875 L 24.296875 -1.390625 L 24.296875 -20.0625 Z M 15 0 "/></g></g></g><g fill="#ffffff" fill-opacity="1"><g transform="translate(498.493952, 379.534433)"><g><path d="M 8.015625 -0.921875 L 8.015625 0 L 0.34375 0 L 0.34375 -0.921875 L 2.984375 -1.390625 L 10.9375 -23.53125 L 14.25 -23.53125 L 22.515625 -1.390625 L 25.46875 -0.921875 L 25.46875 0 L 15.609375 0 L 15.609375 -0.921875 L 18.734375 -1.390625 L 16.421875 -8.125 L 7.234375 -8.125 L 4.890625 -1.390625 Z M 11.765625 -21.015625 L 7.765625 -9.6875 L 15.875 -9.6875 Z M 11.765625 -21.015625 "/></g></g></g><g fill="#ffffff" fill-opacity="1"><g transform="translate(521.961299, 379.534433)"><g><path d="M 5.484375 0 L 5.484375 -0.921875 L 9.1875 -1.390625 L 9.1875 -21.84375 L 8.296875 -21.84375 C 5.359375 -21.84375 3.351562 -21.726562 2.28125 -21.5 L 1.8125 -17.859375 L 0.640625 -17.859375 L 0.640625 -23.34375 L 21.171875 -23.34375 L 21.171875 -17.859375 L 19.984375 -17.859375 L 19.515625 -21.5 C 19.171875 -21.570312 18.410156 -21.640625 17.234375 -21.703125 C 16.066406 -21.773438 14.785156 -21.8125 13.390625 -21.8125 L 12.546875 -21.8125 L 12.546875 -1.390625 L 16.25 -0.921875 L 16.25 0 Z M 5.484375 0 "/></g></g></g><g fill="#ffffff" fill-opacity="1"><g transform="translate(545.411704, 379.534433)"><g><path d="M 1.03125 -0.921875 L 4.015625 -1.390625 L 4.015625 -21.96875 L 1.03125 -22.421875 L 1.03125 -23.34375 L 18.53125 -23.34375 L 18.53125 -17.75 L 17.375 -17.75 L 16.828125 -21.53125 C 15.523438 -21.6875 13.644531 -21.765625 11.1875 -21.765625 L 7.375 -21.765625 L 7.375 -12.65625 L 13.671875 -12.65625 L 14.21875 -15.4375 L 15.328125 -15.4375 L 15.328125 -8.265625 L 14.21875 -8.265625 L 13.671875 -11.078125 L 7.375 -11.078125 L 7.375 -1.5625 L 11.96875 -1.5625 C 14.957031 -1.5625 16.914062 -1.65625 17.84375 -1.84375 L 18.84375 -6.15625 L 19.984375 -6.15625 L 19.65625 0 L 1.03125 0 Z M 1.03125 -0.921875 "/></g></g></g><g fill="#ffffff" fill-opacity="1"><g transform="translate(568.862064, 379.534433)"><g><path d="M 15 0 L 14.390625 0 L 5.84375 -20.0625 L 5.84375 -1.390625 L 8.96875 -0.921875 L 8.96875 0 L 1.03125 0 L 1.03125 -0.921875 L 4.015625 -1.390625 L 4.015625 -21.96875 L 1.03125 -22.421875 L 1.03125 -23.34375 L 8.09375 -23.34375 L 15.671875 -5.59375 L 23.953125 -23.34375 L 30.625 -23.34375 L 30.625 -22.421875 L 27.640625 -21.96875 L 27.640625 -1.390625 L 30.625 -0.921875 L 30.625 0 L 21.171875 0 L 21.171875 -0.921875 L 24.296875 -1.390625 L 24.296875 -20.0625 Z M 15 0 "/></g></g></g><g fill="#ffffff" fill-opacity="1"><g transform="translate(602.224332, 379.534433)"><g><path d="M 8.015625 -0.921875 L 8.015625 0 L 0.34375 0 L 0.34375 -0.921875 L 2.984375 -1.390625 L 10.9375 -23.53125 L 14.25 -23.53125 L 22.515625 -1.390625 L 25.46875 -0.921875 L 25.46875 0 L 15.609375 0 L 15.609375 -0.921875 L 18.734375 -1.390625 L 16.421875 -8.125 L 7.234375 -8.125 L 4.890625 -1.390625 Z M 11.765625 -21.015625 L 7.765625 -9.6875 L 15.875 -9.6875 Z M 11.765625 -21.015625 "/></g></g></g><g fill="#ffffff" fill-opacity="1"><g transform="translate(625.691679, 379.534433)"><g><path d="M 5.484375 0 L 5.484375 -0.921875 L 9.1875 -1.390625 L 9.1875 -21.84375 L 8.296875 -21.84375 C 5.359375 -21.84375 3.351562 -21.726562 2.28125 -21.5 L 1.8125 -17.859375 L 0.640625 -17.859375 L 0.640625 -23.34375 L 21.171875 -23.34375 L 21.171875 -17.859375 L 19.984375 -17.859375 L 19.515625 -21.5 C 19.171875 -21.570312 18.410156 -21.640625 17.234375 -21.703125 C 16.066406 -21.773438 14.785156 -21.8125 13.390625 -21.8125 L 12.546875 -21.8125 L 12.546875 -1.390625 L 16.25 -0.921875 L 16.25 0 Z M 5.484375 0 "/></g></g></g><g fill="#ffffff" fill-opacity="1"><g transform="translate(649.142084, 379.534433)"><g><path d="M 7.625 -1.390625 L 10.609375 -0.921875 L 10.609375 0 L 1.28125 0 L 1.28125 -0.921875 L 4.28125 -1.390625 L 4.28125 -21.96875 L 1.28125 -22.421875 L 1.28125 -23.34375 L 10.609375 -23.34375 L 10.609375 -22.421875 L 7.625 -21.96875 Z M 7.625 -1.390625 "/></g></g></g><g fill="#ffffff" fill-opacity="1"><g transform="translate(662.697928, 379.534433)"><g><path d="M 13.46875 0.34375 C 9.6875 0.34375 6.738281 -0.679688 4.625 -2.734375 C 2.519531 -4.796875 1.46875 -7.6875 1.46875 -11.40625 C 1.46875 -15.414062 2.476562 -18.445312 4.5 -20.5 C 6.53125 -22.5625 9.539062 -23.59375 13.53125 -23.59375 C 15.957031 -23.59375 18.5625 -23.296875 21.34375 -22.703125 L 21.453125 -17.609375 L 20.296875 -17.609375 L 19.78125 -20.640625 C 18.96875 -21.140625 18.023438 -21.523438 16.953125 -21.796875 C 15.878906 -22.066406 14.785156 -22.203125 13.671875 -22.203125 C 10.691406 -22.203125 8.515625 -21.328125 7.140625 -19.578125 C 5.773438 -17.828125 5.09375 -15.113281 5.09375 -11.4375 C 5.09375 -8.050781 5.804688 -5.460938 7.234375 -3.671875 C 8.671875 -1.878906 10.757812 -0.984375 13.5 -0.984375 C 14.820312 -0.984375 16.066406 -1.144531 17.234375 -1.46875 C 18.410156 -1.789062 19.335938 -2.21875 20.015625 -2.75 L 20.671875 -6.234375 L 21.796875 -6.234375 L 21.6875 -0.75 C 19.132812 -0.0195312 16.394531 0.34375 13.46875 0.34375 Z M 13.46875 0.34375 "/></g></g></g><g fill="#ffffff" fill-opacity="1"><g transform="translate(688.14808, 379.534433)"><g><path d="M 8.015625 -0.921875 L 8.015625 0 L 0.34375 0 L 0.34375 -0.921875 L 2.984375 -1.390625 L 10.9375 -23.53125 L 14.25 -23.53125 L 22.515625 -1.390625 L 25.46875 -0.921875 L 25.46875 0 L 15.609375 0 L 15.609375 -0.921875 L 18.734375 -1.390625 L 16.421875 -8.125 L 7.234375 -8.125 L 4.890625 -1.390625 Z M 11.765625 -21.015625 L 7.765625 -9.6875 L 15.875 -9.6875 Z M 11.765625 -21.015625 "/></g></g></g><g fill="#ffffff" fill-opacity="1"><g transform="translate(715.563216, 379.534433)"><g/></g></g><g fill="#ffffff" fill-opacity="1"><g transform="translate(726.162875, 379.534433)"><g><path d="M 8.015625 -0.921875 L 8.015625 0 L 0.34375 0 L 0.34375 -0.921875 L 2.984375 -1.390625 L 10.9375 -23.53125 L 14.25 -23.53125 L 22.515625 -1.390625 L 25.46875 -0.921875 L 25.46875 0 L 15.609375 0 L 15.609375 -0.921875 L 18.734375 -1.390625 L 16.421875 -8.125 L 7.234375 -8.125 L 4.890625 -1.390625 Z M 11.765625 -21.015625 L 7.765625 -9.6875 L 15.875 -9.6875 Z M 11.765625 -21.015625 "/></g></g></g><g fill="#ffffff" fill-opacity="1"><g transform="translate(753.57802, 379.534433)"><g><path d="M 7.375 -10.234375 L 7.375 -1.390625 L 10.90625 -0.921875 L 10.90625 0 L 1.25 0 L 1.25 -0.921875 L 4.015625 -1.390625 L 4.015625 -21.96875 L 1.03125 -22.421875 L 1.03125 -23.34375 L 11.09375 -23.34375 C 14.019531 -23.34375 16.175781 -22.847656 17.5625 -21.859375 C 18.957031 -20.867188 19.65625 -19.285156 19.65625 -17.109375 C 19.65625 -15.554688 19.226562 -14.210938 18.375 -13.078125 C 17.53125 -11.941406 16.363281 -11.15625 14.875 -10.71875 L 21.1875 -1.390625 L 23.703125 -0.921875 L 23.703125 0 L 18.125 0 L 11.5625 -10.234375 Z M 16.1875 -16.859375 C 16.1875 -18.640625 15.753906 -19.898438 14.890625 -20.640625 C 14.035156 -21.390625 12.519531 -21.765625 10.34375 -21.765625 L 7.375 -21.765625 L 7.375 -11.796875 L 10.453125 -11.796875 C 12.523438 -11.796875 14 -12.179688 14.875 -12.953125 C 15.75 -13.722656 16.1875 -15.023438 16.1875 -16.859375 Z M 16.1875 -16.859375 "/></g></g></g><g fill="#ffffff" fill-opacity="1"><g transform="translate(779.028164, 379.534433)"><g><path d="M 22.328125 -1.21875 C 20.984375 -0.78125 19.585938 -0.410156 18.140625 -0.109375 C 16.691406 0.191406 15.132812 0.34375 13.46875 0.34375 C 9.6875 0.34375 6.738281 -0.675781 4.625 -2.71875 C 2.519531 -4.757812 1.46875 -7.65625 1.46875 -11.40625 C 1.46875 -15.488281 2.488281 -18.539062 4.53125 -20.5625 C 6.582031 -22.582031 9.582031 -23.59375 13.53125 -23.59375 C 16.363281 -23.59375 19.09375 -23.242188 21.71875 -22.546875 L 21.71875 -17.546875 L 20.5625 -17.546875 L 20.09375 -20.4375 C 19.289062 -21 18.328125 -21.429688 17.203125 -21.734375 C 16.085938 -22.046875 14.910156 -22.203125 13.671875 -22.203125 C 10.703125 -22.203125 8.53125 -21.316406 7.15625 -19.546875 C 5.78125 -17.773438 5.09375 -15.070312 5.09375 -11.4375 C 5.09375 -8.007812 5.800781 -5.410156 7.21875 -3.640625 C 8.632812 -1.867188 10.726562 -0.984375 13.5 -0.984375 C 14.46875 -0.984375 15.484375 -1.097656 16.546875 -1.328125 C 17.617188 -1.566406 18.4375 -1.847656 19 -2.171875 L 19 -8.8125 L 16 -9.265625 L 16 -10.203125 L 24.609375 -10.203125 L 24.609375 -9.265625 L 22.328125 -8.8125 Z M 22.328125 -1.21875 "/></g></g></g><g fill="#ffffff" fill-opacity="1"><g transform="translate(806.443263, 379.534433)"><g><path d="M 1.03125 -0.921875 L 4.015625 -1.390625 L 4.015625 -21.96875 L 1.03125 -22.421875 L 1.03125 -23.34375 L 18.53125 -23.34375 L 18.53125 -17.75 L 17.375 -17.75 L 16.828125 -21.53125 C 15.523438 -21.6875 13.644531 -21.765625 11.1875 -21.765625 L 7.375 -21.765625 L 7.375 -12.65625 L 13.671875 -12.65625 L 14.21875 -15.4375 L 15.328125 -15.4375 L 15.328125 -8.265625 L 14.21875 -8.265625 L 13.671875 -11.078125 L 7.375 -11.078125 L 7.375 -1.5625 L 11.96875 -1.5625 C 14.957031 -1.5625 16.914062 -1.65625 17.84375 -1.84375 L 18.84375 -6.15625 L 19.984375 -6.15625 L 19.65625 0 L 1.03125 0 Z M 1.03125 -0.921875 "/></g></g></g><g fill="#ffffff" fill-opacity="1"><g transform="translate(829.893668, 379.534433)"><g><path d="M 20.09375 -21.96875 L 16.953125 -22.421875 L 16.953125 -23.34375 L 24.90625 -23.34375 L 24.90625 -22.421875 L 21.921875 -21.96875 L 21.921875 0 L 20.234375 0 L 5.84375 -20.984375 L 5.84375 -1.390625 L 8.96875 -0.921875 L 8.96875 0 L 1.03125 0 L 1.03125 -0.921875 L 4.015625 -1.390625 L 4.015625 -21.96875 L 1.03125 -22.421875 L 1.03125 -23.34375 L 8.09375 -23.34375 L 20.09375 -6.0625 Z M 20.09375 -21.96875 "/></g></g></g><g fill="#ffffff" fill-opacity="1"><g transform="translate(857.30876, 379.534433)"><g><path d="M 5.484375 0 L 5.484375 -0.921875 L 9.1875 -1.390625 L 9.1875 -21.84375 L 8.296875 -21.84375 C 5.359375 -21.84375 3.351562 -21.726562 2.28125 -21.5 L 1.8125 -17.859375 L 0.640625 -17.859375 L 0.640625 -23.34375 L 21.171875 -23.34375 L 21.171875 -17.859375 L 19.984375 -17.859375 L 19.515625 -21.5 C 19.171875 -21.570312 18.410156 -21.640625 17.234375 -21.703125 C 16.066406 -21.773438 14.785156 -21.8125 13.390625 -21.8125 L 12.546875 -21.8125 L 12.546875 -1.390625 L 16.25 -0.921875 L 16.25 0 Z M 5.484375 0 "/></g></g></g><g fill="#ffffff" fill-opacity="1"><g transform="translate(880.759172, 379.534433)"><g><path d="M 7.625 -1.390625 L 10.609375 -0.921875 L 10.609375 0 L 1.28125 0 L 1.28125 -0.921875 L 4.28125 -1.390625 L 4.28125 -21.96875 L 1.28125 -22.421875 L 1.28125 -23.34375 L 10.609375 -23.34375 L 10.609375 -22.421875 L 7.625 -21.96875 Z M 7.625 -1.390625 "/></g></g></g><g fill="#ffffff" fill-opacity="1"><g transform="translate(894.314926, 379.534433)"><g><path d="M 20.09375 -21.96875 L 16.953125 -22.421875 L 16.953125 -23.34375 L 24.90625 -23.34375 L 24.90625 -22.421875 L 21.921875 -21.96875 L 21.921875 0 L 20.234375 0 L 5.84375 -20.984375 L 5.84375 -1.390625 L 8.96875 -0.921875 L 8.96875 0 L 1.03125 0 L 1.03125 -0.921875 L 4.015625 -1.390625 L 4.015625 -21.96875 L 1.03125 -22.421875 L 1.03125 -23.34375 L 8.09375 -23.34375 L 20.09375 -6.0625 Z M 20.09375 -21.96875 "/></g></g></g><g fill="#ffffff" fill-opacity="1"><g transform="translate(921.730115, 379.534433)"><g><path d="M 8.015625 -0.921875 L 8.015625 0 L 0.34375 0 L 0.34375 -0.921875 L 2.984375 -1.390625 L 10.9375 -23.53125 L 14.25 -23.53125 L 22.515625 -1.390625 L 25.46875 -0.921875 L 25.46875 0 L 15.609375 0 L 15.609375 -0.921875 L 18.734375 -1.390625 L 16.421875 -8.125 L 7.234375 -8.125 L 4.890625 -1.390625 Z M 11.765625 -21.015625 L 7.765625 -9.6875 L 15.875 -9.6875 Z M 11.765625 -21.015625 "/></g></g></g><g clip-path="url(#cc064f9e69)"><path stroke-linecap="butt" transform="matrix(1.696368, 0, 0, 1.697388, 0.45559, 101.373214)" fill="none" stroke-linejoin="miter" d="M 531.90002 0.50044 L 1.999605 0.50044 " stroke="#b7b7b7" stroke-width="1" stroke-opacity="1" stroke-miterlimit="10"/></g><g clip-path="url(#a42e79dfc6)"><path stroke-linecap="butt" transform="matrix(1.696368, 0, 0, 1.697388, 0.45559, 101.373214)" fill="none" stroke-linejoin="miter" d="M 531.90002 194.799395 L 1.999605 194.799395 " stroke="#b7b7b7" stroke-width="1" stroke-opacity="1" stroke-miterlimit="10"/></g><g clip-path="url(#c255e33081)"><path stroke-linecap="butt" transform="matrix(1.696368, 0, 0, 1.697388, 0.45559, 101.373214)" fill="none" stroke-linejoin="miter" d="M 0.500538 194.799395 C 1.000227 130.000858 1.499916 65.298977 1.999605 0.50044 " stroke="#b7b7b7" stroke-width="1" stroke-opacity="1" stroke-miterlimit="10"/></g></svg>