<svg xmlns="http://www.w3.org/2000/svg" xmlns:xlink="http://www.w3.org/1999/xlink" width="1366" zoomAndPan="magnify" viewBox="0 0 1024.5 576" height="768" preserveAspectRatio="xMidYMid meet" version="1.0"><defs><clipPath id="2c29dcf866"><path d="M 467 17.433594 L 516 17.433594 L 516 51 L 467 51 Z M 467 17.433594 " clip-rule="nonzero"/></clipPath><clipPath id="fcdff02930"><path d="M 488 508 L 526 508 L 526 539.433594 L 488 539.433594 Z M 488 508 " clip-rule="nonzero"/></clipPath><clipPath id="a720ff07f1"><path d="M 242.527344 284 L 275 284 L 275 292 L 242.527344 292 Z M 242.527344 284 " clip-rule="nonzero"/></clipPath><clipPath id="981e222380"><path d="M 474 508 L 490 508 L 490 539.433594 L 474 539.433594 Z M 474 508 " clip-rule="nonzero"/></clipPath></defs><path fill="#f6f6f6" d="M 629.679688 244.328125 C 623.605469 241.089844 620.972656 235.421875 616.71875 231.171875 C 614.894531 229.351562 613.679688 225.910156 611.25 226.71875 C 609.425781 227.328125 608.613281 230.769531 608.007812 233.398438 C 607.601562 235.222656 606.589844 236.839844 605.980469 238.460938 C 605.171875 241.292969 602.945312 240.484375 600.917969 240.484375 C 598.285156 240.484375 597.878906 238.863281 597.675781 236.839844 C 597.273438 231.578125 599.90625 227.125 600.917969 222.265625 C 601.929688 218.015625 603.550781 213.96875 604.765625 209.921875 C 605.777344 206.277344 607.804688 206.074219 610.234375 208.707031 C 612.667969 211.335938 614.894531 213.96875 617.121094 216.601562 C 618.136719 217.613281 618.742188 219.433594 620.566406 218.625 C 622.1875 218.015625 621.578125 216.398438 621.578125 215.183594 C 621.984375 205.46875 622.589844 195.550781 622.996094 185.835938 C 622.996094 184.417969 622.390625 182.597656 624.414062 181.988281 C 626.035156 181.582031 626.441406 183.203125 627.25 184.214844 C 637.785156 194.132812 647.101562 205.0625 654.796875 217.003906 C 664.320312 231.578125 671.40625 247.164062 671.40625 264.972656 C 671.40625 298.371094 639.808594 319.824219 609.222656 309.90625 C 600.714844 307.074219 594.03125 301.003906 588.5625 293.917969 C 578.027344 280.355469 573.371094 264.773438 572.15625 247.972656 C 571.953125 246.351562 571.953125 244.53125 572.964844 243.113281 C 574.382812 241.496094 575.394531 238.863281 578.027344 239.875 C 580.257812 240.6875 582.078125 242.304688 582.078125 245.140625 C 581.878906 251.210938 582.484375 257.28125 584.308594 263.152344 C 588.359375 277.117188 594.839844 289.464844 607.195312 297.5625 C 623.199219 307.882812 645.277344 300.800781 655.203125 286.023438 C 664.320312 272.664062 662.699219 258.699219 657.632812 244.53125 C 652.773438 231.578125 645.074219 220.242188 636.566406 209.3125 C 635.554688 207.898438 634.542969 205.0625 632.113281 206.074219 C 629.882812 206.882812 630.894531 209.71875 630.894531 211.539062 C 631.097656 222.265625 631.300781 232.792969 629.679688 244.328125 Z M 629.679688 244.328125 " fill-opacity="1" fill-rule="nonzero"/><path fill="#f6f6f6" d="M 448.390625 349.578125 C 471.28125 328.328125 492.953125 305.859375 515.03125 283.59375 C 521.515625 278.332031 527.390625 272.058594 535.289062 268.617188 C 542.582031 265.582031 549.671875 267.199219 554.734375 273.070312 C 561.417969 280.964844 564.457031 290.882812 568.304688 300.191406 C 572.558594 310.109375 574.585938 320.839844 579.445312 330.554688 C 581.066406 333.792969 578.839844 336.019531 576.40625 337.234375 C 573.371094 338.851562 571.140625 336.828125 570.128906 334.398438 C 567.496094 327.921875 565.066406 321.039062 562.835938 314.359375 C 558.988281 302.824219 554.9375 291.285156 548.453125 280.761719 C 545.820312 276.714844 541.566406 275.703125 536.910156 278.738281 C 525.769531 286.226562 516.046875 295.539062 507.335938 305.65625 C 492.953125 319.824219 478.371094 333.792969 464.191406 348.164062 C 459.53125 352.816406 454.265625 356.867188 450.417969 362.332031 C 442.71875 368.808594 435.023438 375.488281 427.324219 381.964844 C 414.359375 393.296875 401.398438 404.632812 388.230469 415.765625 C 386.207031 417.382812 383.574219 419.8125 380.332031 417.382812 C 377.089844 414.957031 377.496094 411.71875 381.953125 407.871094 C 392.890625 398.5625 403.828125 389.453125 414.765625 380.140625 C 426.109375 370.628906 437.453125 360.308594 448.390625 349.578125 Z M 448.390625 349.578125 " fill-opacity="1" fill-rule="nonzero"/><path fill="#f6f6f6" d="M 335.363281 89.085938 C 335.972656 97.382812 337.996094 103.457031 340.023438 109.527344 C 340.832031 112.160156 342.046875 114.789062 340.226562 117.21875 C 338.402344 119.445312 335.972656 118.433594 333.335938 118.230469 C 326.25 117.421875 319.96875 113.171875 311.867188 114.183594 C 316.121094 118.433594 320.375 122.480469 324.425781 126.734375 C 325.84375 128.148438 328.476562 129.363281 325.640625 131.996094 C 323.816406 133.613281 323.210938 134.421875 320.980469 132.199219 C 315.917969 126.734375 310.246094 121.671875 304.777344 116.410156 C 303.15625 114.789062 301.332031 112.96875 302.75 110.742188 C 304.167969 108.515625 305.992188 106.898438 309.234375 107.300781 C 315.109375 107.910156 320.578125 109.933594 326.25 111.351562 C 327.058594 111.550781 327.867188 112.363281 328.882812 112.363281 C 330.90625 112.363281 333.136719 114.386719 334.554688 112.765625 C 336.171875 111.148438 334.148438 109.125 333.742188 107.097656 C 332.324219 100.824219 330.90625 94.550781 328.679688 88.476562 C 327.261719 84.835938 330.300781 82.609375 332.730469 80.785156 C 335.566406 78.558594 336.578125 81.796875 337.996094 83.011719 C 342.859375 87.464844 347.515625 92.121094 352.378906 96.777344 C 354.203125 98.597656 356.632812 100.621094 354.203125 103.253906 C 351.566406 106.085938 349.746094 103.457031 347.921875 101.433594 C 344.277344 97.585938 340.425781 93.941406 335.363281 89.085938 Z M 335.363281 89.085938 " fill-opacity="1" fill-rule="nonzero"/><path fill="#f6f6f6" d="M 279.253906 389.046875 C 283.710938 385.808594 288.976562 384.796875 294.042969 382.976562 C 295.660156 382.367188 297.6875 379.941406 299.105469 383.179688 C 300.320312 386.214844 298.296875 387.632812 295.863281 388.644531 C 289.585938 391.070312 283.304688 393.703125 277.027344 395.929688 C 275.203125 396.535156 272.976562 400.179688 270.949219 396.535156 C 269.328125 393.5 267.507812 390.261719 270.949219 386.621094 C 275.609375 381.558594 279.457031 375.890625 283.507812 370.628906 C 285.9375 367.390625 285.128906 366.175781 281.28125 365.972656 C 274.394531 365.367188 267.304688 364.152344 260.417969 363.746094 C 255.960938 363.546875 255.757812 359.902344 254.746094 357.269531 C 253.53125 354.03125 256.566406 353.828125 258.796875 352.816406 C 265.480469 350.1875 271.960938 347.351562 278.445312 344.519531 C 280.265625 343.710938 282.089844 342.898438 283.507812 345.53125 C 285.128906 348.566406 282.699219 348.972656 281.078125 349.78125 C 276.824219 351.804688 272.773438 353.628906 268.519531 355.449219 C 267.507812 356.054688 265.886719 356.460938 266.289062 358.082031 C 266.695312 359.699219 268.113281 359.496094 269.53125 359.699219 C 275.203125 360.308594 280.875 360.710938 286.546875 361.722656 C 292.824219 362.734375 293.839844 365.972656 289.789062 370.832031 C 285.738281 375.890625 281.683594 380.75 277.632812 385.808594 C 275.8125 386.621094 275 388.035156 276.417969 389.65625 C 277.429688 391.273438 278.648438 390.464844 279.253906 389.046875 Z M 279.253906 389.046875 " fill-opacity="1" fill-rule="nonzero"/><g clip-path="url(#2c29dcf866)"><path fill="#f6f6f6" d="M 509.765625 46.378906 C 509.765625 41.117188 509.5625 36.054688 509.359375 30.792969 C 509.359375 29.578125 509.96875 27.960938 508.144531 27.554688 C 506.726562 27.351562 506.121094 28.566406 505.511719 29.78125 C 502.878906 35.246094 500.246094 40.710938 497.207031 45.972656 C 494.574219 50.832031 491.132812 51.035156 488.09375 46.378906 C 484.851562 41.519531 481.8125 36.460938 478.773438 31.601562 C 478.167969 30.589844 477.558594 28.972656 476.140625 29.171875 C 474.117188 29.578125 474.722656 31.398438 474.722656 32.816406 C 474.722656 37.472656 474.925781 42.128906 475.128906 46.582031 C 475.128906 48.402344 475.128906 50.019531 472.699219 50.222656 C 470.265625 50.425781 469.457031 49.007812 469.253906 46.78125 C 468.847656 39.496094 468.445312 32.007812 468.039062 24.722656 C 468.039062 22.695312 466.621094 19.863281 470.066406 19.457031 C 473.101562 19.054688 476.34375 18.042969 478.371094 21.683594 C 481.8125 27.554688 485.460938 33.222656 489.105469 38.890625 C 491.535156 42.9375 492.953125 42.734375 494.980469 38.6875 C 498.019531 33.019531 501.460938 27.554688 503.691406 21.683594 C 505.511719 16.828125 509.160156 16.828125 512.601562 17.636719 C 516.25 18.445312 514.019531 21.886719 514.425781 24.113281 C 514.222656 32.007812 513.613281 39.699219 515.4375 47.390625 C 513.816406 47.792969 511.792969 47.390625 509.765625 46.378906 Z M 509.765625 46.378906 " fill-opacity="1" fill-rule="nonzero"/></g><path fill="#f6f6f6" d="M 687.207031 415.5625 C 688.625 415.359375 689.4375 416.371094 690.449219 417.183594 C 696.527344 422.242188 702.398438 427.503906 708.476562 432.566406 C 709.691406 433.578125 710.503906 434.992188 709.691406 436.410156 C 708.476562 438.433594 706.855469 440.054688 704.019531 440.054688 C 695.308594 440.457031 686.601562 441.066406 678.09375 441.671875 C 676.472656 441.875 674.445312 441.066406 673.636719 443.089844 C 672.824219 445.113281 675.054688 445.519531 676.269531 446.53125 C 679.914062 449.566406 683.359375 452.804688 686.800781 456.246094 C 688.421875 457.867188 689.839844 459.078125 687.410156 461.507812 C 684.980469 463.9375 683.96875 462.117188 682.550781 460.902344 C 677.078125 456.042969 671.207031 451.386719 665.9375 446.328125 C 664.722656 445.113281 661.484375 444.507812 662.902344 441.875 C 664.117188 439.851562 665.332031 437.421875 668.574219 437.21875 C 675.660156 437.019531 682.550781 436.613281 689.636719 436.207031 C 692.878906 436.003906 697.742188 437.21875 698.753906 434.589844 C 699.765625 431.753906 694.90625 430.136719 692.878906 427.707031 C 690.449219 424.875 686.800781 423.863281 684.777344 420.625 C 682.75 417.789062 684.167969 416.371094 687.207031 415.5625 Z M 687.207031 415.5625 " fill-opacity="1" fill-rule="nonzero"/><path fill="#f6f6f6" d="M 734.605469 328.527344 C 734 328.328125 733.1875 328.328125 732.582031 328.125 C 731.164062 326.101562 727.71875 326.101562 728.125 322.660156 C 728.933594 320.636719 730.148438 321.039062 731.566406 322.050781 C 732.175781 323.46875 733.390625 323.265625 734.605469 323.0625 C 741.898438 323.0625 748.378906 326.707031 755.265625 328.527344 C 758.914062 329.542969 757.292969 332.980469 755.875 335.410156 C 754.253906 337.839844 751.417969 338.648438 749.191406 340.066406 C 742.910156 343.507812 736.632812 346.746094 730.351562 350.1875 C 729.339844 350.792969 728.125 351.402344 728.125 352.414062 C 728.125 353.828125 729.746094 353.628906 730.757812 354.03125 C 735.621094 355.449219 740.683594 356.867188 745.542969 358.28125 C 747.976562 358.890625 749.796875 360.105469 749.191406 362.734375 C 748.582031 365.773438 746.355469 364.558594 744.328125 364.355469 C 736.632812 363.546875 729.542969 359.699219 722.046875 358.28125 C 718.402344 357.472656 717.589844 355.246094 719.617188 352.210938 C 720.628906 350.589844 721.644531 349.375 723.464844 348.363281 C 728.730469 345.734375 734 342.496094 739.265625 339.660156 C 742.304688 339.660156 744.53125 338.445312 746.558594 336.421875 C 747.367188 335.410156 749.796875 335.613281 748.988281 333.386719 C 748.378906 331.769531 746.761719 331.566406 745.34375 331.769531 C 743.316406 331.160156 741.089844 331.566406 739.265625 330.351562 C 738.253906 328.125 736.429688 328.125 734.605469 328.527344 Z M 734.605469 328.527344 " fill-opacity="1" fill-rule="nonzero"/><path fill="#f6f6f6" d="M 443.730469 501.585938 C 456.695312 504.417969 464.394531 513.324219 459.328125 524.859375 C 457.507812 528.910156 454.265625 531.539062 450.417969 532.351562 C 439.679688 534.171875 428.945312 533.566406 420.640625 525.265625 C 416.792969 521.421875 415.578125 515.957031 417.195312 510.894531 C 419.019531 505.632812 422.667969 501.785156 428.742188 501.179688 C 429.957031 501.585938 430.972656 501.382812 431.578125 499.964844 C 434.007812 499.359375 436.644531 499.359375 439.074219 499.761719 C 438.667969 501.785156 437.046875 501.382812 435.832031 501.382812 C 434.007812 501.382812 432.589844 501.585938 432.792969 504.011719 C 423.476562 507.65625 418.007812 517.371094 428.945312 525.875 C 434.210938 530.125 444.746094 530.933594 449.605469 527.289062 C 458.925781 520.609375 456.289062 510.492188 443.933594 504.824219 C 443.730469 503.609375 443.730469 502.597656 443.730469 501.585938 Z M 443.730469 501.585938 " fill-opacity="1" fill-rule="nonzero"/><path fill="#f6f6f6" d="M 544 533.566406 C 545.214844 526.480469 546.429688 519.394531 547.644531 512.3125 C 548.050781 509.882812 548.457031 507.65625 548.859375 505.226562 C 549.265625 501.179688 554.53125 498.546875 557.570312 500.976562 C 565.265625 507.050781 572.964844 513.527344 580.460938 520.003906 C 581.472656 520.8125 583.09375 521.421875 581.878906 522.835938 C 580.863281 524.050781 579.445312 525.265625 577.625 524.457031 C 577.015625 524.253906 576.40625 523.847656 575.597656 523.445312 C 572.964844 521.824219 571.75 517.574219 568.101562 518.789062 C 562.632812 520.410156 557.367188 522.433594 552.304688 524.859375 C 550.480469 525.671875 550.277344 528.300781 550.277344 530.324219 C 550.074219 532.351562 550.277344 534.375 548.050781 535.589844 C 547.039062 535.992188 546.429688 537.003906 545.011719 536.601562 C 543.796875 535.789062 544 534.578125 544 533.566406 Z M 554.9375 505.429688 C 553.925781 509.277344 552.507812 512.917969 552.507812 516.96875 C 552.507812 518.789062 552.910156 521.21875 554.9375 519.800781 C 557.570312 517.980469 560.609375 518.183594 563.039062 516.359375 C 565.265625 514.742188 565.265625 513.730469 563.445312 512.3125 C 560.609375 510.085938 557.976562 507.859375 554.9375 505.429688 Z M 554.9375 505.429688 " fill-opacity="1" fill-rule="nonzero"/><g clip-path="url(#fcdff02930)"><path fill="#f6f6f6" d="M 492.75 522.632812 C 493.5625 523.648438 494.167969 524.859375 494.980469 525.875 C 494.777344 527.085938 494.777344 528.101562 496.398438 528.300781 C 497.003906 529.3125 497.613281 530.324219 498.21875 531.539062 C 498.21875 532.351562 498.421875 532.957031 499.03125 533.363281 C 499.839844 533.566406 500.449219 533.160156 500.449219 532.351562 C 504.09375 525.875 507.941406 519.597656 511.386719 512.917969 C 513.414062 509.074219 516.046875 508.0625 519.894531 508.464844 C 523.945312 508.871094 523.136719 512.3125 523.539062 514.742188 C 524.554688 521.21875 523.539062 528.101562 525.363281 534.578125 C 525.972656 536.398438 526.578125 538.828125 523.335938 539.03125 C 520.503906 539.433594 518.476562 538.421875 518.476562 535.183594 C 518.476562 530.125 518.273438 525.265625 517.261719 520.207031 C 517.058594 518.992188 517.464844 517.167969 515.84375 516.765625 C 513.816406 516.359375 513.613281 518.382812 513.007812 519.597656 C 509.96875 524.660156 507.335938 530.125 504.296875 535.183594 C 501.257812 540.445312 497.207031 540.242188 494.167969 534.980469 C 492.144531 531.339844 490.117188 527.695312 488.09375 524.050781 C 488.09375 523.242188 488.09375 522.433594 488.09375 521.621094 C 488.496094 521.21875 488.902344 520.8125 489.308594 520.609375 C 490.929688 521.421875 491.738281 522.027344 492.75 522.632812 Z M 492.75 522.632812 " fill-opacity="1" fill-rule="nonzero"/></g><path fill="#f6f6f6" d="M 296.066406 153.855469 C 298.902344 153.855469 301.535156 153.855469 304.371094 153.855469 C 305.992188 153.855469 308.019531 153.246094 308.21875 155.675781 C 308.421875 157.496094 306.800781 158.511719 305.382812 159.320312 C 304.980469 159.523438 304.371094 159.523438 303.765625 159.722656 C 300.929688 160.332031 297.28125 158.308594 295.460938 161.34375 C 292.421875 166.402344 289.789062 171.464844 287.558594 176.929688 C 286.546875 179.558594 289.585938 181.785156 291.003906 184.214844 C 292.421875 186.847656 292.421875 188.871094 290.191406 190.488281 C 286.953125 192.515625 287.15625 189.074219 286.34375 187.65625 C 281.484375 179.964844 276.621094 172.273438 271.960938 164.378906 C 269.9375 161.140625 271.960938 156.890625 275.609375 156.6875 C 282.292969 156.082031 288.976562 152.84375 296.066406 153.855469 Z M 283.304688 159.925781 C 281.28125 160.535156 278.242188 158.511719 276.621094 161.140625 C 275.40625 162.960938 277.835938 163.976562 278.648438 165.1875 C 280.46875 167.617188 281.28125 172.273438 284.320312 171.867188 C 287.558594 171.261719 287.761719 166.402344 289.585938 163.570312 C 291.609375 160.332031 289.789062 159.722656 286.953125 159.925781 C 285.9375 159.925781 284.722656 159.925781 283.304688 159.925781 Z M 283.304688 159.925781 " fill-opacity="1" fill-rule="nonzero"/><path fill="#f6f6f6" d="M 264.871094 262.949219 C 264.0625 265.988281 265.886719 267.808594 268.316406 269.023438 C 270.140625 270.035156 271.960938 270.84375 273.179688 272.664062 C 274.191406 274.285156 274.394531 276.308594 272.976562 277.726562 C 271.558594 279.144531 270.34375 277.523438 269.125 276.714844 C 261.632812 271.453125 254.339844 265.988281 247.046875 260.523438 C 242.390625 256.878906 242.996094 251.816406 248.261719 249.1875 C 255.960938 245.339844 263.65625 241.699219 271.558594 238.054688 C 272.976562 237.449219 275 236.03125 276.015625 238.257812 C 276.824219 240.078125 277.027344 242.710938 274.394531 243.316406 C 265.683594 245.140625 265.886719 252.019531 265.886719 258.496094 C 262.847656 259.507812 263.253906 261.128906 264.871094 262.949219 Z M 261.835938 258.496094 C 263.050781 257.484375 265.074219 256.878906 262.644531 255.054688 C 262.644531 249.1875 261.835938 248.378906 257.175781 250.804688 C 254.542969 252.019531 250.289062 252.425781 250.085938 255.257812 C 249.882812 258.296875 254.542969 258.902344 256.769531 260.925781 C 260.820312 264.570312 261.429688 261.9375 261.835938 258.496094 Z M 261.835938 258.496094 " fill-opacity="1" fill-rule="nonzero"/><path fill="#f6f6f6" d="M 663.507812 476.890625 C 663.507812 483.773438 658.847656 486.40625 653.988281 484.378906 C 645.683594 480.941406 637.378906 477.699219 629.074219 474.460938 C 627.453125 473.855469 625.832031 473.25 626.035156 471.222656 C 626.238281 468.996094 628.261719 468.996094 629.882812 468.796875 C 630.894531 468.796875 632.3125 468.59375 633.125 469.199219 C 639.402344 474.261719 643.457031 469.199219 647.910156 465.960938 C 649.328125 464.949219 650.542969 463.128906 652.164062 462.316406 C 655.8125 460.496094 656.015625 457.664062 655 454.425781 C 654.597656 453.210938 654.191406 451.792969 654.394531 450.578125 C 654.597656 448.554688 656.015625 446.734375 657.632812 446.53125 C 659.863281 446.328125 659.253906 448.757812 659.660156 450.375 C 661.683594 459.890625 660.46875 469.402344 663.507812 476.890625 Z M 655.40625 464.949219 C 651.761719 467.785156 648.722656 470.007812 645.683594 472.4375 C 644.0625 473.855469 644.671875 475.273438 646.289062 475.675781 C 650.140625 476.488281 653.378906 479.320312 657.433594 479.523438 C 658.648438 474.664062 655.609375 470.617188 655.40625 464.949219 Z M 655.40625 464.949219 " fill-opacity="1" fill-rule="nonzero"/><path fill="#f6f6f6" d="M 364.125 94.753906 C 363.722656 96.980469 362.304688 96.980469 360.480469 96.371094 C 360.277344 94.550781 361.289062 92.324219 359.265625 90.703125 C 357.644531 81.796875 358.453125 72.691406 358.453125 63.785156 C 358.453125 60.34375 362.304688 57.914062 365.140625 59.128906 C 375.46875 63.582031 385.394531 68.640625 395.726562 73.703125 C 392.484375 78.359375 389.648438 78.964844 385.800781 75.726562 C 382.558594 72.894531 379.320312 73.5 376.484375 76.132812 C 373.242188 79.167969 369.394531 80.785156 365.542969 83.011719 C 361.492188 86.453125 364.734375 90.90625 364.125 94.753906 Z M 365.140625 64.390625 C 362.507812 65.605469 363.722656 67.628906 363.925781 69.046875 C 364.328125 72.082031 362.507812 76.738281 365.140625 77.546875 C 368.582031 78.761719 371.214844 74.308594 374.253906 72.488281 C 375.066406 71.882812 376.078125 71.273438 375.265625 70.464844 C 372.632812 67.628906 368.582031 66.617188 365.140625 64.390625 Z M 365.140625 64.390625 " fill-opacity="1" fill-rule="nonzero"/><path fill="#f6f6f6" d="M 632.3125 90.097656 C 629.074219 88.277344 625.425781 87.0625 623.605469 83.417969 C 623.808594 82 623.402344 81.191406 621.78125 80.988281 C 621.171875 79.976562 620.769531 78.964844 620.160156 77.953125 C 620.363281 76.738281 619.957031 75.726562 618.742188 75.320312 C 618.136719 72.894531 618.136719 70.261719 618.742188 67.832031 C 619.957031 67.429688 620.363281 66.617188 620.160156 65.402344 C 620.160156 65 620.363281 64.796875 620.769531 64.59375 C 623.199219 63.378906 625.023438 61.761719 625.832031 59.332031 C 631.707031 55.082031 637.582031 56.699219 643.253906 59.535156 C 643.457031 60.75 644.265625 61.558594 645.683594 61.152344 C 650.746094 62.570312 653.582031 66.617188 656.621094 70.261719 C 656.621094 71.476562 657.027344 72.082031 658.242188 72.285156 C 658.445312 73.703125 658.847656 75.121094 659.050781 76.332031 C 659.050781 77.347656 658.847656 78.558594 658.847656 79.574219 C 657.433594 80.988281 656.214844 80.785156 655.40625 78.761719 C 655.609375 77.546875 655.40625 76.535156 653.988281 76.132812 C 653.988281 75.320312 653.785156 74.714844 653.785156 73.90625 C 654.394531 71.679688 653.785156 70.261719 651.558594 69.453125 C 650.34375 68.238281 649.125 67.023438 647.910156 66.011719 C 647.707031 64.390625 646.898438 63.785156 645.480469 64.191406 C 643.050781 64.59375 641.835938 62.164062 639.605469 61.761719 C 633.125 60.75 628.667969 62.773438 625.023438 69.453125 C 623.402344 69.855469 623.199219 71.070312 623.808594 72.285156 C 623.808594 73.09375 623.808594 73.703125 623.808594 74.511719 C 623.199219 75.929688 623.199219 76.941406 624.820312 77.546875 C 626.84375 82.8125 631.503906 85.644531 636.164062 88.074219 C 639.203125 89.691406 643.050781 89.894531 646.089844 87.667969 C 649.125 85.441406 651.152344 86.859375 652.367188 89.289062 C 653.582031 92.121094 650.34375 92.730469 649.125 93.132812 C 644.0625 95.15625 639.203125 94.347656 634.746094 91.109375 C 634.746094 90.097656 633.730469 89.691406 632.3125 90.097656 Z M 632.3125 90.097656 " fill-opacity="1" fill-rule="nonzero"/><path fill="#f6f6f6" d="M 673.636719 94.347656 C 675.863281 93.335938 678.296875 93.742188 680.726562 93.335938 C 682.347656 93.335938 683.96875 93.335938 685.382812 93.335938 C 685.789062 93.742188 686.195312 94.144531 686.800781 94.550781 C 686.800781 95.765625 687.207031 96.371094 688.421875 96.574219 C 688.21875 104.46875 685.183594 111.550781 683.359375 119.042969 C 682.75 121.46875 681.941406 123.898438 681.132812 126.328125 C 679.714844 127.136719 679.308594 129.363281 677.484375 129.363281 C 677.28125 129.160156 677.078125 128.757812 676.878906 128.554688 C 676.878906 126.53125 676.675781 124.507812 676.675781 122.480469 C 676.878906 121.46875 677.078125 120.457031 677.28125 119.445312 C 678.902344 117.625 678.699219 116.003906 676.675781 114.789062 C 676.269531 114.789062 676.066406 114.386719 676.066406 114.183594 C 676.066406 113.171875 675.460938 112.5625 674.242188 112.5625 C 673.839844 112.5625 673.839844 112.363281 673.636719 112.160156 C 673.636719 111.148438 673.027344 110.539062 672.015625 110.539062 C 670.597656 110.136719 669.789062 108.921875 669.179688 107.707031 C 669.179688 106.695312 668.574219 106.085938 667.558594 106.085938 C 667.15625 106.085938 666.953125 105.886719 666.953125 105.480469 C 666.953125 104.46875 666.34375 103.859375 665.332031 103.859375 C 663.507812 103.050781 661.683594 103.457031 659.863281 103.457031 C 657.230469 103.457031 654.597656 103.660156 651.960938 103.660156 C 651.761719 103.660156 651.558594 103.660156 651.355469 103.253906 C 650.949219 99.207031 655.609375 101.230469 656.621094 98.800781 C 657.632812 98.597656 658.648438 98.394531 659.660156 97.992188 C 662.089844 98.597656 663.914062 98.195312 665.535156 96.167969 C 666.546875 95.96875 667.558594 95.765625 668.574219 95.765625 C 670.800781 96.777344 672.625 96.167969 673.636719 94.347656 Z M 680.726562 97.789062 C 677.6875 100.015625 672.421875 98.597656 670.191406 103.050781 C 669.789062 104.0625 677.890625 111.753906 678.496094 111.148438 C 681.941406 108.3125 681.535156 103.660156 683.15625 99.8125 C 683.96875 98.394531 682.550781 97.585938 680.726562 97.789062 Z M 680.726562 97.789062 " fill-opacity="1" fill-rule="nonzero"/><path fill="#f6f6f6" d="M 556.152344 53.058594 C 556.152344 52.046875 555.949219 51.035156 555.949219 49.820312 C 556.355469 48.199219 556.355469 46.582031 554.125 46.175781 C 554.125 46.175781 553.925781 45.972656 553.925781 45.972656 C 552.507812 42.128906 549.46875 42.9375 546.429688 43.542969 C 544.402344 43.34375 542.378906 43.140625 540.351562 42.9375 C 540.351562 41.925781 540.554688 41.117188 540.554688 40.105469 C 544.402344 39.496094 548.253906 41.316406 551.695312 39.699219 C 551.089844 36.257812 548.859375 33.828125 548.457031 30.386719 C 548.253906 27.554688 546.226562 26.339844 544.203125 29.375 C 542.378906 32.414062 539.136719 34.636719 538.125 38.28125 C 538.125 39.496094 537.921875 40.710938 537.921875 42.128906 C 535.289062 41.519531 533.464844 42.53125 531.84375 44.757812 C 530.628906 46.378906 529.414062 47.996094 527.792969 49.210938 C 526.171875 50.628906 524.148438 50.628906 522.730469 49.414062 C 521.3125 48.199219 522.730469 46.582031 523.539062 45.570312 C 529.617188 38.28125 535.695312 31.199219 541.972656 24.113281 C 544 21.886719 546.226562 21.480469 548.859375 22.695312 C 549.0625 24.113281 550.074219 24.519531 551.289062 24.316406 C 552.910156 27.554688 554.328125 30.792969 555.949219 34.03125 C 556.152344 34.636719 556.355469 35.042969 556.355469 35.652344 C 556.355469 36.460938 556.355469 37.066406 556.558594 37.878906 C 555.542969 40.105469 556.558594 41.519531 558.582031 42.328125 C 558.785156 43.34375 558.988281 44.355469 559.191406 45.367188 C 558.785156 46.78125 559.394531 47.59375 560.609375 47.996094 C 560.609375 50.628906 564.457031 52.246094 563.039062 55.484375 C 561.214844 55.890625 559.191406 54.070312 557.367188 55.285156 C 556.960938 55.285156 556.761719 55.082031 556.558594 54.878906 C 556.558594 54.273438 556.355469 53.664062 556.152344 53.058594 Z M 556.152344 53.058594 " fill-opacity="1" fill-rule="nonzero"/><path fill="#f6f6f6" d="M 730.554688 153.046875 C 725.695312 161.949219 720.832031 170.855469 715.769531 179.558594 C 715.160156 180.570312 714.753906 184.621094 711.71875 181.988281 C 709.894531 180.371094 708.273438 178.75 710.503906 175.917969 C 713.335938 172.476562 715.769531 168.832031 712.730469 164.175781 C 713.539062 163.773438 714.351562 163.367188 715.160156 162.960938 C 716.984375 163.976562 718.402344 163.570312 719.617188 161.546875 C 721.035156 159.117188 722.65625 156.6875 724.277344 154.257812 C 725.085938 154.257812 725.695312 153.855469 725.695312 153.046875 C 725.695312 152.03125 724.882812 151.628906 723.871094 151.832031 C 720.425781 151.832031 716.984375 151.832031 713.539062 151.628906 C 710.90625 151.628906 710.300781 152.84375 710.90625 155.070312 C 709.894531 155.472656 709.085938 156.082031 708.070312 156.484375 C 707.667969 155.878906 707.464844 155.070312 707.058594 154.460938 C 707.261719 150.820312 704.425781 150.820312 702.195312 150.617188 C 699.160156 150.617188 696.324219 150.210938 693.488281 149.605469 C 693.082031 148.792969 692.878906 147.984375 693.691406 147.175781 C 698.957031 147.175781 704.222656 147.984375 709.488281 146.566406 C 714.351562 146.566406 719.007812 146.566406 723.871094 146.566406 C 725.898438 146.566406 728.125 146.164062 728.730469 148.996094 C 727.921875 151.222656 728.933594 152.234375 730.554688 153.046875 Z M 730.554688 153.046875 " fill-opacity="1" fill-rule="nonzero"/><path fill="#f6f6f6" d="M 440.492188 43.34375 C 439.480469 43.542969 438.667969 43.542969 437.65625 43.746094 C 435.832031 43.34375 434.007812 42.734375 433.808594 45.570312 C 434.007812 47.59375 434.007812 49.617188 434.210938 51.640625 C 433.808594 53.261719 434.007812 54.273438 436.035156 54.472656 C 437.859375 54.472656 439.882812 54.472656 441.707031 54.472656 C 442.515625 55.6875 445.148438 54.878906 444.949219 57.308594 C 443.53125 57.511719 442.113281 57.511719 440.695312 57.710938 C 438.0625 56.09375 436.238281 56.5 435.023438 59.332031 C 432.390625 60.75 430.972656 59.535156 429.957031 57.105469 C 427.121094 49.617188 425.703125 41.722656 423.882812 33.828125 C 423.273438 31.398438 424.894531 29.984375 427.121094 29.375 C 435.023438 26.949219 443.328125 24.921875 451.429688 22.695312 C 452.644531 22.496094 453.65625 22.089844 454.0625 23.707031 C 454.46875 25.328125 453.859375 26.746094 452.039062 26.949219 C 444.949219 27.554688 438.261719 30.386719 431.375 32.007812 C 428.136719 33.222656 428.539062 34.839844 430.769531 36.664062 C 431.78125 38.078125 430.972656 40.710938 433.808594 40.914062 C 435.425781 43.34375 437.25 41.925781 439.074219 41.316406 C 441.097656 40.507812 440.894531 41.925781 440.492188 43.34375 Z M 440.492188 43.34375 " fill-opacity="1" fill-rule="nonzero"/><path fill="#f6f6f6" d="M 584.714844 44.355469 C 583.09375 49.820312 581.472656 55.285156 579.851562 60.546875 C 579.242188 62.570312 577.421875 62.164062 576.207031 61.558594 C 574.179688 60.75 573.371094 59.332031 573.976562 57.105469 C 576.003906 50.628906 577.625 43.949219 580.257812 37.675781 C 581.472656 34.839844 580.460938 34.636719 578.433594 33.425781 C 575.800781 31.601562 572.355469 32.007812 569.925781 29.78125 C 569.117188 28.972656 567.089844 29.171875 567.699219 27.351562 C 568.304688 25.53125 570.332031 25.933594 571.546875 26.339844 C 574.179688 27.148438 576.609375 28.363281 579.042969 29.375 C 580.054688 31.199219 581.472656 32.007812 583.699219 30.996094 C 584.308594 31.199219 585.117188 31.398438 585.726562 31.398438 C 586.132812 32.613281 586.941406 33.222656 588.359375 32.816406 C 592.003906 32.414062 594.839844 34.636719 598.082031 35.652344 C 598.285156 36.863281 598.082031 38.078125 596.867188 38.6875 C 595.449219 38.6875 594.03125 38.6875 592.816406 37.675781 C 592.410156 36.257812 591.601562 35.851562 590.183594 36.257812 C 586.535156 36.257812 587.347656 39.699219 586.332031 41.519531 C 584.914062 42.328125 584.511719 42.9375 584.714844 44.355469 Z M 584.714844 44.355469 " fill-opacity="1" fill-rule="nonzero"/><path fill="#f6f6f6" d="M 735.011719 386.011719 C 735.820312 384.191406 736.632812 382.570312 737.644531 380.75 C 739.0625 380.546875 739.46875 379.535156 739.265625 378.320312 C 739.265625 377.714844 739.46875 376.902344 739.46875 376.296875 C 740.886719 376.296875 742.304688 376.5 742.507812 378.523438 C 742.304688 378.929688 742.304688 379.128906 742.101562 379.535156 C 739.875 379.738281 740.074219 381.355469 740.277344 382.976562 C 740.074219 383.785156 740.074219 384.394531 739.875 385.203125 C 738.253906 385.203125 737.847656 386.214844 738.050781 387.632812 C 737.847656 388.238281 737.441406 389.046875 737.238281 389.65625 C 736.023438 390.058594 735.621094 390.871094 735.820312 392.085938 C 735.621094 392.691406 735.214844 393.5 735.011719 394.109375 C 733.59375 394.714844 731.972656 395.324219 733.1875 397.550781 C 731.769531 400.585938 730.351562 403.824219 728.53125 406.859375 C 728.125 407.667969 727.316406 409.492188 725.695312 408.277344 C 724.480469 407.46875 724.480469 406.050781 724.882812 404.835938 C 725.085938 404.429688 725.289062 404.226562 725.492188 404.027344 C 730.960938 393.90625 730.960938 393.90625 720.425781 388.84375 C 717.1875 387.226562 713.742188 386.011719 710.503906 383.988281 C 709.085938 382.976562 705.84375 382.167969 707.867188 379.128906 C 709.488281 376.5 711.515625 376.5 713.945312 378.320312 C 714.757812 378.929688 715.972656 379.332031 716.78125 379.941406 C 716.984375 380.953125 717.792969 381.558594 718.808594 381.355469 C 720.023438 381.761719 721.441406 381.964844 722.25 383.179688 C 723.464844 385.40625 725.898438 385.203125 727.921875 385.808594 C 729.136719 386.214844 730.148438 386.621094 731.367188 386.820312 C 731.769531 387.832031 732.378906 388.847656 733.59375 388.847656 C 734.808594 388.035156 735.011719 387.023438 735.011719 386.011719 Z M 735.011719 386.011719 " fill-opacity="1" fill-rule="nonzero"/><path fill="#f6f6f6" d="M 284.925781 416.777344 C 282.496094 416.980469 282.292969 415.15625 281.28125 414.144531 C 279.660156 412.324219 281.484375 411.109375 282.292969 410.503906 C 289.585938 405.847656 296.878906 401.597656 304.371094 397.347656 C 306.195312 396.335938 308.019531 396.535156 308.828125 398.964844 C 309.234375 400.382812 309.636719 401.597656 308.019531 402.609375 C 300.929688 407.0625 293.839844 411.515625 286.546875 416.171875 C 285.9375 416.371094 285.128906 416.574219 284.925781 416.777344 Z M 284.925781 416.777344 " fill-opacity="1" fill-rule="nonzero"/><path fill="#f6f6f6" d="M 721.441406 418.195312 C 720.023438 419.410156 719.210938 422.648438 716.171875 420.824219 C 709.085938 416.371094 701.996094 411.71875 694.90625 407.0625 C 693.082031 405.847656 692.472656 404.027344 694.09375 402.40625 C 695.109375 401.394531 695.917969 399.371094 698.550781 401.191406 C 705.4375 406.253906 712.527344 410.707031 719.617188 415.359375 C 720.226562 416.171875 721.441406 416.371094 721.441406 418.195312 Z M 721.441406 418.195312 " fill-opacity="1" fill-rule="nonzero"/><path fill="#f6f6f6" d="M 603.347656 72.488281 C 601.121094 71.476562 598.691406 70.867188 600.109375 67.429688 C 603.144531 59.9375 607.601562 53.261719 610.4375 45.570312 C 610.84375 44.355469 611.855469 41.519531 614.488281 43.140625 C 616.515625 44.355469 618.136719 45.972656 616.921875 48.605469 C 613.273438 55.890625 609.425781 63.175781 605.777344 70.464844 C 605.171875 71.476562 604.765625 72.691406 603.347656 72.488281 Z M 603.347656 72.488281 " fill-opacity="1" fill-rule="nonzero"/><path fill="#f6f6f6" d="M 729.339844 214.980469 C 732.582031 212.957031 735.011719 210.527344 733.390625 206.277344 C 732.984375 205.265625 732.582031 203.445312 734.402344 203.039062 C 735.820312 202.835938 736.429688 203.847656 737.039062 205.265625 C 738.65625 208.707031 741.492188 211.136719 745.140625 209.3125 C 748.785156 207.695312 748.179688 204.457031 746.761719 201.21875 C 745.949219 199.394531 745.949219 197.167969 745.746094 195.347656 C 746.558594 194.539062 747.367188 193.726562 748.179688 192.917969 C 749.796875 197.980469 751.824219 202.835938 751.621094 208.300781 C 751.214844 215.183594 747.164062 218.015625 740.886719 215.183594 C 739.0625 214.375 738.050781 213.765625 736.226562 216.195312 C 734.402344 218.828125 730.960938 220.242188 728.125 222.265625 C 724.882812 221.863281 725.492188 219.230469 725.085938 217.207031 C 725.085938 217.207031 725.289062 217.207031 725.289062 217.207031 C 727.515625 217.613281 728.730469 216.800781 729.339844 214.980469 Z M 729.339844 214.980469 " fill-opacity="1" fill-rule="nonzero"/><g clip-path="url(#a720ff07f1)"><path fill="#f6f6f6" d="M 258.1875 291.691406 C 254.136719 291.691406 250.085938 291.691406 246.035156 291.691406 C 244.210938 291.691406 242.792969 291.285156 242.792969 288.859375 C 242.792969 286.632812 243.605469 286.023438 245.832031 285.820312 C 254.136719 285.417969 262.441406 284.808594 270.746094 284.203125 C 272.976562 284 273.785156 285.011719 273.988281 286.835938 C 274.191406 289.058594 274.191406 291.085938 271.152344 291.085938 C 266.898438 291.085938 262.644531 291.085938 258.390625 291.085938 C 258.1875 291.488281 258.1875 291.488281 258.1875 291.691406 Z M 258.1875 291.691406 " fill-opacity="1" fill-rule="nonzero"/></g><path fill="#f6f6f6" d="M 339.414062 479.320312 C 331.515625 476.6875 322.601562 465.152344 323.414062 456.246094 C 323.816406 452.804688 325.640625 450.78125 327.261719 448.148438 C 328.273438 447.949219 328.476562 447.339844 328.476562 446.53125 C 329.085938 446.328125 329.691406 446.125 330.300781 445.921875 C 334.351562 445.921875 338.199219 443.089844 342.453125 445.722656 C 341.644531 447.949219 338.605469 446.328125 338.199219 448.757812 C 327.667969 451.1875 326.652344 463.128906 332.324219 468.996094 C 334.554688 471.222656 336.984375 473.652344 339.414062 475.878906 C 339.414062 477.09375 339.414062 478.105469 339.414062 479.320312 Z M 339.414062 479.320312 " fill-opacity="1" fill-rule="nonzero"/><path fill="#f6f6f6" d="M 282.902344 212.347656 C 282.699219 213.765625 282.699219 214.980469 282.496094 216.398438 C 281.683594 216.800781 281.078125 217.207031 280.265625 217.410156 C 280.265625 216.601562 280.265625 215.585938 279.253906 215.183594 C 278.847656 209.109375 281.683594 202.429688 275.8125 197.371094 C 274.597656 194.539062 272.164062 194.335938 269.53125 194.738281 C 268.519531 194.738281 267.507812 194.738281 266.492188 194.738281 C 265.074219 194.132812 264.0625 194.539062 263.453125 196.15625 C 261.429688 197.167969 260.011719 198.789062 259 200.8125 C 257.582031 200.8125 256.566406 200.003906 255.960938 198.992188 C 259.402344 189.679688 270.746094 184.621094 280.066406 193.726562 C 284.320312 199.394531 281.886719 206.074219 282.902344 212.347656 Z M 282.902344 212.347656 " fill-opacity="1" fill-rule="nonzero"/><path fill="#f6f6f6" d="M 305.992188 443.898438 C 307.816406 441.671875 310.042969 439.648438 312.675781 438.230469 C 313.890625 438.230469 314.703125 437.828125 314.90625 436.613281 C 315.511719 436.003906 316.324219 435.398438 316.929688 434.792969 C 318.347656 434.992188 319.160156 434.183594 319.359375 432.765625 C 320.777344 431.554688 322.398438 430.539062 323.816406 429.328125 C 326.449219 428.71875 325.640625 425.886719 327.058594 424.46875 C 328.273438 427.101562 334.351562 428.3125 329.285156 432.566406 C 326.652344 432.566406 325.234375 434.183594 324.628906 436.410156 C 322.601562 438.03125 320.375 439.851562 318.347656 441.46875 C 316.324219 441.269531 315.109375 442.28125 314.703125 444.304688 C 312.273438 445.921875 311.257812 449.769531 307.003906 448.351562 C 306.601562 447.136719 305.789062 445.722656 305.992188 443.898438 Z M 305.992188 443.898438 " fill-opacity="1" fill-rule="nonzero"/><g clip-path="url(#981e222380)"><path fill="#f6f6f6" d="M 486.472656 520.207031 C 486.269531 519.597656 486.066406 518.992188 485.863281 518.382812 C 486.066406 516.359375 485.054688 515.144531 483.230469 514.941406 C 481.609375 514.941406 481.003906 516.359375 481.003906 517.574219 C 481.003906 523.242188 478.167969 528.910156 480.394531 534.777344 C 480.394531 536.804688 481.40625 539.433594 477.558594 539.230469 C 473.914062 539.230469 474.722656 536.601562 474.722656 534.578125 C 474.722656 531.742188 475.128906 528.707031 475.332031 525.875 C 476.953125 525.46875 476.953125 524.253906 476.953125 522.835938 C 477.355469 518.183594 477.558594 513.527344 477.964844 508.871094 C 483.230469 507.050781 486.878906 508.667969 488.296875 514.335938 C 488.902344 516.5625 489.308594 518.585938 489.914062 520.8125 C 489.511719 521.21875 489.105469 521.621094 488.699219 521.824219 C 487.890625 521.421875 487.28125 520.8125 486.472656 520.207031 Z M 486.472656 520.207031 " fill-opacity="1" fill-rule="nonzero"/></g><path fill="#f6f6f6" d="M 275 328.328125 C 278.648438 327.921875 281.683594 327.921875 279.660156 332.980469 C 276.015625 332.78125 272.367188 332.578125 269.328125 335.207031 C 268.113281 335.410156 266.898438 335.613281 265.480469 335.613281 C 262.644531 334.601562 260.011719 335.007812 257.984375 337.433594 C 249.679688 338.851562 249.679688 338.851562 249.074219 332.78125 C 250.085938 332.171875 251.300781 331.566406 252.3125 330.753906 C 253.328125 331.769531 254.746094 331.363281 255.960938 331.566406 C 257.175781 332.980469 257.984375 332.578125 258.390625 330.957031 C 261.023438 330.148438 264.0625 329.742188 263.050781 325.695312 C 263.65625 324.480469 263.859375 322.660156 266.089844 322.863281 C 267.101562 324.683594 266.695312 326.707031 266.898438 328.527344 C 269.9375 332.78125 272.367188 329.542969 275 328.328125 Z M 275 328.328125 " fill-opacity="1" fill-rule="nonzero"/><path fill="#f6f6f6" d="M 734.808594 258.496094 C 735.214844 259.105469 735.417969 259.914062 735.820312 260.320312 C 737.441406 262.546875 739.871094 265.175781 742.304688 264.570312 C 745.542969 263.761719 743.113281 260.117188 743.722656 257.890625 C 744.328125 255.257812 741.695312 250.199219 744.9375 250.199219 C 748.988281 250.199219 746.355469 255.257812 747.164062 257.890625 C 747.773438 260.117188 747.570312 262.746094 748.378906 264.972656 C 749.796875 269.628906 747.976562 271.046875 743.722656 270.84375 C 741.695312 270.640625 739.671875 270.84375 737.644531 271.25 C 733.796875 271.855469 729.949219 272.664062 734.203125 266.796875 C 735.820312 264.570312 731.367188 263.152344 731.972656 260.523438 C 732.582031 259.105469 733.59375 258.496094 734.808594 258.496094 Z M 734.808594 258.496094 " fill-opacity="1" fill-rule="nonzero"/><path fill="#f6f6f6" d="M 255.554688 224.492188 C 254.542969 224.492188 253.730469 224.292969 252.71875 224.292969 C 252.113281 223.480469 251.300781 223.078125 250.289062 223.480469 L 250.492188 223.277344 C 250.492188 223.277344 250.085938 223.480469 250.085938 223.480469 C 250.289062 221.863281 250.695312 220.242188 249.476562 218.828125 C 249.679688 217.8125 249.679688 216.601562 249.882812 215.585938 C 251.097656 215.992188 252.3125 216.195312 253.53125 216.601562 C 254.949219 218.625 257.175781 219.027344 259.203125 219.433594 C 259.605469 220.851562 260.621094 221.253906 262.039062 220.851562 C 263.859375 221.253906 265.480469 221.660156 267.304688 222.066406 C 267.910156 225.503906 270.34375 224.292969 272.367188 223.683594 C 276.824219 224.898438 277.429688 221.863281 278.039062 218.828125 C 278.847656 218.421875 279.660156 218.21875 280.46875 217.8125 C 280.46875 219.027344 280.671875 220.242188 280.671875 221.457031 C 280.46875 222.875 280.265625 224.089844 280.265625 225.503906 C 277.429688 226.519531 278.039062 229.148438 277.230469 231.375 C 276.824219 231.375 276.417969 231.375 276.015625 231.578125 C 275.203125 229.957031 274.191406 228.742188 271.960938 229.554688 C 270.949219 229.351562 270.140625 229.351562 269.125 229.148438 C 265.277344 225.304688 260.417969 225.101562 255.554688 224.492188 Z M 255.554688 224.492188 " fill-opacity="1" fill-rule="nonzero"/><path fill="#f6f6f6" d="M 400.789062 60.75 C 399.980469 59.128906 399.167969 57.511719 398.5625 56.09375 C 399.371094 53.867188 398.765625 52.449219 396.332031 52.046875 C 396.132812 51.035156 395.929688 50.019531 395.726562 49.210938 C 396.132812 45.972656 393.699219 45.769531 391.472656 45.570312 C 391.472656 42.53125 395.726562 43.746094 395.929688 41.117188 C 396.535156 40.914062 396.941406 40.710938 397.550781 40.710938 C 401.601562 40.507812 398.15625 44.960938 400.789062 45.769531 C 401.800781 48.199219 404.234375 50.222656 403.828125 53.261719 C 403.421875 54.675781 404.03125 55.484375 405.449219 55.6875 C 405.652344 56.699219 406.054688 57.511719 406.257812 58.523438 C 406.257812 60.953125 407.070312 63.175781 409.5 64.390625 C 411.929688 68.84375 409.703125 70.261719 405.652344 70.667969 C 406.257812 68.441406 405.042969 67.429688 403.21875 66.617188 C 403.019531 66.011719 403.019531 65.203125 402.816406 64.59375 C 404.234375 61.964844 402.410156 61.355469 400.789062 60.75 Z M 400.789062 60.75 " fill-opacity="1" fill-rule="nonzero"/><path fill="#f6f6f6" d="M 732.175781 283.59375 C 734.203125 279.546875 737.441406 281.976562 740.277344 281.773438 C 745.949219 283.796875 751.621094 284.609375 757.496094 283.59375 C 762.761719 282.582031 763.167969 285.417969 762.355469 289.464844 C 760.535156 290.074219 758.914062 287.847656 757.089844 289.261719 C 756.28125 289.058594 755.671875 289.058594 754.863281 288.859375 C 753.242188 286.835938 751.621094 286.632812 750 288.859375 C 750 289.058594 749.796875 289.261719 749.394531 289.261719 C 746.761719 290.476562 748.988281 293.511719 747.367188 295.132812 C 746.355469 286.632812 742.304688 284 735.621094 287.847656 C 735.621094 287.847656 735.417969 288.25 735.417969 288.25 C 731.367188 288.859375 733.390625 285.011719 732.175781 283.59375 Z M 732.175781 283.59375 " fill-opacity="1" fill-rule="nonzero"/><path fill="#f6f6f6" d="M 359.265625 458.878906 C 360.277344 457.664062 361.089844 458.269531 361.898438 459.28125 C 365.34375 463.9375 365.746094 469.402344 363.519531 473.855469 C 361.289062 478.105469 357.441406 482.558594 351.164062 481.953125 C 348.328125 481.546875 345.289062 482.355469 342.453125 480.941406 C 343.464844 478.914062 345.289062 479.117188 347.113281 479.117188 C 349.542969 479.117188 351.769531 479.117188 352.984375 476.488281 C 359.0625 473.046875 359.265625 467.582031 358.65625 461.710938 C 358.65625 460.699219 359.0625 459.6875 359.265625 458.878906 Z M 359.265625 458.878906 " fill-opacity="1" fill-rule="nonzero"/><path fill="#f6f6f6" d="M 732.175781 283.59375 C 733.390625 285.214844 731.367188 288.859375 735.417969 288.25 C 734.808594 295.738281 734.203125 303.230469 733.390625 310.71875 C 733.1875 312.132812 733.390625 313.957031 731.367188 314.160156 C 729.746094 314.160156 729.339844 312.539062 729.542969 311.324219 C 729.949219 301.8125 729.339844 292.5 732.175781 283.59375 Z M 732.175781 283.59375 " fill-opacity="1" fill-rule="nonzero"/><path fill="#f6f6f6" d="M 245.425781 314.96875 C 245.425781 313.957031 245.425781 312.945312 245.425781 311.933594 C 247.453125 311.324219 247.25 309.707031 246.84375 308.289062 C 248.0625 303.632812 251.097656 301.609375 255.757812 302.824219 C 255.960938 304.039062 256.769531 304.242188 257.785156 304.242188 C 259 305.859375 260.417969 307.480469 261.632812 309.300781 C 261.226562 310.71875 261.429688 311.933594 263.253906 312.132812 C 264.46875 313.957031 264.265625 315.980469 264.265625 318.003906 C 263.453125 319.421875 264.265625 322.050781 261.429688 322.050781 C 261.226562 320.636719 261.429688 319.015625 260.820312 317.800781 C 259.203125 314.5625 259 309.707031 253.730469 310.109375 C 247.859375 310.515625 251.097656 315.371094 250.085938 318.207031 C 250.085938 318.410156 250.085938 318.613281 250.085938 318.8125 C 247.859375 318.410156 248.261719 314.359375 245.425781 314.96875 Z M 245.425781 314.96875 " fill-opacity="1" fill-rule="nonzero"/><path fill="#f6f6f6" d="M 735.621094 287.847656 C 742.304688 284 746.355469 286.429688 747.367188 295.132812 C 748.988281 293.511719 746.761719 290.476562 749.394531 289.261719 C 749.597656 295.941406 748.785156 302.417969 747.570312 309.097656 C 747.367188 310.515625 747.773438 312.335938 745.542969 312.335938 C 742.910156 312.132812 743.519531 310.109375 743.722656 308.492188 C 743.925781 304.039062 743.722656 299.585938 744.734375 295.335938 C 745.949219 289.871094 743.722656 288.25 739.0625 288.046875 C 737.847656 288.046875 736.835938 287.847656 735.621094 287.847656 Z M 735.621094 287.847656 " fill-opacity="1" fill-rule="nonzero"/><path fill="#f6f6f6" d="M 327.261719 424.671875 C 325.84375 426.089844 326.652344 428.921875 324.019531 429.527344 C 324.628906 424.0625 319.359375 422.039062 317.132812 418.195312 C 315.714844 415.5625 313.285156 413.335938 311.460938 410.707031 C 310.652344 409.691406 309.03125 408.277344 310.855469 407.0625 C 312.273438 406.050781 313.691406 406.859375 314.703125 408.074219 C 319.160156 413.539062 324.019531 418.597656 327.261719 424.671875 Z M 327.261719 424.671875 " fill-opacity="1" fill-rule="nonzero"/><path fill="#f6f6f6" d="M 725.695312 191.300781 C 725.085938 191.5 724.277344 191.5 723.667969 191.703125 C 721.035156 190.085938 720.023438 191.703125 719.210938 193.726562 C 718.605469 193.726562 717.792969 193.726562 717.1875 193.726562 C 716.375 191.097656 717.1875 188.871094 718.402344 186.441406 C 719.414062 186.238281 720.628906 186.238281 721.644531 186.035156 C 723.464844 187.453125 724.882812 186.035156 726.707031 185.835938 C 732.984375 184.621094 737.847656 179.558594 744.734375 180.570312 C 744.9375 181.582031 745.140625 182.796875 745.140625 183.808594 C 743.925781 184.824219 743.925781 186.238281 743.722656 187.65625 C 743.113281 187.25 742.304688 187.050781 741.695312 186.644531 C 740.683594 184.824219 739.875 185.023438 739.265625 186.847656 C 738.253906 187.050781 737.039062 187.050781 736.023438 187.25 C 733.796875 185.835938 732.785156 186.441406 733.390625 189.074219 C 733.390625 190.894531 733.59375 192.917969 733.59375 194.738281 C 730.757812 194.738281 731.164062 192.109375 730.148438 190.488281 C 728.328125 188.261719 726.707031 187.453125 725.695312 191.300781 Z M 725.695312 191.300781 " fill-opacity="1" fill-rule="nonzero"/><path fill="#f6f6f6" d="M 756.484375 233.804688 C 758.710938 238.054688 761.75 242.304688 761.140625 247.566406 C 759.925781 250.804688 759.925781 254.246094 761.140625 257.484375 C 761.953125 261.535156 759.117188 264.164062 756.886719 267 C 756.28125 268.011719 755.265625 268.820312 754.050781 268.210938 C 752.835938 267.605469 752.835938 266.390625 753.039062 265.378906 C 753.242188 264.367188 753.445312 263.152344 754.050781 262.34375 C 760.738281 253.640625 758.101562 245.339844 753.039062 237.042969 C 753.039062 236.433594 752.835938 235.625 752.835938 235.019531 C 753.242188 234.613281 753.648438 234.210938 754.253906 233.804688 C 755.066406 233.601562 755.671875 233.601562 756.484375 233.804688 Z M 756.484375 233.804688 " fill-opacity="1" fill-rule="nonzero"/><path fill="#f6f6f6" d="M 734.808594 258.496094 C 733.59375 258.496094 732.582031 259.308594 731.769531 260.320312 C 726.300781 252.222656 728.328125 235.222656 735.621094 230.566406 C 735.820312 232.183594 733.796875 233.398438 734.605469 235.222656 C 734.203125 235.421875 733.59375 235.625 733.390625 236.03125 C 733.1875 236.839844 733.796875 237.246094 734.605469 237.449219 C 734.808594 237.648438 735.011719 237.851562 735.417969 238.054688 C 732.175781 244.734375 732.984375 251.617188 734.808594 258.496094 Z M 734.808594 258.496094 " fill-opacity="1" fill-rule="nonzero"/><path fill="#f6f6f6" d="M 440.492188 43.34375 C 441.097656 41.925781 441.097656 40.710938 439.074219 41.316406 C 437.25 41.925781 435.425781 43.34375 433.808594 40.914062 C 440.085938 39.292969 446.367188 37.472656 452.644531 35.851562 C 454.0625 35.449219 456.289062 34.636719 456.898438 36.863281 C 457.507812 38.890625 455.683594 40.105469 454.265625 40.507812 C 449.605469 41.519531 444.949219 42.328125 440.492188 43.34375 Z M 440.492188 43.34375 " fill-opacity="1" fill-rule="nonzero"/><path fill="#f6f6f6" d="M 338.199219 448.757812 C 338.402344 446.328125 341.644531 447.746094 342.453125 445.722656 C 338.199219 443.089844 334.351562 445.921875 330.300781 445.921875 C 334.957031 442.28125 344.277344 442.28125 350.148438 446.9375 C 353.1875 449.363281 357.644531 450.78125 358.65625 455.4375 C 357.847656 456.246094 357.238281 457.054688 356.429688 457.867188 C 351.367188 452.804688 346.097656 447.949219 338.199219 448.757812 Z M 338.199219 448.757812 " fill-opacity="1" fill-rule="nonzero"/><path fill="#f6f6f6" d="M 401.601562 494.90625 C 401.601562 496.726562 400.789062 498.144531 399.574219 497.535156 C 395.320312 495.109375 390.257812 494.296875 386.609375 490.855469 C 386.207031 490.453125 385.800781 489.441406 386.003906 489.035156 C 386.40625 488.429688 387.625 487.417969 388.027344 487.617188 C 392.484375 489.441406 396.941406 491.667969 401.195312 493.691406 C 401.398438 493.691406 401.398438 494.5 401.601562 494.90625 Z M 401.601562 494.90625 " fill-opacity="1" fill-rule="nonzero"/><path fill="#f6f6f6" d="M 444.746094 57.105469 C 444.949219 54.675781 442.3125 55.484375 441.503906 54.273438 C 446.769531 51.4375 452.644531 50.832031 458.113281 49.210938 C 459.53125 48.808594 461.152344 48.808594 461.558594 50.832031 C 461.960938 52.652344 460.34375 52.652344 459.125 53.261719 C 454.671875 55.285156 449.605469 55.890625 444.746094 57.105469 Z M 444.746094 57.105469 " fill-opacity="1" fill-rule="nonzero"/><path fill="#f6f6f6" d="M 400.789062 45.570312 C 398.359375 44.757812 401.601562 40.304688 397.550781 40.507812 C 400.992188 37.675781 405.652344 37.066406 409.09375 34.636719 C 410.714844 33.625 412.132812 32.613281 412.941406 34.839844 C 413.550781 36.460938 412.941406 38.28125 411.121094 38.6875 C 408.691406 39.089844 407.273438 41.316406 404.636719 41.519531 C 402.816406 41.722656 401.398438 43.542969 400.789062 45.570312 Z M 400.789062 45.570312 " fill-opacity="1" fill-rule="nonzero"/><path fill="#f6f6f6" d="M 612.464844 492.679688 C 611.652344 493.691406 611.652344 494.90625 610.4375 495.511719 C 607.195312 496.929688 604.160156 498.546875 601.121094 499.964844 C 599.703125 500.574219 597.878906 500.574219 597.070312 499.15625 C 596.054688 497.132812 598.285156 496.523438 599.296875 496.121094 C 602.742188 494.703125 605.777344 492.476562 609.425781 491.464844 C 611.25 491.058594 611.855469 491.464844 612.464844 492.679688 Z M 612.464844 492.679688 " fill-opacity="1" fill-rule="nonzero"/><path fill="#f6f6f6" d="M 253.53125 216.398438 C 252.3125 215.992188 251.097656 215.789062 249.882812 215.386719 C 251.503906 209.71875 252.3125 203.644531 256.164062 198.992188 C 256.972656 200.003906 257.984375 200.8125 259.203125 200.8125 C 257.378906 205.871094 255.351562 211.136719 253.53125 216.398438 Z M 253.53125 216.398438 " fill-opacity="1" fill-rule="nonzero"/><path fill="#f6f6f6" d="M 245.425781 314.96875 C 248.261719 314.5625 247.65625 318.410156 250.085938 318.410156 C 250.894531 322.660156 251.503906 326.707031 252.3125 330.957031 C 251.300781 331.566406 250.085938 332.171875 249.074219 332.980469 C 246.035156 327.316406 247.25 320.839844 245.425781 314.96875 Z M 245.425781 314.96875 " fill-opacity="1" fill-rule="nonzero"/><path fill="#f6f6f6" d="M 744.328125 180.976562 C 737.644531 179.964844 732.582031 185.023438 726.300781 186.238281 C 724.480469 186.644531 723.0625 187.859375 721.238281 186.441406 C 727.113281 183 733.796875 181.988281 739.875 179.359375 C 741.289062 178.953125 743.925781 177.941406 744.328125 180.976562 Z M 744.328125 180.976562 " fill-opacity="1" fill-rule="nonzero"/><path fill="#f6f6f6" d="M 734.808594 235.222656 C 734 233.398438 736.023438 232.183594 735.820312 230.566406 C 736.835938 229.554688 737.644531 228.339844 739.265625 228.542969 C 744.328125 229.554688 749.191406 230.363281 754.253906 231.375 C 754.253906 231.375 754.660156 231.578125 754.660156 231.578125 C 754.660156 232.183594 754.660156 232.996094 754.660156 233.601562 C 754.253906 234.007812 753.847656 234.410156 753.242188 234.816406 C 752.027344 234.410156 751.015625 232.589844 749.394531 234.207031 C 748.785156 234.007812 747.976562 234.007812 747.367188 233.804688 C 743.722656 231.375 740.886719 231.78125 738.457031 235.421875 C 738.457031 235.625 738.253906 235.828125 737.847656 235.828125 C 736.632812 235.625 735.820312 235.421875 734.808594 235.222656 Z M 734.808594 235.222656 " fill-opacity="1" fill-rule="nonzero"/><path fill="#f6f6f6" d="M 757.089844 289.261719 C 758.914062 288.046875 760.535156 290.273438 762.355469 289.464844 C 762.558594 293.511719 762.558594 297.765625 761.140625 301.609375 C 760.738281 299.992188 760.332031 298.574219 759.925781 296.75 C 759.117188 297.964844 758.710938 298.777344 758.101562 299.585938 C 756.886719 296.144531 759.519531 292.5 757.089844 289.261719 Z M 757.089844 289.261719 " fill-opacity="1" fill-rule="nonzero"/><path fill="#f6f6f6" d="M 480.191406 534.777344 C 477.964844 528.910156 480.800781 523.445312 480.800781 517.574219 C 480.800781 516.359375 481.609375 514.941406 483.027344 514.941406 C 484.851562 515.144531 485.863281 516.359375 485.660156 518.382812 C 483.433594 517.167969 482.21875 517.167969 482.21875 520.410156 C 482.21875 525.265625 482.015625 530.125 480.191406 534.777344 Z M 480.191406 534.777344 " fill-opacity="1" fill-rule="nonzero"/><path fill="#f6f6f6" d="M 515.84375 47.59375 C 514.019531 39.902344 514.628906 32.007812 514.832031 24.316406 C 516.25 32.007812 517.667969 39.699219 515.84375 47.59375 Z M 515.84375 47.59375 " fill-opacity="1" fill-rule="nonzero"/><path fill="#f6f6f6" d="M 758.101562 299.585938 C 758.710938 298.777344 759.117188 297.964844 759.925781 296.75 C 760.332031 298.574219 760.738281 300.191406 761.140625 301.609375 C 761.140625 305.65625 761.75 309.90625 760.535156 313.957031 C 757.902344 313.957031 758.507812 311.527344 757.699219 310.109375 C 757.902344 306.667969 757.902344 303.027344 758.101562 299.585938 Z M 758.101562 299.585938 " fill-opacity="1" fill-rule="nonzero"/><path fill="#f6f6f6" d="M 725.695312 191.300781 C 726.707031 187.453125 728.328125 188.261719 729.949219 190.691406 C 730.960938 192.3125 730.554688 194.941406 733.390625 194.941406 C 735.214844 195.753906 735.621094 197.371094 735.011719 198.992188 C 734.808594 199.800781 733.1875 200.609375 732.378906 200.40625 C 730.757812 200.207031 730.757812 198.179688 730.148438 196.964844 C 729.339844 194.738281 729.542969 191.5 725.695312 191.300781 Z M 725.695312 191.300781 " fill-opacity="1" fill-rule="nonzero"/><path fill="#f6f6f6" d="M 282.902344 212.347656 C 281.683594 206.074219 284.117188 199.394531 280.265625 193.726562 C 285.738281 199.191406 285.738281 205.46875 282.902344 212.347656 Z M 282.902344 212.347656 " fill-opacity="1" fill-rule="nonzero"/><path fill="#f6f6f6" d="M 352.785156 476.488281 C 351.566406 479.117188 349.136719 479.117188 346.910156 479.117188 C 345.085938 479.117188 343.261719 478.914062 342.25 480.941406 C 341.035156 480.941406 340.226562 479.925781 339.414062 479.320312 C 339.414062 478.105469 339.414062 476.890625 339.414062 475.878906 C 343.871094 476.488281 348.328125 477.699219 352.785156 476.488281 Z M 352.785156 476.488281 " fill-opacity="1" fill-rule="nonzero"/><path fill="#f6f6f6" d="M 395.929688 40.914062 C 395.523438 43.542969 391.472656 42.328125 391.472656 45.367188 C 389.042969 45.367188 386.40625 44.960938 387.015625 48.808594 C 385.597656 50.832031 384.992188 49.007812 384.382812 48.199219 C 383.574219 46.78125 384.585938 45.769531 386.003906 45.164062 C 389.445312 43.949219 392.28125 41.316406 395.929688 40.914062 Z M 395.929688 40.914062 " fill-opacity="1" fill-rule="nonzero"/><path fill="#f6f6f6" d="M 714.957031 162.960938 C 714.148438 163.367188 713.335938 163.773438 712.527344 164.175781 C 709.691406 162.558594 708.476562 159.722656 707.667969 156.6875 C 708.679688 156.285156 709.488281 155.675781 710.503906 155.269531 C 712.933594 157.296875 714.554688 159.722656 714.957031 162.960938 Z M 714.957031 162.960938 " fill-opacity="1" fill-rule="nonzero"/><path fill="#f6f6f6" d="M 757.496094 283.59375 C 751.621094 284.609375 745.949219 283.796875 740.277344 281.773438 C 746.152344 281.167969 752.027344 281.570312 757.496094 283.59375 Z M 757.496094 283.59375 " fill-opacity="1" fill-rule="nonzero"/><path fill="#f6f6f6" d="M 477.964844 509.074219 C 477.558594 513.730469 477.355469 518.382812 476.953125 523.039062 C 476.953125 524.253906 476.75 525.671875 475.332031 526.074219 C 475.535156 520.207031 474.320312 514.335938 477.964844 509.074219 Z M 477.964844 509.074219 " fill-opacity="1" fill-rule="nonzero"/><path fill="#f6f6f6" d="M 443.730469 501.585938 C 443.730469 502.597656 443.730469 503.609375 443.730469 504.621094 C 440.085938 504.417969 436.441406 504.214844 432.792969 504.011719 C 432.589844 501.785156 434.210938 501.585938 435.832031 501.382812 C 437.25 501.382812 438.667969 501.785156 439.074219 499.761719 C 441.300781 499.15625 442.3125 500.574219 443.730469 501.585938 Z M 443.730469 501.585938 " fill-opacity="1" fill-rule="nonzero"/><path fill="#f6f6f6" d="M 709.085938 146.769531 C 703.816406 148.1875 698.550781 147.175781 693.285156 147.378906 C 698.550781 145.152344 703.816406 145.960938 709.085938 146.769531 Z M 709.085938 146.769531 " fill-opacity="1" fill-rule="nonzero"/><path fill="#f6f6f6" d="M 693.082031 149.605469 C 695.917969 150.210938 698.753906 150.617188 701.792969 150.617188 C 704.019531 150.617188 706.855469 150.820312 706.652344 154.460938 C 704.425781 152.03125 701.589844 152.234375 698.550781 152.234375 C 696.527344 152.234375 693.691406 153.246094 693.082031 149.605469 Z M 693.082031 149.605469 " fill-opacity="1" fill-rule="nonzero"/><path fill="#f6f6f6" d="M 596.867188 38.890625 C 598.082031 38.28125 598.285156 37.066406 598.082031 35.851562 C 598.488281 35.851562 598.890625 35.652344 599.09375 35.851562 C 601.121094 36.460938 602.945312 37.269531 603.347656 39.496094 C 603.550781 39.902344 602.742188 40.914062 602.335938 41.117188 C 599.90625 41.722656 598.082031 41.316406 596.867188 38.890625 Z M 596.867188 38.890625 " fill-opacity="1" fill-rule="nonzero"/><path fill="#f6f6f6" d="M 754.050781 231.171875 C 748.988281 230.160156 744.125 229.351562 739.0625 228.339844 C 744.734375 226.519531 749.796875 226.519531 754.050781 231.171875 Z M 754.050781 231.171875 " fill-opacity="1" fill-rule="nonzero"/><path fill="#f6f6f6" d="M 255.554688 224.492188 C 260.417969 225.101562 265.277344 225.304688 269.328125 228.542969 C 264.671875 227.53125 259.605469 227.730469 255.554688 224.492188 Z M 255.554688 224.492188 " fill-opacity="1" fill-rule="nonzero"/><path fill="#f6f6f6" d="M 743.519531 187.859375 C 743.519531 186.441406 743.722656 185.023438 744.9375 184.011719 C 746.152344 186.847656 747.367188 189.882812 748.378906 192.714844 C 747.570312 193.527344 746.761719 194.335938 745.949219 195.144531 C 743.316406 193.324219 743.519531 190.488281 743.519531 187.859375 Z M 743.519531 187.859375 " fill-opacity="1" fill-rule="nonzero"/><path fill="#f6f6f6" d="M 745.140625 331.566406 C 746.761719 331.363281 748.179688 331.769531 748.785156 333.183594 C 749.597656 335.410156 747.164062 335.207031 746.355469 336.21875 C 744.328125 338.246094 742.101562 339.460938 739.0625 339.460938 C 740.480469 338.445312 742.101562 337.636719 743.519531 336.828125 C 745.949219 335.410156 746.558594 333.792969 745.140625 331.566406 Z M 745.140625 331.566406 " fill-opacity="1" fill-rule="nonzero"/><path fill="#f6f6f6" d="M 364.125 94.753906 C 364.9375 90.90625 361.492188 86.453125 365.949219 83.011719 C 364.734375 85.039062 365.140625 87.265625 365.746094 89.289062 C 366.152344 91.515625 366.355469 93.335938 364.125 94.753906 Z M 364.125 94.753906 " fill-opacity="1" fill-rule="nonzero"/><path fill="#f6f6f6" d="M 656.824219 99.207031 C 656.015625 101.632812 651.152344 99.609375 651.558594 103.660156 C 650.140625 103.253906 648.113281 102.847656 650.34375 101.027344 C 652.164062 99.609375 654.394531 97.992188 656.824219 99.207031 Z M 656.824219 99.207031 " fill-opacity="1" fill-rule="nonzero"/><path fill="#f6f6f6" d="M 269.328125 335.207031 C 272.367188 332.578125 276.015625 332.78125 279.660156 332.980469 C 276.417969 335.007812 272.976562 335.613281 269.328125 335.207031 Z M 269.328125 335.207031 " fill-opacity="1" fill-rule="nonzero"/><path fill="#f6f6f6" d="M 761.140625 257.28125 C 759.925781 254.042969 759.925781 250.605469 761.140625 247.367188 C 762.355469 250.804688 762.355469 254.042969 761.140625 257.28125 Z M 761.140625 257.28125 " fill-opacity="1" fill-rule="nonzero"/><path fill="#f6f6f6" d="M 727.921875 322.660156 C 727.515625 326.101562 730.960938 326.101562 732.378906 328.125 C 729.339844 327.71875 725.085938 328.125 727.921875 322.660156 Z M 727.921875 322.660156 " fill-opacity="1" fill-rule="nonzero"/><path fill="#f6f6f6" d="M 718.199219 186.644531 C 716.984375 188.871094 716.171875 191.300781 716.984375 193.929688 C 713.136719 190.289062 713.136719 189.476562 718.199219 186.644531 Z M 718.199219 186.644531 " fill-opacity="1" fill-rule="nonzero"/><path fill="#f6f6f6" d="M 261.632812 321.648438 C 264.46875 321.648438 263.453125 319.015625 264.46875 317.597656 C 265.480469 319.21875 266.492188 320.839844 266.289062 322.863281 C 264.0625 322.457031 263.859375 324.277344 263.253906 325.695312 C 261.632812 324.886719 261.429688 323.46875 261.632812 321.648438 Z M 261.632812 321.648438 " fill-opacity="1" fill-rule="nonzero"/><path fill="#f6f6f6" d="M 677.6875 129.566406 C 679.714844 129.363281 679.914062 127.136719 681.332031 126.53125 C 682.144531 128.148438 682.144531 129.769531 680.523438 130.78125 C 679.511719 131.183594 677.890625 131.589844 677.6875 129.566406 Z M 677.6875 129.566406 " fill-opacity="1" fill-rule="nonzero"/><path fill="#f6f6f6" d="M 738.253906 235.421875 C 740.683594 231.578125 743.519531 231.171875 747.164062 233.804688 C 744.125 234.007812 740.886719 233.804688 738.253906 235.421875 Z M 738.253906 235.421875 " fill-opacity="1" fill-rule="nonzero"/><path fill="#f6f6f6" d="M 652.164062 103.859375 C 654.796875 103.859375 657.433594 103.660156 660.066406 103.660156 C 657.632812 103.660156 655 108.109375 652.164062 103.859375 Z M 652.164062 103.859375 " fill-opacity="1" fill-rule="nonzero"/><path fill="#f6f6f6" d="M 725.289062 217.003906 C 725.898438 219.027344 725.289062 221.660156 728.328125 222.066406 C 727.71875 223.886719 726.097656 224.898438 725.492188 222.671875 C 725.289062 221.050781 720.425781 219.027344 725.289062 217.003906 Z M 725.289062 217.003906 " fill-opacity="1" fill-rule="nonzero"/><path fill="#f6f6f6" d="M 489.914062 520.8125 C 489.308594 518.585938 488.902344 516.5625 488.296875 514.335938 C 490.523438 516.5625 491.941406 519.394531 492.550781 522.433594 C 491.738281 522.027344 490.929688 521.421875 489.914062 520.8125 Z M 489.914062 520.8125 " fill-opacity="1" fill-rule="nonzero"/><path fill="#f6f6f6" d="M 742.507812 378.320312 C 742.304688 376.5 740.886719 376.296875 739.46875 376.09375 C 739.671875 372.855469 741.898438 373.664062 743.316406 374.476562 C 745.34375 376.09375 743.925781 377.308594 742.507812 378.320312 Z M 742.507812 378.320312 " fill-opacity="1" fill-rule="nonzero"/><path fill="#f6f6f6" d="M 275 328.328125 C 272.367188 329.742188 269.9375 332.78125 267.101562 328.730469 C 269.734375 329.742188 272.164062 327.316406 275 328.328125 Z M 275 328.328125 " fill-opacity="1" fill-rule="nonzero"/><path fill="#f6f6f6" d="M 757.699219 310.3125 C 758.304688 311.730469 757.699219 314.160156 760.535156 314.160156 C 759.925781 316.386719 758.507812 315.980469 757.496094 314.96875 C 755.671875 313.347656 756.484375 311.730469 757.699219 310.3125 Z M 757.699219 310.3125 " fill-opacity="1" fill-rule="nonzero"/><path fill="#f6f6f6" d="M 258.1875 337.636719 C 260.214844 335.007812 262.847656 334.804688 265.683594 335.816406 C 263.253906 336.625 260.820312 338.246094 258.1875 337.636719 Z M 258.1875 337.636719 " fill-opacity="1" fill-rule="nonzero"/><path fill="#f6f6f6" d="M 676.878906 122.683594 C 676.878906 124.707031 677.078125 126.734375 677.078125 128.757812 C 674.042969 126.734375 674.648438 124.910156 676.878906 122.683594 Z M 676.878906 122.683594 " fill-opacity="1" fill-rule="nonzero"/><path fill="#f6f6f6" d="M 546.429688 43.542969 C 549.46875 42.9375 552.507812 42.128906 553.925781 45.972656 C 551.492188 45.164062 549.0625 44.355469 546.429688 43.542969 Z M 546.429688 43.542969 " fill-opacity="1" fill-rule="nonzero"/><path fill="#f6f6f6" d="M 509.765625 46.378906 C 511.589844 47.1875 513.613281 47.59375 515.84375 47.390625 C 513.613281 49.210938 511.183594 50.832031 509.765625 46.378906 Z M 509.765625 46.378906 " fill-opacity="1" fill-rule="nonzero"/><path fill="#f6f6f6" d="M 626.035156 59.128906 C 625.023438 61.558594 623.199219 63.378906 620.972656 64.390625 C 621.375 61.558594 623.402344 59.9375 626.035156 59.128906 Z M 626.035156 59.128906 " fill-opacity="1" fill-rule="nonzero"/><path fill="#f6f6f6" d="M 391.472656 45.367188 C 393.699219 45.570312 396.132812 45.769531 395.726562 49.007812 C 394.105469 47.996094 392.28125 47.390625 390.257812 48.402344 C 390.863281 47.390625 391.066406 46.378906 391.472656 45.367188 Z M 391.472656 45.367188 " fill-opacity="1" fill-rule="nonzero"/><path fill="#f6f6f6" d="M 434.617188 59.128906 C 435.832031 56.296875 437.65625 55.6875 440.289062 57.511719 C 438.667969 58.523438 437.046875 59.738281 434.617188 59.128906 Z M 434.617188 59.128906 " fill-opacity="1" fill-rule="nonzero"/><path fill="#f6f6f6" d="M 665.9375 96.574219 C 664.320312 98.597656 662.496094 99.003906 660.066406 98.394531 C 661.886719 97.585938 663.507812 95.96875 665.9375 96.574219 Z M 665.9375 96.574219 " fill-opacity="1" fill-rule="nonzero"/><path fill="#f6f6f6" d="M 391.472656 45.367188 C 391.066406 46.378906 390.660156 47.390625 390.257812 48.402344 C 389.242188 48.605469 388.027344 48.808594 387.015625 48.808594 C 386.609375 44.960938 389.042969 45.367188 391.472656 45.367188 Z M 391.472656 45.367188 " fill-opacity="1" fill-rule="nonzero"/><path fill="#f6f6f6" d="M 279.253906 389.046875 C 278.648438 390.464844 277.429688 391.273438 276.417969 390.058594 C 275 388.644531 275.8125 387.023438 277.632812 386.214844 C 278.242188 387.226562 278.648438 388.035156 279.253906 389.046875 Z M 279.253906 389.046875 " fill-opacity="1" fill-rule="nonzero"/><path fill="#f6f6f6" d="M 324.832031 436.816406 C 325.640625 434.589844 326.855469 432.765625 329.488281 432.96875 C 328.273438 434.589844 326.855469 436.207031 324.832031 436.816406 Z M 324.832031 436.816406 " fill-opacity="1" fill-rule="nonzero"/><path fill="#f6f6f6" d="M 557.570312 55.082031 C 559.597656 53.867188 561.417969 55.6875 563.242188 55.285156 C 561.214844 59.738281 559.394531 54.675781 557.570312 55.082031 Z M 557.570312 55.082031 " fill-opacity="1" fill-rule="nonzero"/><path fill="#f6f6f6" d="M 719.210938 193.929688 C 720.023438 191.703125 721.238281 190.289062 723.667969 191.90625 C 722.25 192.714844 721.238281 194.539062 719.210938 193.929688 Z M 719.210938 193.929688 " fill-opacity="1" fill-rule="nonzero"/><path fill="#f6f6f6" d="M 685.585938 93.335938 C 683.96875 93.335938 682.347656 93.335938 680.929688 93.335938 C 682.347656 91.109375 683.96875 91.109375 685.585938 93.335938 Z M 685.585938 93.335938 " fill-opacity="1" fill-rule="nonzero"/><path fill="#f6f6f6" d="M 359.265625 90.703125 C 361.289062 92.324219 360.074219 94.347656 360.480469 96.371094 C 357.238281 95.15625 359.0625 92.730469 359.265625 90.703125 Z M 359.265625 90.703125 " fill-opacity="1" fill-rule="nonzero"/><path fill="#f6f6f6" d="M 734.605469 328.527344 C 736.429688 328.125 738.253906 328.125 739.265625 330.148438 C 737.039062 330.957031 736.023438 329.339844 734.605469 328.527344 Z M 734.605469 328.527344 " fill-opacity="1" fill-rule="nonzero"/><path fill="#f6f6f6" d="M 558.785156 42.128906 C 556.960938 41.117188 555.746094 39.902344 556.761719 37.675781 C 557.976562 39.089844 559.191406 40.304688 558.785156 42.128906 Z M 558.785156 42.128906 " fill-opacity="1" fill-rule="nonzero"/><path fill="#f6f6f6" d="M 280.671875 221.050781 C 280.671875 219.839844 280.46875 218.625 280.46875 217.410156 C 281.28125 217.003906 281.886719 216.601562 282.699219 216.398438 C 283.304688 218.421875 282.292969 219.839844 280.671875 221.050781 Z M 280.671875 221.050781 " fill-opacity="1" fill-rule="nonzero"/><path fill="#f6f6f6" d="M 728.125 385 C 726.097656 384.59375 723.667969 384.59375 722.453125 382.367188 C 724.480469 382.773438 726.707031 382.976562 728.125 385 Z M 728.125 385 " fill-opacity="1" fill-rule="nonzero"/><path fill="#f6f6f6" d="M 409.5 64.191406 C 407.070312 62.976562 406.257812 60.949219 406.257812 58.320312 C 408.691406 59.535156 408.285156 62.164062 409.5 64.191406 Z M 409.5 64.191406 " fill-opacity="1" fill-rule="nonzero"/><path fill="#f6f6f6" d="M 673.636719 94.347656 C 672.421875 96.167969 670.800781 96.777344 668.773438 96.167969 C 670.394531 95.15625 671.410156 93.539062 673.636719 94.347656 Z M 673.636719 94.347656 " fill-opacity="1" fill-rule="nonzero"/><path fill="#f6f6f6" d="M 305.992188 443.898438 C 305.789062 445.722656 306.601562 447.136719 307.207031 448.757812 C 304.574219 447.542969 303.359375 446.125 305.992188 443.898438 Z M 305.992188 443.898438 " fill-opacity="1" fill-rule="nonzero"/><path fill="#f6f6f6" d="M 277.230469 230.96875 C 277.835938 228.945312 277.429688 226.113281 280.265625 225.101562 C 279.660156 227.328125 279.253906 229.554688 277.230469 230.96875 Z M 277.230469 230.96875 " fill-opacity="1" fill-rule="nonzero"/><path fill="#f6f6f6" d="M 583.699219 31.199219 C 581.675781 32.210938 580.257812 31.398438 579.042969 29.578125 C 580.863281 29.375 582.28125 30.589844 583.699219 31.199219 Z M 583.699219 31.199219 " fill-opacity="1" fill-rule="nonzero"/><path fill="#f6f6f6" d="M 430.769531 36.664062 C 428.539062 34.839844 428.136719 33.019531 431.375 32.007812 C 430.160156 33.425781 431.171875 35.246094 430.769531 36.664062 Z M 430.769531 36.664062 " fill-opacity="1" fill-rule="nonzero"/><path fill="#f6f6f6" d="M 540.554688 40.105469 C 540.554688 41.117188 540.351562 41.925781 540.351562 42.9375 C 539.339844 43.34375 538.53125 43.34375 538.125 42.128906 C 538.125 40.914062 538.328125 39.699219 538.328125 38.28125 C 539.542969 38.6875 540.554688 38.890625 540.554688 40.105469 Z M 540.554688 40.105469 " fill-opacity="1" fill-rule="nonzero"/><path fill="#f6f6f6" d="M 651.960938 69.65625 C 654.191406 70.464844 655 71.882812 654.191406 74.109375 C 653.378906 72.691406 652.570312 71.273438 651.960938 69.65625 Z M 651.960938 69.65625 " fill-opacity="1" fill-rule="nonzero"/><path fill="#f6f6f6" d="M 249.476562 218.625 C 250.695312 220.039062 250.289062 221.660156 250.085938 223.277344 C 248.261719 221.863281 248.464844 220.242188 249.476562 218.625 Z M 249.476562 218.625 " fill-opacity="1" fill-rule="nonzero"/><path fill="#f6f6f6" d="M 735.011719 386.011719 C 735.011719 387.023438 734.808594 388.035156 733.796875 388.035156 C 732.582031 388.035156 731.972656 387.226562 731.566406 386.011719 C 732.582031 386.011719 733.796875 386.011719 735.011719 386.011719 Z M 735.011719 386.011719 " fill-opacity="1" fill-rule="nonzero"/><path fill="#f6f6f6" d="M 676.675781 114.992188 C 678.902344 116.207031 678.902344 117.828125 677.28125 119.648438 C 677.28125 118.230469 676.878906 116.613281 676.675781 114.992188 Z M 676.675781 114.992188 " fill-opacity="1" fill-rule="nonzero"/><path fill="#f6f6f6" d="M 749.191406 234.007812 C 750.8125 232.386719 751.824219 234.210938 753.039062 234.613281 C 753.039062 235.421875 753.242188 236.03125 753.242188 236.839844 C 751.824219 236.03125 750.203125 235.625 749.191406 234.007812 Z M 749.191406 234.007812 " fill-opacity="1" fill-rule="nonzero"/><path fill="#f6f6f6" d="M 400.789062 60.75 C 402.410156 61.355469 404.234375 61.761719 402.613281 64.191406 C 401.601562 63.378906 400.382812 62.570312 400.789062 60.75 Z M 400.789062 60.75 " fill-opacity="1" fill-rule="nonzero"/><path fill="#f6f6f6" d="M 264.871094 262.949219 C 263.253906 261.128906 262.847656 259.507812 265.683594 258.496094 C 265.683594 259.914062 267.101562 261.734375 264.871094 262.949219 Z M 264.871094 262.949219 " fill-opacity="1" fill-rule="nonzero"/><path fill="#f6f6f6" d="M 750 288.859375 C 751.621094 286.429688 753.242188 286.835938 754.863281 288.859375 C 753.242188 289.464844 751.621094 289.261719 750 288.859375 Z M 750 288.859375 " fill-opacity="1" fill-rule="nonzero"/><path fill="#f6f6f6" d="M 272.164062 228.945312 C 274.191406 228.136719 275.203125 229.351562 276.214844 230.96875 C 274.191406 231.578125 272.976562 230.363281 272.164062 228.945312 Z M 272.164062 228.945312 " fill-opacity="1" fill-rule="nonzero"/><path fill="#f6f6f6" d="M 314.703125 444.507812 C 315.109375 442.484375 316.324219 441.46875 318.347656 441.671875 C 317.742188 443.292969 316.527344 444.304688 314.703125 444.507812 Z M 314.703125 444.507812 " fill-opacity="1" fill-rule="nonzero"/><path fill="#f6f6f6" d="M 403.21875 66.417969 C 405.042969 67.023438 406.257812 68.238281 405.652344 70.464844 C 404.4375 69.25 402.816406 68.441406 403.21875 66.417969 Z M 403.21875 66.417969 " fill-opacity="1" fill-rule="nonzero"/><path fill="#f6f6f6" d="M 396.332031 52.046875 C 398.5625 52.652344 399.371094 53.867188 398.5625 56.09375 C 397.75 54.675781 397.144531 53.261719 396.332031 52.046875 Z M 396.332031 52.046875 " fill-opacity="1" fill-rule="nonzero"/><path fill="#f6f6f6" d="M 730.554688 153.046875 C 729.136719 152.234375 727.921875 151.222656 728.53125 149.199219 C 729.542969 150.414062 731.164062 151.019531 730.554688 153.046875 Z M 730.554688 153.046875 " fill-opacity="1" fill-rule="nonzero"/><path fill="#f6f6f6" d="M 729.339844 214.980469 C 728.730469 216.800781 727.3125 217.613281 725.492188 217.003906 C 726.503906 215.789062 727.515625 214.574219 729.339844 214.980469 Z M 729.339844 214.980469 " fill-opacity="1" fill-rule="nonzero"/><path fill="#f6f6f6" d="M 486.472656 520.207031 C 487.28125 520.8125 488.09375 521.21875 488.699219 521.824219 C 488.699219 522.632812 488.699219 523.445312 488.699219 524.253906 C 487.484375 523.242188 485.863281 522.433594 486.472656 520.207031 Z M 486.472656 520.207031 " fill-opacity="1" fill-rule="nonzero"/><path fill="#f6f6f6" d="M 733.1875 397.144531 C 731.972656 394.917969 733.59375 394.3125 735.011719 393.703125 C 735.417969 395.324219 734.203125 396.132812 733.1875 397.144531 Z M 733.1875 397.144531 " fill-opacity="1" fill-rule="nonzero"/><path fill="#f6f6f6" d="M 433.808594 45.570312 C 434.007812 42.734375 435.832031 43.140625 437.65625 43.746094 C 436.441406 44.152344 435.023438 44.960938 433.808594 45.570312 Z M 433.808594 45.570312 " fill-opacity="1" fill-rule="nonzero"/><path fill="#f6f6f6" d="M 740.277344 382.773438 C 740.074219 381.15625 739.875 379.535156 742.101562 379.332031 C 742.507812 380.953125 741.695312 382.167969 740.277344 382.773438 Z M 740.277344 382.773438 " fill-opacity="1" fill-rule="nonzero"/><path fill="#f6f6f6" d="M 554.125 46.378906 C 556.152344 46.78125 556.152344 48.402344 555.949219 50.019531 C 554.53125 49.007812 553.722656 47.996094 554.125 46.378906 Z M 554.125 46.378906 " fill-opacity="1" fill-rule="nonzero"/><path fill="#f6f6f6" d="M 659.253906 79.574219 C 659.253906 78.558594 659.457031 77.347656 659.457031 76.332031 C 660.671875 77.546875 661.484375 78.761719 659.253906 79.574219 Z M 659.253906 79.574219 " fill-opacity="1" fill-rule="nonzero"/><path fill="#f6f6f6" d="M 734.605469 323.0625 C 733.390625 323.265625 732.175781 323.46875 731.566406 322.050781 C 732.984375 320.839844 733.796875 322.050781 734.605469 323.0625 Z M 734.605469 323.0625 " fill-opacity="1" fill-rule="nonzero"/><path fill="#f6f6f6" d="M 733.1875 189.273438 C 732.582031 186.644531 733.59375 186.035156 735.820312 187.453125 C 735.011719 188.0625 734.203125 188.667969 733.1875 189.273438 Z M 733.1875 189.273438 " fill-opacity="1" fill-rule="nonzero"/><path fill="#f6f6f6" d="M 247.046875 308.289062 C 247.25 309.90625 247.453125 311.324219 245.628906 311.933594 C 245.023438 310.3125 245.226562 308.894531 247.046875 308.289062 Z M 247.046875 308.289062 " fill-opacity="1" fill-rule="nonzero"/><path fill="#f6f6f6" d="M 584.714844 44.355469 C 584.511719 43.140625 584.914062 42.328125 586.132812 41.925781 C 586.738281 43.34375 585.523438 43.746094 584.714844 44.355469 Z M 584.714844 44.355469 " fill-opacity="1" fill-rule="nonzero"/><path fill="#f6f6f6" d="M 250.085938 223.277344 C 251.097656 223.078125 251.910156 223.277344 252.515625 224.089844 C 251.707031 224.492188 250.695312 224.898438 250.085938 223.277344 Z M 250.085938 223.277344 " fill-opacity="1" fill-rule="nonzero"/><path fill="#f6f6f6" d="M 672.21875 110.742188 C 673.230469 110.742188 673.839844 111.351562 673.839844 112.363281 C 672.625 112.5625 672.421875 111.753906 672.21875 110.742188 Z M 672.21875 110.742188 " fill-opacity="1" fill-rule="nonzero"/><path fill="#f6f6f6" d="M 738.050781 387.226562 C 737.847656 385.808594 738.253906 384.796875 739.871094 384.796875 C 740.277344 386.417969 739.46875 387.023438 738.050781 387.226562 Z M 738.050781 387.226562 " fill-opacity="1" fill-rule="nonzero"/><path fill="#f6f6f6" d="M 754.253906 233.398438 C 754.253906 232.792969 754.253906 231.984375 754.253906 231.375 C 755.46875 231.578125 756.28125 232.386719 756.28125 233.804688 C 755.671875 233.601562 755.066406 233.601562 754.253906 233.398438 Z M 754.253906 233.398438 " fill-opacity="1" fill-rule="nonzero"/><path fill="#f6f6f6" d="M 735.820312 391.679688 C 735.621094 390.464844 736.226562 389.65625 737.238281 389.25 C 737.847656 390.667969 737.039062 391.273438 735.820312 391.679688 Z M 735.820312 391.679688 " fill-opacity="1" fill-rule="nonzero"/><path fill="#f6f6f6" d="M 734.808594 235.222656 C 735.820312 235.421875 736.632812 235.625 737.644531 235.828125 C 737.039062 236.636719 736.226562 237.449219 735.621094 238.257812 C 735.417969 238.054688 735.011719 237.851562 734.808594 237.648438 C 734.808594 236.636719 734.808594 236.03125 734.808594 235.222656 Z M 734.808594 235.222656 " fill-opacity="1" fill-rule="nonzero"/><path fill="#f6f6f6" d="M 654.394531 76.332031 C 655.8125 76.738281 656.015625 77.75 655.8125 78.964844 C 654.796875 78.359375 653.582031 77.953125 654.394531 76.332031 Z M 654.394531 76.332031 " fill-opacity="1" fill-rule="nonzero"/><path fill="#f6f6f6" d="M 625.226562 77.75 C 623.605469 77.347656 623.605469 76.132812 624.210938 74.714844 C 625.023438 75.523438 625.226562 76.535156 625.226562 77.75 Z M 625.226562 77.75 " fill-opacity="1" fill-rule="nonzero"/><path fill="#f6f6f6" d="M 618.742188 75.320312 C 619.957031 75.726562 620.363281 76.738281 620.160156 77.953125 C 618.742188 77.546875 618.335938 76.535156 618.742188 75.320312 Z M 618.742188 75.320312 " fill-opacity="1" fill-rule="nonzero"/><path fill="#f6f6f6" d="M 658.445312 72.285156 C 657.433594 72.082031 656.824219 71.273438 656.824219 70.261719 C 657.835938 70.464844 658.847656 70.667969 658.445312 72.285156 Z M 658.445312 72.285156 " fill-opacity="1" fill-rule="nonzero"/><path fill="#f6f6f6" d="M 739.0625 187.050781 C 739.871094 185.226562 740.683594 185.023438 741.492188 186.847656 C 740.683594 186.847656 739.871094 187.050781 739.0625 187.050781 Z M 739.0625 187.050781 " fill-opacity="1" fill-rule="nonzero"/><path fill="#f6f6f6" d="M 319.359375 432.96875 C 319.359375 434.386719 318.550781 435.195312 316.929688 434.992188 C 317.335938 433.78125 318.347656 433.171875 319.359375 432.96875 Z M 319.359375 432.96875 " fill-opacity="1" fill-rule="nonzero"/><path fill="#f6f6f6" d="M 315.109375 436.613281 C 314.703125 437.828125 314.09375 438.230469 312.878906 438.230469 C 312.878906 436.816406 313.890625 436.613281 315.109375 436.613281 Z M 315.109375 436.613281 " fill-opacity="1" fill-rule="nonzero"/><path fill="#f6f6f6" d="M 674.445312 112.765625 C 675.460938 112.765625 676.066406 113.171875 676.269531 114.386719 C 675.054688 114.589844 674.445312 113.980469 674.445312 112.765625 Z M 674.445312 112.765625 " fill-opacity="1" fill-rule="nonzero"/><path fill="#f6f6f6" d="M 624.210938 72.488281 C 623.605469 71.070312 623.808594 70.058594 625.425781 69.65625 C 625.628906 70.867188 625.023438 71.882812 624.210938 72.488281 Z M 624.210938 72.488281 " fill-opacity="1" fill-rule="nonzero"/><path fill="#f6f6f6" d="M 667.761719 106.289062 C 668.773438 106.289062 669.382812 106.898438 669.382812 107.910156 C 668.371094 107.910156 667.761719 107.300781 667.761719 106.289062 Z M 667.761719 106.289062 " fill-opacity="1" fill-rule="nonzero"/><path fill="#f6f6f6" d="M 560.8125 47.792969 C 559.394531 47.390625 558.988281 46.582031 559.394531 45.164062 C 560.40625 45.769531 561.015625 46.582031 560.8125 47.792969 Z M 560.8125 47.792969 " fill-opacity="1" fill-rule="nonzero"/><path fill="#f6f6f6" d="M 328.273438 446.53125 C 328.273438 447.339844 328.070312 447.949219 327.058594 448.148438 C 325.84375 446.53125 327.261719 446.53125 328.273438 446.53125 Z M 328.273438 446.53125 " fill-opacity="1" fill-rule="nonzero"/><path fill="#f6f6f6" d="M 257.984375 304.039062 C 256.972656 304.039062 256.164062 304.039062 255.960938 302.621094 C 257.582031 301.8125 257.175781 303.835938 257.984375 304.039062 Z M 257.984375 304.039062 " fill-opacity="1" fill-rule="nonzero"/><path fill="#f6f6f6" d="M 620.363281 65.402344 C 620.566406 66.617188 619.957031 67.429688 618.945312 67.832031 C 618.335938 66.417969 618.945312 65.605469 620.363281 65.402344 Z M 620.363281 65.402344 " fill-opacity="1" fill-rule="nonzero"/><path fill="#f6f6f6" d="M 359.265625 458.878906 C 359.0625 459.6875 358.65625 460.699219 358.453125 461.507812 C 357.644531 460.902344 357.039062 460.292969 357.238281 459.28125 C 357.847656 459.28125 358.65625 459.078125 359.265625 459.078125 C 359.0625 459.078125 359.265625 458.878906 359.265625 458.878906 Z M 359.265625 458.878906 " fill-opacity="1" fill-rule="nonzero"/><path fill="#f6f6f6" d="M 645.683594 64.390625 C 647.101562 63.988281 647.910156 64.796875 648.113281 66.214844 C 646.898438 66.214844 646.289062 65.402344 645.683594 64.390625 Z M 645.683594 64.390625 " fill-opacity="1" fill-rule="nonzero"/><path fill="#f6f6f6" d="M 665.535156 104.0625 C 666.546875 104.0625 667.15625 104.671875 667.15625 105.683594 C 666.140625 105.683594 665.535156 105.074219 665.535156 104.0625 Z M 665.535156 104.0625 " fill-opacity="1" fill-rule="nonzero"/><path fill="#f6f6f6" d="M 645.886719 60.949219 C 644.46875 61.152344 643.859375 60.546875 643.457031 59.332031 C 644.871094 58.925781 645.480469 59.9375 645.886719 60.949219 Z M 645.886719 60.949219 " fill-opacity="1" fill-rule="nonzero"/><path fill="#f6f6f6" d="M 263.453125 311.933594 C 261.632812 311.730469 261.429688 310.515625 261.835938 309.097656 C 263.050781 309.707031 263.65625 310.515625 263.453125 311.933594 Z M 263.453125 311.933594 " fill-opacity="1" fill-rule="nonzero"/><path fill="#f6f6f6" d="M 688.625 96.574219 C 687.410156 96.371094 686.800781 95.765625 687.003906 94.550781 C 688.019531 94.753906 688.828125 95.359375 688.625 96.574219 Z M 688.625 96.574219 " fill-opacity="1" fill-rule="nonzero"/><path fill="#f6f6f6" d="M 431.578125 499.964844 C 430.972656 501.382812 429.957031 501.585938 428.742188 501.179688 C 429.351562 499.5625 430.160156 499.359375 431.578125 499.964844 Z M 431.578125 499.964844 " fill-opacity="1" fill-rule="nonzero"/><path fill="#f6f6f6" d="M 405.449219 55.484375 C 404.03125 55.285156 403.625 54.472656 403.828125 53.058594 C 404.839844 53.664062 405.855469 54.070312 405.449219 55.484375 Z M 405.449219 55.484375 " fill-opacity="1" fill-rule="nonzero"/><path fill="#f6f6f6" d="M 435.832031 54.273438 C 434.007812 54.070312 433.605469 53.058594 434.007812 51.4375 C 435.628906 51.84375 435.832031 53.058594 435.832031 54.273438 Z M 435.832031 54.273438 " fill-opacity="1" fill-rule="nonzero"/><path fill="#f6f6f6" d="M 551.492188 24.316406 C 550.277344 24.316406 549.265625 23.910156 549.0625 22.695312 C 550.480469 22.292969 551.492188 22.695312 551.492188 24.316406 Z M 551.492188 24.316406 " fill-opacity="1" fill-rule="nonzero"/><path fill="#f6f6f6" d="M 632.3125 90.097656 C 633.730469 89.691406 634.746094 90.300781 634.949219 91.714844 C 633.53125 91.917969 632.921875 91.109375 632.3125 90.097656 Z M 632.3125 90.097656 " fill-opacity="1" fill-rule="nonzero"/><path fill="#f6f6f6" d="M 588.359375 33.019531 C 587.144531 33.425781 586.132812 33.019531 585.726562 31.601562 C 587.144531 31.199219 587.953125 31.804688 588.359375 33.019531 Z M 588.359375 33.019531 " fill-opacity="1" fill-rule="nonzero"/><path fill="#f6f6f6" d="M 590.183594 36.664062 C 591.398438 36.257812 592.410156 36.460938 592.816406 38.078125 C 591.601562 38.28125 590.789062 37.675781 590.183594 36.664062 Z M 590.183594 36.664062 " fill-opacity="1" fill-rule="nonzero"/><path fill="#f6f6f6" d="M 621.78125 80.785156 C 623.402344 80.988281 623.808594 81.796875 623.605469 83.214844 C 622.589844 82.8125 621.984375 82 621.78125 80.785156 Z M 621.78125 80.785156 " fill-opacity="1" fill-rule="nonzero"/><path fill="#f6f6f6" d="M 718.808594 380.75 C 717.589844 380.953125 716.984375 380.34375 716.78125 379.332031 C 718.199219 378.726562 718.605469 379.535156 718.808594 380.75 Z M 718.808594 380.75 " fill-opacity="1" fill-rule="nonzero"/><path fill="#f6f6f6" d="M 739.0625 378.117188 C 739.46875 379.535156 739.0625 380.34375 737.441406 380.546875 C 737.238281 379.332031 738.050781 378.726562 739.0625 378.117188 Z M 739.0625 378.117188 " fill-opacity="1" fill-rule="nonzero"/><path fill="#f6f6f6" d="M 496.398438 528.300781 C 494.777344 528.097656 494.777344 527.085938 494.980469 525.875 C 496.195312 526.277344 497.003906 526.886719 496.398438 528.300781 Z M 496.398438 528.300781 " fill-opacity="1" fill-rule="nonzero"/><path fill="#f6f6f6" d="M 500.652344 532.148438 C 500.449219 532.957031 500.042969 533.566406 499.234375 533.160156 C 498.421875 532.957031 498.21875 532.148438 498.421875 531.339844 C 499.03125 531.742188 499.839844 531.945312 500.652344 532.148438 Z M 500.652344 532.148438 " fill-opacity="1" fill-rule="nonzero"/><path fill="#f6f6f6" d="M 359.0625 459.078125 C 358.453125 459.078125 357.644531 459.28125 357.039062 459.28125 C 356.835938 458.878906 356.632812 458.269531 356.226562 457.867188 C 357.039062 457.054688 357.644531 456.246094 358.453125 455.4375 C 360.074219 456.449219 360.074219 457.664062 359.0625 459.078125 Z M 359.0625 459.078125 " fill-opacity="1" fill-rule="nonzero"/><path fill="#f6f6f6" d="M 556.152344 53.058594 C 556.355469 53.664062 556.558594 54.070312 556.761719 54.675781 C 555.949219 54.472656 555.746094 53.867188 556.152344 53.058594 Z M 556.152344 53.058594 " fill-opacity="1" fill-rule="nonzero"/><path fill="#f6f6f6" d="M 556.761719 35.449219 C 556.558594 34.839844 556.355469 34.4375 556.355469 33.828125 C 556.761719 34.234375 556.960938 34.839844 556.761719 35.449219 Z M 556.761719 35.449219 " fill-opacity="1" fill-rule="nonzero"/><path fill="#f6f6f6" d="M 261.835938 258.496094 C 261.429688 257.28125 261.023438 255.867188 262.644531 255.054688 C 265.074219 256.878906 263.050781 257.6875 261.835938 258.496094 Z M 261.835938 258.496094 " fill-opacity="1" fill-rule="nonzero"/><path fill="#f6f6f6" d="M 724.074219 154.257812 C 723.871094 153.449219 723.871094 152.640625 723.667969 152.03125 C 724.679688 151.832031 725.492188 152.03125 725.492188 153.246094 C 725.289062 153.855469 724.679688 154.257812 724.074219 154.257812 Z M 724.074219 154.257812 " fill-opacity="1" fill-rule="nonzero"/><path fill="#f6f6f6" d="M 276.015625 197.371094 C 273.785156 196.5625 271.355469 196.765625 269.734375 194.738281 C 272.367188 194.335938 274.796875 194.539062 276.015625 197.371094 Z M 276.015625 197.371094 " fill-opacity="1" fill-rule="nonzero"/><path fill="#f6f6f6" d="M 278.039062 218.421875 C 277.835938 217.003906 278.445312 215.992188 279.660156 215.183594 C 280.671875 215.585938 280.46875 216.601562 280.671875 217.410156 C 279.660156 217.8125 278.847656 218.015625 278.039062 218.421875 Z M 278.039062 218.421875 " fill-opacity="1" fill-rule="nonzero"/><path fill="#f6f6f6" d="M 266.695312 194.738281 C 266.089844 195.953125 265.074219 196.359375 263.65625 196.15625 C 264.0625 194.335938 265.277344 194.132812 266.695312 194.738281 Z M 266.695312 194.738281 " fill-opacity="1" fill-rule="nonzero"/><path fill="#f6f6f6" d="M 255.960938 331.566406 C 256.566406 330.554688 257.378906 330.351562 258.390625 330.957031 C 257.984375 332.578125 257.175781 333.183594 255.960938 331.566406 Z M 255.960938 331.566406 " fill-opacity="1" fill-rule="nonzero"/><path fill="#f6f6f6" d="M 267.304688 221.660156 C 269.328125 221.457031 270.949219 222.265625 272.367188 223.277344 C 270.34375 223.886719 267.910156 225.304688 267.304688 221.660156 Z M 267.304688 221.660156 " fill-opacity="1" fill-rule="nonzero"/><path fill="#f6f6f6" d="M 259.203125 219.027344 C 260.621094 218.625 261.632812 219.027344 262.039062 220.445312 C 260.621094 220.851562 259.808594 220.445312 259.203125 219.027344 Z M 259.203125 219.027344 " fill-opacity="1" fill-rule="nonzero"/><path fill="#f6f6f6" d="M 734.808594 235.222656 C 734.808594 236.03125 734.808594 236.636719 734.808594 237.449219 C 734 237.246094 733.390625 236.839844 733.59375 236.03125 C 733.796875 235.625 734.402344 235.421875 734.808594 235.222656 Z M 734.808594 235.222656 " fill-opacity="1" fill-rule="nonzero"/><path fill="#f6f6f6" d="M 448.390625 349.578125 C 443.328125 330.148438 439.074219 310.71875 434.617188 291.085938 C 431.171875 275.703125 427.121094 260.320312 424.285156 244.9375 C 421.652344 230.769531 417.804688 216.601562 414.5625 202.632812 C 412.539062 193.929688 410.109375 185.023438 408.488281 176.320312 C 406.867188 168.023438 404.03125 160.128906 402.816406 151.628906 C 402.410156 148.390625 403.21875 147.175781 405.855469 146.566406 C 422.261719 141.914062 438.464844 136.851562 455.074219 132.398438 C 477.964844 126.328125 500.652344 119.042969 523.539062 113.171875 C 537.113281 109.527344 550.480469 105.480469 564.050781 101.433594 C 564.660156 101.230469 565.46875 101.230469 566.886719 101.027344 C 564.457031 109.324219 562.230469 117.015625 560 124.707031 C 556.152344 137.863281 552.707031 151.222656 548.859375 164.378906 C 546.226562 173.082031 543.59375 181.582031 541.164062 190.289062 C 536.300781 208.097656 531.035156 225.910156 525.769531 243.722656 C 522.324219 255.054688 518.882812 266.59375 515.4375 277.929688 C 514.832031 279.953125 514.425781 281.773438 515.03125 283.796875 C 492.75 305.859375 471.28125 328.328125 448.390625 349.578125 Z M 448.390625 349.578125 " fill-opacity="1" fill-rule="nonzero"/><path fill="#f6f6f6" d="M 450.417969 362.734375 C 454.265625 357.269531 459.53125 353.222656 464.191406 348.566406 C 478.574219 334.398438 492.953125 320.230469 507.335938 306.0625 C 502.675781 322.050781 498.019531 338.042969 493.359375 353.828125 C 488.902344 368.605469 484.445312 383.378906 479.992188 398.15625 C 476.140625 411.109375 472.699219 424.265625 469.050781 437.625 C 465.609375 432.765625 465.609375 426.695312 464.191406 421.230469 C 459.734375 402.8125 456.089844 384.394531 452.039062 365.972656 C 451.835938 364.757812 451.023438 363.746094 450.417969 362.734375 Z M 450.417969 362.734375 " fill-opacity="1" fill-rule="nonzero"/><path fill="#f6f6f6" d="M 471.078125 442.886719 C 473.101562 451.996094 475.332031 461.105469 477.355469 470.007812 C 483.839844 468.796875 490.320312 467.78125 496.800781 466.570312 C 488.09375 458.878906 479.585938 450.984375 471.078125 442.886719 Z M 471.078125 442.886719 " fill-opacity="1" fill-rule="nonzero"/><path fill="#f6f6f6" d="M 545.214844 411.109375 C 550.074219 411.109375 555.140625 411.109375 560 410.90625 C 558.785156 417.585938 557.367188 424.265625 556.152344 430.945312 C 552.507812 424.46875 548.859375 417.789062 545.214844 411.109375 Z M 545.214844 411.109375 " fill-opacity="1" fill-rule="nonzero"/><path fill="#f6f6f6" d="M 565.265625 411.515625 C 569.925781 411.515625 574.789062 411.515625 579.445312 411.515625 C 574.179688 417.789062 568.710938 424.0625 563.445312 430.339844 C 564.050781 424.0625 564.660156 417.789062 565.265625 411.515625 Z M 565.265625 411.515625 " fill-opacity="1" fill-rule="nonzero"/></svg>