<?xml version="1.0" standalone="no"?>
<!DOCTYPE svg PUBLIC "-//W3C//DTD SVG 1.1//EN" "http://www.w3.org/Graphics/SVG/1.1/DTD/svg11.dtd">
<svg xmlns="http://www.w3.org/2000/svg" xmlns:xlink="http://www.w3.org/1999/xlink" version="1.1" x="0px" y="0px" viewBox="0 0 261.7 261.7" enable-background="new 0 0 261.7 261.7" xml:space="preserve" width="261.70001220703125" height="261.70001220703125">
<g id="Capa_3">
	<circle fill="#FFFFFF" cx="130.9" cy="130.9" r="130.9"/>
</g>
<g id="Capa_1">
	<g>
		<path fill="#010202" d="M194,114.1c-3-1.6-4.3-4.4-6.4-6.5c-0.9-0.9-1.5-2.6-2.7-2.2c-0.9,0.3-1.3,2-1.6,3.3    c-0.2,0.9-0.7,1.7-1,2.5c-0.4,1.4-1.5,1-2.5,1c-1.3,0-1.5-0.8-1.6-1.8c-0.2-2.6,1.1-4.8,1.6-7.2c0.5-2.1,1.3-4.1,1.9-6.1    c0.5-1.8,1.5-1.9,2.7-0.6c1.2,1.3,2.3,2.6,3.4,3.9c0.5,0.5,0.8,1.4,1.7,1c0.8-0.3,0.5-1.1,0.5-1.7c0.2-4.8,0.5-9.7,0.7-14.5    c0-0.7-0.3-1.6,0.7-1.9c0.8-0.2,1,0.6,1.4,1.1c5.2,4.9,9.8,10.3,13.6,16.2c4.7,7.2,8.2,14.9,8.2,23.7c0,16.5-15.6,27.1-30.7,22.2    c-4.2-1.4-7.5-4.4-10.2-7.9c-5.2-6.7-7.5-14.4-8.1-22.7c-0.1-0.8-0.1-1.7,0.4-2.4c0.7-0.8,1.2-2.1,2.5-1.6c1.1,0.4,2,1.2,2,2.6    c-0.1,3,0.2,6,1.1,8.9c2,6.9,5.2,13,11.3,17c7.9,5.1,18.8,1.6,23.7-5.7c4.5-6.6,3.7-13.5,1.2-20.5c-2.4-6.4-6.2-12-10.4-17.4    c-0.5-0.7-1-2.1-2.2-1.6c-1.1,0.4-0.6,1.8-0.6,2.7C194.7,103.1,194.8,108.4,194,114.1z"/>
		<path fill="#010202" d="M104.5,166.1c11.3-10.5,22-21.6,32.9-32.6c3.2-2.6,6.1-5.7,10-7.4c3.6-1.5,7.1-0.7,9.6,2.2    c3.3,3.9,4.8,8.8,6.7,13.4c2.1,4.9,3.1,10.2,5.5,15c0.8,1.6-0.3,2.7-1.5,3.3c-1.5,0.8-2.6-0.2-3.1-1.4c-1.3-3.2-2.5-6.6-3.6-9.9    c-1.9-5.7-3.9-11.4-7.1-16.6c-1.3-2-3.4-2.5-5.7-1c-5.5,3.7-10.3,8.3-14.6,13.3c-7.1,7-14.3,13.9-21.3,21c-2.3,2.3-4.9,4.3-6.8,7    c-3.8,3.2-7.6,6.5-11.4,9.7c-6.4,5.6-12.8,11.2-19.3,16.7c-1,0.8-2.3,2-3.9,0.8c-1.6-1.2-1.4-2.8,0.8-4.7    c5.4-4.6,10.8-9.1,16.2-13.7C93.6,176.5,99.1,171.4,104.5,166.1z"/>
		<path fill="#010202" d="M48.8,37.4c0.3,4.1,1.3,7.1,2.3,10.1c0.4,1.3,1,2.6,0.1,3.8c-0.9,1.1-2.1,0.6-3.4,0.5    c-3.5-0.4-6.6-2.5-10.6-2c2.1,2.1,4.2,4.1,6.2,6.2c0.7,0.7,2,1.3,0.6,2.6c-0.9,0.8-1.2,1.2-2.3,0.1c-2.5-2.7-5.3-5.2-8-7.8    c-0.8-0.8-1.7-1.7-1-2.8c0.7-1.1,1.6-1.9,3.2-1.7c2.9,0.3,5.6,1.3,8.4,2c0.4,0.1,0.8,0.5,1.3,0.5c1,0,2.1,1,2.8,0.2    c0.8-0.8-0.2-1.8-0.4-2.8c-0.7-3.1-1.4-6.2-2.5-9.2c-0.7-1.8,0.8-2.9,2-3.8c1.4-1.1,1.9,0.5,2.6,1.1c2.4,2.2,4.7,4.5,7.1,6.8    c0.9,0.9,2.1,1.9,0.9,3.2c-1.3,1.4-2.2,0.1-3.1-0.9C53.1,41.5,51.2,39.8,48.8,37.4z"/>
		<path fill="#010202" d="M21,185.6c2.2-1.6,4.8-2.1,7.3-3c0.8-0.3,1.8-1.5,2.5,0.1c0.6,1.5-0.4,2.2-1.6,2.7    c-3.1,1.2-6.2,2.5-9.3,3.6c-0.9,0.3-2,2.1-3,0.3c-0.8-1.5-1.7-3.1,0-4.9c2.3-2.5,4.2-5.3,6.2-7.9c1.2-1.6,0.8-2.2-1.1-2.3    c-3.4-0.3-6.9-0.9-10.3-1.1c-2.2-0.1-2.3-1.9-2.8-3.2c-0.6-1.6,0.9-1.7,2-2.2c3.3-1.3,6.5-2.7,9.7-4.1c0.9-0.4,1.8-0.8,2.5,0.5    c0.8,1.5-0.4,1.7-1.2,2.1c-2.1,1-4.1,1.9-6.2,2.8c-0.5,0.3-1.3,0.5-1.1,1.3c0.2,0.8,0.9,0.7,1.6,0.8c2.8,0.3,5.6,0.5,8.4,1    c3.1,0.5,3.6,2.1,1.6,4.5c-2,2.5-4,4.9-6,7.4c-0.9,0.4-1.3,1.1-0.6,1.9C20.1,186.7,20.7,186.2,21,185.6z"/>
		<path fill="#010202" d="M134.9,16.3c0-2.6-0.1-5.1-0.2-7.7c0-0.6,0.3-1.4-0.6-1.6c-0.7-0.1-1,0.5-1.3,1.1c-1.3,2.7-2.6,5.4-4.1,8    c-1.3,2.4-3,2.5-4.5,0.2c-1.6-2.4-3.1-4.9-4.6-7.3c-0.3-0.5-0.6-1.3-1.3-1.2c-1,0.2-0.7,1.1-0.7,1.8c0,2.3,0.1,4.6,0.2,6.8    c0,0.9,0,1.7-1.2,1.8c-1.2,0.1-1.6-0.6-1.7-1.7c-0.2-3.6-0.4-7.3-0.6-10.9c0-1-0.7-2.4,1-2.6c1.5-0.2,3.1-0.7,4.1,1.1    c1.7,2.9,3.5,5.7,5.3,8.5c1.2,2,1.9,1.9,2.9-0.1c1.5-2.8,3.2-5.5,4.3-8.4c0.9-2.4,2.7-2.4,4.4-2c1.8,0.4,0.7,2.1,0.9,3.2    c-0.1,3.9-0.4,7.7,0.5,11.5c0,0,0,0,0,0C136.8,16.9,135.8,16.7,134.9,16.3z"/>
		<path fill="#010202" d="M222.4,198.7c0.7-0.1,1.1,0.4,1.6,0.8c3,2.5,5.9,5.1,8.9,7.6c0.6,0.5,1,1.2,0.6,1.9    c-0.6,1-1.4,1.8-2.8,1.8c-4.3,0.2-8.6,0.5-12.8,0.8c-0.8,0.1-1.8-0.3-2.2,0.7c-0.4,1,0.7,1.2,1.3,1.7c1.8,1.5,3.5,3.1,5.2,4.8    c0.8,0.8,1.5,1.4,0.3,2.6c-1.2,1.2-1.7,0.3-2.4-0.3c-2.7-2.4-5.6-4.7-8.2-7.2c-0.6-0.6-2.2-0.9-1.5-2.2c0.6-1,1.2-2.2,2.8-2.3    c3.5-0.1,6.9-0.3,10.4-0.5c1.6-0.1,4,0.5,4.5-0.8c0.5-1.4-1.9-2.2-2.9-3.4c-1.2-1.4-3-1.9-4-3.5    C220.2,199.8,220.9,199.1,222.4,198.7z"/>
		<path fill="#010202" d="M245.8,155.7c-0.3-0.1-0.7-0.1-1-0.2c-0.7-1-2.4-1-2.2-2.7c0.4-1,1-0.8,1.7-0.3c0.3,0.7,0.9,0.6,1.5,0.5    c3.6,0,6.8,1.8,10.2,2.7c1.8,0.5,1,2.2,0.3,3.4c-0.8,1.2-2.2,1.6-3.3,2.3c-3.1,1.7-6.2,3.3-9.3,5c-0.5,0.3-1.1,0.6-1.1,1.1    c0,0.7,0.8,0.6,1.3,0.8c2.4,0.7,4.9,1.4,7.3,2.1c1.2,0.3,2.1,0.9,1.8,2.2c-0.3,1.5-1.4,0.9-2.4,0.8c-3.8-0.4-7.3-2.3-11-3    c-1.8-0.4-2.2-1.5-1.2-3c0.5-0.8,1-1.4,1.9-1.9c2.6-1.3,5.2-2.9,7.8-4.3c1.5,0,2.6-0.6,3.6-1.6c0.4-0.5,1.6-0.4,1.2-1.5    c-0.3-0.8-1.1-0.9-1.8-0.8c-1-0.3-2.1-0.1-3-0.7C247.6,155.5,246.7,155.5,245.8,155.7z"/>
		<path fill="#010202" d="M102.2,241.2c6.4,1.4,10.2,5.8,7.7,11.5c-0.9,2-2.5,3.3-4.4,3.7c-5.3,0.9-10.6,0.6-14.7-3.5    c-1.9-1.9-2.5-4.6-1.7-7.1c0.9-2.6,2.7-4.5,5.7-4.8c0.6,0.2,1.1,0.1,1.4-0.6c1.2-0.3,2.5-0.3,3.7-0.1c-0.2,1-1,0.8-1.6,0.8    c-0.9,0-1.6,0.1-1.5,1.3c-4.6,1.8-7.3,6.6-1.9,10.8c2.6,2.1,7.8,2.5,10.2,0.7c4.6-3.3,3.3-8.3-2.8-11.1    C102.3,242.2,102.2,241.7,102.2,241.2z"/>
		<path fill="#010202" d="M151.8,257c0.6-3.5,1.2-7,1.8-10.5c0.2-1.2,0.4-2.3,0.6-3.5c0.2-2,2.8-3.3,4.3-2.1c3.8,3,7.6,6.2,11.3,9.4    c0.5,0.4,1.3,0.7,0.7,1.4c-0.5,0.6-1.2,1.2-2.1,0.8c-0.3-0.1-0.6-0.3-1-0.5c-1.3-0.8-1.9-2.9-3.7-2.3c-2.7,0.8-5.3,1.8-7.8,3    c-0.9,0.4-1,1.7-1,2.7c-0.1,1,0,2-1.1,2.6c-0.5,0.2-0.8,0.7-1.5,0.5C151.6,258.1,151.8,257.5,151.8,257z M157.1,243.1    c-0.5,1.9-1.2,3.7-1.2,5.7c0,0.9,0.2,2.1,1.2,1.4c1.3-0.9,2.8-0.8,4-1.7c1.1-0.8,1.1-1.3,0.2-2    C159.9,245.4,158.6,244.3,157.1,243.1z"/>
		<path fill="#010202" d="M126.4,251.6c0.4,0.5,0.7,1.1,1.1,1.6c-0.1,0.6-0.1,1.1,0.7,1.2c0.3,0.5,0.6,1,0.9,1.6    c0,0.4,0.1,0.7,0.4,0.9c0.4,0.1,0.7-0.1,0.7-0.5c1.8-3.2,3.7-6.3,5.4-9.6c1-1.9,2.3-2.4,4.2-2.2c2,0.2,1.6,1.9,1.8,3.1    c0.5,3.2,0,6.6,0.9,9.8c0.3,0.9,0.6,2.1-1,2.2c-1.4,0.2-2.4-0.3-2.4-1.9c0-2.5-0.1-4.9-0.6-7.4c-0.1-0.6,0.1-1.5-0.7-1.7    c-1-0.2-1.1,0.8-1.4,1.4c-1.5,2.5-2.8,5.2-4.3,7.7c-1.5,2.6-3.5,2.5-5-0.1c-1-1.8-2-3.6-3-5.4c0-0.4,0-0.8,0-1.2    c0.2-0.2,0.4-0.4,0.6-0.5C125.5,251,126,251.3,126.4,251.6z"/>
		<path fill="#010202" d="M29.3,69.3c1.4,0,2.7,0,4.1,0c0.8,0,1.8-0.3,1.9,0.9c0.1,0.9-0.7,1.4-1.4,1.8c-0.2,0.1-0.5,0.1-0.8,0.2    C31.8,72.5,30,71.5,29,73c-1.5,2.5-2.8,5-3.9,7.7c-0.5,1.3,1,2.4,1.7,3.6c0.7,1.3,0.7,2.3-0.4,3.1c-1.6,1-1.5-0.7-1.9-1.4    c-2.4-3.8-4.8-7.6-7.1-11.5c-1-1.6,0-3.7,1.8-3.8C22.6,70.5,25.8,68.9,29.3,69.3z M23,72.3c-1,0.3-2.5-0.7-3.3,0.6    c-0.6,0.9,0.6,1.4,1,2c0.9,1.2,1.3,3.5,2.8,3.3c1.6-0.3,1.7-2.7,2.6-4.1c1-1.6,0.1-1.9-1.3-1.8C24.3,72.4,23.8,72.3,23,72.3z"/>
		<path fill="#010202" d="M13.9,123.3c-0.4,1.5,0.5,2.4,1.7,3c0.9,0.5,1.8,0.9,2.4,1.8c0.5,0.8,0.6,1.8-0.1,2.5    c-0.7,0.7-1.3-0.1-1.9-0.5c-3.7-2.6-7.3-5.3-10.9-8c-2.3-1.8-2-4.3,0.6-5.6c3.8-1.9,7.6-3.7,11.5-5.5c0.7-0.3,1.7-1,2.2,0.1    c0.4,0.9,0.5,2.2-0.8,2.5c-4.3,0.9-4.2,4.3-4.2,7.5C12.9,121.5,13.1,122.4,13.9,123.3z M12.4,121.1c0.6-0.5,1.6-0.8,0.4-1.7    c0-2.9-0.4-3.3-2.7-2.1c-1.3,0.6-3.4,0.8-3.5,2.2c-0.1,1.5,2.2,1.8,3.3,2.8C11.9,124.1,12.2,122.7,12.4,121.1z"/>
		<path fill="#010202" d="M210.7,229c0,3.4-2.3,4.7-4.7,3.7c-4.1-1.7-8.2-3.3-12.3-4.9c-0.8-0.3-1.6-0.6-1.5-1.6    c0.1-1.1,1.1-1.1,1.9-1.2c0.5,0,1.2-0.1,1.6,0.2c3.1,2.5,5.1,0,7.3-1.6c0.7-0.5,1.3-1.4,2.1-1.8c1.8-0.9,1.9-2.3,1.4-3.9    c-0.2-0.6-0.4-1.3-0.3-1.9c0.1-1,0.8-1.9,1.6-2c1.1-0.1,0.8,1.1,1,1.9C209.8,220.6,209.3,225.3,210.7,229z M206.8,223.1    c-1.8,1.4-3.3,2.5-4.8,3.7c-0.8,0.7-0.5,1.4,0.3,1.6c1.9,0.4,3.5,1.8,5.5,1.9C208.4,227.8,206.9,225.9,206.8,223.1z"/>
		<path fill="#010202" d="M62.9,40.2c-0.2,1.1-0.9,1.1-1.8,0.8c-0.1-0.9,0.4-2-0.6-2.8c-0.8-4.4-0.4-8.9-0.4-13.3    c0-1.7,1.9-2.9,3.3-2.3c5.1,2.2,10,4.7,15.1,7.2c-1.6,2.3-3,2.6-4.9,1c-1.6-1.4-3.2-1.1-4.6,0.2c-1.6,1.5-3.5,2.3-5.4,3.4    C61.6,36,63.3,38.3,62.9,40.2z M63.5,25.2c-1.3,0.6-0.7,1.6-0.6,2.3c0.2,1.5-0.7,3.8,0.6,4.2c1.7,0.6,3-1.6,4.5-2.5    c0.4-0.3,0.9-0.6,0.5-1C67.1,26.8,65.1,26.2,63.5,25.2z"/>
		<path fill="#010202" d="M195.3,37.8c-1.6-0.9-3.4-1.5-4.3-3.3c0.1-0.7-0.1-1.1-0.9-1.2c-0.3-0.5-0.5-1-0.8-1.5    c0.1-0.6-0.1-1.1-0.7-1.3c-0.3-1.2-0.3-2.5,0-3.7c0.6-0.2,0.8-0.6,0.7-1.2c0-0.2,0.1-0.3,0.3-0.4c1.2-0.6,2.1-1.4,2.5-2.6    c2.9-2.1,5.8-1.3,8.6,0.1c0.1,0.6,0.5,1,1.2,0.8c2.5,0.7,3.9,2.7,5.4,4.5c0,0.6,0.2,0.9,0.8,1c0.1,0.7,0.3,1.4,0.4,2    c0,0.5-0.1,1.1-0.1,1.6c-0.7,0.7-1.3,0.6-1.7-0.4c0.1-0.6,0-1.1-0.7-1.3c0-0.4-0.1-0.7-0.1-1.1c0.3-1.1,0-1.8-1.1-2.2    c-0.6-0.6-1.2-1.2-1.8-1.7c-0.1-0.8-0.5-1.1-1.2-0.9c-1.2,0.2-1.8-1-2.9-1.2c-3.2-0.5-5.4,0.5-7.2,3.8c-0.8,0.2-0.9,0.8-0.6,1.4    c0,0.4,0,0.7,0,1.1c-0.3,0.7-0.3,1.2,0.5,1.5c1,2.6,3.3,4,5.6,5.2c1.5,0.8,3.4,0.9,4.9-0.2c1.5-1.1,2.5-0.4,3.1,0.8    c0.6,1.4-1,1.7-1.6,1.9c-2.5,1-4.9,0.6-7.1-1C196.5,37.9,196,37.7,195.3,37.8z"/>
		<path fill="#010202" d="M215.7,40c1.1-0.5,2.3-0.3,3.5-0.5c0.8,0,1.6,0,2.3,0c0.2,0.2,0.4,0.4,0.7,0.6c0,0.6,0.2,0.9,0.8,1    c-0.1,3.9-1.6,7.4-2.5,11.1c-0.3,1.2-0.7,2.4-1.1,3.6c-0.7,0.4-0.9,1.5-1.8,1.5c-0.1-0.1-0.2-0.3-0.3-0.4c0-1-0.1-2-0.1-3    c0.1-0.5,0.2-1,0.3-1.5c0.8-0.9,0.7-1.7-0.3-2.3c-0.2,0-0.3-0.2-0.3-0.3c0-0.5-0.3-0.8-0.9-0.8c-0.2,0-0.2-0.1-0.3-0.2    c0-0.5-0.3-0.8-0.8-0.8c-0.7-0.2-1.1-0.8-1.4-1.4c0-0.5-0.3-0.8-0.8-0.8c-0.2,0-0.3-0.1-0.3-0.3c0-0.5-0.3-0.8-0.8-0.8    c-0.9-0.4-1.8-0.2-2.7-0.2c-1.3,0-2.6,0.1-3.9,0.1c-0.1,0-0.2,0-0.3-0.2c-0.2-2,2.1-1,2.6-2.2c0.5-0.1,1-0.2,1.5-0.4    c1.2,0.3,2.1,0.1,2.9-0.9c0.5-0.1,1-0.2,1.5-0.2C214.4,41.1,215.2,40.9,215.7,40z M219.2,41.7c-1.5,1.1-4.1,0.4-5.2,2.6    c-0.2,0.5,3.8,4.3,4.1,4c1.7-1.4,1.5-3.7,2.3-5.6C220.8,42,220.1,41.6,219.2,41.7z"/>
		<path fill="#010202" d="M157.7,19.6c0-0.5-0.1-1-0.1-1.6c0.2-0.8,0.2-1.6-0.9-1.8c0,0-0.1-0.1-0.1-0.1c-0.7-1.9-2.2-1.5-3.7-1.2    c-1-0.1-2-0.2-3-0.3c0-0.5,0.1-0.9,0.1-1.4c1.9-0.3,3.8,0.6,5.5-0.2c-0.3-1.7-1.4-2.9-1.6-4.6c-0.1-1.4-1.1-2-2.1-0.5    c-0.9,1.5-2.5,2.6-3,4.4c0,0.6-0.1,1.2-0.1,1.9c-1.3-0.3-2.2,0.2-3,1.3c-0.6,0.8-1.2,1.6-2,2.2c-0.8,0.7-1.8,0.7-2.5,0.1    c-0.7-0.6,0-1.4,0.4-1.9c3-3.6,6-7.1,9.1-10.6c1-1.1,2.1-1.3,3.4-0.7c0.1,0.7,0.6,0.9,1.2,0.8c0.8,1.6,1.5,3.2,2.3,4.8    c0.1,0.3,0.2,0.5,0.2,0.8c0,0.4,0,0.7,0.1,1.1c-0.5,1.1,0,1.8,1,2.2c0.1,0.5,0.2,1,0.3,1.5c-0.2,0.7,0.1,1.1,0.7,1.3    c0,1.3,1.9,2.1,1.2,3.7c-0.9,0.2-1.9-0.7-2.8-0.1c-0.2,0-0.3-0.1-0.4-0.2C157.9,20.1,157.8,19.9,157.7,19.6z"/>
		<path fill="#010202" d="M243.8,69c-2.4,4.4-4.8,8.8-7.3,13.1c-0.3,0.5-0.5,2.5-2,1.2c-0.9-0.8-1.7-1.6-0.6-3    c1.4-1.7,2.6-3.5,1.1-5.8c0.4-0.2,0.8-0.4,1.2-0.6c0.9,0.5,1.6,0.3,2.2-0.7c0.7-1.2,1.5-2.4,2.3-3.6c0.4,0,0.7-0.2,0.7-0.6    c0-0.5-0.4-0.7-0.9-0.6c-1.7,0-3.4,0-5.1-0.1c-1.3,0-1.6,0.6-1.3,1.7c-0.5,0.2-0.9,0.5-1.4,0.7c-0.2-0.3-0.3-0.7-0.5-1    c0.1-1.8-1.3-1.8-2.4-1.9c-1.5,0-2.9-0.2-4.3-0.5c-0.2-0.4-0.3-0.8,0.1-1.2c2.6,0,5.2,0.4,7.8-0.3c2.4,0,4.7,0,7.1,0    c1,0,2.1-0.2,2.4,1.2C242.5,68.1,243.1,68.6,243.8,69z"/>
		<path fill="#010202" d="M100.6,14.7c-0.5,0.1-0.9,0.1-1.4,0.2c-0.9-0.2-1.8-0.5-1.9,0.9c0.1,1,0.1,2,0.2,3    c-0.2,0.8-0.1,1.3,0.9,1.4c0.9,0,1.9,0,2.8,0c0.4,0.6,1.7,0.2,1.6,1.4c-0.7,0.1-1.4,0.1-2.1,0.2c-1.3-0.8-2.2-0.6-2.8,0.8    c-1.3,0.7-2,0.1-2.5-1.1c-1.4-3.7-2.1-7.6-3-11.5c-0.3-1.2,0.5-1.9,1.6-2.2c4.1-1.1,8.1-2.1,12.2-3.2c0.6-0.1,1.1-0.3,1.3,0.5    c0.2,0.8-0.1,1.5-1,1.6c-3.5,0.4-6.8,1.7-10.2,2.5c-1.6,0.6-1.4,1.4-0.3,2.3c0.5,0.7,0.1,2,1.5,2.1c0.8,1.2,1.7,0.5,2.6,0.2    C100.9,13.4,100.8,14,100.6,14.7z"/>
		<path fill="#010202" d="M171.9,15.2c-0.8,2.7-1.6,5.4-2.4,8c-0.3,1-1.2,0.8-1.8,0.5c-1-0.4-1.4-1.1-1.1-2.2c1-3.2,1.8-6.5,3.1-9.6    c0.6-1.4,0.1-1.5-0.9-2.1c-1.3-0.9-3-0.7-4.2-1.8c-0.4-0.4-1.4-0.3-1.1-1.2c0.3-0.9,1.3-0.7,1.9-0.5c1.3,0.4,2.5,1,3.7,1.5    c0.5,0.9,1.2,1.3,2.3,0.8c0.3,0.1,0.7,0.2,1,0.2c0.2,0.6,0.6,0.9,1.3,0.7c1.8-0.2,3.2,0.9,4.8,1.4c0.1,0.6,0,1.2-0.6,1.5    c-0.7,0-1.4,0-2-0.5c-0.2-0.7-0.6-0.9-1.3-0.7c-1.8,0-1.4,1.7-1.9,2.6C172,14.2,171.7,14.6,171.9,15.2z"/>
		<path fill="#010202" d="M246,184.1c0.4-0.9,0.8-1.7,1.3-2.6c0.7-0.1,0.9-0.6,0.8-1.2c0-0.3,0.1-0.7,0.1-1c0.7,0,1.4,0.1,1.5,1.1    c-0.1,0.2-0.1,0.3-0.2,0.5c-1.1,0.1-1,0.9-0.9,1.7c-0.1,0.4-0.1,0.7-0.2,1.1c-0.8,0-1,0.5-0.9,1.2c-0.1,0.3-0.3,0.7-0.4,1    c-0.6,0.2-0.8,0.6-0.7,1.2c-0.1,0.3-0.3,0.7-0.4,1c-0.7,0.3-1.5,0.6-0.9,1.7c-0.7,1.5-1.4,3.1-2.3,4.6c-0.2,0.4-0.6,1.3-1.4,0.7    c-0.6-0.4-0.6-1.1-0.4-1.7c0.1-0.2,0.2-0.3,0.3-0.4c2.7-5,2.7-5-2.5-7.5c-1.6-0.8-3.3-1.4-4.9-2.4c-0.7-0.5-2.3-0.9-1.3-2.4    c0.8-1.3,1.8-1.3,3-0.4c0.4,0.3,1,0.5,1.4,0.8c0.1,0.5,0.5,0.8,1,0.7c0.6,0.2,1.3,0.3,1.7,0.9c0.6,1.1,1.8,1,2.8,1.3    c0.6,0.2,1.1,0.4,1.7,0.5c0.2,0.5,0.5,1,1.1,1C245.9,185.1,246,184.6,246,184.1z"/>
		<path fill="#010202" d="M23.8,199.2c-1.2,0.1-1.3-0.8-1.8-1.3c-0.8-0.9,0.1-1.5,0.5-1.8c3.6-2.3,7.2-4.4,10.9-6.5    c0.9-0.5,1.8-0.4,2.2,0.8c0.2,0.7,0.4,1.3-0.4,1.8c-3.5,2.2-7,4.4-10.6,6.7C24.3,199.1,23.9,199.2,23.8,199.2z"/>
		<path fill="#010202" d="M239.3,200c-0.7,0.6-1.1,2.2-2.6,1.3c-3.5-2.2-7-4.5-10.5-6.8c-0.9-0.6-1.2-1.5-0.4-2.3    c0.5-0.5,0.9-1.5,2.2-0.6c3.4,2.5,6.9,4.7,10.4,7C238.8,198.9,239.3,199.1,239.3,200z"/>
		<path fill="#010202" d="M181.1,29.2c-1.1-0.5-2.3-0.8-1.6-2.5c1.5-3.7,3.7-7,5.1-10.8c0.2-0.6,0.7-2,2-1.2c1,0.6,1.8,1.4,1.2,2.7    c-1.8,3.6-3.7,7.2-5.5,10.8C181.9,28.7,181.7,29.3,181.1,29.2z"/>
		<path fill="#010202" d="M243.3,99.6c1.6-1,2.8-2.2,2-4.3c-0.2-0.5-0.4-1.4,0.5-1.6c0.7-0.1,1,0.4,1.3,1.1c0.8,1.7,2.2,2.9,4,2    c1.8-0.8,1.5-2.4,0.8-4c-0.4-0.9-0.4-2-0.5-2.9c0.4-0.4,0.8-0.8,1.2-1.2c0.8,2.5,1.8,4.9,1.7,7.6c-0.2,3.4-2.2,4.8-5.3,3.4    c-0.9-0.4-1.4-0.7-2.3,0.5c-0.9,1.3-2.6,2-4,3c-1.6-0.2-1.3-1.5-1.5-2.5c0,0,0.1,0,0.1,0C242.3,100.8,242.9,100.5,243.3,99.6z"/>
		<path fill="#010202" d="M10.6,137.5c-2,0-4,0-6,0c-0.9,0-1.6-0.2-1.6-1.4c0-1.1,0.4-1.4,1.5-1.5c4.1-0.2,8.2-0.5,12.3-0.8    c1.1-0.1,1.5,0.4,1.6,1.3c0.1,1.1,0.1,2.1-1.4,2.1c-2.1,0-4.2,0-6.3,0C10.6,137.4,10.6,137.4,10.6,137.5z"/>
		<path fill="#010202" d="M50.7,230.2c-3.9-1.3-8.3-7-7.9-11.4c0.2-1.7,1.1-2.7,1.9-4c0.5-0.1,0.6-0.4,0.6-0.8    c0.3-0.1,0.6-0.2,0.9-0.3c2,0,3.9-1.4,6-0.1c-0.4,1.1-1.9,0.3-2.1,1.5c-5.2,1.2-5.7,7.1-2.9,10c1.1,1.1,2.3,2.3,3.5,3.4    C50.7,229,50.7,229.6,50.7,230.2z"/>
		<path fill="#010202" d="M22.9,98.3c-0.1,0.7-0.1,1.3-0.2,2c-0.4,0.2-0.7,0.4-1.1,0.5c0,0,0,0,0,0c0-0.4,0-0.9-0.5-1.1    c-0.2-3,1.2-6.3-1.7-8.8c-0.6-1.4-1.8-1.5-3.1-1.3c-0.5,0-1,0-1.5,0c-0.7-0.3-1.2-0.1-1.5,0.7c-1,0.5-1.7,1.3-2.2,2.3    c-0.7,0-1.2-0.4-1.5-0.9c1.7-4.6,7.3-7.1,11.9-2.6C23.5,91.9,22.3,95.2,22.9,98.3z"/>
		<path fill="#010202" d="M34.2,212.7c0.9-1.1,2-2.1,3.3-2.8c0.6,0,1-0.2,1.1-0.8c0.3-0.3,0.7-0.6,1-0.9c0.7,0.1,1.1-0.3,1.2-1    c0.7-0.6,1.5-1.1,2.2-1.7c1.3-0.3,0.9-1.7,1.6-2.4c0.6,1.3,3.6,1.9,1.1,4c-1.3,0-2,0.8-2.3,1.9c-1,0.8-2.1,1.7-3.1,2.5    c-1-0.1-1.6,0.4-1.8,1.4c-1.2,0.8-1.7,2.7-3.8,2C34.6,214.3,34.1,213.5,34.2,212.7z"/>
		<path fill="#010202" d="M123.3,250.4c-0.1-0.3-0.2-0.6-0.3-0.9c0.1-1-0.4-1.6-1.3-1.7c-0.8,0-1.1,0.7-1.1,1.3    c0,2.8-1.4,5.6-0.3,8.5c0,1,0.5,2.3-1.4,2.2c-1.8,0-1.4-1.3-1.4-2.3c0-1.4,0.2-2.9,0.3-4.3c0.8-0.2,0.8-0.8,0.8-1.5    c0.2-2.3,0.3-4.6,0.5-6.9c2.6-0.9,4.4-0.1,5.1,2.7c0.3,1.1,0.5,2.1,0.8,3.2c-0.2,0.2-0.4,0.4-0.6,0.5    C124.1,251,123.7,250.7,123.3,250.4z"/>
		<path fill="#010202" d="M18.9,155.5c1.8-0.2,3.3-0.2,2.3,2.3c-1.8-0.1-3.6-0.2-5.1,1.1c-0.6,0.1-1.2,0.2-1.9,0.2    c-1.4-0.5-2.7-0.3-3.7,0.9c-4.1,0.7-4.1,0.7-4.4-2.3c0.5-0.3,1.1-0.6,1.6-1c0.5,0.5,1.2,0.3,1.8,0.4c0.6,0.7,1,0.5,1.2-0.3    c1.3-0.4,2.8-0.6,2.3-2.6c0.3-0.6,0.4-1.5,1.5-1.4c0.5,0.9,0.3,1.9,0.4,2.8C16.4,157.8,17.6,156.2,18.9,155.5z"/>
		<path fill="#010202" d="M246,121.1c0.2,0.3,0.3,0.7,0.5,0.9c0.8,1.1,2,2.4,3.2,2.1c1.6-0.4,0.4-2.2,0.7-3.3c0.3-1.3-1-3.8,0.6-3.8    c2,0,0.7,2.5,1.1,3.8c0.3,1.1,0.2,2.4,0.6,3.5c0.7,2.3-0.2,3-2.3,2.9c-1-0.1-2,0-3,0.2c-1.9,0.3-3.8,0.7-1.7-2.2    c0.8-1.1-1.4-1.8-1.1-3.1C244.8,121.4,245.3,121.1,246,121.1z"/>
		<path fill="#010202" d="M9.3,104.2c-0.5,0-0.9-0.1-1.4-0.1c-0.3-0.4-0.7-0.6-1.2-0.4l0.1-0.1c0,0-0.2,0.1-0.2,0.1    c0.1-0.8,0.3-1.6-0.3-2.3c0.1-0.5,0.1-1.1,0.2-1.6c0.6,0.2,1.2,0.3,1.8,0.5c0.7,1,1.8,1.2,2.8,1.4c0.2,0.7,0.7,0.9,1.4,0.7    c0.9,0.2,1.7,0.4,2.6,0.6c0.3,1.7,1.5,1.1,2.5,0.8c2.2,0.6,2.5-0.9,2.8-2.4c0.4-0.2,0.8-0.3,1.2-0.5c0,0,0,0,0,0    c0,0.6,0.1,1.2,0.1,1.8c-0.1,0.7-0.2,1.3-0.2,2c-1.4,0.5-1.1,1.8-1.5,2.9c-0.2,0-0.4,0-0.6,0.1c-0.4-0.8-0.9-1.4-2-1    c-0.5-0.1-0.9-0.1-1.4-0.2C14.2,104.7,11.7,104.6,9.3,104.2z"/>
		<path fill="#010202" d="M81.1,23.4c-0.4-0.8-0.8-1.6-1.1-2.3c0.4-1.1,0.1-1.8-1.1-2c-0.1-0.5-0.2-1-0.3-1.4c0.2-1.6-1-1.7-2.1-1.8    c0-1.5,2.1-0.9,2.2-2.2c0.3-0.1,0.5-0.2,0.8-0.2c2-0.1,0.3,2.1,1.6,2.5c0.5,1.2,1.7,2.2,1.5,3.7c-0.2,0.7,0.1,1.1,0.8,1.2    c0.1,0.5,0.3,0.9,0.4,1.4c0,1.2,0.4,2.3,1.6,2.9c1.2,2.2,0.1,2.9-1.9,3.1c0.3-1.1-0.3-1.6-1.2-2c-0.1-0.3-0.1-0.7-0.2-1    C82.8,24,81.9,23.7,81.1,23.4z"/>
		<path fill="#010202" d="M244.6,133.4c1-2,2.6-0.8,4-0.9c2.8,1,5.6,1.4,8.5,0.9c2.6-0.5,2.8,0.9,2.4,2.9c-0.9,0.3-1.7-0.8-2.6-0.1    c-0.4-0.1-0.7-0.1-1.1-0.2c-0.8-1-1.6-1.1-2.4,0c0,0.1-0.1,0.2-0.3,0.2c-1.3,0.6-0.2,2.1-1,2.9c-0.5-4.2-2.5-5.5-5.8-3.6    c0,0-0.1,0.2-0.1,0.2C244.2,136,245.2,134.2,244.6,133.4z"/>
		<path fill="#010202" d="M60.5,220.1c0.5-0.6,0.9-0.3,1.3,0.2c1.7,2.3,1.9,5,0.8,7.2c-1.1,2.1-3,4.3-6.1,4    c-1.4-0.2-2.9,0.2-4.3-0.5c0.5-1,1.4-0.9,2.3-0.9c1.2,0,2.3,0,2.9-1.3c3-1.7,3.1-4.4,2.8-7.3C60.3,221,60.4,220.5,60.5,220.1z"/>
		<path fill="#010202" d="M244.6,133.4c0.6,0.8-0.4,2.6,1.6,2.3c-0.3,3.7-0.6,7.4-1,11.1c-0.1,0.7,0,1.6-1,1.7c-0.8,0-1-0.8-0.9-1.4    C243.5,142.5,243.2,137.9,244.6,133.4z"/>
		<path fill="#010202" d="M4.3,149c0-0.5,0-1,0-1.5c1-0.3,0.9-1.1,0.7-1.8c0.6-2.3,2.1-3.3,4.4-2.7c0.1,0.6,0.5,0.7,1,0.7    c0.6,0.8,1.3,1.6,1.9,2.5c-0.2,0.7-0.1,1.3,0.8,1.4c0.6,0.9,0.5,1.9,0.5,2.9c-0.4,0.7,0,2-1.4,2c-0.1-0.7,0-1.5-0.3-2.1    c-0.8-1.6-0.9-4-3.5-3.8c-2.9,0.2-1.3,2.6-1.8,4c0,0.1,0,0.2,0,0.3C5.5,150.7,5.7,148.7,4.3,149z"/>
		<path fill="#010202" d="M246.3,135.6c3.3-1.9,5.3-0.7,5.8,3.6c0.8-0.8-0.3-2.3,1-2.9c0.1,3.3-0.3,6.5-0.9,9.8    c-0.1,0.7,0.1,1.6-1,1.6c-1.3-0.1-1-1.1-0.9-1.9c0.1-2.2,0-4.4,0.5-6.5c0.6-2.7-0.5-3.5-2.8-3.6    C247.4,135.7,246.9,135.6,246.3,135.6z"/>
		<path fill="#010202" d="M44.7,203.2c-0.7,0.7-0.3,2.1-1.6,2.4c0.3-2.7-2.3-3.7-3.4-5.6c-0.7-1.3-1.9-2.4-2.8-3.7    c-0.4-0.5-1.2-1.2-0.3-1.8c0.7-0.5,1.4-0.1,1.9,0.5C40.7,197.7,43.1,200.1,44.7,203.2z"/>
		<path fill="#010202" d="M241.5,87.9c-0.3,0.1-0.7,0.1-1,0.2c-1.3-0.8-1.8,0-2.2,1c-0.3,0-0.7,0-1,0c-0.4-1.3,0-2.4,0.6-3.6    c0.5-0.1,1.1-0.1,1.6-0.2c0.9,0.7,1.6,0,2.5-0.1c3.1-0.6,5.5-3.1,8.9-2.6c0.1,0.5,0.2,1.1,0.2,1.6c-0.6,0.5-0.6,1.2-0.7,1.9    c-0.3-0.2-0.7-0.3-1-0.5c-0.5-0.9-0.9-0.8-1.2,0.1c-0.5,0.1-1.1,0.1-1.6,0.2c-1.1-0.7-1.6-0.4-1.3,0.9c0,0.9,0.1,1.9,0.1,2.8    c-1.4,0-1.2-1.3-1.7-2.1C242.8,86.4,241.9,86,241.5,87.9z"/>
		<path fill="#010202" d="M256.6,108.8c1.1,2.1,2.6,4.2,2.3,6.8c-0.6,1.6-0.6,3.3,0,4.9c0.4,2-1,3.3-2.1,4.7    c-0.3,0.5-0.8,0.9-1.4,0.6c-0.6-0.3-0.6-0.9-0.5-1.4c0.1-0.5,0.2-1.1,0.5-1.5c3.3-4.3,2-8.4-0.5-12.5c0-0.3-0.1-0.7-0.1-1    c0.2-0.2,0.4-0.4,0.7-0.6C255.9,108.7,256.2,108.8,256.6,108.8z"/>
		<path fill="#010202" d="M246,121.1c-0.6,0-1.1,0.4-1.5,0.9c-2.7-4-1.7-12.4,1.9-14.7c0.1,0.8-0.9,1.4-0.5,2.3l0,0    c-0.2,0.1-0.5,0.2-0.6,0.4c-0.1,0.4,0.2,0.6,0.6,0.7c0.1,0.1,0.2,0.2,0.4,0.3C244.6,114.3,245,117.7,246,121.1z"/>
		<path fill="#010202" d="M100.6,14.7c0.3-0.7,0.3-1.3-0.7-1c-0.9,0.3-1.8,1-2.6-0.2c3.1-0.8,6.2-1.7,9.3-2.5    c0.7-0.2,1.8-0.6,2.1,0.5c0.3,1-0.6,1.6-1.3,1.8C105.1,13.9,102.9,14.3,100.6,14.7z"/>
		<path fill="#010202" d="M50.1,215.1c0.1-1.2,1.7-0.5,2.1-1.5c-2.1-1.3-4,0.1-6,0.1c2.3-1.8,6.9-1.8,9.8,0.5    c1.5,1.2,3.7,1.9,4.2,4.2c-0.4,0.4-0.7,0.8-1.1,1.2C56.6,217.1,54.1,214.7,50.1,215.1z"/>
		<path fill="#010202" d="M81.4,237.9c0,0.9-0.4,1.6-1,1.3c-2.1-1.2-4.6-1.6-6.4-3.3c-0.2-0.2-0.4-0.7-0.3-0.9    c0.2-0.3,0.8-0.8,1-0.7c2.2,0.9,4.4,2,6.5,3C81.4,237.3,81.4,237.7,81.4,237.9z"/>
		<path fill="#010202" d="M102.7,21.6c0.1-1.2-1.2-0.8-1.6-1.4c2.6-1.4,5.5-1.7,8.2-2.5c0.7-0.2,1.5-0.2,1.7,0.8    c0.2,0.9-0.6,0.9-1.2,1.2C107.6,20.7,105.1,21,102.7,21.6z"/>
		<path fill="#010202" d="M81,15.9c-1.2-0.4,0.4-2.6-1.6-2.5c1.7-1.4,4-1.7,5.7-2.9c0.8-0.5,1.5-1,1.9,0.1c0.3,0.8,0,1.7-0.9,1.9    c-1.2,0.2-1.9,1.3-3.2,1.4C82,14,81.3,14.8,81,15.9z"/>
		<path fill="#010202" d="M185.5,236.8c-0.4,0.5-0.4,1.1-1,1.4c-1.6,0.7-3.1,1.5-4.6,2.2c-0.7,0.3-1.6,0.3-2-0.4    c-0.5-1,0.6-1.3,1.1-1.5c1.7-0.7,3.2-1.8,5-2.3C184.9,236,185.2,236.2,185.5,236.8z"/>
		<path fill="#010202" d="M8.3,100.2c-0.6-0.2-1.2-0.3-1.8-0.5C7.3,97,7.7,94,9.6,91.7c0.4,0.5,0.9,0.9,1.5,0.9    C10.2,95.1,9.3,97.7,8.3,100.2z"/>
		<path fill="#010202" d="M4.3,149c1.4-0.2,1.1,1.7,2.3,1.7c0.4,2.1,0.7,4.1,1.1,6.2c-0.5,0.3-1.1,0.6-1.6,1    C4.6,155.1,5.2,151.9,4.3,149z"/>
		<path fill="#010202" d="M250.7,82.8c-3.3-0.5-5.8,2-8.9,2.6c-0.9,0.2-1.6,0.8-2.5,0.1c2.9-1.7,6.2-2.2,9.2-3.5    C249.2,81.7,250.4,81.3,250.7,82.8z"/>
		<path fill="#010202" d="M245.9,109.6c-0.4-0.9,0.6-1.5,0.5-2.3c0.5-0.5,0.9-1.1,1.7-1c2.5,0.5,4.9,0.9,7.4,1.4    c0,0,0.2,0.1,0.2,0.1c0,0.3,0,0.7,0,1c-0.2,0.2-0.4,0.4-0.7,0.6c-0.6-0.2-1.1-1.1-1.9-0.3c-0.3-0.1-0.7-0.1-1-0.2    c-1.8-1.2-3.2-1-4.4,0.8c0,0.1-0.1,0.2-0.3,0.2C246.9,109.8,246.4,109.7,245.9,109.6z"/>
		<path fill="#010202" d="M256.9,136.3c0.9-0.6,1.7,0.5,2.6,0.1c0.1,2,0.1,4.1-0.6,6c-0.2-0.8-0.4-1.5-0.6-2.4    c-0.4,0.6-0.6,1-0.9,1.4C256.8,139.7,258.1,137.9,256.9,136.3z"/>
		<path fill="#010202" d="M120.3,257.6c-1.1-2.9,0.3-5.6,0.3-8.5c0-0.6,0.4-1.3,1.1-1.3c0.9,0.1,1.4,0.7,1.3,1.7    c-1.1-0.6-1.7-0.6-1.7,1C121.2,252.9,121.1,255.3,120.3,257.6z"/>
		<path fill="#010202" d="M137.9,16.9c-0.9-3.8-0.6-7.7-0.5-11.5C138,9.2,138.7,13,137.9,16.9z"/>
		<path fill="#010202" d="M257.4,141.4c0.3-0.4,0.5-0.8,0.9-1.4c0.2,0.9,0.4,1.7,0.6,2.4c0,2,0.3,4.1-0.3,6.1c-1.3,0-1-1.2-1.4-1.9    C257.3,144.9,257.4,143.1,257.4,141.4z"/>
		<path fill="#010202" d="M241.5,87.9c0.5-1.9,1.3-1.5,2.1-0.3c0.5,0.8,0.3,2.1,1.7,2.1c0.9,0.4,1.1,1.2,0.8,2    c-0.1,0.4-0.9,0.8-1.3,0.7c-0.8-0.1-0.8-1.1-1.1-1.7C243.2,89.6,243.4,88,241.5,87.9z"/>
		<path fill="#010202" d="M22.9,98.3c-0.6-3.1,0.6-6.4-1.3-9.2C24.2,91.8,24.3,94.9,22.9,98.3z"/>
		<path fill="#010202" d="M57.3,228.8c-0.6,1.3-1.8,1.3-2.9,1.3c-0.9,0-1.8-0.1-2.3,0.9c-0.6,0-1-0.5-1.4-0.8c0-0.6,0-1.2,0-1.7    C52.9,228.8,55.1,229.4,57.3,228.8z"/>
		<path fill="#010202" d="M78.7,13.6c-0.2,1.3-2.2,0.7-2.2,2.2l0,0c-1.2,0-2.5-0.2-2.2,1.7c-0.7,1-1,0.1-1.3-0.3    c-0.4-0.7,0.1-1.2,0.8-1.5C75.5,15.1,76.8,13.8,78.7,13.6z"/>
		<path fill="#010202" d="M236.1,73.9c-0.4,0.2-0.8,0.4-1.2,0.6c-1.4-0.8-2-2.2-2.4-3.7c0.5-0.2,0.9-0.5,1.4-0.7    C235.2,71.1,235.9,72.3,236.1,73.9z"/>
		<path fill="#010202" d="M257.1,133.5c-2.9,0.5-5.7,0.1-8.5-0.9C251.5,132.3,254.4,132.5,257.1,133.5z"/>
		<path fill="#010202" d="M119.2,244.9c-0.2,2.3-0.3,4.6-0.5,6.9c0,0.6-0.1,1.3-0.8,1.5C117.9,250.4,117.3,247.5,119.2,244.9z"/>
		<path fill="#010202" d="M102.2,241.2c0,0.5,0,1,0,1.5c-1.8-0.1-3.6-0.2-5.4-0.3c-0.1-1.1,0.7-1.2,1.5-1.3c0.7,0,1.4,0.2,1.6-0.8    C101,239.9,101.6,240.7,102.2,241.2z"/>
		<path fill="#010202" d="M233.3,65.9c-2.6,0.7-5.2,0.2-7.8,0.3C228,65.1,230.6,65.5,233.3,65.9z"/>
		<path fill="#010202" d="M225.4,67.3c1.4,0.3,2.8,0.5,4.3,0.5c1.1,0,2.5,0.1,2.4,1.9c-1.1-1.2-2.5-1.1-4-1.1    C227.1,68.6,225.6,69.1,225.4,67.3z"/>
		<path fill="#010202" d="M177.8,12.6c0.6-0.3,0.7-0.9,0.6-1.5c0.2,0,0.4-0.1,0.5,0c1,0.3,1.9,0.7,2.1,1.8c0.1,0.2-0.3,0.7-0.5,0.8    C179.4,14,178.4,13.7,177.8,12.6z"/>
		<path fill="#010202" d="M255.5,107.6c-2.5-0.5-4.9-0.9-7.4-1.4C250.8,105.3,253.3,105.3,255.5,107.6z"/>
		<path fill="#010202" d="M9.3,104.2c2.4,0.3,4.8,0.4,6.8,2C13.8,105.7,11.3,105.8,9.3,104.2z"/>
		<path fill="#010202" d="M250.2,86.2c0-0.7,0.1-1.4,0.7-1.9c0.6,1.4,1.2,2.9,1.7,4.3c-0.4,0.4-0.8,0.8-1.2,1.2    C250.1,88.9,250.3,87.5,250.2,86.2z"/>
		<path fill="#010202" d="M251,157.2c0.8-0.1,1.5,0.1,1.8,0.8c0.4,1.1-0.8,1-1.2,1.5c-1,1-2.1,1.6-3.6,1.6c0.7-0.5,1.5-0.9,2.2-1.3    C251.4,159.1,251.8,158.3,251,157.2z"/>
		<path fill="#010202" d="M62.9,40.2c0.4-1.9-1.3-4.1,0.9-5.8c-0.6,1-0.4,2.1-0.1,3.1C63.9,38.6,64,39.5,62.9,40.2z"/>
		<path fill="#010202" d="M207.5,42.4c-0.4,1.2-2.8,0.2-2.6,2.2c-0.7-0.2-1.7-0.4-0.6-1.3C205.1,42.6,206.2,41.8,207.5,42.4z"/>
		<path fill="#010202" d="M16.1,159c1.5-1.3,3.3-1.2,5.1-1.1C19.6,158.9,17.9,159.2,16.1,159z"/>
		<path fill="#010202" d="M258.9,120.5c-0.6-1.6-0.6-3.3,0-4.9C259.5,117.3,259.6,118.9,258.9,120.5z"/>
		<path fill="#010202" d="M242.6,152.8c-0.2,1.7,1.5,1.7,2.2,2.7C243.2,155.3,241.1,155.5,242.6,152.8z"/>
		<path fill="#010202" d="M237.7,85.6c-0.6,1.1-1,2.3-0.6,3.6C235.2,87.4,235.3,87,237.7,85.6z"/>
		<path fill="#010202" d="M12.3,152.3c1.4,0,0.9-1.3,1.4-2c0.5,0.8,1,1.6,0.9,2.6c-1.1-0.2-1.2,0.7-1.5,1.4    C12.3,153.9,12.2,153.1,12.3,152.3z"/>
		<path fill="#010202" d="M217.7,57.4c1-0.1,1.1-1.2,1.8-1.5c0.4,0.8,0.4,1.6-0.4,2.1C218.7,58.2,217.9,58.4,217.7,57.4z"/>
		<path fill="#010202" d="M247.6,109.7c1.2-1.9,2.6-2.1,4.4-0.8C250.5,109,249,108.9,247.6,109.7z"/>
		<path fill="#010202" d="M205.2,44.7c1.3,0,2.6-0.1,3.9-0.1C207.8,44.6,206.6,46.8,205.2,44.7z"/>
		<path fill="#010202" d="M241.3,100.6c0.3,1,0,2.3,1.5,2.5c-0.3,0.9-1.1,1.4-1.4,0.3C241.2,102.6,238.9,101.6,241.3,100.6z"/>
		<path fill="#010202" d="M125.1,250.7c-0.3-1.1-0.5-2.1-0.8-3.2c1.1,1.1,1.8,2.5,2.1,4C126,251.3,125.5,251,125.1,250.7z"/>
		<path fill="#010202" d="M249.7,180.3c-0.1-0.9-0.8-1-1.5-1.1c0.1-1.6,1.2-1.2,1.9-0.8C251.2,179.1,250.5,179.8,249.7,180.3z"/>
		<path fill="#010202" d="M18.9,155.5c-1.3,0.7-2.5,2.2-3.9,0.2C16.3,156.3,17.6,155,18.9,155.5z"/>
		<path fill="#010202" d="M257.3,146.6c0.3,0.7,0,1.9,1.4,1.9c-0.3,1.1-1,0.9-1.5,0.4C256.2,148.2,256.7,147.4,257.3,146.6z"/>
		<path fill="#010202" d="M10.6,160.2c1-1.3,2.3-1.4,3.7-0.9C13.1,159.7,12,160.4,10.6,160.2z"/>
		<path fill="#010202" d="M217.3,54c0,1,0.1,2,0.1,3C215.9,56,216.3,55,217.3,54z"/>
		<path fill="#010202" d="M153,14.9c1.5-0.3,3-0.7,3.7,1.2C155.4,15.7,154.2,15.3,153,14.9z"/>
		<path fill="#010202" d="M134.9,16.3c0.9,0.4,1.9,0.6,3,0.5C136.7,17.6,135.5,18.5,134.9,16.3z"/>
		<path fill="#010202" d="M192.2,22.6c-0.5,1.2-1.4,2.1-2.5,2.6C189.9,23.7,190.9,23,192.2,22.6z"/>
		<path fill="#010202" d="M76.5,15.8c1.1,0.1,2.3,0.2,2.1,1.8c-0.8-0.5-1.7-0.8-2.7-0.3C76.1,16.8,76.3,16.3,76.5,15.8L76.5,15.8z"/>
		<path fill="#010202" d="M97.8,22.6c0.6-1.4,1.5-1.7,2.8-0.8C99.7,22.3,98.9,22.9,97.8,22.6z"/>
		<path fill="#010202" d="M211.9,41.1c-0.8,1-1.7,1.2-2.9,0.9C209.9,41.6,210.7,40.7,211.9,41.1z"/>
		<path fill="#010202" d="M76.5,15.8c-0.2,0.5-0.4,1-0.6,1.5c-0.5,0.1-1.1,0.2-1.6,0.2C74,15.6,75.3,15.8,76.5,15.8z"/>
		<path fill="#010202" d="M21,185.6c-0.3,0.7-0.9,1.1-1.4,0.5c-0.7-0.7-0.3-1.5,0.6-1.9C20.5,184.7,20.7,185.1,21,185.6z"/>
		<path fill="#010202" d="M43.5,209.1c0.4-1.1,1-2,2.3-1.9C45.3,208.1,44.6,208.8,43.5,209.1z"/>
		<path fill="#010202" d="M158.4,20.6c1-0.6,1.9,0.3,2.8,0.1C160.2,22.9,159.3,20.4,158.4,20.6z"/>
		<path fill="#010202" d="M238.2,89.2c0.4-1.1,1-1.8,2.2-1C239.7,88.6,239.2,89.5,238.2,89.2z"/>
		<path fill="#010202" d="M221.6,39.5c-0.8,0-1.6,0-2.3,0C220,38.4,220.8,38.4,221.6,39.5z"/>
		<path fill="#010202" d="M60.6,38.2c1,0.8,0.4,1.8,0.6,2.8C59.5,40.3,60.5,39.2,60.6,38.2z"/>
		<path fill="#010202" d="M245.8,155.7c0.9-0.2,1.8-0.2,2.3,0.8C247.1,156.9,246.5,156.1,245.8,155.7z"/>
		<path fill="#010202" d="M159,14.2c-0.9-0.5-1.5-1.1-1-2.2C158.6,12.6,159.3,13.2,159,14.2z"/>
		<path fill="#010202" d="M21.7,102.6c0-0.6-0.1-1.2-0.1-1.8c0.4-0.2,0.7-0.4,1.1-0.5C23,101.3,22.5,102,21.7,102.6z"/>
		<path fill="#010202" d="M242.6,183.6c-1-0.2-2.2-0.2-2.8-1.3C240.9,182.5,242,182.5,242.6,183.6z"/>
		<path fill="#010202" d="M85.3,25.1c-1.2-0.6-1.6-1.6-1.6-2.9C84.9,22.8,84.8,24.1,85.3,25.1z"/>
		<path fill="#010202" d="M215.7,40c-0.6,0.9-1.4,1.2-2.4,0.9C214.1,40.4,214.7,39.6,215.7,40z"/>
		<path fill="#010202" d="M34.2,212.7c-0.1,0.9,0.3,1.6,0.6,2.4C33.6,214.5,32.9,213.8,34.2,212.7z"/>
		<path fill="#010202" d="M20,107.4c0.3-1,0.1-2.4,1.5-2.9C21.3,105.7,21.1,106.8,20,107.4z"/>
		<path fill="#010202" d="M171.3,8.8c-1,0.5-1.7,0.1-2.3-0.8C169.9,7.9,170.6,8.5,171.3,8.8z"/>
		<path fill="#010202" d="M95.8,11.5c-1.1-0.9-1.3-1.8,0.3-2.3C95.5,9.9,96.1,10.7,95.8,11.5z"/>
		<path fill="#010202" d="M150.1,13.2c0,0.5-0.1,0.9-0.1,1.4c-0.5,0.2-0.9,0.2-1.1-0.4c0-0.6,0.1-1.2,0.1-1.9    C149.5,12.4,150,12.5,150.1,13.2z"/>
		<path fill="#010202" d="M205,27.8c1.1,0.4,1.5,1.1,1.1,2.2C205.7,29.3,205.4,28.5,205,27.8z"/>
		<path fill="#010202" d="M6.4,101.4c0.6,0.7,0.4,1.5,0.3,2.3C5.7,103,5.8,102.2,6.4,101.4z"/>
		<path fill="#010202" d="M246,184.1c0,0.5-0.1,1-0.6,1c-0.6,0-0.9-0.4-1.1-1C244.8,184.1,245.4,184.1,246,184.1z"/>
		<path fill="#010202" d="M217.3,50.2c1.1,0.6,1.1,1.4,0.3,2.3C217.5,51.7,217.4,51,217.3,50.2z"/>
		<path fill="#010202" d="M253,109c0.8-0.8,1.3,0.1,1.9,0.3c0,0.4,0.1,0.7,0.1,1.1C254.3,110,253.5,109.8,253,109z"/>
		<path fill="#010202" d="M81.1,23.4c0.8,0.3,1.7,0.5,0.9,1.7C81.4,24.7,80.9,24.3,81.1,23.4z"/>
		<path fill="#010202" d="M13.9,123.3c-0.8-0.9-1-1.7,0.4-2.2C14.3,121.8,15,122.7,13.9,123.3z"/>
		<path fill="#010202" d="M253.5,136.1c0.8-1.2,1.6-1,2.4,0C255.1,136.4,254.3,136.3,253.5,136.1z"/>
		<path fill="#010202" d="M17.5,106.5c1-0.4,1.5,0.2,2,1C18.5,107.8,18,107.2,17.5,106.5z"/>
		<path fill="#010202" d="M38.6,213c0.2-1,0.8-1.5,1.8-1.4C40,212.4,39.5,212.9,38.6,213z"/>
		<path fill="#010202" d="M82.2,26.2c0.9,0.3,1.5,0.9,1.2,2C82.8,27.6,82,27.2,82.2,26.2z"/>
		<path fill="#010202" d="M78.9,19c1.1,0.3,1.5,0.9,1.1,2C79.6,20.4,79.2,19.7,78.9,19z"/>
		<path fill="#010202" d="M243.8,69c-0.7-0.4-1.3-0.9-1-1.9C243.3,67.6,244.1,68,243.8,69z"/>
		<path fill="#010202" d="M243.3,99.6c-0.3,0.9-1,1.3-1.9,1C241.9,100,242.3,99.4,243.3,99.6z"/>
		<path fill="#010202" d="M123.3,250.4c0.4,0.3,0.8,0.5,1.1,0.8c0,0.4,0,0.8,0,1.2C123.8,251.9,123,251.5,123.3,250.4z"/>
		<path fill="#010202" d="M245.1,189.6c-0.6-1.1,0.2-1.4,0.9-1.7C246.3,188.7,245.7,189.1,245.1,189.6z"/>
		<path fill="#010202" d="M97.3,15.9c0.1-1.4,1-1.2,1.9-0.9C98.6,15.2,98,15.5,97.3,15.9z"/>
		<path fill="#010202" d="M248.6,182.5c-0.1-0.8-0.2-1.6,0.9-1.7C249.7,181.6,249.4,182.1,248.6,182.5z"/>
		<path fill="#010202" d="M156.7,16.3c1,0.2,1,1,0.9,1.8C157,17.6,156.6,17.1,156.7,16.3z"/>
		<path fill="#010202" d="M208.6,32.7c0-0.5,0.1-1.1,0.1-1.6C209.4,31.7,209.8,32.2,208.6,32.7z"/>
		<path fill="#010202" d="M245.8,152.9c-0.6,0.1-1.2,0.2-1.5-0.5C245,151.9,245.4,152.4,245.8,152.9z"/>
		<path fill="#010202" d="M245.1,86.9c-0.3-1.3,0.2-1.6,1.3-0.9C246,86.3,245.6,86.6,245.1,86.9z"/>
		<path fill="#010202" d="M5.1,145.7c0.1,0.8,0.2,1.5-0.7,1.8C4.1,146.7,4.3,146,5.1,145.7z"/>
		<path fill="#010202" d="M171.9,15.2c-0.1-0.6,0.1-1,0.7-1.2C172.8,14.8,172.3,15,171.9,15.2z"/>
		<path fill="#010202" d="M6.7,103.7c0.5-0.1,0.9,0,1.2,0.4C7.4,104.3,6.9,104.4,6.7,103.7z"/>
		<path fill="#010202" d="M215,48.1c0.5,0,0.8,0.3,0.8,0.8C215.2,49,215.1,48.5,215,48.1z"/>
		<path fill="#010202" d="M247.6,184.7c-0.1-0.7,0.1-1.2,0.9-1.2C248.6,184.3,248.2,184.6,247.6,184.7z"/>
		<path fill="#010202" d="M255.6,108.7c0-0.3,0-0.7,0-1c0.6,0.1,1,0.5,1,1.2C256.2,108.8,255.9,108.7,255.6,108.7z"/>
		<path fill="#010202" d="M246.4,186.9c-0.1-0.6,0.2-1,0.7-1.2C247.4,186.4,247,186.7,246.4,186.9z"/>
		<path fill="#010202" d="M245.9,109.6c0.5,0.1,0.9,0.2,1.4,0.3c-0.3,0.4-0.7,0.8-1,1.2c-0.1-0.1-0.3-0.2-0.4-0.3    C245.9,110.3,245.9,110,245.9,109.6L245.9,109.6z"/>
		<path fill="#010202" d="M206.2,31.1c0.7,0.2,0.8,0.7,0.7,1.3C206.4,32.1,205.8,31.8,206.2,31.1z"/>
		<path fill="#010202" d="M191.8,31.8c-0.8-0.2-0.8-0.8-0.5-1.5C191.8,30.7,191.9,31.2,191.8,31.8z"/>
		<path fill="#010202" d="M188.7,30.5c0.6,0.2,0.8,0.7,0.7,1.3C188.6,31.7,188.5,31.2,188.7,30.5z"/>
		<path fill="#010202" d="M208.2,29c-0.5-0.1-0.8-0.5-0.8-1C207.9,28.2,208.5,28.3,208.2,29z"/>
		<path fill="#010202" d="M248,85.8c0.4-0.9,0.8-1,1.2-0.1C248.9,85.7,248.5,85.8,248,85.8z"/>
		<path fill="#010202" d="M40.9,207.3c0,0.7-0.4,1.1-1.2,1C39.8,207.6,40.3,207.4,40.9,207.3z"/>
		<path fill="#010202" d="M38.7,209.1c-0.2,0.6-0.5,0.8-1.1,0.8C37.6,209.2,38.1,209.1,38.7,209.1z"/>
		<path fill="#010202" d="M216.1,49.1c0.5,0,0.8,0.2,0.9,0.8C216.4,50,216.2,49.7,216.1,49.1z"/>
		<path fill="#010202" d="M191.3,29.2c-0.3-0.7-0.2-1.2,0.6-1.4C192,28.4,191.7,28.8,191.3,29.2z"/>
		<path fill="#010202" d="M212.9,45.8c0.5,0,0.8,0.3,0.8,0.8C213.1,46.7,212.8,46.4,212.9,45.8z"/>
		<path fill="#010202" d="M160.1,17c-0.7-0.2-0.9-0.6-0.7-1.3C159.9,16,160.2,16.3,160.1,17z"/>
		<path fill="#010202" d="M45.3,214c0,0.4-0.1,0.7-0.6,0.8C44.1,214,44.7,214,45.3,214z"/>
		<path fill="#010202" d="M10.6,143.6c-0.5,0-0.9,0-1-0.7C10.4,142.4,10.2,143.5,10.6,143.6z"/>
		<path fill="#010202" d="M189.4,25.6c0.1,0.6-0.2,1-0.7,1.2C188.4,26.2,188.7,25.8,189.4,25.6z"/>
		<path fill="#010202" d="M60.5,220.1c-0.1,0.4-0.3,0.9-0.4,1.3c-0.4-0.3-0.7-0.6-0.6-1.1c0.3,0,0.7-0.1,1-0.1    C60.5,220.2,60.5,220.1,60.5,220.1z"/>
		<path fill="#010202" d="M202,25.2c0.7-0.2,1.1,0.2,1.2,0.9C202.5,26.1,202.2,25.7,202,25.2z"/>
		<path fill="#010202" d="M211.8,44.7c0.5,0,0.8,0.3,0.8,0.8C212,45.6,211.8,45.3,211.8,44.7z"/>
		<path fill="#010202" d="M202,23.5c-0.7,0.1-1-0.2-1.2-0.8C201.6,22.5,201.8,23,202,23.5z"/>
		<path fill="#010202" d="M13.2,147.5c-0.9-0.1-1-0.7-0.8-1.4C13,146.4,13.3,146.8,13.2,147.5z"/>
		<path fill="#010202" d="M223.1,41.1c-0.6-0.1-0.9-0.4-0.8-1C222.8,40.2,223.2,40.4,223.1,41.1z"/>
		<path fill="#010202" d="M96.2,240.4c-0.3,0.7-0.8,0.8-1.4,0.6C95.1,240.2,95.5,240,96.2,240.4z"/>
		<path fill="#010202" d="M83.3,20.8c-0.7-0.1-0.9-0.5-0.8-1.2C83,19.9,83.5,20.1,83.3,20.8z"/>
		<path fill="#010202" d="M98.4,20.2c-0.9-0.1-1.1-0.6-0.9-1.4C98.2,19,98.3,19.6,98.4,20.2z"/>
		<path fill="#010202" d="M155.4,5.4c-0.6,0-1.1-0.2-1.2-0.8C155,4.4,155.4,4.6,155.4,5.4z"/>
		<path fill="#010202" d="M195.3,37.8c0.7-0.2,1.2,0.1,1.3,0.8C195.9,38.8,195.6,38.4,195.3,37.8z"/>
		<path fill="#010202" d="M173.6,9.7c-0.6,0.2-1.1,0-1.3-0.7C173,8.8,173.4,9.1,173.6,9.7z"/>
		<path fill="#010202" d="M174.5,11.5c0.6-0.2,1.1-0.1,1.3,0.7C175.2,12.3,174.8,11.9,174.5,11.5z"/>
		<path fill="#010202" d="M190.1,33.3c0.8,0.1,1,0.5,0.9,1.2C190.5,34.3,190.2,33.9,190.1,33.3z"/>
		<path fill="#010202" d="M238.1,181.5c-0.6,0.1-0.9-0.2-1-0.7C237.7,180.5,237.9,180.9,238.1,181.5z"/>
		<path fill="#010202" d="M248.1,180.2c0.2,0.7,0,1.1-0.8,1.2C247.1,180.8,247.5,180.5,248.1,180.2z"/>
		<path fill="#010202" d="M128.2,254.4c-0.8-0.1-0.8-0.6-0.7-1.2C128.1,253.3,128.5,253.7,128.2,254.4z"/>
		<path fill="#010202" d="M130.3,256.3c-0.1,0.4-0.3,0.7-0.7,0.5c-0.4-0.1-0.5-0.5-0.4-0.9C129.5,256.1,129.9,256.2,130.3,256.3z"/>
		<path fill="#010202" d="M60.5,220.2c-0.3,0-0.7,0.1-1,0.1c-0.1-0.2-0.2-0.5-0.4-0.7c0.4-0.4,0.7-0.8,1.1-1.2    C60.9,218.9,61,219.5,60.5,220.2z"/>
		<path fill="#010202" d="M157.7,19.6c0.1,0.3,0.2,0.5,0.3,0.8C157.6,20.3,157.6,20,157.7,19.6z"/>
		<path fill="#010202" d="M158,10.9c-0.1-0.3-0.2-0.5-0.2-0.8C158.1,10.3,158.1,10.6,158,10.9z"/>
		<path fill="#010202" d="M12.4,121.1c-0.2-0.6-0.4-1.3,0.4-1.7C14,120.3,13,120.7,12.4,121.1z"/>
		<path fill="#010202" d="M240.6,69.6c-0.1-0.4-0.1-0.8-0.2-1.1c0.5-0.1,0.9,0,0.9,0.6C241.3,69.4,241,69.6,240.6,69.6z"/>
		<path fill="#010202" d="M19.4,90.9c-1.1-0.4-2.3-0.3-3.1-1.3C17.7,89.4,18.8,89.5,19.4,90.9z"/>
		<path fill="#010202" d="M20.4,101.3c-0.1-0.7,0.2-1.2,0.8-1.6c0.5,0.2,0.4,0.7,0.5,1.1C21.2,101,20.8,101.1,20.4,101.3z"/>
		<path fill="#010202" d="M14.8,89.5c-0.3,0.6-0.8,0.8-1.5,0.7C13.6,89.4,14.1,89.2,14.8,89.5z"/>
		<path fill="#010202" d="M9.5,157.2c0.3-0.5,0.7-0.6,1.2-0.3C10.5,157.7,10.2,158,9.5,157.2z"/>
		<path fill="#010202" d="M15.1,102.9c1-0.1,1.8,0.3,2.5,0.8C16.6,104,15.4,104.6,15.1,102.9z"/>
		<path fill="#010202" d="M11.1,101.6c0.7-0.2,1.2,0,1.4,0.7C11.8,102.5,11.4,102.3,11.1,101.6z"/>
		<path fill="#010202" d="M245.9,109.6c0,0.4,0,0.7,0,1.1c-0.4-0.1-0.7-0.3-0.6-0.7C245.4,109.8,245.7,109.7,245.9,109.6z"/>
	</g>
</g>
<g id="Capa_2">
	<g>
		<path fill="#6D6A6C" d="M104.5,166.1c-2.5-9.6-4.6-19.2-6.8-28.9c-1.7-7.6-3.7-15.2-5.1-22.8c-1.3-7-3.2-14-4.8-20.9    c-1-4.3-2.2-8.7-3-13c-0.8-4.1-2.2-8-2.8-12.2c-0.2-1.6,0.2-2.2,1.5-2.5c8.1-2.3,16.1-4.8,24.3-7c11.3-3,22.5-6.6,33.8-9.5    c6.7-1.8,13.3-3.8,20-5.8c0.3-0.1,0.7-0.1,1.4-0.2c-1.2,4.1-2.3,7.9-3.4,11.7c-1.9,6.5-3.6,13.1-5.5,19.6    c-1.3,4.3-2.6,8.5-3.8,12.8c-2.4,8.8-5,17.6-7.6,26.4c-1.7,5.6-3.4,11.3-5.1,16.9c-0.3,1-0.5,1.9-0.2,2.9    C126.5,144.4,115.8,155.6,104.5,166.1z"/>
		<path fill="#6D6A6C" d="M105.5,172.6c1.9-2.7,4.5-4.7,6.8-7c7.1-7,14.2-14,21.3-21c-2.3,7.9-4.6,15.8-6.9,23.6    c-2.2,7.3-4.4,14.6-6.6,21.9c-1.9,6.4-3.6,12.9-5.4,19.5c-1.7-2.4-1.7-5.4-2.4-8.1c-2.2-9.1-4-18.2-6-27.3    C106.2,173.6,105.8,173.1,105.5,172.6z"/>
		<path fill="#6D6A6C" d="M115.7,212.2c1,4.5,2.1,9,3.1,13.4c3.2-0.6,6.4-1.1,9.6-1.7C124.2,220.1,119.9,216.1,115.7,212.2z"/>
		<path fill="#6D6A6C" d="M152.3,196.5c2.4,0,4.9,0,7.3-0.1c-0.6,3.3-1.3,6.6-1.9,9.9C155.9,203.1,154.1,199.8,152.3,196.5z"/>
		<path fill="#6D6A6C" d="M162.2,196.7c2.3,0,4.7,0,7,0c-2.6,3.1-5.3,6.2-7.9,9.3C161.6,202.9,161.9,199.8,162.2,196.7z"/>
	</g>
</g>
</svg>