<svg xmlns="http://www.w3.org/2000/svg" xmlns:xlink="http://www.w3.org/1999/xlink" width="500" viewBox="0 0 375 374.999991" height="500" preserveAspectRatio="xMidYMid meet"><defs><clipPath id="id1"><path d="M 168 44.691406 L 195 44.691406 L 195 63 L 168 63 Z M 168 44.691406 " clip-rule="nonzero"></path></clipPath><clipPath id="id2"><path d="M 179 313 L 200 313 L 200 330.441406 L 179 330.441406 Z M 179 313 " clip-rule="nonzero"></path></clipPath><clipPath id="id3"><path d="M 45.210938 164 L 64 164 L 64 188 L 45.210938 188 Z M 45.210938 164 " clip-rule="nonzero"></path></clipPath><clipPath id="id4"><path d="M 45.210938 190 L 63 190 L 63 195 L 45.210938 195 Z M 45.210938 190 " clip-rule="nonzero"></path></clipPath><clipPath id="id5"><path d="M 171 313 L 181 313 L 181 330.441406 L 171 330.441406 Z M 171 313 " clip-rule="nonzero"></path></clipPath><clipPath id="id6"><path d="M 312 189 L 329.457031 189 L 329.457031 197 L 312 197 Z M 312 189 " clip-rule="nonzero"></path></clipPath><clipPath id="id7"><path d="M 326 193 L 329.457031 193 L 329.457031 201 L 326 201 Z M 326 193 " clip-rule="nonzero"></path></clipPath></defs><path fill="#000101" d="M 256.636719 168.894531 C 253.316406 167.121094 251.878906 164.019531 249.554688 161.691406 C 248.558594 160.695312 247.898438 158.8125 246.570312 159.253906 C 245.574219 159.589844 245.132812 161.472656 244.800781 162.910156 C 244.578125 163.910156 244.023438 164.796875 243.691406 165.683594 C 243.25 167.234375 242.035156 166.789062 240.925781 166.789062 C 239.488281 166.789062 239.269531 165.902344 239.15625 164.796875 C 238.9375 161.914062 240.375 159.476562 240.925781 156.816406 C 241.480469 154.492188 242.367188 152.273438 243.03125 150.058594 C 243.582031 148.066406 244.6875 147.953125 246.015625 149.394531 C 247.34375 150.835938 248.558594 152.273438 249.777344 153.714844 C 250.328125 154.269531 250.660156 155.265625 251.65625 154.824219 C 252.542969 154.492188 252.210938 153.605469 252.210938 152.941406 C 252.433594 147.621094 252.761719 142.191406 252.984375 136.875 C 252.984375 136.097656 252.652344 135.101562 253.757812 134.769531 C 254.644531 134.546875 254.867188 135.433594 255.308594 135.988281 C 261.058594 141.417969 266.148438 147.398438 270.351562 153.9375 C 275.550781 161.914062 279.421875 170.445312 279.421875 180.195312 C 279.421875 198.476562 262.167969 210.222656 245.464844 204.792969 C 240.816406 203.242188 237.167969 199.917969 234.179688 196.039062 C 228.429688 188.617188 225.882812 180.085938 225.21875 170.890625 C 225.109375 170.003906 225.109375 169.007812 225.664062 168.230469 C 226.4375 167.34375 226.988281 165.902344 228.429688 166.457031 C 229.644531 166.902344 230.640625 167.785156 230.640625 169.339844 C 230.53125 172.664062 230.863281 175.984375 231.855469 179.199219 C 234.070312 186.84375 237.609375 193.601562 244.355469 198.035156 C 253.09375 203.6875 265.152344 199.808594 270.574219 191.71875 C 275.550781 184.40625 274.664062 176.761719 271.898438 169.007812 C 269.246094 161.914062 265.042969 155.710938 260.394531 149.726562 C 259.84375 148.953125 259.289062 147.398438 257.960938 147.953125 C 256.746094 148.398438 257.300781 149.949219 257.300781 150.945312 C 257.410156 156.816406 257.519531 162.578125 256.636719 168.894531 Z M 256.636719 168.894531 " fill-opacity="1" fill-rule="nonzero"></path><path fill="#000101" d="M 157.632812 226.511719 C 170.132812 214.875 181.96875 202.578125 194.027344 190.390625 C 197.566406 187.507812 200.773438 184.074219 205.089844 182.191406 C 209.070312 180.527344 212.941406 181.414062 215.707031 184.628906 C 219.359375 188.949219 221.015625 194.378906 223.117188 199.476562 C 225.441406 204.90625 226.546875 210.777344 229.203125 216.09375 C 230.085938 217.867188 228.871094 219.085938 227.542969 219.75 C 225.882812 220.636719 224.667969 219.53125 224.113281 218.199219 C 222.675781 214.65625 221.347656 210.886719 220.132812 207.230469 C 218.03125 200.914062 215.816406 194.601562 212.277344 188.839844 C 210.839844 186.621094 208.515625 186.070312 205.972656 187.730469 C 199.890625 191.832031 194.578125 196.925781 189.824219 202.46875 C 181.96875 210.222656 174.003906 217.867188 166.261719 225.734375 C 163.71875 228.285156 160.839844 230.5 158.738281 233.492188 C 154.535156 237.035156 150.332031 240.691406 146.128906 244.238281 C 139.050781 250.441406 131.96875 256.648438 124.78125 262.742188 C 123.675781 263.628906 122.234375 264.957031 120.464844 263.628906 C 118.695312 262.296875 118.917969 260.527344 121.351562 258.421875 C 127.324219 253.324219 133.296875 248.335938 139.269531 243.242188 C 145.464844 238.035156 151.660156 232.382812 157.632812 226.511719 Z M 157.632812 226.511719 " fill-opacity="1" fill-rule="nonzero"></path><path fill="#000101" d="M 95.910156 83.914062 C 96.242188 88.457031 97.347656 91.777344 98.453125 95.101562 C 98.894531 96.542969 99.558594 97.984375 98.5625 99.3125 C 97.570312 100.53125 96.242188 99.976562 94.804688 99.867188 C 90.933594 99.425781 87.503906 97.097656 83.078125 97.652344 C 85.402344 99.976562 87.722656 102.195312 89.9375 104.519531 C 90.710938 105.296875 92.148438 105.960938 90.601562 107.402344 C 89.605469 108.289062 89.273438 108.730469 88.054688 107.511719 C 85.289062 104.519531 82.191406 101.75 79.207031 98.871094 C 78.320312 97.984375 77.324219 96.988281 78.101562 95.769531 C 78.875 94.550781 79.871094 93.664062 81.640625 93.882812 C 84.847656 94.214844 87.835938 95.324219 90.933594 96.101562 C 91.375 96.210938 91.816406 96.652344 92.371094 96.652344 C 93.476562 96.652344 94.691406 97.761719 95.46875 96.875 C 96.351562 95.988281 95.246094 94.882812 95.023438 93.773438 C 94.25 90.339844 93.476562 86.902344 92.257812 83.578125 C 91.484375 81.585938 93.144531 80.367188 94.472656 79.371094 C 96.019531 78.152344 96.574219 79.921875 97.347656 80.589844 C 100.003906 83.027344 102.546875 85.574219 105.203125 88.121094 C 106.195312 89.121094 107.523438 90.226562 106.195312 91.667969 C 104.757812 93.21875 103.761719 91.777344 102.769531 90.671875 C 100.777344 88.566406 98.675781 86.570312 95.910156 83.914062 Z M 95.910156 83.914062 " fill-opacity="1" fill-rule="nonzero"></path><path fill="#000101" d="M 65.269531 248.117188 C 67.703125 246.34375 70.578125 245.789062 73.34375 244.792969 C 74.230469 244.460938 75.335938 243.128906 76.109375 244.902344 C 76.773438 246.566406 75.667969 247.339844 74.339844 247.894531 C 70.910156 249.222656 67.480469 250.664062 64.050781 251.882812 C 63.054688 252.214844 61.839844 254.210938 60.734375 252.214844 C 59.847656 250.554688 58.851562 248.78125 60.734375 246.785156 C 63.277344 244.015625 65.378906 240.914062 67.589844 238.035156 C 68.917969 236.261719 68.476562 235.597656 66.375 235.484375 C 62.613281 235.152344 58.742188 234.488281 54.980469 234.265625 C 52.546875 234.15625 52.4375 232.160156 51.882812 230.722656 C 51.21875 228.949219 52.878906 228.835938 54.097656 228.285156 C 57.746094 226.84375 61.285156 225.292969 64.824219 223.742188 C 65.820312 223.296875 66.816406 222.855469 67.589844 224.292969 C 68.476562 225.957031 67.148438 226.179688 66.265625 226.621094 C 63.941406 227.730469 61.730469 228.726562 59.40625 229.722656 C 58.851562 230.054688 57.96875 230.277344 58.1875 231.164062 C 58.410156 232.050781 59.183594 231.941406 59.960938 232.050781 C 63.054688 232.382812 66.152344 232.605469 69.25 233.160156 C 72.679688 233.710938 73.234375 235.484375 71.019531 238.144531 C 68.808594 240.914062 66.597656 243.574219 64.382812 246.34375 C 63.386719 246.785156 62.945312 247.5625 63.71875 248.449219 C 64.273438 249.335938 64.9375 248.890625 65.269531 248.117188 Z M 65.269531 248.117188 " fill-opacity="1" fill-rule="nonzero"></path><g clip-path="url(#id1)"><path fill="#000101" d="M 191.148438 60.535156 C 191.148438 57.652344 191.039062 54.882812 190.929688 52.003906 C 190.929688 51.335938 191.261719 50.453125 190.265625 50.230469 C 189.492188 50.117188 189.160156 50.785156 188.828125 51.449219 C 187.390625 54.441406 185.953125 57.429688 184.292969 60.3125 C 182.855469 62.972656 180.972656 63.082031 179.3125 60.535156 C 177.542969 57.875 175.886719 55.105469 174.226562 52.445312 C 173.894531 51.890625 173.5625 51.003906 172.789062 51.117188 C 171.683594 51.335938 172.011719 52.335938 172.011719 53.109375 C 172.011719 55.660156 172.125 58.207031 172.234375 60.644531 C 172.234375 61.640625 172.234375 62.527344 170.90625 62.640625 C 169.578125 62.75 169.136719 61.972656 169.027344 60.753906 C 168.804688 56.765625 168.585938 52.667969 168.363281 48.679688 C 168.363281 47.570312 167.589844 46.019531 169.46875 45.796875 C 171.128906 45.574219 172.898438 45.023438 174.003906 47.015625 C 175.886719 50.230469 177.875 53.332031 179.867188 56.433594 C 181.195312 58.648438 181.96875 58.539062 183.074219 56.324219 C 184.734375 53.222656 186.613281 50.230469 187.832031 47.015625 C 188.828125 44.355469 190.820312 44.355469 192.699219 44.800781 C 194.691406 45.242188 193.472656 47.128906 193.695312 48.347656 C 193.582031 52.667969 193.25 56.878906 194.246094 61.085938 C 193.363281 61.308594 192.257812 61.085938 191.148438 60.535156 Z M 191.148438 60.535156 " fill-opacity="1" fill-rule="nonzero"></path></g><path fill="#000101" d="M 288.050781 262.628906 C 288.824219 262.519531 289.265625 263.074219 289.820312 263.515625 C 293.140625 266.289062 296.347656 269.167969 299.664062 271.9375 C 300.328125 272.492188 300.769531 273.265625 300.328125 274.042969 C 299.664062 275.152344 298.78125 276.039062 297.230469 276.039062 C 292.476562 276.257812 287.71875 276.589844 283.074219 276.925781 C 282.1875 277.035156 281.082031 276.589844 280.640625 277.699219 C 280.195312 278.808594 281.414062 279.027344 282.078125 279.582031 C 284.066406 281.246094 285.949219 283.019531 287.828125 284.902344 C 288.714844 285.789062 289.488281 286.453125 288.160156 287.78125 C 286.832031 289.113281 286.28125 288.113281 285.507812 287.449219 C 282.519531 284.789062 279.3125 282.242188 276.4375 279.472656 C 275.773438 278.808594 274.003906 278.476562 274.777344 277.035156 C 275.441406 275.925781 276.105469 274.597656 277.875 274.484375 C 281.746094 274.375 285.507812 274.152344 289.378906 273.933594 C 291.148438 273.820312 293.800781 274.484375 294.355469 273.046875 C 294.910156 271.496094 292.253906 270.609375 291.148438 269.277344 C 289.820312 267.726562 287.828125 267.171875 286.722656 265.402344 C 285.617188 263.847656 286.390625 263.074219 288.050781 262.628906 Z M 288.050781 262.628906 " fill-opacity="1" fill-rule="nonzero"></path><path fill="#000101" d="M 313.933594 214.988281 C 313.601562 214.875 313.160156 214.875 312.828125 214.765625 C 312.054688 213.65625 310.171875 213.65625 310.394531 211.773438 C 310.835938 210.667969 311.5 210.886719 312.273438 211.441406 C 312.605469 212.21875 313.269531 212.105469 313.933594 211.996094 C 317.917969 211.996094 321.457031 213.988281 325.21875 214.988281 C 327.207031 215.542969 326.324219 217.425781 325.550781 218.753906 C 324.664062 220.085938 323.117188 220.527344 321.898438 221.304688 C 318.46875 223.1875 315.039062 224.960938 311.613281 226.84375 C 311.058594 227.175781 310.394531 227.507812 310.394531 228.0625 C 310.394531 228.835938 311.28125 228.726562 311.832031 228.949219 C 314.488281 229.722656 317.253906 230.5 319.90625 231.273438 C 321.234375 231.605469 322.230469 232.273438 321.898438 233.710938 C 321.566406 235.375 320.351562 234.710938 319.246094 234.597656 C 315.039062 234.15625 311.167969 232.050781 307.078125 231.273438 C 305.085938 230.832031 304.644531 229.613281 305.75 227.949219 C 306.300781 227.0625 306.855469 226.398438 307.851562 225.84375 C 310.726562 224.40625 313.601562 222.632812 316.480469 221.082031 C 318.136719 221.082031 319.355469 220.417969 320.460938 219.308594 C 320.902344 218.753906 322.230469 218.867188 321.789062 217.648438 C 321.457031 216.761719 320.570312 216.648438 319.796875 216.761719 C 318.691406 216.425781 317.472656 216.648438 316.480469 215.984375 C 315.925781 214.765625 314.929688 214.765625 313.933594 214.988281 Z M 313.933594 214.988281 " fill-opacity="1" fill-rule="nonzero"></path><path fill="#000101" d="M 155.089844 309.71875 C 162.167969 311.269531 166.371094 316.148438 163.605469 322.460938 C 162.609375 324.679688 160.839844 326.117188 158.738281 326.5625 C 152.875 327.558594 147.015625 327.226562 142.480469 322.683594 C 140.378906 320.578125 139.714844 317.585938 140.597656 314.816406 C 141.59375 311.9375 143.585938 309.832031 146.902344 309.5 C 147.566406 309.71875 148.121094 309.609375 148.453125 308.832031 C 149.78125 308.5 151.21875 308.5 152.546875 308.722656 C 152.324219 309.832031 151.4375 309.609375 150.773438 309.609375 C 149.78125 309.609375 149.003906 309.71875 149.117188 311.050781 C 144.027344 313.042969 141.039062 318.363281 147.015625 323.015625 C 149.890625 325.34375 155.640625 325.785156 158.296875 323.792969 C 163.386719 320.136719 161.949219 314.59375 155.199219 311.492188 C 155.089844 310.828125 155.089844 310.273438 155.089844 309.71875 Z M 155.089844 309.71875 " fill-opacity="1" fill-rule="nonzero"></path><path fill="#000101" d="M 209.84375 327.226562 C 210.507812 323.347656 211.171875 319.46875 211.835938 315.59375 C 212.058594 314.261719 212.277344 313.042969 212.5 311.714844 C 212.71875 309.5 215.597656 308.058594 217.253906 309.386719 C 221.460938 312.710938 225.664062 316.257812 229.753906 319.804688 C 230.308594 320.246094 231.195312 320.578125 230.53125 321.355469 C 229.976562 322.019531 229.203125 322.683594 228.207031 322.242188 C 227.875 322.128906 227.542969 321.90625 227.101562 321.6875 C 225.664062 320.800781 225 318.472656 223.007812 319.136719 C 220.019531 320.023438 217.144531 321.132812 214.378906 322.460938 C 213.382812 322.90625 213.273438 324.34375 213.273438 325.453125 C 213.164062 326.5625 213.273438 327.667969 212.058594 328.335938 C 211.503906 328.554688 211.171875 329.109375 210.398438 328.886719 C 209.734375 328.445312 209.84375 327.78125 209.84375 327.226562 Z M 215.816406 311.824219 C 215.265625 313.929688 214.492188 315.925781 214.492188 318.140625 C 214.492188 319.136719 214.710938 320.46875 215.816406 319.691406 C 217.253906 318.695312 218.914062 318.804688 220.242188 317.808594 C 221.460938 316.921875 221.460938 316.367188 220.464844 315.59375 C 218.914062 314.375 217.476562 313.15625 215.816406 311.824219 Z M 215.816406 311.824219 " fill-opacity="1" fill-rule="nonzero"></path><g clip-path="url(#id2)"><path fill="#000101" d="M 181.859375 321.242188 C 182.300781 321.796875 182.632812 322.460938 183.074219 323.015625 C 182.964844 323.679688 182.964844 324.234375 183.847656 324.347656 C 184.179688 324.898438 184.511719 325.453125 184.84375 326.117188 C 184.84375 326.5625 184.957031 326.894531 185.289062 327.117188 C 185.730469 327.226562 186.0625 327.003906 186.0625 326.5625 C 188.054688 323.015625 190.15625 319.582031 192.035156 315.925781 C 193.140625 313.820312 194.578125 313.265625 196.679688 313.488281 C 198.894531 313.710938 198.449219 315.59375 198.671875 316.921875 C 199.226562 320.46875 198.671875 324.234375 199.667969 327.78125 C 200 328.777344 200.332031 330.105469 198.5625 330.21875 C 197.011719 330.441406 195.90625 329.886719 195.90625 328.113281 C 195.90625 325.34375 195.796875 322.683594 195.242188 319.914062 C 195.132812 319.25 195.355469 318.25 194.46875 318.03125 C 193.363281 317.808594 193.25 318.917969 192.921875 319.582031 C 191.261719 322.351562 189.824219 325.34375 188.164062 328.113281 C 186.503906 330.992188 184.292969 330.882812 182.632812 328.003906 C 181.527344 326.007812 180.421875 324.011719 179.3125 322.019531 C 179.3125 321.574219 179.3125 321.132812 179.3125 320.6875 C 179.535156 320.46875 179.757812 320.246094 179.976562 320.136719 C 180.863281 320.578125 181.304688 320.910156 181.859375 321.242188 Z M 181.859375 321.242188 " fill-opacity="1" fill-rule="nonzero"></path></g><path fill="#000101" d="M 74.449219 119.367188 C 76 119.367188 77.4375 119.367188 78.984375 119.367188 C 79.871094 119.367188 80.976562 119.035156 81.085938 120.363281 C 81.199219 121.363281 80.3125 121.917969 79.539062 122.359375 C 79.316406 122.46875 78.984375 122.46875 78.652344 122.582031 C 77.105469 122.914062 75.113281 121.804688 74.117188 123.46875 C 72.457031 126.238281 71.019531 129.007812 69.804688 132 C 69.25 133.441406 70.910156 134.660156 71.683594 135.988281 C 72.457031 137.429688 72.457031 138.535156 71.242188 139.421875 C 69.472656 140.53125 69.582031 138.648438 69.140625 137.871094 C 66.484375 133.660156 63.832031 129.449219 61.285156 125.128906 C 60.179688 123.355469 61.285156 121.03125 63.277344 120.917969 C 66.929688 120.585938 70.578125 118.8125 74.449219 119.367188 Z M 67.480469 122.691406 C 66.375 123.023438 64.714844 121.917969 63.832031 123.355469 C 63.167969 124.355469 64.496094 124.90625 64.9375 125.574219 C 65.933594 126.902344 66.375 129.449219 68.035156 129.230469 C 69.804688 128.898438 69.914062 126.238281 70.910156 124.6875 C 72.015625 122.914062 71.019531 122.582031 69.472656 122.691406 C 68.917969 122.691406 68.253906 122.691406 67.480469 122.691406 Z M 67.480469 122.691406 " fill-opacity="1" fill-rule="nonzero"></path><g clip-path="url(#id3)"><path fill="#000101" d="M 57.414062 179.089844 C 56.972656 180.75 57.96875 181.746094 59.296875 182.414062 C 60.289062 182.964844 61.285156 183.410156 61.949219 184.40625 C 62.503906 185.292969 62.613281 186.402344 61.839844 187.175781 C 61.066406 187.953125 60.402344 187.066406 59.738281 186.621094 C 55.644531 183.742188 51.664062 180.75 47.679688 177.757812 C 45.136719 175.765625 45.46875 172.996094 48.34375 171.554688 C 52.546875 169.449219 56.75 167.453125 61.066406 165.460938 C 61.839844 165.128906 62.945312 164.351562 63.5 165.570312 C 63.941406 166.566406 64.050781 168.007812 62.613281 168.339844 C 57.855469 169.339844 57.96875 173.105469 57.96875 176.652344 C 56.308594 177.203125 56.53125 178.089844 57.414062 179.089844 Z M 55.753906 176.652344 C 56.417969 176.097656 57.527344 175.765625 56.199219 174.765625 C 56.199219 171.554688 55.753906 171.109375 53.210938 172.441406 C 51.773438 173.105469 49.449219 173.328125 49.339844 174.878906 C 49.230469 176.539062 51.773438 176.871094 52.988281 177.980469 C 55.203125 179.976562 55.535156 178.535156 55.753906 176.652344 Z M 55.753906 176.652344 " fill-opacity="1" fill-rule="nonzero"></path></g><path fill="#000101" d="M 275.109375 296.203125 C 275.109375 299.96875 272.5625 301.410156 269.910156 300.300781 C 265.375 298.417969 260.839844 296.644531 256.304688 294.875 C 255.417969 294.539062 254.535156 294.207031 254.644531 293.101562 C 254.753906 291.882812 255.859375 291.882812 256.746094 291.769531 C 257.300781 291.769531 258.074219 291.660156 258.515625 291.992188 C 261.945312 294.761719 264.15625 291.992188 266.589844 290.21875 C 267.363281 289.664062 268.027344 288.667969 268.914062 288.226562 C 270.90625 287.226562 271.015625 285.675781 270.460938 283.902344 C 270.242188 283.238281 270.019531 282.464844 270.128906 281.800781 C 270.242188 280.691406 271.015625 279.695312 271.898438 279.582031 C 273.117188 279.472656 272.785156 280.800781 273.007812 281.6875 C 274.113281 286.894531 273.449219 292.101562 275.109375 296.203125 Z M 270.683594 289.664062 C 268.691406 291.21875 267.03125 292.4375 265.375 293.765625 C 264.488281 294.539062 264.820312 295.316406 265.707031 295.539062 C 267.808594 295.980469 269.578125 297.53125 271.789062 297.644531 C 272.453125 294.984375 270.792969 292.769531 270.683594 289.664062 Z M 270.683594 289.664062 " fill-opacity="1" fill-rule="nonzero"></path><path fill="#000101" d="M 111.617188 87.015625 C 111.394531 88.234375 110.621094 88.234375 109.625 87.902344 C 109.515625 86.902344 110.066406 85.683594 108.960938 84.796875 C 108.078125 79.921875 108.519531 74.9375 108.519531 70.0625 C 108.519531 68.179688 110.621094 66.847656 112.171875 67.515625 C 117.8125 69.953125 123.230469 72.722656 128.875 75.492188 C 127.101562 78.039062 125.554688 78.371094 123.453125 76.601562 C 121.683594 75.046875 119.914062 75.382812 118.363281 76.820312 C 116.59375 78.484375 114.492188 79.371094 112.390625 80.589844 C 110.179688 82.472656 111.949219 84.910156 111.617188 87.015625 Z M 112.171875 70.394531 C 110.730469 71.058594 111.394531 72.167969 111.507812 72.941406 C 111.726562 74.605469 110.730469 77.152344 112.171875 77.597656 C 114.050781 78.261719 115.488281 75.824219 117.148438 74.828125 C 117.589844 74.496094 118.144531 74.164062 117.699219 73.71875 C 116.261719 72.167969 114.050781 71.613281 112.171875 70.394531 Z M 112.171875 70.394531 " fill-opacity="1" fill-rule="nonzero"></path><path fill="#000101" d="M 258.074219 84.464844 C 256.304688 83.46875 254.3125 82.804688 253.316406 80.808594 C 253.425781 80.035156 253.207031 79.589844 252.320312 79.480469 C 251.988281 78.925781 251.769531 78.371094 251.4375 77.820312 C 251.546875 77.152344 251.324219 76.601562 250.660156 76.378906 C 250.332031 75.046875 250.332031 73.609375 250.660156 72.277344 C 251.324219 72.058594 251.546875 71.613281 251.4375 70.949219 C 251.4375 70.726562 251.546875 70.617188 251.769531 70.503906 C 253.09375 69.839844 254.089844 68.953125 254.535156 67.625 C 257.742188 65.296875 260.949219 66.183594 264.046875 67.734375 C 264.15625 68.402344 264.601562 68.84375 265.375 68.621094 C 268.140625 69.398438 269.6875 71.613281 271.347656 73.609375 C 271.347656 74.273438 271.570312 74.605469 272.230469 74.714844 C 272.34375 75.492188 272.5625 76.265625 272.675781 76.933594 C 272.675781 77.484375 272.5625 78.152344 272.5625 78.703125 C 271.789062 79.480469 271.125 79.371094 270.683594 78.261719 C 270.792969 77.597656 270.683594 77.042969 269.910156 76.820312 C 269.910156 76.378906 269.796875 76.046875 269.796875 75.601562 C 270.128906 74.382812 269.796875 73.609375 268.582031 73.164062 C 267.917969 72.5 267.253906 71.835938 266.589844 71.28125 C 266.480469 70.394531 266.039062 70.0625 265.261719 70.285156 C 263.9375 70.503906 263.273438 69.175781 262.054688 68.953125 C 258.515625 68.402344 256.082031 69.507812 254.089844 73.164062 C 253.207031 73.386719 253.09375 74.050781 253.425781 74.714844 C 253.425781 75.160156 253.425781 75.492188 253.425781 75.933594 C 253.09375 76.710938 253.09375 77.265625 253.980469 77.597656 C 255.085938 80.476562 257.628906 82.027344 260.175781 83.359375 C 261.835938 84.246094 263.9375 84.355469 265.59375 83.136719 C 267.253906 81.917969 268.359375 82.695312 269.023438 84.023438 C 269.6875 85.574219 267.917969 85.90625 267.253906 86.128906 C 264.488281 87.238281 261.835938 86.792969 259.402344 85.019531 C 259.402344 84.464844 258.847656 84.246094 258.074219 84.464844 Z M 258.074219 84.464844 " fill-opacity="1" fill-rule="nonzero"></path><path fill="#000101" d="M 280.640625 86.792969 C 281.855469 86.238281 283.183594 86.460938 284.511719 86.238281 C 285.394531 86.238281 286.28125 86.238281 287.054688 86.238281 C 287.277344 86.460938 287.496094 86.683594 287.828125 86.902344 C 287.828125 87.570312 288.050781 87.902344 288.714844 88.011719 C 288.601562 92.332031 286.945312 96.210938 285.949219 100.3125 C 285.617188 101.640625 285.175781 102.96875 284.730469 104.300781 C 283.957031 104.742188 283.734375 105.960938 282.742188 105.960938 C 282.628906 105.851562 282.519531 105.628906 282.410156 105.519531 C 282.410156 104.410156 282.296875 103.300781 282.296875 102.195312 C 282.410156 101.640625 282.519531 101.085938 282.628906 100.53125 C 283.515625 99.535156 283.40625 98.648438 282.296875 97.984375 C 282.078125 97.984375 281.964844 97.761719 281.964844 97.652344 C 281.964844 97.097656 281.632812 96.765625 280.972656 96.765625 C 280.75 96.765625 280.75 96.652344 280.640625 96.542969 C 280.640625 95.988281 280.308594 95.65625 279.753906 95.65625 C 278.980469 95.433594 278.539062 94.769531 278.207031 94.105469 C 278.207031 93.550781 277.875 93.21875 277.320312 93.21875 C 277.097656 93.21875 276.988281 93.109375 276.988281 92.886719 C 276.988281 92.332031 276.65625 92 276.105469 92 C 275.109375 91.558594 274.113281 91.777344 273.117188 91.777344 C 271.679688 91.777344 270.242188 91.890625 268.804688 91.890625 C 268.691406 91.890625 268.582031 91.890625 268.472656 91.667969 C 268.25 89.453125 270.792969 90.558594 271.347656 89.230469 C 271.898438 89.121094 272.453125 89.007812 273.007812 88.789062 C 274.332031 89.121094 275.328125 88.898438 276.214844 87.789062 C 276.765625 87.679688 277.320312 87.570312 277.875 87.570312 C 279.089844 88.121094 280.085938 87.789062 280.640625 86.792969 Z M 284.511719 88.675781 C 282.851562 89.894531 279.976562 89.121094 278.757812 91.558594 C 278.539062 92.113281 282.960938 96.320312 283.292969 95.988281 C 285.175781 94.4375 284.953125 91.890625 285.839844 89.785156 C 286.28125 89.007812 285.507812 88.566406 284.511719 88.675781 Z M 284.511719 88.675781 " fill-opacity="1" fill-rule="nonzero"></path><path fill="#000101" d="M 216.480469 64.191406 C 216.480469 63.636719 216.371094 63.082031 216.371094 62.417969 C 216.59375 61.53125 216.59375 60.644531 215.375 60.421875 C 215.375 60.421875 215.265625 60.3125 215.265625 60.3125 C 214.492188 58.207031 212.832031 58.648438 211.171875 58.984375 C 210.066406 58.871094 208.960938 58.761719 207.851562 58.648438 C 207.851562 58.097656 207.964844 57.652344 207.964844 57.097656 C 210.066406 56.765625 212.167969 57.765625 214.046875 56.878906 C 213.714844 54.992188 212.5 53.664062 212.277344 51.78125 C 212.167969 50.230469 211.0625 49.566406 209.953125 51.226562 C 208.960938 52.890625 207.191406 54.109375 206.636719 56.101562 C 206.636719 56.765625 206.527344 57.429688 206.527344 58.207031 C 205.089844 57.875 204.09375 58.429688 203.207031 59.648438 C 202.542969 60.535156 201.878906 61.421875 200.996094 62.085938 C 200.109375 62.859375 199.003906 62.859375 198.230469 62.195312 C 197.457031 61.53125 198.230469 60.644531 198.671875 60.089844 C 201.992188 56.101562 205.308594 52.222656 208.738281 48.347656 C 209.84375 47.128906 211.0625 46.90625 212.5 47.570312 C 212.609375 48.347656 213.164062 48.566406 213.828125 48.457031 C 214.710938 50.230469 215.484375 52.003906 216.371094 53.773438 C 216.480469 54.109375 216.59375 54.328125 216.59375 54.660156 C 216.59375 55.105469 216.59375 55.4375 216.703125 55.878906 C 216.148438 57.097656 216.703125 57.875 217.808594 58.316406 C 217.917969 58.871094 218.03125 59.425781 218.140625 59.980469 C 217.917969 60.753906 218.25 61.199219 218.914062 61.421875 C 218.914062 62.859375 221.015625 63.746094 220.242188 65.519531 C 219.246094 65.742188 218.140625 64.746094 217.144531 65.410156 C 216.925781 65.410156 216.8125 65.296875 216.703125 65.1875 C 216.703125 64.855469 216.59375 64.523438 216.480469 64.191406 Z M 216.480469 64.191406 " fill-opacity="1" fill-rule="nonzero"></path><path fill="#000101" d="M 311.722656 118.925781 C 309.066406 123.800781 306.414062 128.675781 303.648438 133.441406 C 303.316406 133.992188 303.09375 136.210938 301.433594 134.769531 C 300.4375 133.882812 299.554688 132.996094 300.769531 131.445312 C 302.320312 129.5625 303.648438 127.566406 301.988281 125.019531 C 302.429688 124.796875 302.871094 124.574219 303.316406 124.355469 C 304.3125 124.90625 305.085938 124.6875 305.75 123.578125 C 306.523438 122.25 307.410156 120.917969 308.292969 119.589844 C 308.734375 119.589844 309.066406 119.367188 309.066406 118.925781 C 309.066406 118.371094 308.625 118.148438 308.070312 118.261719 C 306.191406 118.261719 304.3125 118.261719 302.429688 118.148438 C 300.992188 118.148438 300.660156 118.8125 300.992188 120.03125 C 300.4375 120.253906 299.996094 120.585938 299.445312 120.808594 C 299.222656 120.476562 299.113281 120.03125 298.890625 119.699219 C 299 117.707031 297.453125 117.707031 296.234375 117.59375 C 294.578125 117.59375 293.027344 117.375 291.480469 117.042969 C 291.257812 116.597656 291.148438 116.15625 291.589844 115.710938 C 294.464844 115.710938 297.34375 116.15625 300.21875 115.378906 C 302.871094 115.378906 305.417969 115.378906 308.070312 115.378906 C 309.179688 115.378906 310.394531 115.15625 310.726562 116.707031 C 310.285156 117.925781 310.835938 118.480469 311.722656 118.925781 Z M 311.722656 118.925781 " fill-opacity="1" fill-rule="nonzero"></path><path fill="#000101" d="M 153.320312 58.871094 C 152.765625 58.984375 152.324219 58.984375 151.769531 59.09375 C 150.773438 58.871094 149.78125 58.539062 149.667969 60.089844 C 149.78125 61.199219 149.78125 62.308594 149.890625 63.414062 C 149.667969 64.300781 149.78125 64.855469 150.886719 64.964844 C 151.882812 64.964844 152.988281 64.964844 153.984375 64.964844 C 154.425781 65.628906 155.863281 65.1875 155.753906 66.515625 C 154.980469 66.628906 154.203125 66.628906 153.429688 66.738281 C 151.992188 65.851562 150.996094 66.074219 150.332031 67.625 C 148.894531 68.402344 148.121094 67.734375 147.566406 66.40625 C 146.019531 62.308594 145.246094 57.984375 144.25 53.664062 C 143.917969 52.335938 144.800781 51.558594 146.019531 51.226562 C 150.332031 49.898438 154.867188 48.789062 159.292969 47.570312 C 159.957031 47.460938 160.507812 47.238281 160.730469 48.125 C 160.953125 49.011719 160.621094 49.785156 159.625 49.898438 C 155.753906 50.230469 152.101562 51.78125 148.339844 52.667969 C 146.570312 53.332031 146.792969 54.21875 148.011719 55.214844 C 148.5625 55.992188 148.121094 57.429688 149.667969 57.542969 C 150.554688 58.871094 151.550781 58.097656 152.546875 57.765625 C 153.652344 57.320312 153.539062 58.097656 153.320312 58.871094 Z M 153.320312 58.871094 " fill-opacity="1" fill-rule="nonzero"></path><path fill="#000101" d="M 232.078125 59.425781 C 231.195312 62.417969 230.308594 65.410156 229.421875 68.289062 C 229.089844 69.398438 228.097656 69.175781 227.433594 68.84375 C 226.328125 68.402344 225.882812 67.625 226.214844 66.40625 C 227.320312 62.859375 228.207031 59.203125 229.644531 55.769531 C 230.308594 54.21875 229.753906 54.109375 228.648438 53.441406 C 227.210938 52.445312 225.332031 52.667969 224.003906 51.449219 C 223.5625 51.003906 222.453125 51.117188 222.785156 50.117188 C 223.117188 49.121094 224.222656 49.34375 224.886719 49.566406 C 226.328125 50.007812 227.652344 50.671875 228.980469 51.226562 C 229.535156 52.222656 230.308594 52.667969 231.523438 52.113281 C 231.855469 52.222656 232.300781 52.335938 232.632812 52.335938 C 232.851562 53 233.296875 53.332031 234.070312 53.109375 C 236.0625 52.890625 237.609375 54.109375 239.378906 54.660156 C 239.488281 55.328125 239.378906 55.992188 238.714844 56.324219 C 237.941406 56.324219 237.167969 56.324219 236.503906 55.769531 C 236.28125 54.992188 235.839844 54.773438 235.066406 54.992188 C 233.074219 54.992188 233.515625 56.878906 232.964844 57.875 C 232.1875 58.316406 231.96875 58.648438 232.078125 59.425781 Z M 232.078125 59.425781 " fill-opacity="1" fill-rule="nonzero"></path><path fill="#000101" d="M 314.15625 246.453125 C 314.597656 245.457031 315.039062 244.570312 315.59375 243.574219 C 316.367188 243.460938 316.589844 242.910156 316.480469 242.242188 C 316.480469 241.910156 316.589844 241.46875 316.589844 241.136719 C 317.363281 241.136719 318.136719 241.246094 318.25 242.355469 C 318.136719 242.578125 318.136719 242.6875 318.027344 242.910156 C 316.8125 243.019531 316.921875 243.90625 317.03125 244.792969 C 316.921875 245.234375 316.921875 245.566406 316.8125 246.011719 C 315.925781 246.011719 315.703125 246.566406 315.816406 247.339844 C 315.703125 247.671875 315.484375 248.117188 315.371094 248.449219 C 314.707031 248.671875 314.488281 249.113281 314.597656 249.777344 C 314.488281 250.109375 314.265625 250.554688 314.15625 250.886719 C 313.382812 251.21875 312.496094 251.550781 313.160156 252.769531 C 312.386719 254.433594 311.613281 256.203125 310.617188 257.867188 C 310.394531 258.308594 309.953125 259.308594 309.066406 258.640625 C 308.402344 258.199219 308.402344 257.421875 308.625 256.757812 C 308.734375 256.535156 308.847656 256.425781 308.957031 256.316406 C 311.945312 250.773438 311.945312 250.773438 306.191406 248.003906 C 304.421875 247.117188 302.542969 246.453125 300.769531 245.347656 C 299.996094 244.792969 298.226562 244.347656 299.332031 242.6875 C 300.21875 241.246094 301.324219 241.246094 302.652344 242.242188 C 303.09375 242.578125 303.757812 242.796875 304.199219 243.128906 C 304.3125 243.683594 304.753906 244.015625 305.304688 243.90625 C 305.96875 244.128906 306.746094 244.238281 307.1875 244.902344 C 307.851562 246.121094 309.179688 246.011719 310.285156 246.34375 C 310.949219 246.566406 311.5 246.785156 312.164062 246.898438 C 312.386719 247.453125 312.71875 248.003906 313.382812 248.003906 C 314.046875 247.5625 314.15625 247.007812 314.15625 246.453125 Z M 314.15625 246.453125 " fill-opacity="1" fill-rule="nonzero"></path><path fill="#000101" d="M 68.367188 263.296875 C 67.039062 263.40625 66.929688 262.410156 66.375 261.855469 C 65.488281 260.859375 66.484375 260.191406 66.929688 259.859375 C 70.910156 257.3125 74.890625 254.984375 78.984375 252.660156 C 79.980469 252.105469 80.976562 252.214844 81.417969 253.546875 C 81.640625 254.320312 81.859375 254.984375 80.976562 255.539062 C 77.105469 257.976562 73.234375 260.414062 69.25 262.964844 C 68.917969 263.074219 68.476562 263.183594 68.367188 263.296875 Z M 68.367188 263.296875 " fill-opacity="1" fill-rule="nonzero"></path><path fill="#000101" d="M 306.746094 264.070312 C 305.96875 264.734375 305.527344 266.507812 303.867188 265.511719 C 299.996094 263.074219 296.125 260.527344 292.253906 257.976562 C 291.257812 257.3125 290.925781 256.316406 291.8125 255.429688 C 292.363281 254.875 292.808594 253.765625 294.246094 254.765625 C 298.003906 257.535156 301.878906 259.972656 305.75 262.519531 C 306.082031 262.964844 306.746094 263.074219 306.746094 264.070312 Z M 306.746094 264.070312 " fill-opacity="1" fill-rule="nonzero"></path><path fill="#000101" d="M 242.253906 74.828125 C 241.039062 74.273438 239.710938 73.941406 240.484375 72.058594 C 242.144531 67.957031 244.578125 64.300781 246.125 60.089844 C 246.347656 59.425781 246.902344 57.875 248.339844 58.761719 C 249.445312 59.425781 250.332031 60.3125 249.667969 61.753906 C 247.675781 65.742188 245.574219 69.730469 243.582031 73.71875 C 243.25 74.273438 243.03125 74.9375 242.253906 74.828125 Z M 242.253906 74.828125 " fill-opacity="1" fill-rule="nonzero"></path><path fill="#000101" d="M 311.058594 152.828125 C 312.828125 151.722656 314.15625 150.390625 313.269531 148.066406 C 313.050781 147.511719 312.828125 146.515625 313.824219 146.292969 C 314.597656 146.179688 314.929688 146.734375 315.261719 147.511719 C 316.148438 149.394531 317.695312 150.722656 319.6875 149.726562 C 321.679688 148.839844 321.347656 147.066406 320.570312 145.296875 C 320.128906 144.296875 320.128906 143.078125 320.019531 142.082031 C 320.460938 141.636719 320.902344 141.195312 321.347656 140.753906 C 322.230469 143.523438 323.335938 146.179688 323.226562 149.171875 C 323.003906 152.941406 320.792969 154.492188 317.363281 152.941406 C 316.367188 152.496094 315.816406 152.164062 314.820312 153.492188 C 313.824219 154.933594 311.945312 155.710938 310.394531 156.816406 C 308.625 156.597656 308.957031 155.15625 308.734375 154.046875 C 308.734375 154.046875 308.847656 154.046875 308.847656 154.046875 C 310.0625 154.269531 310.726562 153.828125 311.058594 152.828125 Z M 311.058594 152.828125 " fill-opacity="1" fill-rule="nonzero"></path><g clip-path="url(#id4)"><path fill="#000101" d="M 53.765625 194.820312 C 51.550781 194.820312 49.339844 194.820312 47.128906 194.820312 C 46.132812 194.820312 45.359375 194.601562 45.359375 193.269531 C 45.359375 192.050781 45.800781 191.71875 47.015625 191.609375 C 51.550781 191.386719 56.085938 191.054688 60.621094 190.722656 C 61.839844 190.613281 62.28125 191.164062 62.394531 192.164062 C 62.503906 193.382812 62.503906 194.488281 60.84375 194.488281 C 58.519531 194.488281 56.199219 194.488281 53.875 194.488281 C 53.765625 194.710938 53.765625 194.710938 53.765625 194.820312 Z M 53.765625 194.820312 " fill-opacity="1" fill-rule="nonzero"></path></g><path fill="#000101" d="M 98.121094 297.53125 C 93.808594 296.09375 88.941406 289.777344 89.382812 284.902344 C 89.605469 283.019531 90.601562 281.910156 91.484375 280.46875 C 92.039062 280.359375 92.148438 280.027344 92.148438 279.582031 C 92.480469 279.472656 92.8125 279.363281 93.144531 279.25 C 95.355469 279.25 97.457031 277.699219 99.78125 279.140625 C 99.339844 280.359375 97.679688 279.472656 97.457031 280.800781 C 91.707031 282.132812 91.152344 288.667969 94.25 291.882812 C 95.46875 293.101562 96.792969 294.429688 98.121094 295.648438 C 98.121094 296.3125 98.121094 296.867188 98.121094 297.53125 Z M 98.121094 297.53125 " fill-opacity="1" fill-rule="nonzero"></path><path fill="#000101" d="M 67.257812 151.390625 C 67.148438 152.164062 67.148438 152.828125 67.039062 153.605469 C 66.597656 153.828125 66.265625 154.046875 65.820312 154.160156 C 65.820312 153.714844 65.820312 153.160156 65.269531 152.941406 C 65.046875 149.617188 66.597656 145.960938 63.386719 143.191406 C 62.722656 141.636719 61.398438 141.527344 59.960938 141.75 C 59.40625 141.75 58.851562 141.75 58.300781 141.75 C 57.527344 141.417969 56.972656 141.636719 56.640625 142.523438 C 55.535156 143.078125 54.761719 143.964844 54.207031 145.074219 C 53.433594 145.074219 52.878906 144.628906 52.546875 144.074219 C 54.429688 138.980469 60.621094 136.210938 65.710938 141.195312 C 68.035156 144.296875 66.707031 147.953125 67.257812 151.390625 Z M 67.257812 151.390625 " fill-opacity="1" fill-rule="nonzero"></path><path fill="#000101" d="M 79.871094 278.144531 C 80.867188 276.925781 82.082031 275.816406 83.519531 275.039062 C 84.183594 275.039062 84.625 274.820312 84.738281 274.152344 C 85.070312 273.820312 85.511719 273.488281 85.84375 273.15625 C 86.617188 273.265625 87.058594 272.824219 87.171875 272.046875 C 87.945312 271.382812 88.828125 270.828125 89.605469 270.164062 C 91.042969 269.832031 90.601562 268.28125 91.375 267.507812 C 92.039062 268.945312 95.355469 269.609375 92.589844 271.9375 C 91.152344 271.9375 90.378906 272.824219 90.046875 274.042969 C 88.941406 274.929688 87.722656 275.925781 86.617188 276.8125 C 85.511719 276.703125 84.847656 277.257812 84.625 278.363281 C 83.300781 279.25 82.746094 281.355469 80.421875 280.582031 C 80.203125 279.914062 79.757812 279.140625 79.871094 278.144531 Z M 79.871094 278.144531 " fill-opacity="1" fill-rule="nonzero"></path><g clip-path="url(#id5)"><path fill="#000101" d="M 178.429688 319.914062 C 178.320312 319.582031 178.207031 319.25 178.097656 318.917969 C 178.207031 317.808594 177.65625 317.144531 176.660156 317.03125 C 175.773438 317.03125 175.441406 317.808594 175.441406 318.472656 C 175.441406 321.574219 173.894531 324.679688 175.109375 327.890625 C 175.109375 329 175.664062 330.441406 173.5625 330.328125 C 171.570312 330.328125 172.011719 328.886719 172.011719 327.78125 C 172.011719 326.230469 172.234375 324.566406 172.34375 323.015625 C 173.230469 322.792969 173.230469 322.128906 173.230469 321.355469 C 173.453125 318.804688 173.5625 316.257812 173.785156 313.710938 C 176.660156 312.710938 178.652344 313.597656 179.425781 316.699219 C 179.757812 317.917969 179.976562 319.027344 180.308594 320.246094 C 180.089844 320.46875 179.867188 320.6875 179.644531 320.800781 C 179.203125 320.578125 178.871094 320.246094 178.429688 319.914062 Z M 178.429688 319.914062 " fill-opacity="1" fill-rule="nonzero"></path></g><path fill="#000101" d="M 62.945312 214.875 C 64.9375 214.65625 66.597656 214.65625 65.488281 217.425781 C 63.5 217.3125 61.507812 217.203125 59.847656 218.644531 C 59.183594 218.753906 58.519531 218.867188 57.746094 218.867188 C 56.199219 218.3125 54.761719 218.53125 53.652344 219.863281 C 49.117188 220.636719 49.117188 220.636719 48.785156 217.3125 C 49.339844 216.980469 50.003906 216.648438 50.554688 216.207031 C 51.109375 216.761719 51.882812 216.539062 52.546875 216.648438 C 53.210938 217.425781 53.652344 217.203125 53.875 216.316406 C 55.3125 215.875 56.972656 215.652344 56.417969 213.4375 C 56.75 212.769531 56.863281 211.773438 58.078125 211.886719 C 58.632812 212.882812 58.410156 213.988281 58.519531 214.988281 C 60.179688 217.3125 61.507812 215.542969 62.945312 214.875 Z M 62.945312 214.875 " fill-opacity="1" fill-rule="nonzero"></path><path fill="#000101" d="M 314.046875 176.652344 C 314.265625 176.984375 314.378906 177.425781 314.597656 177.648438 C 315.484375 178.867188 316.8125 180.308594 318.136719 179.976562 C 319.90625 179.53125 318.582031 177.539062 318.914062 176.320312 C 319.246094 174.878906 317.804688 172.109375 319.574219 172.109375 C 321.789062 172.109375 320.351562 174.878906 320.792969 176.320312 C 321.125 177.539062 321.015625 178.976562 321.457031 180.195312 C 322.230469 182.746094 321.234375 183.519531 318.914062 183.410156 C 317.804688 183.300781 316.699219 183.410156 315.59375 183.632812 C 313.492188 183.964844 311.390625 184.40625 313.714844 181.195312 C 314.597656 179.976562 312.164062 179.199219 312.496094 177.757812 C 312.828125 176.984375 313.382812 176.652344 314.046875 176.652344 Z M 314.046875 176.652344 " fill-opacity="1" fill-rule="nonzero"></path><path fill="#000101" d="M 52.328125 158.035156 C 51.773438 158.035156 51.332031 157.925781 50.777344 157.925781 C 50.445312 157.484375 50.003906 157.261719 49.449219 157.484375 L 49.5625 157.371094 C 49.5625 157.371094 49.339844 157.484375 49.339844 157.484375 C 49.449219 156.597656 49.671875 155.710938 49.007812 154.933594 C 49.117188 154.378906 49.117188 153.714844 49.230469 153.160156 C 49.894531 153.382812 50.554688 153.492188 51.21875 153.714844 C 51.996094 154.824219 53.210938 155.046875 54.316406 155.265625 C 54.539062 156.042969 55.09375 156.265625 55.867188 156.042969 C 56.863281 156.265625 57.746094 156.484375 58.742188 156.707031 C 59.074219 158.589844 60.402344 157.925781 61.507812 157.59375 C 63.941406 158.257812 64.273438 156.597656 64.605469 154.933594 C 65.046875 154.710938 65.488281 154.601562 65.933594 154.378906 C 65.933594 155.046875 66.042969 155.710938 66.042969 156.375 C 65.933594 157.152344 65.820312 157.816406 65.820312 158.589844 C 64.273438 159.144531 64.605469 160.585938 64.164062 161.804688 C 63.941406 161.804688 63.71875 161.804688 63.5 161.914062 C 63.054688 161.027344 62.503906 160.363281 61.285156 160.808594 C 60.734375 160.695312 60.289062 160.695312 59.738281 160.585938 C 57.636719 158.480469 54.980469 158.371094 52.328125 158.035156 Z M 52.328125 158.035156 " fill-opacity="1" fill-rule="nonzero"></path><path fill="#000101" d="M 131.636719 68.402344 C 131.195312 67.515625 130.753906 66.628906 130.421875 65.851562 C 130.863281 64.632812 130.53125 63.859375 129.203125 63.636719 C 129.09375 63.082031 128.984375 62.527344 128.875 62.085938 C 129.09375 60.3125 127.765625 60.203125 126.550781 60.089844 C 126.550781 58.429688 128.875 59.09375 128.984375 57.652344 C 129.316406 57.542969 129.535156 57.429688 129.867188 57.429688 C 132.082031 57.320312 130.199219 59.757812 131.636719 60.203125 C 132.191406 61.53125 133.519531 62.640625 133.296875 64.300781 C 133.078125 65.078125 133.410156 65.519531 134.183594 65.628906 C 134.292969 66.183594 134.515625 66.628906 134.625 67.183594 C 134.625 68.511719 135.066406 69.730469 136.394531 70.394531 C 137.722656 72.832031 136.503906 73.609375 134.292969 73.828125 C 134.625 72.609375 133.960938 72.058594 132.964844 71.613281 C 132.855469 71.28125 132.855469 70.839844 132.746094 70.503906 C 133.519531 69.066406 132.523438 68.734375 131.636719 68.402344 Z M 131.636719 68.402344 " fill-opacity="1" fill-rule="nonzero"></path><g clip-path="url(#id6)"><path fill="#000101" d="M 312.605469 190.390625 C 313.714844 188.175781 315.484375 189.503906 317.03125 189.394531 C 320.128906 190.5 323.226562 190.945312 326.433594 190.390625 C 329.308594 189.835938 329.53125 191.386719 329.089844 193.601562 C 328.09375 193.9375 327.207031 192.714844 326.214844 193.492188 C 325.769531 193.382812 325.4375 193.382812 324.996094 193.269531 C 324.109375 192.164062 323.226562 192.050781 322.339844 193.269531 C 322.339844 193.382812 322.230469 193.492188 322.007812 193.492188 C 320.570312 194.15625 321.789062 195.820312 320.902344 196.707031 C 320.351562 192.050781 318.136719 190.613281 314.488281 192.714844 C 314.488281 192.714844 314.378906 192.9375 314.378906 192.9375 C 312.164062 193.269531 313.269531 191.164062 312.605469 190.390625 Z M 312.605469 190.390625 " fill-opacity="1" fill-rule="nonzero"></path></g><path fill="#000101" d="M 108.960938 286.339844 C 109.515625 285.675781 109.957031 286.007812 110.398438 286.5625 C 112.28125 289.113281 112.5 292.101562 111.285156 294.539062 C 110.066406 296.867188 107.964844 299.304688 104.539062 298.972656 C 102.988281 298.75 101.328125 299.195312 99.78125 298.417969 C 100.335938 297.3125 101.328125 297.421875 102.324219 297.421875 C 103.652344 297.421875 104.871094 297.421875 105.53125 295.980469 C 108.851562 294.097656 108.960938 291.105469 108.628906 287.894531 C 108.628906 287.339844 108.851562 286.785156 108.960938 286.339844 Z M 108.960938 286.339844 " fill-opacity="1" fill-rule="nonzero"></path><path fill="#000101" d="M 312.605469 190.390625 C 313.269531 191.277344 312.164062 193.269531 314.378906 192.9375 C 314.046875 197.039062 313.714844 201.136719 313.269531 205.238281 C 313.160156 206.011719 313.269531 207.011719 312.164062 207.121094 C 311.28125 207.121094 311.058594 206.234375 311.167969 205.570312 C 311.390625 200.363281 311.058594 195.265625 312.605469 190.390625 Z M 312.605469 190.390625 " fill-opacity="1" fill-rule="nonzero"></path><path fill="#000101" d="M 46.796875 207.5625 C 46.796875 207.011719 46.796875 206.457031 46.796875 205.902344 C 47.902344 205.570312 47.792969 204.683594 47.570312 203.90625 C 48.234375 201.359375 49.894531 200.25 52.4375 200.914062 C 52.546875 201.582031 52.988281 201.691406 53.542969 201.691406 C 54.207031 202.578125 54.980469 203.464844 55.644531 204.460938 C 55.421875 205.238281 55.535156 205.902344 56.53125 206.011719 C 57.195312 207.011719 57.082031 208.117188 57.082031 209.226562 C 56.640625 210 57.082031 211.441406 55.535156 211.441406 C 55.421875 210.667969 55.535156 209.78125 55.203125 209.113281 C 54.316406 207.34375 54.207031 204.683594 51.332031 204.90625 C 48.125 205.125 49.894531 207.785156 49.339844 209.335938 C 49.339844 209.449219 49.339844 209.558594 49.339844 209.667969 C 48.125 209.449219 48.34375 207.230469 46.796875 207.5625 Z M 46.796875 207.5625 " fill-opacity="1" fill-rule="nonzero"></path><path fill="#000101" d="M 314.488281 192.71875 C 318.136719 190.613281 320.351562 191.941406 320.902344 196.707031 C 321.789062 195.820312 320.570312 194.15625 322.007812 193.492188 C 322.121094 197.148438 321.679688 200.695312 321.015625 204.351562 C 320.902344 205.125 321.125 206.125 319.90625 206.125 C 318.46875 206.011719 318.800781 204.90625 318.914062 204.019531 C 319.023438 201.582031 318.914062 199.144531 319.464844 196.816406 C 320.128906 193.824219 318.914062 192.9375 316.367188 192.828125 C 315.703125 192.828125 315.152344 192.71875 314.488281 192.71875 Z M 314.488281 192.71875 " fill-opacity="1" fill-rule="nonzero"></path><path fill="#000101" d="M 91.484375 267.617188 C 90.710938 268.390625 91.152344 269.945312 89.714844 270.277344 C 90.046875 267.285156 87.171875 266.175781 85.953125 264.070312 C 85.179688 262.628906 83.851562 261.410156 82.855469 259.972656 C 82.414062 259.417969 81.527344 258.640625 82.523438 257.976562 C 83.300781 257.421875 84.074219 257.867188 84.625 258.53125 C 87.058594 261.523438 89.714844 264.292969 91.484375 267.617188 Z M 91.484375 267.617188 " fill-opacity="1" fill-rule="nonzero"></path><path fill="#000101" d="M 309.066406 139.867188 C 308.734375 139.976562 308.292969 139.976562 307.960938 140.085938 C 306.523438 139.199219 305.96875 140.085938 305.527344 141.195312 C 305.195312 141.195312 304.753906 141.195312 304.421875 141.195312 C 303.980469 139.753906 304.421875 138.535156 305.085938 137.207031 C 305.636719 137.097656 306.300781 137.097656 306.855469 136.984375 C 307.851562 137.761719 308.625 136.984375 309.621094 136.875 C 313.050781 136.210938 315.703125 133.441406 319.464844 133.992188 C 319.574219 134.546875 319.6875 135.210938 319.6875 135.765625 C 319.023438 136.320312 319.023438 137.097656 318.914062 137.871094 C 318.582031 137.648438 318.136719 137.539062 317.804688 137.316406 C 317.253906 136.320312 316.8125 136.429688 316.480469 137.429688 C 315.925781 137.539062 315.261719 137.539062 314.707031 137.648438 C 313.492188 136.875 312.9375 137.207031 313.269531 138.648438 C 313.269531 139.644531 313.382812 140.753906 313.382812 141.75 C 311.832031 141.75 312.054688 140.308594 311.5 139.421875 C 310.503906 138.203125 309.621094 137.761719 309.066406 139.867188 Z M 309.066406 139.867188 " fill-opacity="1" fill-rule="nonzero"></path><path fill="#000101" d="M 325.882812 163.132812 C 327.097656 165.460938 328.757812 167.785156 328.425781 170.667969 C 327.761719 172.441406 327.761719 174.324219 328.425781 176.097656 C 328.867188 178.3125 327.320312 179.753906 326.101562 181.304688 C 325.769531 181.859375 325.21875 182.300781 324.554688 181.96875 C 323.890625 181.636719 323.890625 180.972656 324 180.417969 C 324.113281 179.863281 324.222656 179.199219 324.554688 178.757812 C 328.203125 173.992188 326.765625 169.449219 324 164.90625 C 324 164.574219 323.890625 164.128906 323.890625 163.796875 C 324.109375 163.578125 324.332031 163.355469 324.664062 163.132812 C 325.105469 163.023438 325.4375 163.023438 325.882812 163.132812 Z M 325.882812 163.132812 " fill-opacity="1" fill-rule="nonzero"></path><path fill="#000101" d="M 314.046875 176.652344 C 313.382812 176.652344 312.828125 177.09375 312.386719 177.648438 C 309.398438 173.214844 310.503906 163.910156 314.488281 161.359375 C 314.597656 162.246094 313.492188 162.910156 313.933594 163.910156 C 313.714844 164.019531 313.382812 164.128906 313.269531 164.351562 C 313.160156 164.796875 313.492188 165.015625 313.933594 165.128906 C 314.046875 165.238281 314.15625 165.347656 314.378906 165.460938 C 312.605469 169.117188 313.050781 172.882812 314.046875 176.652344 Z M 314.046875 176.652344 " fill-opacity="1" fill-rule="nonzero"></path><path fill="#000101" d="M 153.320312 58.871094 C 153.652344 58.097656 153.652344 57.429688 152.546875 57.765625 C 151.550781 58.097656 150.554688 58.871094 149.667969 57.542969 C 153.097656 56.65625 156.527344 55.660156 159.957031 54.773438 C 160.730469 54.550781 161.949219 54.109375 162.28125 55.328125 C 162.609375 56.433594 161.617188 57.097656 160.839844 57.320312 C 158.296875 57.875 155.753906 58.316406 153.320312 58.871094 Z M 153.320312 58.871094 " fill-opacity="1" fill-rule="nonzero"></path><path fill="#000101" d="M 97.457031 280.800781 C 97.570312 279.472656 99.339844 280.246094 99.78125 279.140625 C 97.457031 277.699219 95.355469 279.25 93.144531 279.25 C 95.6875 277.257812 100.777344 277.257812 103.984375 279.804688 C 105.644531 281.132812 108.078125 281.910156 108.628906 284.457031 C 108.1875 284.902344 107.855469 285.34375 107.414062 285.789062 C 104.648438 283.019531 101.773438 280.359375 97.457031 280.800781 Z M 97.457031 280.800781 " fill-opacity="1" fill-rule="nonzero"></path><path fill="#000101" d="M 132.082031 306.0625 C 132.082031 307.0625 131.636719 307.835938 130.976562 307.503906 C 128.652344 306.175781 125.886719 305.730469 123.894531 303.847656 C 123.675781 303.625 123.453125 303.074219 123.5625 302.851562 C 123.785156 302.519531 124.449219 301.964844 124.667969 302.074219 C 127.101562 303.074219 129.535156 304.292969 131.859375 305.398438 C 131.96875 305.398438 131.96875 305.84375 132.082031 306.0625 Z M 132.082031 306.0625 " fill-opacity="1" fill-rule="nonzero"></path><path fill="#000101" d="M 155.640625 66.40625 C 155.753906 65.078125 154.316406 65.519531 153.871094 64.855469 C 156.75 63.304688 159.957031 62.972656 162.941406 62.085938 C 163.71875 61.863281 164.601562 61.863281 164.824219 62.972656 C 165.042969 63.96875 164.160156 63.96875 163.496094 64.300781 C 161.0625 65.410156 158.296875 65.742188 155.640625 66.40625 Z M 155.640625 66.40625 " fill-opacity="1" fill-rule="nonzero"></path><path fill="#000101" d="M 131.636719 60.089844 C 130.3125 59.648438 132.082031 57.210938 129.867188 57.320312 C 131.75 55.769531 134.292969 55.4375 136.171875 54.109375 C 137.058594 53.554688 137.832031 53 138.277344 54.21875 C 138.605469 55.105469 138.277344 56.101562 137.28125 56.324219 C 135.953125 56.546875 135.179688 57.765625 133.742188 57.875 C 132.746094 57.984375 131.96875 58.984375 131.636719 60.089844 Z M 131.636719 60.089844 " fill-opacity="1" fill-rule="nonzero"></path><path fill="#000101" d="M 247.234375 304.84375 C 246.789062 305.398438 246.789062 306.0625 246.125 306.394531 C 244.355469 307.171875 242.699219 308.058594 241.039062 308.832031 C 240.265625 309.167969 239.269531 309.167969 238.824219 308.390625 C 238.273438 307.28125 239.488281 306.949219 240.042969 306.730469 C 241.921875 305.953125 243.582031 304.734375 245.574219 304.179688 C 246.570312 303.957031 246.902344 304.179688 247.234375 304.84375 Z M 247.234375 304.84375 " fill-opacity="1" fill-rule="nonzero"></path><path fill="#000101" d="M 51.21875 153.605469 C 50.554688 153.382812 49.894531 153.273438 49.230469 153.050781 C 50.113281 149.949219 50.554688 146.625 52.660156 144.074219 C 53.101562 144.628906 53.652344 145.074219 54.316406 145.074219 C 53.320312 147.84375 52.214844 150.722656 51.21875 153.605469 Z M 51.21875 153.605469 " fill-opacity="1" fill-rule="nonzero"></path><path fill="#000101" d="M 46.796875 207.5625 C 48.34375 207.34375 48.011719 209.449219 49.339844 209.449219 C 49.78125 211.773438 50.113281 213.988281 50.554688 216.316406 C 50.003906 216.648438 49.339844 216.980469 48.785156 217.425781 C 47.128906 214.324219 47.792969 210.777344 46.796875 207.5625 Z M 46.796875 207.5625 " fill-opacity="1" fill-rule="nonzero"></path><path fill="#000101" d="M 319.246094 134.214844 C 315.59375 133.660156 312.828125 136.429688 309.398438 137.097656 C 308.402344 137.316406 307.628906 137.980469 306.632812 137.207031 C 309.839844 135.324219 313.492188 134.769531 316.8125 133.328125 C 317.585938 133.105469 319.023438 132.554688 319.246094 134.214844 Z M 319.246094 134.214844 " fill-opacity="1" fill-rule="nonzero"></path><path fill="#000101" d="M 314.046875 163.910156 C 313.601562 162.910156 314.707031 162.246094 314.597656 161.359375 C 315.152344 160.808594 315.59375 160.140625 316.480469 160.253906 C 319.246094 160.808594 321.898438 161.25 324.664062 161.804688 C 324.664062 161.804688 324.886719 161.914062 324.886719 161.914062 C 324.886719 162.246094 324.886719 162.691406 324.886719 163.023438 C 324.664062 163.246094 324.441406 163.464844 324.109375 163.6875 C 323.449219 163.464844 322.894531 162.46875 322.007812 163.355469 C 321.679688 163.246094 321.234375 163.246094 320.902344 163.132812 C 318.914062 161.804688 317.363281 162.027344 316.035156 164.019531 C 316.035156 164.128906 315.925781 164.242188 315.703125 164.242188 C 315.039062 164.128906 314.597656 164.019531 314.046875 163.910156 Z M 314.046875 163.910156 " fill-opacity="1" fill-rule="nonzero"></path><g clip-path="url(#id7)"><path fill="#000101" d="M 326.214844 193.492188 C 327.207031 192.828125 328.09375 194.046875 329.089844 193.601562 C 329.199219 195.820312 329.199219 198.144531 328.425781 200.25 C 328.203125 199.363281 327.984375 198.589844 327.761719 197.59375 C 327.320312 198.257812 327.097656 198.699219 326.765625 199.144531 C 326.101562 197.257812 327.539062 195.265625 326.214844 193.492188 Z M 326.214844 193.492188 " fill-opacity="1" fill-rule="nonzero"></path></g><path fill="#000101" d="M 175 327.890625 C 173.785156 324.679688 175.332031 321.6875 175.332031 318.472656 C 175.332031 317.808594 175.773438 317.03125 176.550781 317.03125 C 177.542969 317.144531 178.097656 317.808594 177.988281 318.917969 C 176.769531 318.25 176.105469 318.25 176.105469 320.023438 C 176.105469 322.683594 175.996094 325.34375 175 327.890625 Z M 175 327.890625 " fill-opacity="1" fill-rule="nonzero"></path><path fill="#000101" d="M 194.46875 61.199219 C 193.472656 56.988281 193.804688 52.667969 193.914062 48.457031 C 194.691406 52.667969 195.464844 56.878906 194.46875 61.199219 Z M 194.46875 61.199219 " fill-opacity="1" fill-rule="nonzero"></path><path fill="#000101" d="M 326.765625 199.144531 C 327.097656 198.699219 327.320312 198.257812 327.761719 197.59375 C 327.984375 198.589844 328.203125 199.476562 328.425781 200.25 C 328.425781 202.46875 328.757812 204.792969 328.09375 207.011719 C 326.65625 207.011719 326.988281 205.679688 326.542969 204.90625 C 326.65625 203.019531 326.65625 201.027344 326.765625 199.144531 Z M 326.765625 199.144531 " fill-opacity="1" fill-rule="nonzero"></path><path fill="#000101" d="M 309.066406 139.867188 C 309.621094 137.761719 310.503906 138.203125 311.390625 139.535156 C 311.945312 140.417969 311.722656 141.859375 313.269531 141.859375 C 314.265625 142.304688 314.488281 143.191406 314.15625 144.074219 C 314.046875 144.519531 313.160156 144.960938 312.71875 144.851562 C 311.832031 144.742188 311.832031 143.632812 311.5 142.96875 C 311.058594 141.75 311.167969 139.976562 309.066406 139.867188 Z M 309.066406 139.867188 " fill-opacity="1" fill-rule="nonzero"></path><path fill="#000101" d="M 67.257812 151.390625 C 66.597656 147.953125 67.921875 144.296875 65.820312 141.195312 C 68.808594 144.1875 68.808594 147.621094 67.257812 151.390625 Z M 67.257812 151.390625 " fill-opacity="1" fill-rule="nonzero"></path><path fill="#000101" d="M 105.421875 295.980469 C 104.757812 297.421875 103.429688 297.421875 102.214844 297.421875 C 101.21875 297.421875 100.222656 297.3125 99.671875 298.417969 C 99.007812 298.417969 98.5625 297.863281 98.121094 297.53125 C 98.121094 296.867188 98.121094 296.203125 98.121094 295.648438 C 100.554688 295.980469 102.988281 296.644531 105.421875 295.980469 Z M 105.421875 295.980469 " fill-opacity="1" fill-rule="nonzero"></path><path fill="#000101" d="M 128.984375 57.542969 C 128.761719 58.984375 126.550781 58.316406 126.550781 59.980469 C 125.222656 59.980469 123.785156 59.757812 124.117188 61.863281 C 123.34375 62.972656 123.011719 61.972656 122.679688 61.53125 C 122.234375 60.753906 122.789062 60.203125 123.5625 59.867188 C 125.445312 59.203125 126.992188 57.765625 128.984375 57.542969 Z M 128.984375 57.542969 " fill-opacity="1" fill-rule="nonzero"></path><path fill="#000101" d="M 303.203125 124.355469 C 302.761719 124.574219 302.320312 124.796875 301.878906 125.019531 C 300.328125 124.132812 299.664062 122.582031 299.222656 120.917969 C 299.777344 120.699219 300.21875 120.363281 300.769531 120.144531 C 302.097656 121.25 302.984375 122.582031 303.203125 124.355469 Z M 303.203125 124.355469 " fill-opacity="1" fill-rule="nonzero"></path><path fill="#000101" d="M 326.433594 190.390625 C 323.226562 190.945312 320.128906 190.5 317.03125 189.394531 C 320.238281 189.058594 323.449219 189.28125 326.433594 190.390625 Z M 326.433594 190.390625 " fill-opacity="1" fill-rule="nonzero"></path><path fill="#000101" d="M 173.785156 313.820312 C 173.5625 316.367188 173.453125 318.917969 173.230469 321.464844 C 173.230469 322.128906 173.121094 322.90625 172.34375 323.125 C 172.457031 319.914062 171.792969 316.699219 173.785156 313.820312 Z M 173.785156 313.820312 " fill-opacity="1" fill-rule="nonzero"></path><path fill="#000101" d="M 155.089844 309.71875 C 155.089844 310.273438 155.089844 310.828125 155.089844 311.382812 C 153.097656 311.269531 151.105469 311.160156 149.117188 311.050781 C 149.003906 309.832031 149.890625 309.71875 150.773438 309.609375 C 151.550781 309.609375 152.324219 309.832031 152.546875 308.722656 C 153.761719 308.390625 154.316406 309.167969 155.089844 309.71875 Z M 155.089844 309.71875 " fill-opacity="1" fill-rule="nonzero"></path><path fill="#000101" d="M 299.996094 115.488281 C 297.121094 116.265625 294.246094 115.710938 291.367188 115.824219 C 294.246094 114.605469 297.121094 115.046875 299.996094 115.488281 Z M 299.996094 115.488281 " fill-opacity="1" fill-rule="nonzero"></path><path fill="#000101" d="M 291.257812 117.042969 C 292.808594 117.375 294.355469 117.59375 296.015625 117.59375 C 297.230469 117.59375 298.78125 117.707031 298.667969 119.699219 C 297.453125 118.371094 295.902344 118.480469 294.246094 118.480469 C 293.140625 118.480469 291.589844 119.035156 291.257812 117.042969 Z M 291.257812 117.042969 " fill-opacity="1" fill-rule="nonzero"></path><path fill="#000101" d="M 238.714844 56.433594 C 239.378906 56.101562 239.488281 55.4375 239.378906 54.773438 C 239.601562 54.773438 239.820312 54.660156 239.933594 54.773438 C 241.039062 55.105469 242.035156 55.546875 242.253906 56.765625 C 242.367188 56.988281 241.921875 57.542969 241.703125 57.652344 C 240.375 57.984375 239.378906 57.765625 238.714844 56.433594 Z M 238.714844 56.433594 " fill-opacity="1" fill-rule="nonzero"></path><path fill="#000101" d="M 324.554688 161.691406 C 321.789062 161.140625 319.132812 160.695312 316.367188 160.140625 C 319.464844 159.144531 322.230469 159.144531 324.554688 161.691406 Z M 324.554688 161.691406 " fill-opacity="1" fill-rule="nonzero"></path><path fill="#000101" d="M 52.328125 158.035156 C 54.980469 158.371094 57.636719 158.480469 59.847656 160.253906 C 57.304688 159.699219 54.539062 159.808594 52.328125 158.035156 Z M 52.328125 158.035156 " fill-opacity="1" fill-rule="nonzero"></path><path fill="#000101" d="M 318.800781 137.980469 C 318.800781 137.207031 318.914062 136.429688 319.574219 135.878906 C 320.238281 137.429688 320.902344 139.089844 321.457031 140.640625 C 321.015625 141.085938 320.570312 141.527344 320.128906 141.972656 C 318.691406 140.972656 318.800781 139.421875 318.800781 137.980469 Z M 318.800781 137.980469 " fill-opacity="1" fill-rule="nonzero"></path><path fill="#000101" d="M 319.6875 216.648438 C 320.570312 216.539062 321.347656 216.761719 321.679688 217.535156 C 322.121094 218.753906 320.792969 218.644531 320.351562 219.199219 C 319.246094 220.304688 318.027344 220.96875 316.367188 220.96875 C 317.140625 220.417969 318.027344 219.972656 318.800781 219.53125 C 320.128906 218.753906 320.460938 217.867188 319.6875 216.648438 Z M 319.6875 216.648438 " fill-opacity="1" fill-rule="nonzero"></path><path fill="#000101" d="M 111.617188 87.015625 C 112.058594 84.910156 110.179688 82.472656 112.613281 80.589844 C 111.949219 81.695312 112.171875 82.914062 112.5 84.023438 C 112.722656 85.242188 112.832031 86.238281 111.617188 87.015625 Z M 111.617188 87.015625 " fill-opacity="1" fill-rule="nonzero"></path><path fill="#000101" d="M 271.457031 89.453125 C 271.015625 90.78125 268.359375 89.675781 268.582031 91.890625 C 267.808594 91.667969 266.703125 91.445312 267.917969 90.449219 C 268.914062 89.675781 270.128906 88.789062 271.457031 89.453125 Z M 271.457031 89.453125 " fill-opacity="1" fill-rule="nonzero"></path><path fill="#000101" d="M 59.847656 218.644531 C 61.507812 217.203125 63.5 217.3125 65.488281 217.425781 C 63.71875 218.53125 61.839844 218.867188 59.847656 218.644531 Z M 59.847656 218.644531 " fill-opacity="1" fill-rule="nonzero"></path><path fill="#000101" d="M 328.425781 175.984375 C 327.761719 174.214844 327.761719 172.328125 328.425781 170.558594 C 329.089844 172.441406 329.089844 174.214844 328.425781 175.984375 Z M 328.425781 175.984375 " fill-opacity="1" fill-rule="nonzero"></path><path fill="#000101" d="M 310.285156 211.773438 C 310.0625 213.65625 311.945312 213.65625 312.71875 214.765625 C 311.058594 214.542969 308.734375 214.765625 310.285156 211.773438 Z M 310.285156 211.773438 " fill-opacity="1" fill-rule="nonzero"></path><path fill="#000101" d="M 304.976562 137.316406 C 304.3125 138.535156 303.867188 139.867188 304.3125 141.304688 C 302.210938 139.3125 302.210938 138.867188 304.976562 137.316406 Z M 304.976562 137.316406 " fill-opacity="1" fill-rule="nonzero"></path><path fill="#000101" d="M 55.644531 211.21875 C 57.195312 211.21875 56.640625 209.78125 57.195312 209.003906 C 57.746094 209.890625 58.300781 210.777344 58.1875 211.886719 C 56.972656 211.664062 56.863281 212.660156 56.53125 213.4375 C 55.644531 212.992188 55.535156 212.21875 55.644531 211.21875 Z M 55.644531 211.21875 " fill-opacity="1" fill-rule="nonzero"></path><path fill="#000101" d="M 282.851562 106.070312 C 283.957031 105.960938 284.066406 104.742188 284.84375 104.410156 C 285.285156 105.296875 285.285156 106.183594 284.398438 106.738281 C 283.847656 106.957031 282.960938 107.179688 282.851562 106.070312 Z M 282.851562 106.070312 " fill-opacity="1" fill-rule="nonzero"></path><path fill="#000101" d="M 315.925781 164.019531 C 317.253906 161.914062 318.800781 161.691406 320.792969 163.132812 C 319.132812 163.246094 317.363281 163.132812 315.925781 164.019531 Z M 315.925781 164.019531 " fill-opacity="1" fill-rule="nonzero"></path><path fill="#000101" d="M 268.914062 92 C 270.351562 92 271.789062 91.890625 273.226562 91.890625 C 271.898438 91.890625 270.460938 94.328125 268.914062 92 Z M 268.914062 92 " fill-opacity="1" fill-rule="nonzero"></path><path fill="#000101" d="M 308.847656 153.9375 C 309.179688 155.046875 308.847656 156.484375 310.503906 156.707031 C 310.171875 157.703125 309.289062 158.257812 308.957031 157.039062 C 308.847656 156.152344 306.191406 155.046875 308.847656 153.9375 Z M 308.847656 153.9375 " fill-opacity="1" fill-rule="nonzero"></path><path fill="#000101" d="M 180.308594 320.246094 C 179.976562 319.027344 179.757812 317.917969 179.425781 316.699219 C 180.640625 317.917969 181.414062 319.46875 181.746094 321.132812 C 181.304688 320.910156 180.863281 320.578125 180.308594 320.246094 Z M 180.308594 320.246094 " fill-opacity="1" fill-rule="nonzero"></path><path fill="#000101" d="M 318.25 242.242188 C 318.136719 241.246094 317.363281 241.136719 316.589844 241.023438 C 316.699219 239.253906 317.917969 239.695312 318.691406 240.136719 C 319.796875 241.023438 319.023438 241.691406 318.25 242.242188 Z M 318.25 242.242188 " fill-opacity="1" fill-rule="nonzero"></path><path fill="#000101" d="M 62.945312 214.875 C 61.507812 215.652344 60.179688 217.3125 58.632812 215.097656 C 60.070312 215.652344 61.398438 214.324219 62.945312 214.875 Z M 62.945312 214.875 " fill-opacity="1" fill-rule="nonzero"></path><path fill="#000101" d="M 326.542969 205.015625 C 326.875 205.792969 326.542969 207.121094 328.09375 207.121094 C 327.761719 208.339844 326.988281 208.117188 326.433594 207.5625 C 325.4375 206.675781 325.882812 205.792969 326.542969 205.015625 Z M 326.542969 205.015625 " fill-opacity="1" fill-rule="nonzero"></path><path fill="#000101" d="M 53.765625 219.972656 C 54.871094 218.53125 56.308594 218.421875 57.855469 218.976562 C 56.53125 219.417969 55.203125 220.304688 53.765625 219.972656 Z M 53.765625 219.972656 " fill-opacity="1" fill-rule="nonzero"></path><path fill="#000101" d="M 282.410156 102.304688 C 282.410156 103.414062 282.519531 104.519531 282.519531 105.628906 C 280.859375 104.519531 281.191406 103.523438 282.410156 102.304688 Z M 282.410156 102.304688 " fill-opacity="1" fill-rule="nonzero"></path><path fill="#000101" d="M 211.171875 58.984375 C 212.832031 58.648438 214.492188 58.207031 215.265625 60.3125 C 213.9375 59.867188 212.609375 59.425781 211.171875 58.984375 Z M 211.171875 58.984375 " fill-opacity="1" fill-rule="nonzero"></path><path fill="#000101" d="M 191.148438 60.535156 C 192.144531 60.976562 193.25 61.199219 194.46875 61.085938 C 193.25 62.085938 191.925781 62.972656 191.148438 60.535156 Z M 191.148438 60.535156 " fill-opacity="1" fill-rule="nonzero"></path><path fill="#000101" d="M 254.644531 67.515625 C 254.089844 68.84375 253.09375 69.839844 251.878906 70.394531 C 252.101562 68.84375 253.207031 67.957031 254.644531 67.515625 Z M 254.644531 67.515625 " fill-opacity="1" fill-rule="nonzero"></path><path fill="#000101" d="M 126.550781 59.980469 C 127.765625 60.089844 129.09375 60.203125 128.875 61.972656 C 127.988281 61.421875 126.992188 61.085938 125.886719 61.640625 C 126.21875 61.085938 126.328125 60.535156 126.550781 59.980469 Z M 126.550781 59.980469 " fill-opacity="1" fill-rule="nonzero"></path><path fill="#000101" d="M 150.113281 67.515625 C 150.773438 65.964844 151.769531 65.628906 153.207031 66.628906 C 152.324219 67.183594 151.4375 67.847656 150.113281 67.515625 Z M 150.113281 67.515625 " fill-opacity="1" fill-rule="nonzero"></path><path fill="#000101" d="M 276.4375 88.011719 C 275.550781 89.121094 274.554688 89.339844 273.226562 89.007812 C 274.222656 88.566406 275.109375 87.679688 276.4375 88.011719 Z M 276.4375 88.011719 " fill-opacity="1" fill-rule="nonzero"></path><path fill="#000101" d="M 126.550781 59.980469 C 126.328125 60.535156 126.109375 61.085938 125.886719 61.640625 C 125.332031 61.753906 124.667969 61.863281 124.117188 61.863281 C 123.894531 59.757812 125.222656 59.980469 126.550781 59.980469 Z M 126.550781 59.980469 " fill-opacity="1" fill-rule="nonzero"></path><path fill="#000101" d="M 65.269531 248.117188 C 64.9375 248.890625 64.273438 249.335938 63.71875 248.671875 C 62.945312 247.894531 63.386719 247.007812 64.382812 246.566406 C 64.714844 247.117188 64.9375 247.5625 65.269531 248.117188 Z M 65.269531 248.117188 " fill-opacity="1" fill-rule="nonzero"></path><path fill="#000101" d="M 90.15625 274.265625 C 90.601562 273.046875 91.261719 272.046875 92.703125 272.160156 C 92.039062 273.046875 91.261719 273.933594 90.15625 274.265625 Z M 90.15625 274.265625 " fill-opacity="1" fill-rule="nonzero"></path><path fill="#000101" d="M 217.253906 65.296875 C 218.363281 64.632812 219.359375 65.628906 220.351562 65.410156 C 219.246094 67.847656 218.25 65.078125 217.253906 65.296875 Z M 217.253906 65.296875 " fill-opacity="1" fill-rule="nonzero"></path><path fill="#000101" d="M 305.527344 141.304688 C 305.96875 140.085938 306.632812 139.3125 307.960938 140.199219 C 307.1875 140.640625 306.632812 141.636719 305.527344 141.304688 Z M 305.527344 141.304688 " fill-opacity="1" fill-rule="nonzero"></path><path fill="#000101" d="M 287.164062 86.238281 C 286.28125 86.238281 285.394531 86.238281 284.621094 86.238281 C 285.394531 85.019531 286.28125 85.019531 287.164062 86.238281 Z M 287.164062 86.238281 " fill-opacity="1" fill-rule="nonzero"></path><path fill="#000101" d="M 108.960938 84.796875 C 110.066406 85.683594 109.40625 86.792969 109.625 87.902344 C 107.855469 87.238281 108.851562 85.90625 108.960938 84.796875 Z M 108.960938 84.796875 " fill-opacity="1" fill-rule="nonzero"></path><path fill="#000101" d="M 313.933594 214.988281 C 314.929688 214.765625 315.925781 214.765625 316.480469 215.875 C 315.261719 216.316406 314.707031 215.429688 313.933594 214.988281 Z M 313.933594 214.988281 " fill-opacity="1" fill-rule="nonzero"></path><path fill="#000101" d="M 217.917969 58.207031 C 216.925781 57.652344 216.261719 56.988281 216.8125 55.769531 C 217.476562 56.546875 218.140625 57.210938 217.917969 58.207031 Z M 217.917969 58.207031 " fill-opacity="1" fill-rule="nonzero"></path><path fill="#000101" d="M 66.042969 156.152344 C 66.042969 155.488281 65.933594 154.824219 65.933594 154.160156 C 66.375 153.9375 66.707031 153.714844 67.148438 153.605469 C 67.480469 154.710938 66.929688 155.488281 66.042969 156.152344 Z M 66.042969 156.152344 " fill-opacity="1" fill-rule="nonzero"></path><path fill="#000101" d="M 310.394531 245.898438 C 309.289062 245.679688 307.960938 245.679688 307.296875 244.460938 C 308.402344 244.679688 309.621094 244.792969 310.394531 245.898438 Z M 310.394531 245.898438 " fill-opacity="1" fill-rule="nonzero"></path><path fill="#000101" d="M 136.394531 70.285156 C 135.066406 69.621094 134.625 68.511719 134.625 67.070312 C 135.953125 67.734375 135.730469 69.175781 136.394531 70.285156 Z M 136.394531 70.285156 " fill-opacity="1" fill-rule="nonzero"></path><path fill="#000101" d="M 280.640625 86.792969 C 279.976562 87.789062 279.089844 88.121094 277.984375 87.789062 C 278.871094 87.238281 279.421875 86.351562 280.640625 86.792969 Z M 280.640625 86.792969 " fill-opacity="1" fill-rule="nonzero"></path><path fill="#000101" d="M 79.871094 278.144531 C 79.757812 279.140625 80.203125 279.914062 80.535156 280.800781 C 79.09375 280.136719 78.433594 279.363281 79.871094 278.144531 Z M 79.871094 278.144531 " fill-opacity="1" fill-rule="nonzero"></path><path fill="#000101" d="M 64.164062 161.582031 C 64.496094 160.472656 64.273438 158.921875 65.820312 158.371094 C 65.488281 159.589844 65.269531 160.808594 64.164062 161.582031 Z M 64.164062 161.582031 " fill-opacity="1" fill-rule="nonzero"></path><path fill="#000101" d="M 231.523438 52.222656 C 230.417969 52.777344 229.644531 52.335938 228.980469 51.335938 C 229.976562 51.226562 230.75 51.890625 231.523438 52.222656 Z M 231.523438 52.222656 " fill-opacity="1" fill-rule="nonzero"></path><path fill="#000101" d="M 148.011719 55.214844 C 146.792969 54.21875 146.570312 53.222656 148.339844 52.667969 C 147.679688 53.441406 148.230469 54.441406 148.011719 55.214844 Z M 148.011719 55.214844 " fill-opacity="1" fill-rule="nonzero"></path><path fill="#000101" d="M 207.964844 57.097656 C 207.964844 57.652344 207.851562 58.097656 207.851562 58.648438 C 207.300781 58.871094 206.859375 58.871094 206.636719 58.207031 C 206.636719 57.542969 206.746094 56.878906 206.746094 56.101562 C 207.410156 56.324219 207.964844 56.433594 207.964844 57.097656 Z M 207.964844 57.097656 " fill-opacity="1" fill-rule="nonzero"></path><path fill="#000101" d="M 268.804688 73.277344 C 270.019531 73.71875 270.460938 74.496094 270.019531 75.714844 C 269.578125 74.9375 269.136719 74.164062 268.804688 73.277344 Z M 268.804688 73.277344 " fill-opacity="1" fill-rule="nonzero"></path><path fill="#000101" d="M 49.007812 154.824219 C 49.671875 155.597656 49.449219 156.484375 49.339844 157.371094 C 48.34375 156.597656 48.453125 155.710938 49.007812 154.824219 Z M 49.007812 154.824219 " fill-opacity="1" fill-rule="nonzero"></path><path fill="#000101" d="M 314.15625 246.453125 C 314.15625 247.007812 314.046875 247.5625 313.492188 247.5625 C 312.828125 247.5625 312.496094 247.117188 312.273438 246.453125 C 312.828125 246.453125 313.492188 246.453125 314.15625 246.453125 Z M 314.15625 246.453125 " fill-opacity="1" fill-rule="nonzero"></path><path fill="#000101" d="M 282.296875 98.09375 C 283.515625 98.757812 283.515625 99.644531 282.628906 100.644531 C 282.628906 99.867188 282.410156 98.980469 282.296875 98.09375 Z M 282.296875 98.09375 " fill-opacity="1" fill-rule="nonzero"></path><path fill="#000101" d="M 321.898438 163.246094 C 322.785156 162.359375 323.335938 163.355469 324 163.578125 C 324 164.019531 324.109375 164.351562 324.109375 164.796875 C 323.335938 164.351562 322.453125 164.128906 321.898438 163.246094 Z M 321.898438 163.246094 " fill-opacity="1" fill-rule="nonzero"></path><path fill="#000101" d="M 131.636719 68.402344 C 132.523438 68.734375 133.519531 68.953125 132.632812 70.285156 C 132.082031 69.839844 131.417969 69.398438 131.636719 68.402344 Z M 131.636719 68.402344 " fill-opacity="1" fill-rule="nonzero"></path><path fill="#000101" d="M 57.414062 179.089844 C 56.53125 178.089844 56.308594 177.203125 57.855469 176.652344 C 57.855469 177.425781 58.632812 178.421875 57.414062 179.089844 Z M 57.414062 179.089844 " fill-opacity="1" fill-rule="nonzero"></path><path fill="#000101" d="M 322.339844 193.269531 C 323.226562 191.941406 324.109375 192.164062 324.996094 193.269531 C 324.109375 193.601562 323.226562 193.492188 322.339844 193.269531 Z M 322.339844 193.269531 " fill-opacity="1" fill-rule="nonzero"></path><path fill="#000101" d="M 61.398438 160.472656 C 62.503906 160.03125 63.054688 160.695312 63.609375 161.582031 C 62.503906 161.914062 61.839844 161.25 61.398438 160.472656 Z M 61.398438 160.472656 " fill-opacity="1" fill-rule="nonzero"></path><path fill="#000101" d="M 84.625 278.476562 C 84.847656 277.367188 85.511719 276.8125 86.617188 276.925781 C 86.285156 277.808594 85.621094 278.363281 84.625 278.476562 Z M 84.625 278.476562 " fill-opacity="1" fill-rule="nonzero"></path><path fill="#000101" d="M 132.964844 71.503906 C 133.960938 71.835938 134.625 72.5 134.292969 73.71875 C 133.628906 73.054688 132.746094 72.609375 132.964844 71.503906 Z M 132.964844 71.503906 " fill-opacity="1" fill-rule="nonzero"></path><path fill="#000101" d="M 129.203125 63.636719 C 130.421875 63.96875 130.863281 64.632812 130.421875 65.851562 C 129.980469 65.078125 129.648438 64.300781 129.203125 63.636719 Z M 129.203125 63.636719 " fill-opacity="1" fill-rule="nonzero"></path><path fill="#000101" d="M 311.722656 118.925781 C 310.949219 118.480469 310.285156 117.925781 310.617188 116.820312 C 311.167969 117.484375 312.054688 117.816406 311.722656 118.925781 Z M 311.722656 118.925781 " fill-opacity="1" fill-rule="nonzero"></path><path fill="#000101" d="M 311.058594 152.828125 C 310.726562 153.828125 309.953125 154.269531 308.957031 153.9375 C 309.511719 153.273438 310.0625 152.609375 311.058594 152.828125 Z M 311.058594 152.828125 " fill-opacity="1" fill-rule="nonzero"></path><path fill="#000101" d="M 178.429688 319.914062 C 178.871094 320.246094 179.3125 320.46875 179.644531 320.800781 C 179.644531 321.242188 179.644531 321.6875 179.644531 322.128906 C 178.984375 321.574219 178.097656 321.132812 178.429688 319.914062 Z M 178.429688 319.914062 " fill-opacity="1" fill-rule="nonzero"></path><path fill="#000101" d="M 313.160156 252.546875 C 312.496094 251.328125 313.382812 250.996094 314.15625 250.664062 C 314.378906 251.550781 313.714844 251.996094 313.160156 252.546875 Z M 313.160156 252.546875 " fill-opacity="1" fill-rule="nonzero"></path><path fill="#000101" d="M 149.667969 60.089844 C 149.78125 58.539062 150.773438 58.761719 151.769531 59.09375 C 151.105469 59.316406 150.332031 59.757812 149.667969 60.089844 Z M 149.667969 60.089844 " fill-opacity="1" fill-rule="nonzero"></path><path fill="#000101" d="M 317.03125 244.679688 C 316.921875 243.796875 316.8125 242.910156 318.027344 242.796875 C 318.25 243.683594 317.804688 244.347656 317.03125 244.679688 Z M 317.03125 244.679688 " fill-opacity="1" fill-rule="nonzero"></path><path fill="#000101" d="M 215.375 60.535156 C 216.480469 60.753906 216.480469 61.640625 216.371094 62.527344 C 215.597656 61.972656 215.152344 61.421875 215.375 60.535156 Z M 215.375 60.535156 " fill-opacity="1" fill-rule="nonzero"></path><path fill="#000101" d="M 272.785156 78.703125 C 272.785156 78.152344 272.894531 77.484375 272.894531 76.933594 C 273.558594 77.597656 274.003906 78.261719 272.785156 78.703125 Z M 272.785156 78.703125 " fill-opacity="1" fill-rule="nonzero"></path><path fill="#000101" d="M 313.933594 211.996094 C 313.269531 212.105469 312.605469 212.21875 312.273438 211.441406 C 313.050781 210.777344 313.492188 211.441406 313.933594 211.996094 Z M 313.933594 211.996094 " fill-opacity="1" fill-rule="nonzero"></path><path fill="#000101" d="M 313.160156 138.757812 C 312.828125 137.316406 313.382812 136.984375 314.597656 137.761719 C 314.15625 138.09375 313.714844 138.425781 313.160156 138.757812 Z M 313.160156 138.757812 " fill-opacity="1" fill-rule="nonzero"></path><path fill="#000101" d="M 47.679688 203.90625 C 47.792969 204.792969 47.902344 205.570312 46.90625 205.902344 C 46.574219 205.015625 46.683594 204.238281 47.679688 203.90625 Z M 47.679688 203.90625 " fill-opacity="1" fill-rule="nonzero"></path><path fill="#000101" d="M 232.078125 59.425781 C 231.96875 58.761719 232.1875 58.316406 232.851562 58.097656 C 233.183594 58.871094 232.519531 59.09375 232.078125 59.425781 Z M 232.078125 59.425781 " fill-opacity="1" fill-rule="nonzero"></path><path fill="#000101" d="M 49.339844 157.371094 C 49.894531 157.261719 50.335938 157.371094 50.667969 157.816406 C 50.226562 158.035156 49.671875 158.257812 49.339844 157.371094 Z M 49.339844 157.371094 " fill-opacity="1" fill-rule="nonzero"></path><path fill="#000101" d="M 279.863281 95.769531 C 280.417969 95.769531 280.75 96.101562 280.75 96.652344 C 280.085938 96.765625 279.976562 96.320312 279.863281 95.769531 Z M 279.863281 95.769531 " fill-opacity="1" fill-rule="nonzero"></path><path fill="#000101" d="M 315.816406 247.117188 C 315.703125 246.34375 315.925781 245.789062 316.8125 245.789062 C 317.03125 246.675781 316.589844 247.007812 315.816406 247.117188 Z M 315.816406 247.117188 " fill-opacity="1" fill-rule="nonzero"></path><path fill="#000101" d="M 324.664062 162.910156 C 324.664062 162.578125 324.664062 162.136719 324.664062 161.804688 C 325.328125 161.914062 325.769531 162.359375 325.769531 163.132812 C 325.4375 163.023438 325.105469 163.023438 324.664062 162.910156 Z M 324.664062 162.910156 " fill-opacity="1" fill-rule="nonzero"></path><path fill="#000101" d="M 314.597656 249.554688 C 314.488281 248.890625 314.820312 248.449219 315.371094 248.226562 C 315.703125 249.003906 315.261719 249.335938 314.597656 249.554688 Z M 314.597656 249.554688 " fill-opacity="1" fill-rule="nonzero"></path><path fill="#000101" d="M 314.046875 163.910156 C 314.597656 164.019531 315.039062 164.128906 315.59375 164.242188 C 315.261719 164.683594 314.820312 165.128906 314.488281 165.570312 C 314.378906 165.460938 314.15625 165.347656 314.046875 165.238281 C 314.046875 164.683594 314.046875 164.351562 314.046875 163.910156 Z M 314.046875 163.910156 " fill-opacity="1" fill-rule="nonzero"></path><path fill="#000101" d="M 270.128906 76.933594 C 270.90625 77.152344 271.015625 77.707031 270.90625 78.371094 C 270.351562 78.039062 269.6875 77.820312 270.128906 76.933594 Z M 270.128906 76.933594 " fill-opacity="1" fill-rule="nonzero"></path><path fill="#000101" d="M 254.203125 77.707031 C 253.316406 77.484375 253.316406 76.820312 253.648438 76.046875 C 254.089844 76.488281 254.203125 77.042969 254.203125 77.707031 Z M 254.203125 77.707031 " fill-opacity="1" fill-rule="nonzero"></path><path fill="#000101" d="M 250.660156 76.378906 C 251.324219 76.601562 251.546875 77.152344 251.4375 77.820312 C 250.660156 77.597656 250.441406 77.042969 250.660156 76.378906 Z M 250.660156 76.378906 " fill-opacity="1" fill-rule="nonzero"></path><path fill="#000101" d="M 272.34375 74.714844 C 271.789062 74.605469 271.457031 74.164062 271.457031 73.609375 C 272.011719 73.71875 272.5625 73.828125 272.34375 74.714844 Z M 272.34375 74.714844 " fill-opacity="1" fill-rule="nonzero"></path><path fill="#000101" d="M 316.367188 137.539062 C 316.8125 136.542969 317.253906 136.429688 317.695312 137.429688 C 317.253906 137.429688 316.8125 137.539062 316.367188 137.539062 Z M 316.367188 137.539062 " fill-opacity="1" fill-rule="nonzero"></path><path fill="#000101" d="M 87.171875 272.160156 C 87.171875 272.933594 86.726562 273.378906 85.84375 273.265625 C 86.066406 272.601562 86.617188 272.269531 87.171875 272.160156 Z M 87.171875 272.160156 " fill-opacity="1" fill-rule="nonzero"></path><path fill="#000101" d="M 84.847656 274.152344 C 84.625 274.820312 84.292969 275.039062 83.632812 275.039062 C 83.632812 274.265625 84.183594 274.152344 84.847656 274.152344 Z M 84.847656 274.152344 " fill-opacity="1" fill-rule="nonzero"></path><path fill="#000101" d="M 281.082031 96.875 C 281.632812 96.875 281.964844 97.097656 282.078125 97.761719 C 281.414062 97.875 281.082031 97.539062 281.082031 96.875 Z M 281.082031 96.875 " fill-opacity="1" fill-rule="nonzero"></path><path fill="#000101" d="M 253.648438 74.828125 C 253.316406 74.050781 253.425781 73.496094 254.3125 73.277344 C 254.421875 73.941406 254.089844 74.496094 253.648438 74.828125 Z M 253.648438 74.828125 " fill-opacity="1" fill-rule="nonzero"></path><path fill="#000101" d="M 277.429688 93.332031 C 277.984375 93.332031 278.316406 93.664062 278.316406 94.214844 C 277.761719 94.214844 277.429688 93.882812 277.429688 93.332031 Z M 277.429688 93.332031 " fill-opacity="1" fill-rule="nonzero"></path><path fill="#000101" d="M 219.027344 61.308594 C 218.25 61.085938 218.03125 60.644531 218.25 59.867188 C 218.804688 60.203125 219.136719 60.644531 219.027344 61.308594 Z M 219.027344 61.308594 " fill-opacity="1" fill-rule="nonzero"></path><path fill="#000101" d="M 92.039062 279.582031 C 92.039062 280.027344 91.925781 280.359375 91.375 280.46875 C 90.710938 279.582031 91.484375 279.582031 92.039062 279.582031 Z M 92.039062 279.582031 " fill-opacity="1" fill-rule="nonzero"></path><path fill="#000101" d="M 53.652344 201.582031 C 53.101562 201.582031 52.660156 201.582031 52.546875 200.804688 C 53.433594 200.363281 53.210938 201.46875 53.652344 201.582031 Z M 53.652344 201.582031 " fill-opacity="1" fill-rule="nonzero"></path><path fill="#000101" d="M 251.546875 70.949219 C 251.65625 71.613281 251.324219 72.058594 250.773438 72.277344 C 250.441406 71.503906 250.773438 71.058594 251.546875 70.949219 Z M 251.546875 70.949219 " fill-opacity="1" fill-rule="nonzero"></path><path fill="#000101" d="M 108.960938 286.339844 C 108.851562 286.785156 108.628906 287.339844 108.519531 287.78125 C 108.078125 287.449219 107.746094 287.117188 107.855469 286.5625 C 108.1875 286.5625 108.628906 286.453125 108.960938 286.453125 C 108.851562 286.453125 108.960938 286.339844 108.960938 286.339844 Z M 108.960938 286.339844 " fill-opacity="1" fill-rule="nonzero"></path><path fill="#000101" d="M 265.375 70.394531 C 266.148438 70.171875 266.589844 70.617188 266.703125 71.390625 C 266.039062 71.390625 265.707031 70.949219 265.375 70.394531 Z M 265.375 70.394531 " fill-opacity="1" fill-rule="nonzero"></path><path fill="#000101" d="M 276.214844 92.113281 C 276.765625 92.113281 277.097656 92.445312 277.097656 92.996094 C 276.546875 92.996094 276.214844 92.664062 276.214844 92.113281 Z M 276.214844 92.113281 " fill-opacity="1" fill-rule="nonzero"></path><path fill="#000101" d="M 265.484375 68.511719 C 264.710938 68.621094 264.378906 68.289062 264.15625 67.625 C 264.929688 67.402344 265.261719 67.957031 265.484375 68.511719 Z M 265.484375 68.511719 " fill-opacity="1" fill-rule="nonzero"></path><path fill="#000101" d="M 56.640625 205.902344 C 55.644531 205.792969 55.535156 205.125 55.753906 204.351562 C 56.417969 204.683594 56.75 205.125 56.640625 205.902344 Z M 56.640625 205.902344 " fill-opacity="1" fill-rule="nonzero"></path><path fill="#000101" d="M 288.824219 88.011719 C 288.160156 87.902344 287.828125 87.570312 287.941406 86.902344 C 288.492188 87.015625 288.933594 87.347656 288.824219 88.011719 Z M 288.824219 88.011719 " fill-opacity="1" fill-rule="nonzero"></path><path fill="#000101" d="M 148.453125 308.832031 C 148.121094 309.609375 147.566406 309.71875 146.902344 309.5 C 147.234375 308.613281 147.679688 308.5 148.453125 308.832031 Z M 148.453125 308.832031 " fill-opacity="1" fill-rule="nonzero"></path><path fill="#000101" d="M 134.183594 65.519531 C 133.410156 65.410156 133.1875 64.964844 133.296875 64.191406 C 133.851562 64.523438 134.402344 64.746094 134.183594 65.519531 Z M 134.183594 65.519531 " fill-opacity="1" fill-rule="nonzero"></path><path fill="#000101" d="M 150.773438 64.855469 C 149.78125 64.746094 149.558594 64.191406 149.78125 63.304688 C 150.664062 63.527344 150.773438 64.191406 150.773438 64.855469 Z M 150.773438 64.855469 " fill-opacity="1" fill-rule="nonzero"></path><path fill="#000101" d="M 213.9375 48.457031 C 213.273438 48.457031 212.71875 48.234375 212.609375 47.570312 C 213.382812 47.347656 213.9375 47.570312 213.9375 48.457031 Z M 213.9375 48.457031 " fill-opacity="1" fill-rule="nonzero"></path><path fill="#000101" d="M 258.074219 84.464844 C 258.847656 84.246094 259.402344 84.578125 259.511719 85.351562 C 258.738281 85.464844 258.40625 85.019531 258.074219 84.464844 Z M 258.074219 84.464844 " fill-opacity="1" fill-rule="nonzero"></path><path fill="#000101" d="M 234.070312 53.222656 C 233.40625 53.441406 232.851562 53.222656 232.632812 52.445312 C 233.40625 52.222656 233.847656 52.554688 234.070312 53.222656 Z M 234.070312 53.222656 " fill-opacity="1" fill-rule="nonzero"></path><path fill="#000101" d="M 235.066406 55.214844 C 235.730469 54.992188 236.28125 55.105469 236.503906 55.992188 C 235.839844 56.101562 235.398438 55.769531 235.066406 55.214844 Z M 235.066406 55.214844 " fill-opacity="1" fill-rule="nonzero"></path><path fill="#000101" d="M 252.320312 79.371094 C 253.207031 79.480469 253.425781 79.921875 253.316406 80.699219 C 252.761719 80.476562 252.433594 80.035156 252.320312 79.371094 Z M 252.320312 79.371094 " fill-opacity="1" fill-rule="nonzero"></path><path fill="#000101" d="M 305.304688 243.574219 C 304.644531 243.683594 304.3125 243.351562 304.199219 242.796875 C 304.976562 242.464844 305.195312 242.910156 305.304688 243.574219 Z M 305.304688 243.574219 " fill-opacity="1" fill-rule="nonzero"></path><path fill="#000101" d="M 316.367188 242.132812 C 316.589844 242.910156 316.367188 243.351562 315.484375 243.460938 C 315.371094 242.796875 315.816406 242.464844 316.367188 242.132812 Z M 316.367188 242.132812 " fill-opacity="1" fill-rule="nonzero"></path><path fill="#000101" d="M 183.847656 324.347656 C 182.964844 324.234375 182.964844 323.679688 183.074219 323.015625 C 183.738281 323.238281 184.179688 323.570312 183.847656 324.347656 Z M 183.847656 324.347656 " fill-opacity="1" fill-rule="nonzero"></path><path fill="#000101" d="M 186.171875 326.449219 C 186.0625 326.894531 185.839844 327.226562 185.398438 327.003906 C 184.957031 326.894531 184.84375 326.449219 184.957031 326.007812 C 185.289062 326.230469 185.730469 326.339844 186.171875 326.449219 Z M 186.171875 326.449219 " fill-opacity="1" fill-rule="nonzero"></path><path fill="#000101" d="M 108.851562 286.453125 C 108.519531 286.453125 108.078125 286.5625 107.746094 286.5625 C 107.632812 286.339844 107.523438 286.007812 107.304688 285.789062 C 107.746094 285.34375 108.078125 284.902344 108.519531 284.457031 C 109.40625 285.011719 109.40625 285.675781 108.851562 286.453125 Z M 108.851562 286.453125 " fill-opacity="1" fill-rule="nonzero"></path><path fill="#000101" d="M 216.480469 64.191406 C 216.59375 64.523438 216.703125 64.746094 216.8125 65.078125 C 216.371094 64.964844 216.261719 64.632812 216.480469 64.191406 Z M 216.480469 64.191406 " fill-opacity="1" fill-rule="nonzero"></path><path fill="#000101" d="M 216.8125 54.550781 C 216.703125 54.21875 216.59375 53.996094 216.59375 53.664062 C 216.8125 53.886719 216.925781 54.21875 216.8125 54.550781 Z M 216.8125 54.550781 " fill-opacity="1" fill-rule="nonzero"></path><path fill="#000101" d="M 55.753906 176.652344 C 55.535156 175.984375 55.3125 175.210938 56.199219 174.765625 C 57.527344 175.765625 56.417969 176.207031 55.753906 176.652344 Z M 55.753906 176.652344 " fill-opacity="1" fill-rule="nonzero"></path><path fill="#000101" d="M 308.183594 119.589844 C 308.070312 119.144531 308.070312 118.703125 307.960938 118.371094 C 308.515625 118.261719 308.957031 118.371094 308.957031 119.035156 C 308.847656 119.367188 308.515625 119.589844 308.183594 119.589844 Z M 308.183594 119.589844 " fill-opacity="1" fill-rule="nonzero"></path><path fill="#000101" d="M 63.5 143.191406 C 62.28125 142.746094 60.953125 142.855469 60.070312 141.75 C 61.507812 141.527344 62.835938 141.636719 63.5 143.191406 Z M 63.5 143.191406 " fill-opacity="1" fill-rule="nonzero"></path><path fill="#000101" d="M 64.605469 154.710938 C 64.496094 153.9375 64.824219 153.382812 65.488281 152.941406 C 66.042969 153.160156 65.933594 153.714844 66.042969 154.160156 C 65.488281 154.378906 65.046875 154.492188 64.605469 154.710938 Z M 64.605469 154.710938 " fill-opacity="1" fill-rule="nonzero"></path><path fill="#000101" d="M 58.410156 141.75 C 58.078125 142.414062 57.527344 142.636719 56.75 142.523438 C 56.972656 141.527344 57.636719 141.417969 58.410156 141.75 Z M 58.410156 141.75 " fill-opacity="1" fill-rule="nonzero"></path><path fill="#000101" d="M 52.546875 216.648438 C 52.878906 216.09375 53.320312 215.984375 53.875 216.316406 C 53.652344 217.203125 53.210938 217.535156 52.546875 216.648438 Z M 52.546875 216.648438 " fill-opacity="1" fill-rule="nonzero"></path><path fill="#000101" d="M 58.742188 156.484375 C 59.847656 156.375 60.734375 156.816406 61.507812 157.371094 C 60.402344 157.703125 59.074219 158.480469 58.742188 156.484375 Z M 58.742188 156.484375 " fill-opacity="1" fill-rule="nonzero"></path><path fill="#000101" d="M 54.316406 155.046875 C 55.09375 154.824219 55.644531 155.046875 55.867188 155.820312 C 55.09375 156.042969 54.648438 155.820312 54.316406 155.046875 Z M 54.316406 155.046875 " fill-opacity="1" fill-rule="nonzero"></path><path fill="#000101" d="M 314.046875 163.910156 C 314.046875 164.351562 314.046875 164.683594 314.046875 165.128906 C 313.601562 165.015625 313.269531 164.796875 313.382812 164.351562 C 313.492188 164.128906 313.824219 164.019531 314.046875 163.910156 Z M 314.046875 163.910156 " fill-opacity="1" fill-rule="nonzero"></path><path fill="#0096da" d="M 157.632812 226.511719 C 154.867188 215.875 152.546875 205.238281 150.113281 194.488281 C 148.230469 186.070312 146.019531 177.648438 144.46875 169.226562 C 143.03125 161.472656 140.929688 153.714844 139.160156 146.070312 C 138.054688 141.304688 136.726562 136.429688 135.84375 131.667969 C 134.957031 127.125 133.410156 122.804688 132.746094 118.148438 C 132.523438 116.375 132.964844 115.710938 134.402344 115.378906 C 143.363281 112.832031 152.214844 110.0625 161.285156 107.625 C 173.785156 104.300781 186.171875 100.3125 198.671875 97.097656 C 206.082031 95.101562 213.382812 92.886719 220.796875 90.671875 C 221.128906 90.558594 221.570312 90.558594 222.34375 90.449219 C 221.015625 94.992188 219.800781 99.203125 218.582031 103.414062 C 216.480469 110.613281 214.601562 117.925781 212.5 125.128906 C 211.0625 129.894531 209.625 134.546875 208.296875 139.3125 C 205.640625 149.0625 202.765625 158.8125 199.890625 168.5625 C 198.007812 174.765625 196.128906 181.082031 194.246094 187.289062 C 193.914062 188.394531 193.695312 189.394531 194.027344 190.5 C 181.859375 202.578125 170.132812 214.875 157.632812 226.511719 Z M 157.632812 226.511719 " fill-opacity="1" fill-rule="nonzero"></path><path fill="#0096da" d="M 158.738281 233.710938 C 160.839844 230.722656 163.71875 228.503906 166.261719 225.957031 C 174.117188 218.199219 181.96875 210.445312 189.824219 202.6875 C 187.277344 211.441406 184.734375 220.195312 182.191406 228.835938 C 179.757812 236.925781 177.324219 245.015625 174.890625 253.101562 C 172.789062 260.191406 170.90625 267.394531 168.917969 274.707031 C 167.035156 272.046875 167.035156 268.726562 166.261719 265.734375 C 163.828125 255.652344 161.835938 245.566406 159.625 235.484375 C 159.515625 234.820312 159.070312 234.265625 158.738281 233.710938 Z M 158.738281 233.710938 " fill-opacity="1" fill-rule="nonzero"></path><path fill="#0096da" d="M 170.023438 277.589844 C 171.128906 282.574219 172.34375 287.558594 173.453125 292.4375 C 176.992188 291.769531 180.53125 291.21875 184.070312 290.550781 C 179.3125 286.339844 174.667969 282.019531 170.023438 277.589844 Z M 170.023438 277.589844 " fill-opacity="1" fill-rule="nonzero"></path><path fill="#0096da" d="M 210.507812 260.191406 C 213.164062 260.191406 215.929688 260.191406 218.582031 260.082031 C 217.917969 263.738281 217.144531 267.394531 216.480469 271.050781 C 214.492188 267.507812 212.5 263.847656 210.507812 260.191406 Z M 210.507812 260.191406 " fill-opacity="1" fill-rule="nonzero"></path><path fill="#0096da" d="M 221.460938 260.414062 C 224.003906 260.414062 226.65625 260.414062 229.203125 260.414062 C 226.328125 263.847656 223.339844 267.285156 220.464844 270.71875 C 220.796875 267.285156 221.128906 263.847656 221.460938 260.414062 Z M 221.460938 260.414062 " fill-opacity="1" fill-rule="nonzero"></path></svg>