<svg xmlns="http://www.w3.org/2000/svg" xmlns:xlink="http://www.w3.org/1999/xlink" width="768" zoomAndPan="magnify" viewBox="0 0 576 576" height="768" preserveAspectRatio="xMidYMid meet" version="1.0"><path fill="#1a4789" d="M 576 488.40625 C 576 536.75 536.816406 575.929688 488.480469 575.929688 L 87.546875 575.929688 C 39.210938 575.929688 0.0234375 536.75 0.0234375 488.40625 L 0.0234375 87.476562 C 0.0234375 39.136719 39.210938 -0.046875 87.546875 -0.046875 L 488.480469 -0.046875 C 536.816406 -0.046875 576 39.136719 576 87.476562 Z M 576 488.40625 " fill-opacity="1" fill-rule="nonzero"/><path fill="#ffffff" d="M 381.667969 332.695312 L 390.980469 260.476562 L 319.464844 260.476562 L 319.464844 214.367188 C 319.464844 193.457031 325.296875 179.207031 355.273438 179.207031 L 393.488281 179.1875 L 393.488281 114.597656 C 386.890625 113.71875 364.207031 111.75 337.773438 111.75 C 282.628906 111.75 244.902344 145.414062 244.902344 207.222656 L 244.902344 260.476562 L 182.539062 260.476562 L 182.539062 332.695312 L 244.902344 332.695312 L 244.902344 518 L 319.464844 518 L 319.464844 332.695312 Z M 381.667969 332.695312 " fill-opacity="1" fill-rule="nonzero"/></svg>